<svg id="Capa_1" data-name="Capa 1" xmlns="http://www.w3.org/2000/svg" viewBox="0 0 500.78 408.24"><defs><style>.cls-1{fill:#fff;}.cls-2{fill:none;}</style></defs><polygon class="cls-1" points="348.7 342.9 315.8 342.9 315.8 342.21 348.83 342.21 472.27 391.99 348.7 342.9"/><polygon class="cls-1" points="136.61 350.35 136.42 349.83 156.23 342.21 184.63 342.21 184.63 342.9 156.63 342.63 136.61 350.35"/><path class="cls-1" d="M28.51,391.35l78.13-29.79a1.33,1.33,0,0,1,.06-.47Z"/><path class="cls-1" d="M122,355.39l-8.78,3.38h0l-.32.21c0,.11.1.11.1.33l9.65-3.66Z"/><path class="cls-1" d="M311.81,383.74c-3.43,0-7.17-.77-8-2.24H197c-.85,1.47-4.59,2.24-8,2.24-4,0-8.23-1-8.23-2.87V365h.06a.93.93,0,0,1-.06-.34c0-.81.82-1.52,2.37-2.05a12.34,12.34,0,0,1,1.52-.4V199.45L181,195,193,186.53H307.73L319.8,195l-3.66,4.47V362.16a12.34,12.34,0,0,1,1.52.4c1.55.53,2.37,1.24,2.37,2.05a.93.93,0,0,1-.06.34H320v15.92C320,382.74,315.8,383.74,311.81,383.74Zm-115.29-2.93H304.25l.09.23c.34,1,3.29,2,7.47,2s7.54-1.16,7.54-2.19V365.64h-.75l.5-.57a.78.78,0,0,0,.25-.46c0-.47-.71-1-1.91-1.4a12.16,12.16,0,0,0-1.71-.43l-.28-.06V199.21l3.35-4.09-11.29-7.91H193.26L182,195.12l3.35,4.09V362.72l-.28.06a12.52,12.52,0,0,0-1.71.43c-1.19.41-1.9.93-1.9,1.4a.81.81,0,0,0,.24.46l.5.57h-.74v15.23c0,1,3.22,2.19,7.54,2.19,4.17,0,7.12-1.05,7.47-2Z"/><polygon class="cls-1" points="308.88 314.12 190.25 314.12 190.31 313.95 200.12 288.06 200.35 288.15 190.61 313.87 308.51 313.87 298.25 288.15 298.48 288.06 308.88 314.12"/><path class="cls-1" d="M309.54,314.57h-120l.07-.17,10.08-26.62,1.08.41-9.56,25.23H307.84L297.78,288.2l1.07-.43ZM190,314.32H309.17L298.71,288.1l-.6.24,10.1,25.33H190.9l.06-.17,9.54-25.17-.61-.23Z"/><rect class="cls-1" x="181.67" y="212.47" width="12.65" height="7.57"/><path class="cls-1" d="M194.77,220.49H181.22V212h13.55Zm-12.65-.9h11.75v-6.67H182.12Z"/><rect class="cls-1" x="179.13" y="211.2" width="17.72" height="2.53"/><path class="cls-1" d="M197.3,214.19H178.69v-3.44H197.3Zm-17.71-.9H196.4v-1.64H179.59Z"/><rect class="cls-1" x="183.94" y="213.74" width="0.9" height="6.31"/><rect class="cls-1" x="187.06" y="213.74" width="0.9" height="5.65"/><rect class="cls-1" x="190.56" y="213.74" width="0.9" height="6.31"/><path class="cls-1" d="M188.23,364.16a15.08,15.08,0,0,1-5.32-1l.24-.64a14.31,14.31,0,0,0,9.85.09v-42l.69,42.47-.2.09A13.54,13.54,0,0,1,188.23,364.16Z"/><rect class="cls-1" x="306.46" y="212.47" width="12.65" height="7.57"/><path class="cls-1" d="M319.56,220.49H306V212h13.55Zm-12.65-.9h11.75v-6.67H306.91Z"/><rect class="cls-1" x="303.93" y="211.2" width="17.72" height="2.53"/><path class="cls-1" d="M322.09,214.19H303.48v-3.44h18.61Zm-17.71-.9h16.81v-1.64H304.38Z"/><rect class="cls-1" x="308.73" y="213.74" width="0.9" height="6.31"/><rect class="cls-1" x="311.85" y="213.74" width="0.9" height="5.65"/><rect class="cls-1" x="315.35" y="213.74" width="0.9" height="6.31"/><rect class="cls-1" x="181.96" y="194.69" width="136.96" height="0.9"/><polygon class="cls-1" points="305.62 198.41 195.34 198.41 187.99 197.72 312.1 197.72 305.62 198.41"/><polygon class="cls-1" points="305.64 198.91 195.34 198.91 187.95 198.22 187.99 197.22 312.1 197.22 312.15 198.22 305.64 198.91"/><path class="cls-1" d="M305.73,211H195.23V197.61h110.5Zm-109.6-.9h108.7V198.51H196.13Z"/><path class="cls-1" d="M305.28,311.2H193.85l.07-.17,6.64-18H298l0,.08ZM194.21,311h110.7l-7.06-17.66H200.73Z"/><path class="cls-1" d="M305.94,311.65H193.21l.06-.17,7-18.89h98.07l0,.08Zm-112.37-.25h112l-7.42-18.56H200.42Zm111-.65H194.5l.06-.17,6.31-17.09h96.84l0,.08Zm-109.75-.25H304.24l-6.69-16.76h-96.5Z"/><rect class="cls-2" x="193.2" y="313.41" width="113.25" height="3.89"/><polygon class="cls-1" points="306.58 317.43 193.08 317.43 193.08 313.99 193.33 313.99 193.33 317.18 306.33 317.18 306.33 313.99 306.58 313.99 306.58 317.43"/><path class="cls-1" d="M307,317.88H192.63v-4h1.15v2.86h112.1v-2.86H307Zm-114.15-.25h113.9v-3.51h-.65V317H193.53v-2.86h-.65Z"/><polygon class="cls-1" points="299.01 363.98 200.79 363.98 200.79 317.21 201.48 363.29 298.32 363.29 299.01 317.21 299.01 363.98"/><rect class="cls-1" x="201.13" y="360.36" width="97.53" height="0.9"/><path class="cls-1" d="M312.33,364.16a13.54,13.54,0,0,1-5.26-1l-.2-.09.69-42.47v42a14.31,14.31,0,0,0,9.85-.09l.24.64A15.08,15.08,0,0,1,312.33,364.16Z"/><path class="cls-1" d="M264.72,317.33H235V309.1h29.74Zm-29.49-.25h29.24v-7.73H235.23Z"/><path class="cls-1" d="M265.05,317.66h-30.4v-8.89h30.4Zm-29.5-.91h28.6v-7.08h-28.6Z"/><path class="cls-1" d="M298,264.61H200.39V220.28H298Zm-96.75-.9h95.85V221.18H201.29Z"/><path class="cls-1" d="M247.92,288.55H198.25V268.38h49.67Zm-48.77-.9H247V269.28H199.15Z"/><path class="cls-1" d="M300,288.55H250.34V268.38H300Zm-48.76-.9H299.1V269.28H251.24Z"/><line class="cls-1" x1="198.41" y1="269.12" x2="201.13" y2="264.25"/><rect class="cls-1" x="196.98" y="266.24" width="5.58" height="0.9" transform="translate(-130.51 310.76) rotate(-60.76)"/><line class="cls-1" x1="299.64" y1="269.12" x2="296.91" y2="264.25"/><rect class="cls-1" x="297.83" y="263.9" width="0.9" height="5.58" transform="translate(-92.28 179.74) rotate(-29.25)"/><path class="cls-1" d="M224.36,284H203.8V273h20.56Zm-19.66-.9h18.76v-9.23H204.7Z"/><path class="cls-1" d="M243.73,284H225.51V273h18.22Zm-17.32-.9h16.41v-9.23H226.41Z"/><path class="cls-1" d="M294.44,284H273.88V273h20.56Zm-19.66-.9h18.76v-9.23H274.78Z"/><path class="cls-1" d="M272.73,284H254.52V273h18.21Zm-17.31-.9h16.41v-9.23H255.42Z"/><path class="cls-1" d="M289.67,148.67H215.39V60.38h74.28ZM216.08,148H289V61.06h-72.9Z"/><path class="cls-1" d="M280.41,139.8H224.25v-71h56.16Zm-55.47-.68h54.79V69.54H224.94Z"/><polygon class="cls-1" points="156.63 342.55 155.95 342.55 156.63 16.25 156.63 342.55"/><polygon class="cls-1" points="349.11 342.55 348.42 342.55 349.11 16.25 349.11 342.55"/><rect class="cls-1" x="247.47" y="284.07" width="3.32" height="0.9"/><path class="cls-2" d="M170.45,288.71a6.29,6.29,0,0,0-1.52-3.92c-1.75-2.74-6.19-5.27-12.94-7.31a79.68,79.68,0,0,0-9.13-2.16,120,120,0,0,0-19.92-1.9h0l-2.05,0h-1.91l-1.29,0-.6,0c-.64,0-1.26,0-1.89.06h-.27l-1.76.09-.54,0-.93.06-1.46.11-.44,0c-9.86.83-18.47,2.72-24.64,5.3-3.57,1.45-6.17,3.05-7.69,4.74a6.87,6.87,0,0,0-2.32,4.82c0,4.81,4.65,8.78,13.44,11.48,7.61,2.34,17.86,3.65,29.76,3.81-.07,2.89-.44,16-.87,17.36a2.05,2.05,0,0,1-1.49,1.57l-.13,0,0,.13c0,.27-.83,6.81,1.85,9.84l.18.19a.78.78,0,0,0-.24.52c0,.37.33.7.86.94v.74c-1.25.35-2.09.93-2.21,1.62h0v4.22c-1.53,1.63-4.92,3.83-7.17,5.28l-1.55,1c-1.79,1.22-2.39,3.91-3.09,7-.26,1.2-.54,2.44-.91,3.71-1.47,5.11-5.52,16.33-6.22,16.7H101c-1.14,0-3.79-.07-4.83,1.3a2.43,2.43,0,0,0-.5,1.95,2.78,2.78,0,0,0,1.1,1.76,4.21,4.21,0,0,0,2.09.43,9.85,9.85,0,0,0,3.39-.65c2-.74,3.68-4,4.69-6,.28-.53.5-.94.64-1.15.29-.42,1.42-3.32,2.85-7,1.88-4.84,4.23-10.85,5-11.91.84-1.21,3.31-2.52,4.81-3.23V353a1.6,1.6,0,0,0,1,1.27c0,.56.59,1,1.5,1.35a.58.58,0,0,0,0,.19c0,.59,1,1,2.26,1h.18c1.29,0,2.27-.44,2.27-1a.68.68,0,0,0,0-.14c1-.3,1.66-.81,1.66-1.4l.33-.21v7.52a3.93,3.93,0,0,0,2.43,3.51,3.13,3.13,0,0,1,.44.28,1.59,1.59,0,0,0,1,.37,1.85,1.85,0,0,0,1.21-.46,1.4,1.4,0,0,0,.37-.47c0,.14.08.28.11.42,1.7,6.51,3.82,14.63,5.57,16.58,2.36,2.63,3.62,3.94,5.34,3.94a4.2,4.2,0,0,0,.69-.06,2.19,2.19,0,0,0,1.72-1.6,2.94,2.94,0,0,0-.46-2.77,19.78,19.78,0,0,0-2.73-1.92,12.17,12.17,0,0,1-1.29-.87c-.14-.24-.87-3.33-1.63-6.59-1.16-4.89-2.59-11-3.66-14.62-.57-2-.92-3.39-1.17-4.44-.59-2.46-.76-3.2-2.4-4.68-.69-.63-1.25-1.13-1.71-1.53a10.8,10.8,0,0,1-1.71-1.67c-.11-1.36-.2-2.34-.24-2.65a5.76,5.76,0,0,0-1.27-2.6v-2.8h0c-.13-.71-1-1.32-2.36-1.65v-.71c.53-.24.86-.57.86-.94a.8.8,0,0,0-.15-.42,3.11,3.11,0,0,0,.35-.37c2.65-3.07,1.72-9.55,1.68-9.82l0-.11-.1,0s-1.55-.46-1.55-1.43-.86-15.62-1-17.47C151.52,303.48,170.45,296.82,170.45,288.71Z"/><path class="cls-1" d="M128.73,324a2.76,2.76,0,0,1-.47.2,5.82,5.82,0,0,1-1,.2,18.1,18.1,0,0,1-2.08.1,16,16,0,0,1-2.08-.13,5.85,5.85,0,0,1-1-.21,1.86,1.86,0,0,1-.88-.51,1,1,0,0,0,.36.39,2.64,2.64,0,0,0,.46.27,6.14,6.14,0,0,0,1,.32,10.8,10.8,0,0,0,2.12.2,10.12,10.12,0,0,0,2.12-.18,5.28,5.28,0,0,0,1-.3,2.69,2.69,0,0,0,.46-.28.72.72,0,0,0,.31-.42A.81.81,0,0,1,128.73,324Z"/><path class="cls-1" d="M131.57,348.21l-.18-.18c-.29-.29-.57-.59-.85-.89s-.39-.42-.57-.64a1.63,1.63,0,0,1-.17-.2l-.08-.09-.06-.07,0,0-.14-.19-.12-.2,0-.07c-.09-.16-.17-.32-.26-.47-.2-.35-.44-.68-.66-1-.37-.59-.69-1.07-.69-1.07.44.7.88,1.41,1.27,2.13.1.18.18.37.28.56l.06.09.16.26.13.17v0l0,0c.05.06.09.12.14.17l.17.22.44.52,1,1.08.18.19.19.19.34.35.87.89.44.43a2.26,2.26,0,0,1,.37.46,14.25,14.25,0,0,1,.94,2.27c.26.78.49,1.57.72,2.37.45,1.59.85,3.2,1.25,4.81.82,3.21,1.57,6.43,2.41,9.64.76,2.9,1.53,5.8,2.56,8.62.11.31.22.61.33.89h0c-.55-1.57-1-3.16-1.43-4.76s-.83-3.21-1.22-4.82L137,360.22c-.4-1.61-.82-3.22-1.28-4.81-.23-.8-.47-1.6-.74-2.39a12.23,12.23,0,0,0-1-2.31,2.48,2.48,0,0,0-.42-.5l-.45-.43-.89-.86-.52-.53Z"/><path class="cls-1" d="M141.92,379.54l0,0v0l-.32-.88c-1-2.86-1.82-5.79-2.57-8.62-.47-1.83-.93-3.7-1.37-5.5-.34-1.39-.68-2.77-1-4.15s-.79-3.18-1.25-4.81c-.26-.92-.49-1.67-.72-2.36a13,13,0,0,0-.93-2.24,1.7,1.7,0,0,0-.34-.43l-2-2.07c-.41-.43-.72-.76-1-1.08-.16-.17-.3-.35-.45-.53l-.15-.18-.06-.08-.1-.12,0-.05-.12-.16a2.1,2.1,0,0,1-.19-.3l0,0a.43.43,0,0,1,0-.07l-.11-.22-.17-.33c-.4-.73-.84-1.45-1.27-2.12l.21-.14s.33.49.7,1.07l.21.33c.15.22.31.45.45.7s.13.23.2.35l.1.2a1.88,1.88,0,0,0,.12.18l.13.18-.07.11.09-.08.07.08.05.06,0,0a1.56,1.56,0,0,0,.16.2l.57.64.84.88.19.19.13.13.22.22.35.35,1.34,1.29a2.31,2.31,0,0,1,.43.53,12.1,12.1,0,0,1,1,2.29v0c.24.69.47,1.43.74,2.39.42,1.45.82,3,1.28,4.81l2.33,9.67c.44,1.81.84,3.39,1.22,4.82.51,1.92,1,3.38,1.41,4.72h0v.06l-.15,0Zm-8.65-29.49.25.26a1.87,1.87,0,0,1,.38.48,13.44,13.44,0,0,1,1,2.29c.23.7.46,1.45.72,2.38.46,1.63.88,3.32,1.25,4.81s.69,2.76,1,4.15c.44,1.8.9,3.66,1.38,5.49l0,.12,0-.12-2.33-9.67c-.46-1.83-.86-3.36-1.28-4.8-.27-1-.5-1.69-.73-2.38l0,0a12.19,12.19,0,0,0-1-2.24,2.1,2.1,0,0,0-.39-.48Zm-3.62-3.92Z"/><path class="cls-1" d="M118.94,344.87a13.85,13.85,0,0,0,1.28-1l.17-.15.16-.18.25-.27a3.07,3.07,0,0,1-.25.26l-.16.16-.17.14-.33.26c-.33.25-.66.48-1,.72-.68.46-1.37.9-2.06,1.34s-1.37.9-2,1.37a17.72,17.72,0,0,0-2,1.53,3.77,3.77,0,0,0-.43.46,1.78,1.78,0,0,0-.32.57c-.15.4-.25.79-.36,1.19-.21.8-.4,1.6-.6,2.39L110,358.44c-.78,3.18-1.52,6.38-2.52,9.5a31.78,31.78,0,0,1-1.83,4.53,17.21,17.21,0,0,1-1.25,2.11,7.82,7.82,0,0,1-.76,1,3,3,0,0,1-1,.74,2.93,2.93,0,0,0,1-.69,8,8,0,0,0,.81-.94,14.66,14.66,0,0,0,1.33-2.08,27.56,27.56,0,0,0,1.94-4.54c.51-1.56,1-3.15,1.37-4.74s.8-3.18,1.18-4.78l1.13-4.79c.19-.79.37-1.59.58-2.38.11-.4.21-.8.35-1.17a2.51,2.51,0,0,1,.67-.94,18.92,18.92,0,0,1,1.89-1.54c.67-.48,1.34-.94,2-1.4S118.28,345.36,118.94,344.87Z"/><path class="cls-1" d="M102.69,376.4l-.09-.23a2.86,2.86,0,0,0,.92-.72,7.51,7.51,0,0,0,.75-.94,18,18,0,0,0,1.24-2.09,33.16,33.16,0,0,0,1.82-4.52c.86-2.67,1.54-5.45,2.19-8.14l.33-1.35,1.25-5.21c.16-.64.32-1.31.5-2l0-.15c.1-.35.19-.7.32-1.05a2,2,0,0,1,.34-.61c.14-.17.29-.32.44-.47a18,18,0,0,1,2-1.54c.67-.47,1.36-.92,2-1.36l.53-.34c.51-.33,1-.67,1.55-1,.32-.22.66-.45,1-.71l.33-.26.17-.14.16-.15a2.73,2.73,0,0,0,.23-.25l.2.16-.19.2-.06.07-.07.08-.1.11-.1.09-.07.06c-.36.32-.74.61-1.12.89L119,345c-.66.48-1.33.95-2,1.42s-1.33.91-2,1.4a16.78,16.78,0,0,0-1.88,1.53l0,0a2.58,2.58,0,0,0-.63.87c-.12.34-.21.7-.31,1.05l0,.11c-.17.67-.34,1.35-.49,2l-.09.37-1.13,4.79c-.41,1.74-.79,3.3-1.18,4.79s-.84,3.12-1.37,4.74a27.8,27.8,0,0,1-2,4.56,15.35,15.35,0,0,1-1.34,2.1,9.56,9.56,0,0,1-.82.95A3,3,0,0,1,102.69,376.4Zm11-28a10.69,10.69,0,0,0-.81.7,3.61,3.61,0,0,0-.42.45,1.59,1.59,0,0,0-.3.53c-.13.35-.22.69-.32,1l0,.16c-.17.65-.34,1.32-.49,2l-.11.42-1.47,6.14c-.66,2.69-1.34,5.48-2.2,8.15-.38,1.16-.77,2.21-1.19,3.18a28.07,28.07,0,0,0,1.24-3.16c.53-1.61,1-3.23,1.36-4.73s.78-3,1.19-4.77l1.21-5.17c.16-.66.33-1.35.5-2l0-.11c.1-.36.2-.73.32-1.07a2.45,2.45,0,0,1,.68-1l0,0C113.19,348.89,113.46,348.66,113.73,348.43Z"/><path class="cls-1" d="M101.53,376.48l0-.09h0a4.7,4.7,0,0,1,.23,1.32,2.38,2.38,0,0,1-.1.65,2.11,2.11,0,0,1-.3.6h0a1.42,1.42,0,0,0,.42-.55,1.87,1.87,0,0,0,.15-.7,2.69,2.69,0,0,0-.11-.69A2.65,2.65,0,0,0,101.53,376.48Z"/><path class="cls-1" d="M101.41,379.06l-.19-.16a2,2,0,0,0,.28-.57,1.76,1.76,0,0,0,.09-.62,4,4,0,0,0-.22-1.27h0v0l.24-.05,0,.08a2.76,2.76,0,0,1,.26.56,2.53,2.53,0,0,1,.11.73,2,2,0,0,1-.15.75A1.75,1.75,0,0,1,101.41,379.06Z"/><path class="cls-1" d="M143.91,384.09c0,.05,0,.09.05.09h0a4.06,4.06,0,0,1-.22-1.32,2.39,2.39,0,0,1,.11-.65,2.29,2.29,0,0,1,.31-.6h0a1.45,1.45,0,0,0-.43.55,1.68,1.68,0,0,0-.15.69,2.07,2.07,0,0,0,.09.7A2.61,2.61,0,0,0,143.91,384.09Z"/><path class="cls-1" d="M143.87,384.27s0,0-.06-.11h0a2.6,2.6,0,0,1-.26-.57,2.48,2.48,0,0,1-.1-.73,2,2,0,0,1,.16-.74,1.68,1.68,0,0,1,.42-.56v-.06h.47l-.25.21a1.86,1.86,0,0,0-.28.54,2.1,2.1,0,0,0-.1.62,4,4,0,0,0,.21,1.28Z"/><path class="cls-1" d="M170.45,288.71a6.29,6.29,0,0,0-1.52-3.92c-1.75-2.74-6.19-5.27-12.94-7.31a79.68,79.68,0,0,0-9.13-2.16,120,120,0,0,0-19.92-1.9h0l-2.05,0h-1.91l-1.29,0h-.6l-1.89.07h-.27l-1.76.09-.54,0-.93.06-1.46.11-.44,0-2.9.29-1.62.19-.61.08a77.6,77.6,0,0,0-19.51,4.74c-3.57,1.45-6.17,3.05-7.69,4.74a6.87,6.87,0,0,0-2.32,4.82c0,4.81,4.65,8.78,13.44,11.48,7.61,2.34,17.86,3.65,29.76,3.81-.07,2.89-.44,16-.87,17.36a2.05,2.05,0,0,1-1.49,1.57l-.13,0,0,.13c0,.27-.83,6.81,1.85,9.84l.18.19a.78.78,0,0,0-.24.52c0,.37.33.7.86.94v.74c-1.25.35-2.09.93-2.21,1.62h0v4.22c-1.53,1.63-4.92,3.83-7.17,5.28l-1.55,1c-1.79,1.22-2.39,3.91-3.09,7-.26,1.2-.54,2.44-.91,3.71-1.47,5.11-5.52,16.33-6.22,16.7H101c-1.14,0-3.79-.07-4.83,1.3a2.43,2.43,0,0,0-.5,1.95,2.78,2.78,0,0,0,1.1,1.76,4.21,4.21,0,0,0,2.09.43,9.85,9.85,0,0,0,3.39-.65c2-.74,3.68-4,4.69-6,.28-.53.5-.94.64-1.15.29-.42,1.42-3.32,2.85-7,1.88-4.84,4.23-10.85,5-11.91.84-1.21,3.31-2.52,4.81-3.23V353a1.59,1.59,0,0,0,1,1.27c0,.56.59,1,1.5,1.35a.58.58,0,0,0,0,.19c0,.59,1,1,2.26,1h.18c1.29,0,2.27-.44,2.27-1a.68.68,0,0,0,0-.14c1-.3,1.66-.81,1.66-1.4l.33-.21v7.52a3.93,3.93,0,0,0,2.43,3.51,3.13,3.13,0,0,1,.44.28,1.59,1.59,0,0,0,1,.37,1.85,1.85,0,0,0,1.21-.46,1.4,1.4,0,0,0,.37-.47c0,.14.08.28.11.42,1.7,6.51,3.82,14.63,5.57,16.58,2.36,2.63,3.62,3.94,5.34,3.94a4.2,4.2,0,0,0,.69-.06,2.19,2.19,0,0,0,1.72-1.6,2.94,2.94,0,0,0-.46-2.77,19.78,19.78,0,0,0-2.73-1.92,12.17,12.17,0,0,1-1.29-.87c-.14-.24-.87-3.33-1.63-6.59-1.16-4.89-2.59-11-3.66-14.62-.57-2-.92-3.39-1.17-4.44-.59-2.46-.76-3.2-2.4-4.68-.69-.63-1.25-1.13-1.71-1.53a10.8,10.8,0,0,1-1.71-1.67c-.11-1.36-.2-2.34-.24-2.65a5.76,5.76,0,0,0-1.27-2.6v-2.8h0c-.13-.71-1-1.32-2.36-1.65v-.71c.53-.24.86-.57.86-.94a.8.8,0,0,0-.15-.42,3.11,3.11,0,0,0,.35-.37c2.65-3.07,1.72-9.55,1.68-9.82l0-.11-.1,0s-1.55-.46-1.55-1.43-.86-15.62-1-17.47C151.52,303.48,170.45,296.82,170.45,288.71Zm-42,43.92c-.11.12-.22.24-.34.35l-.13.11-.13.11a4,4,0,0,1-1.52.73,5.29,5.29,0,0,1-1.22.15,4.93,4.93,0,0,1-1.17-.15,3.89,3.89,0,0,1-1.55-.8l-.13-.11-.12-.12-.19-.2c-2.39-2.7-1.87-8.56-1.78-9.47a2.43,2.43,0,0,0,1.64-1.76c.45-1.4.81-14.54.89-17.47h2.13l2.57,0c.1,1.7,1,16.42,1,17.46s1.3,1.59,1.69,1.72C130.12,324,130.78,329.87,128.4,332.63Zm-.29,1c0,.2-.19.4-.52.57l-.17.08-.17.07a7.48,7.48,0,0,1-4.46,0l-.17-.07-.17-.08c-.33-.17-.52-.37-.52-.57a.46.46,0,0,1,.14-.29,4.17,4.17,0,0,0,.87.59l.38.17a4.64,4.64,0,0,0,.53.16,4.72,4.72,0,0,0,1.21.15,5.12,5.12,0,0,0,1.26-.15,4.26,4.26,0,0,0,.54-.16,3.52,3.52,0,0,0,.39-.17,4.38,4.38,0,0,0,.79-.5A.35.35,0,0,1,128.11,333.63Zm1.52,3.46h0a.88.88,0,0,1,0,.17c-.22.89-2.2,1.61-4.52,1.61s-4.29-.72-4.51-1.61a.47.47,0,0,1,0-.17h0a.45.45,0,0,1,0-.16c.13-.52.84-1,1.87-1.27V336c-.53.24-.86.57-.86.93v0a.45.45,0,0,0,0,.16.51.51,0,0,0,.07.17c.37.61,1.67,1,3.32,1s3-.42,3.32-1a.51.51,0,0,0,.07-.17.45.45,0,0,0,0-.16v0c0-.36-.33-.69-.86-.93v-.35c1.11.29,1.88.77,2,1.31A.88.88,0,0,1,129.63,337.09Zm5.05,11.33c1.55,1.42,1.71,2.08,2.3,4.52.25,1.05.59,2.49,1.17,4.46,1.07,3.63,2.5,9.71,3.65,14.59a63.27,63.27,0,0,0,1.7,6.73,9.41,9.41,0,0,0,1.37.94,18.56,18.56,0,0,1,2.67,1.88,2.59,2.59,0,0,1,.38,2.43,1.88,1.88,0,0,1-1.46,1.37c-1.93.35-3.15-.91-5.72-3.78-1.7-1.89-3.8-9.95-5.49-16.44-.08-.3-.16-.59-.23-.88l-.12-.45c-.09-.34-.18-.67-.26-1,0-.12-.07-.24-.1-.36-.63-2.38-1.18-4.32-1.59-5.35a9.59,9.59,0,0,0-.57-1.16c-.06-.11-.13-.22-.2-.33s-.12-.21-.19-.31a13.93,13.93,0,0,0-2-2.35l-.17-.16-.14-.12,0,0-.14-.12-.16-.14a14.65,14.65,0,0,0-2.15-1.54v-8.31l2.15-.51.16,0,.14,0h.07l.1.25c0,.11.1.25.17.4a22.52,22.52,0,0,0,1.1,2.4l.08.13c.06.08.12.17.19.25l.18.22c.32.35.77.74,1.45,1.34Zm-2.26,16.67a3.49,3.49,0,0,0-.5-.31,3.61,3.61,0,0,1-2.26-3.22v-7.84a1.29,1.29,0,0,0,.24-.4,12.62,12.62,0,0,1,2.16,2.7,32.28,32.28,0,0,0,.68,5.34,3.31,3.31,0,0,0,1,.87,5.64,5.64,0,0,1,.51.38c.14.53.29,1.08.43,1.65a1.44,1.44,0,0,1-2.25.83Zm.05-8.29c.06.14.12.27.17.41.38,1,.88,2.71,1.46,4.87l-.18-.12a3.27,3.27,0,0,1-.9-.78A31.86,31.86,0,0,1,132.47,356.8ZM130,341.69v-1.4a5,5,0,0,1,.94,2.08c0,.25.09.94.18,1.91C130.64,343.37,130.05,341.91,130,341.69Zm-.34-2.35v2.25l-.14,0-.16,0-2.48.59V351l.08.05a15.16,15.16,0,0,1,2.4,1.74l.16.14.13.12a.69.69,0,0,1-.13.34,1,1,0,0,1-.16.2,1.84,1.84,0,0,1-.4.31l-.15.09-.15.08a9.55,9.55,0,0,1-7.08,0l-.15-.08-.14-.09c-.44-.27-.71-.59-.71-.93v-2.76l.86-.38.11,0v-7.75l-.07-.05a5.29,5.29,0,0,1-.9-.84v-3.29c.71.79,2.45,1.33,4.54,1.33s3.84-.54,4.54-1.33Zm-2.46,16-.15,0h0l-.14,0-.08,0-.13,0a8.94,8.94,0,0,1-1.54.13,8.38,8.38,0,0,1-1.67-.16l-.13,0-.08,0-.14,0h0l-.14,0a2,2,0,0,1-1.31-.87,7.2,7.2,0,0,0,1.92.53l.12,0,.3,0H124c.34,0,.69,0,1,0a9,9,0,0,0,.92,0h.14l.28,0h.14a7.61,7.61,0,0,0,2.05-.55A2.17,2.17,0,0,1,127.17,355.36Zm-.15.43a.23.23,0,0,1,0,.11,2.4,2.4,0,0,1-1.9.59H125c-1.06,0-1.84-.38-1.84-.7a.09.09,0,0,1,0-.05,8,8,0,0,0,1.92.22,8.48,8.48,0,0,0,1.75-.18l.17,0h0Zm-16.88,9.6c-1.31,3.37-2.55,6.54-2.82,6.93-.15.22-.37.65-.65,1.19-.93,1.79-2.67,5.13-4.52,5.82-2.4.91-4.51.69-5.18.26a2.45,2.45,0,0,1-1-1.54,2.12,2.12,0,0,1,.43-1.69c.81-1.05,2.84-1.17,4-1.17h.8c1,0,5.78-14.28,6.54-16.94.37-1.27.65-2.52.92-3.73.68-3,1.27-5.66,3-6.8.4-.27.93-.62,1.54-1a51.37,51.37,0,0,0,7-5.1l.15-.14h0l.16.18c.23.22.5.44.63.54v7.37l-.63.27-.16.08-.17.08c-1.5.7-4.16,2.08-5.08,3.41C114.38,354.51,112.13,360.29,110.14,365.39Zm12.31-28.46a.42.42,0,0,0,0,.16.62.62,0,0,0,.11.17,5.18,5.18,0,0,0,4.84,0,.45.45,0,0,0,.11-.17.42.42,0,0,0,0-.16h0v-.58c.33.17.52.37.52.56v0a.35.35,0,0,1-.06.16.47.47,0,0,1-.15.17,6.27,6.27,0,0,1-5.76,0,.47.47,0,0,1-.15-.17.35.35,0,0,1-.06-.16v0c0-.19.19-.39.52-.56v.58Zm4.8-1.73v1.72h0s0,.1-.12.16a1.26,1.26,0,0,1-.33.17,6,6,0,0,1-3.56,0,1.26,1.26,0,0,1-.33-.17c-.08-.06-.12-.12-.12-.16h0V334.7a6,6,0,0,0,1.67.3,5.24,5.24,0,0,0,.56,0l.63,0a6.33,6.33,0,0,0,1.6-.3Zm.26-31.55-1.9,0h-3.29c-26.14-.34-42.88-6.13-42.88-15a5.42,5.42,0,0,1,.55-2.34,4.45,4.45,0,0,0-.14,1.08c0,3.78,4.7,7.33,13.24,10s19.74,4.07,31.72,4.07,23.25-1.44,31.72-4.07,13.24-6.19,13.24-10a3.91,3.91,0,0,0-.07-.76,5.28,5.28,0,0,1,.41,2C170.11,296.66,151.24,303.18,127.51,303.65Zm-2.81-29.91,1.83,0,1.22,0c21.93.55,40.54,6.7,40.54,13.67s-18.79,12.05-43.7,12.05-43.7-5.18-43.7-12.05c0-4.24,6.88-8.18,17.21-10.74a109.62,109.62,0,0,1,22.13-2.9c1.44-.05,2.89-.07,4.36-.07h.11Zm-40.94,8.62c-2.09,1.63-3.2,3.36-3.2,5.09,0,3.51,4.6,6.7,13,9,8.11,2.2,19.14,3.41,31.06,3.41s22.95-1.21,31.06-3.41c8.37-2.27,13-5.46,13-9,0-2.76-2.84-5.53-8-7.88-.57-.26-1.16-.51-1.78-.76,4.53,1.66,7.84,3.63,9.45,5.75a4.82,4.82,0,0,1,1.1,2.89c0,7.56-20,13.71-44.63,13.71S80.18,295,80.18,287.45C80.18,285.68,81.47,284,83.76,282.36Z"/><path class="cls-1" d="M145.83,385.81c-1.75,0-3.06-1.36-5.4-4-1.76-2-3.87-10.08-5.58-16.6l-.06-.26a1.43,1.43,0,0,1-.3.34,2,2,0,0,1-1.26.48,1.64,1.64,0,0,1-1.08-.4,3,3,0,0,0-.4-.25h0a4,4,0,0,1-2.47-3.58v-7.38l-.18.12c0,.57-.63,1.08-1.64,1.4v.09c0,.64-1,1.11-2.34,1.11h-.18c-1.35,0-2.34-.47-2.34-1.11a.68.68,0,0,1,0-.14c-.91-.33-1.45-.82-1.48-1.35a1.63,1.63,0,0,1-1-1.32V350.5c-1.44.69-3.85,2-4.68,3.16s-3.07,7-5,11.88c-1.38,3.53-2.56,6.58-2.86,7-.14.2-.35.62-.62,1.14-1,2-2.75,5.28-4.74,6a9.85,9.85,0,0,1-3.42.65,4.36,4.36,0,0,1-2.13-.43,2.92,2.92,0,0,1-1.13-1.82,2.51,2.51,0,0,1,.51-2c1.07-1.4,3.74-1.34,4.89-1.32h.24c.69-.48,4.61-11.23,6.17-16.64.37-1.26.64-2.5.91-3.7.7-3.13,1.3-5.82,3.12-7.06l1.55-1a46.64,46.64,0,0,0,7.14-5.25v-4.27h0c.15-.66.95-1.24,2.2-1.59v-.64c-.56-.27-.86-.61-.86-1a.81.81,0,0,1,.21-.52h0l-.13-.14c-2.7-3.06-1.9-9.63-1.86-9.9l0-.19.19,0a2,2,0,0,0,1.43-1.52c.43-1.36.81-15.32.86-17.27-11.86-.16-22.13-1.48-29.7-3.81C83.7,297.55,79,293.55,79,288.71a7,7,0,0,1,2.35-4.88c1.53-1.7,4.13-3.3,7.72-4.75a77.78,77.78,0,0,1,19.52-4.75l.29,0,.32,0,1.62-.18c1.07-.12,2-.21,2.91-.29h.14l.29,0,1.47-.11.93-.05.54,0,1.76-.08.27,0,1.88-.06h.61l1.29,0h1.89c.68,0,1.37,0,2.07,0h0a119.45,119.45,0,0,1,19.93,1.89A83,83,0,0,1,156,277.4c6.71,2,11.2,4.58,13,7.35a6.4,6.4,0,0,1,1.53,4c0,8.09-18.77,14.82-42.75,15.34.17,2.91,1,16.37,1,17.4,0,.87,1.34,1.31,1.5,1.36l.15.05,0,.15c0,.28,1,6.78-1.69,9.88-.1.12-.21.23-.31.33a.78.78,0,0,1,.12.41c0,.38-.3.72-.86,1v.6c1.34.35,2.19.94,2.35,1.63h0v2.85a5.9,5.9,0,0,1,1.28,2.62c0,.28.11,1.09.23,2.64a11.67,11.67,0,0,0,1.69,1.63l1.71,1.53c1.65,1.5,1.83,2.25,2.42,4.72.26,1.05.6,2.48,1.18,4.44,1.06,3.62,2.48,9.68,3.63,14.54l0,.08c.7,3,1.49,6.34,1.63,6.57a11.58,11.58,0,0,0,1.26.84l0,0a18.65,18.65,0,0,1,2.71,1.92,3,3,0,0,1,.48,2.84,2.25,2.25,0,0,1-1.78,1.65A3.46,3.46,0,0,1,145.83,385.81Zm-11-21.22.15.6c1.71,6.52,3.82,14.61,5.55,16.55,2.32,2.57,3.6,3.92,5.29,3.92a3.88,3.88,0,0,0,.67-.06,2.13,2.13,0,0,0,1.67-1.55,2.91,2.91,0,0,0-.44-2.7,19.82,19.82,0,0,0-2.69-1.89l0,0a12.08,12.08,0,0,1-1.31-.88c-.14-.25-.74-2.78-1.65-6.63l0-.08c-1.14-4.86-2.57-10.91-3.63-14.53-.58-2-.92-3.4-1.17-4.44-.59-2.44-.76-3.18-2.38-4.65-.66-.6-1.19-1.06-1.71-1.52a11.38,11.38,0,0,1-1.72-1.68l0,0v0c-.12-1.56-.19-2.38-.23-2.65a5.79,5.79,0,0,0-1.26-2.56l0,0v-2.81c-.11-.66-1-1.25-2.3-1.59h-.06v-.82l0,0c.52-.24.81-.54.81-.87a.6.6,0,0,0-.13-.37l0-.06.05,0c.12-.11.23-.23.35-.36,2.62-3.06,1.69-9.5,1.65-9.77V323h-.05c-.17,0-1.61-.53-1.61-1.51s-.87-15.79-1-17.46v-.08h.08c23.93-.51,42.68-7.19,42.68-15.2a6.2,6.2,0,0,0-1.5-3.87c-1.76-2.75-6.22-5.27-12.9-7.29a82,82,0,0,0-9.13-2.16,119.21,119.21,0,0,0-19.91-1.89h0l-2.05,0h0v0h-1.84l-1.29,0h-.6l-1.88.06-.28,0-1.75.08-.54,0q-.48,0-.93.06l-1.46.1-.29,0h-.15c-.89.07-1.84.17-2.9.28l-1.62.19-.32,0-.29,0a77.12,77.12,0,0,0-19.49,4.74c-3.56,1.44-6.14,3-7.67,4.72a6.86,6.86,0,0,0-2.3,4.77c0,4.77,4.63,8.72,13.39,11.41,7.58,2.33,17.86,3.64,29.74,3.8h.08V304c-.07,2.66-.44,16-.88,17.39A2.1,2.1,0,0,1,120,323h-.07v.07c0,.28-.83,6.78,1.82,9.79a1.59,1.59,0,0,0,.13.13l.11.11,0,.05a.66.66,0,0,0-.22.47c0,.33.29.63.81.87l0,0v.85l-.06,0c-1.26.34-2,.91-2.16,1.55v4.23l0,0c-1.53,1.64-4.93,3.84-7.18,5.3-.58.38-1.14.74-1.55,1-1.76,1.2-2.36,3.87-3.05,7-.27,1.2-.55,2.44-.92,3.71-1.33,4.61-5.48,16.34-6.26,16.74H101c-1.12,0-3.75-.08-4.77,1.26a2.38,2.38,0,0,0-.48,1.89,2.74,2.74,0,0,0,1.06,1.72,4.15,4.15,0,0,0,2,.41,9.67,9.67,0,0,0,3.36-.64c2-.73,3.64-4,4.66-5.95a12.33,12.33,0,0,1,.64-1.16c.28-.42,1.47-3.46,2.84-7,1.88-4.84,4.23-10.85,5-11.92.86-1.24,3.4-2.57,4.84-3.26l.11-.05V353c0,.44.32.86.92,1.21l0,0v0c0,.5.53,1,1.45,1.28l.07,0,0,.08a.45.45,0,0,0,0,.16c0,.55,1,1,2.28.95h.09c1.23,0,2.19-.42,2.19-1a.49.49,0,0,0,0-.12l0-.07.07,0c1-.3,1.6-.8,1.61-1.33v0l0,0a3,3,0,0,0,.32-.21l.12-.09v7.67a3.89,3.89,0,0,0,2.4,3.45h0c.18.11.33.2.42.27a1.45,1.45,0,0,0,1,.36,1.85,1.85,0,0,0,1.17-.45,1.67,1.67,0,0,0,.35-.45Zm11,20.88c-1.63,0-2.86-1.28-5.17-3.86-1.7-1.9-3.81-10-5.5-16.46l-.24-.9-.47-1.8c-.57-2.13-1.15-4.25-1.59-5.34a9.28,9.28,0,0,0-.56-1.15l-.2-.33-.19-.31a13.91,13.91,0,0,0-2-2.34l-.16-.15-.14-.13,0,0-.13-.11,0,0-.12-.1a15.72,15.72,0,0,0-2.14-1.54l0,0v-8.41l2.64-.62.13.31c0,.11.1.25.17.4a24,24,0,0,0,1.09,2.39.86.86,0,0,0,.07.1v0l.19.26a1.68,1.68,0,0,0,.18.21c.32.34.76.73,1.44,1.33.46.4,1,.89,1.71,1.52h0c1.57,1.43,1.73,2.09,2.32,4.55.25,1.06.6,2.49,1.17,4.45,1.08,3.66,2.51,9.73,3.65,14.61,1,4.28,1.54,6.52,1.69,6.69a9.39,9.39,0,0,0,1.35.93,18.88,18.88,0,0,1,2.69,1.88A2.73,2.73,0,0,1,148,384a2,2,0,0,1-1.52,1.43A4.56,4.56,0,0,1,145.85,385.47Zm-18.6-34.7a16,16,0,0,1,2.13,1.53l.12.11,0,0,.14.12,0,0,.14.12.17.16a13.76,13.76,0,0,1,2,2.37l.2.31.2.34a8.84,8.84,0,0,1,.57,1.16c.44,1.1,1,3.23,1.59,5.36l.48,1.81c.07.29.15.58.23.88,1.69,6.48,3.79,14.54,5.47,16.41,2.56,2.85,3.77,4.1,5.65,3.76a1.82,1.82,0,0,0,1.41-1.32,2.54,2.54,0,0,0-.36-2.36,19.12,19.12,0,0,0-2.65-1.86,9.73,9.73,0,0,1-1.4-1c-.15-.18-.48-1.53-1.71-6.76-1.15-4.87-2.58-10.94-3.65-14.59-.58-2-.92-3.41-1.17-4.46-.59-2.43-.74-3.08-2.28-4.48h0l-1.7-1.51c-.69-.61-1.14-1-1.46-1.35l-.19-.22-.19-.26,0,0L131,345a24.25,24.25,0,0,1-1.1-2.41c-.07-.15-.12-.29-.17-.4l-.08-.2-.3.08-2.1.49ZM98.87,380a4,4,0,0,1-1.94-.38,2.56,2.56,0,0,1-1-1.6,2.17,2.17,0,0,1,.45-1.75c.6-.79,2-1.19,4.08-1.19h.8c.91,0,5.45-13.36,6.47-16.89.37-1.28.65-2.52.92-3.72.68-3.06,1.27-5.69,3-6.85.39-.27.91-.6,1.54-1a50.49,50.49,0,0,0,7-5.08l.06-.07.09-.08.05-.06.07.09.17.17a5.75,5.75,0,0,0,.62.53l0,0v7.44l-.05,0-.62.28-.17.08-.13.06,0,0c-1.49.7-4.14,2.07-5,3.38-.75,1.09-3,6.87-5,12l0,.1c-1.29,3.31-2.52,6.45-2.79,6.84-.14.21-.34.61-.6,1.11l0,.07c-.93,1.81-2.67,5.16-4.55,5.86A9.6,9.6,0,0,1,98.87,380Zm1.61-4.77c-2,0-3.39.38-4,1.14A2,2,0,0,0,96.1,378a2.35,2.35,0,0,0,.92,1.49c.65.42,2.73.63,5.11-.27,1.82-.68,3.55-4,4.47-5.78l0-.08c.27-.51.47-.91.62-1.12.26-.38,1.48-3.51,2.77-6.82l0-.09c2-5.11,4.24-10.89,5-12,.94-1.35,3.61-2.73,5.12-3.44l0,0,.13-.06.16-.07.59-.26v-7.28c-.15-.12-.4-.32-.61-.52l-.13-.15,0,0-.07.07a51.31,51.31,0,0,1-7,5.1l-1.55,1c-1.65,1.13-2.24,3.74-2.91,6.76-.28,1.2-.55,2.45-.92,3.73-.6,2.05-5.44,17-6.62,17h-.8Zm32.76-9.81a1.34,1.34,0,0,1-.87-.31h0a2.74,2.74,0,0,0-.48-.3,3.68,3.68,0,0,1-2.3-3.29V353.7l0,0a1.54,1.54,0,0,0,.22-.39l0-.1.08.08a12.18,12.18,0,0,1,2.17,2.71v0a44.14,44.14,0,0,0,.67,5.31,3.31,3.31,0,0,0,1,.85,4.13,4.13,0,0,1,.52.39h0v0c.13.53.28,1.08.43,1.65v0h0a1.57,1.57,0,0,1-.47.79A1.59,1.59,0,0,1,133.24,365.46Zm-3.5-11.71v7.81a3.56,3.56,0,0,0,2.22,3.16,3.59,3.59,0,0,1,.51.32h0a1.3,1.3,0,0,0,1.71-.09,1.39,1.39,0,0,0,.42-.69c-.15-.55-.29-1.09-.42-1.61l-.49-.35a3.58,3.58,0,0,1-1-.89c-.11-.17-.29-.93-.7-5.37a12.66,12.66,0,0,0-2-2.59A1.66,1.66,0,0,1,129.74,353.75Zm4.49,8.51-.36-.24a3.09,3.09,0,0,1-.91-.8c-.08-.14-.22-.74-.57-4.41l.14,0c.07.14.12.27.18.41.42,1,1,3.05,1.47,4.89Zm-1.64-5a22.67,22.67,0,0,0,.5,3.87,2.87,2.87,0,0,0,.86.75l0,0C133.51,360.16,133,358.28,132.59,357.27Zm-7.5-.71H125c-1,0-1.91-.37-1.91-.77a.15.15,0,0,1,0-.07v-.07l.08,0a8.13,8.13,0,0,0,1.9.21,8.85,8.85,0,0,0,1.74-.17h0l.14,0,.07,0,0,.07s0,0,0,.07a.31.31,0,0,1,0,.15A2.53,2.53,0,0,1,125.09,356.56Zm-1.85-.73c.08.24.75.56,1.76.58h.09a2.41,2.41,0,0,0,1.84-.55v0l-.06,0h0a8.72,8.72,0,0,1-3.62,0Zm1.85-.13a8.18,8.18,0,0,1-1.68-.17l-.22,0-.14,0,0,0-.12,0h0a2.11,2.11,0,0,1-1.36-.91l-.08-.18.18.08a6.9,6.9,0,0,0,1.9.52h.12l.3,0,.12,0a12.93,12.93,0,0,0,2,0h.13l.28,0h.14a7.41,7.41,0,0,0,2-.54l.18-.08-.08.18a2.24,2.24,0,0,1-1.5.95h0l-.09,0H127l-.14,0h0l-.17,0A8.59,8.59,0,0,1,125.09,355.7Zm-3.33-1.09a2.61,2.61,0,0,0,1.14.64h0l.12,0h0l.14,0,.21.05a8.63,8.63,0,0,0,1.65.16,8.18,8.18,0,0,0,1.52-.14l.14,0h.07l.12,0H127l.15,0a2.72,2.72,0,0,0,1.28-.68,7.82,7.82,0,0,1-1.85.46h-.14l-.29,0H126a12,12,0,0,1-2,0l-.12,0-.31,0-.09,0h0A7.32,7.32,0,0,1,121.76,354.61Zm3.33.22a8.47,8.47,0,0,1-3.57-.69l-.15-.07-.15-.09a1.27,1.27,0,0,1-.74-1v-2.8l0,0,.87-.39,0,0v-7.66l0,0a4.54,4.54,0,0,1-.92-.86h0v-3.52l.13.15c.71.79,2.47,1.31,4.48,1.31s3.78-.52,4.49-1.31l.13-.15v4l-.37.08-2.42.58V351l0,0a16.62,16.62,0,0,1,2.41,1.75l.17.15,0,0,.08.08,0,0v0a1,1,0,0,1-.14.37,1.74,1.74,0,0,1-.18.22,2.34,2.34,0,0,1-.41.32l-.15.09-.15.07A8.52,8.52,0,0,1,125.09,354.83Zm-4.46-4.56V353c0,.3.23.6.67.87l.14.08.14.08a8.38,8.38,0,0,0,3.51.67,8.51,8.51,0,0,0,3.51-.67l.15-.08.14-.08a2.52,2.52,0,0,0,.38-.3.9.9,0,0,0,.16-.19.77.77,0,0,0,.11-.27l-.06,0,0,0-.16-.15a16.54,16.54,0,0,0-2.38-1.73l-.13-.07v-8.86l2.79-.66v-3.48a8.72,8.72,0,0,1-8.93,0v3.09a4.89,4.89,0,0,0,.87.8l.09.07v7.84l-.15.06ZM131,344.32c-.48-1-1.12-2.59-1.12-2.61v-1.66l.14.19a5.29,5.29,0,0,1,1,2.12c0,.22.08.8.17,1.92Zm-1-2.65c.06.14.52,1.29.94,2.21-.08-.85-.12-1.31-.14-1.5a4.68,4.68,0,0,0-.8-1.85Zm-4.95-2.73c-2.33,0-4.35-.73-4.59-1.66a1.23,1.23,0,0,1,0-.19,1.1,1.1,0,0,1,0-.18c.14-.53.84-1,1.93-1.32l.1,0V336l0,0c-.52.23-.81.54-.81.87v0a.39.39,0,0,0,0,.14.51.51,0,0,0,.07.15c.36.6,1.67,1,3.25,1s2.89-.4,3.25-1a.51.51,0,0,0,.07-.15.4.4,0,0,0,0-.15v0c0-.32-.29-.62-.81-.86l0,0v-.49l.1,0c1.18.31,1.93.81,2.07,1.36a.67.67,0,0,1,0,.18.68.68,0,0,1,0,.19C129.45,338.21,127.43,338.94,125.09,338.94Zm-2.71-3.18c-1,.3-1.62.73-1.73,1.19a.68.68,0,0,0,0,.14.77.77,0,0,0,0,.15c.21.86,2.21,1.55,4.44,1.55s4.23-.69,4.45-1.55a.89.89,0,0,0,0-.15.78.78,0,0,0,0-.14c-.12-.48-.82-.94-1.88-1.23v.2c.56.27.86.61.86,1v0a.46.46,0,0,1,0,.19.55.55,0,0,1-.08.18c-.39.65-1.72,1.07-3.38,1.07s-3-.42-3.38-1.07a.71.71,0,0,1-.08-.18.46.46,0,0,1,0-.19v0c0-.38.3-.72.86-1ZM125,338a5,5,0,0,1-2.93-.72.93.93,0,0,1-.17-.19.36.36,0,0,1-.06-.2v0c0-.23.2-.45.57-.64l.11,0v.71a.35.35,0,0,0,0,.13.31.31,0,0,0,.1.15,5.09,5.09,0,0,0,4.72,0,.36.36,0,0,0,.1-.15.35.35,0,0,0,0-.13v-.71l.11,0c.37.19.57.41.57.64v0a.36.36,0,0,1-.06.2.93.93,0,0,1-.17.19A5,5,0,0,1,125,338Zm-2.64-1.57c-.24.14-.38.3-.38.44s0,0,0,0a.19.19,0,0,0,0,.12.48.48,0,0,0,.14.15,2.26,2.26,0,0,0,.83.42,1.54,1.54,0,0,1-.47-.31.5.5,0,0,1-.13-.19.43.43,0,0,1,0-.19Zm5.28,0v.45a.48.48,0,0,1,0,.2.59.59,0,0,1-.13.19,1.54,1.54,0,0,1-.47.31,2.41,2.41,0,0,0,.84-.42.58.58,0,0,0,.13-.15.2.2,0,0,0,0-.13v0C128,336.77,127.9,336.61,127.66,336.47ZM125,337.6a5.15,5.15,0,0,1-1.81-.27,1.49,1.49,0,0,1-.34-.18.31.31,0,0,1-.16-.22V334.6l.1,0a6.48,6.48,0,0,0,1.66.3l.55,0,.63,0a6.45,6.45,0,0,0,1.58-.29l.1,0v2.32a.31.31,0,0,1-.16.23,1.3,1.3,0,0,1-.34.18A5.15,5.15,0,0,1,125,337.6Zm-2.16-2.79v2.11s0,.05.1.11a1.09,1.09,0,0,0,.31.16,6,6,0,0,0,3.5,0,1.09,1.09,0,0,0,.31-.16c.08-.06.1-.09.1-.11v-2.11a7.25,7.25,0,0,1-1.52.27l-.64,0-.56,0A7.3,7.3,0,0,1,122.86,334.81Zm2.16-.05a6.85,6.85,0,0,1-2.26-.34l-.17-.07-.17-.08c-.37-.2-.57-.41-.57-.64a.5.5,0,0,1,.17-.34l0-.05.05,0a3.82,3.82,0,0,0,.86.58l.37.17a4,4,0,0,0,.52.16,4.73,4.73,0,0,0,1.19.15,5.19,5.19,0,0,0,1.24-.15,4.26,4.26,0,0,0,.54-.16l.38-.17a4.17,4.17,0,0,0,.77-.49l.07-.05,0,.07a.4.4,0,0,1,.09.24c0,.23-.2.44-.57.64l-.17.08-.17.07A6.85,6.85,0,0,1,125,334.76Zm-2.94-1.31a.29.29,0,0,0-.08.18c0,.16.18.34.49.5l.16.08.16.07a7.57,7.57,0,0,0,4.42,0l.16-.07.16-.08c.31-.16.49-.34.49-.5a.37.37,0,0,0,0-.09,4.7,4.7,0,0,1-.73.46l-.4.17-.55.17a5.46,5.46,0,0,1-2.51,0,5.6,5.6,0,0,1-.54-.17l-.38-.17A4.27,4.27,0,0,1,122.08,333.45Zm3,.7a4.79,4.79,0,0,1-1.19-.15,3.9,3.9,0,0,1-1.58-.81l-.05-.05a.27.27,0,0,1-.08-.07l-.08-.07,0-.05,0,0-.16-.17c-2.37-2.69-1.91-8.4-1.79-9.52v-.06h0a2.37,2.37,0,0,0,1.59-1.72c.44-1.39.81-14.77.88-17.44v-.08h.08l2.13,0,2.57,0h.07l0,.55c.77,13.24.94,16.54.94,17,0,1,1.25,1.52,1.63,1.65l.05,0v0c.09.68.8,6.7-1.63,9.52h0a3.73,3.73,0,0,1-.34.35l-.09.08-.06.05-.12.09a3.93,3.93,0,0,1-1.55.75A5.05,5.05,0,0,1,125.06,334.15Zm-4.87-10.86c-.12,1.22-.53,6.76,1.76,9.36l.16.16,0,0,0,.05a.23.23,0,0,0,.07.07.46.46,0,0,0,.07.07l.06,0a3.75,3.75,0,0,0,1.52.79,5,5,0,0,0,2.35,0,3.9,3.9,0,0,0,1.49-.72l.11-.09.07-.06.08-.07c.11-.11.23-.22.33-.34h0c2.34-2.71,1.71-8.5,1.6-9.35-.45-.17-1.69-.71-1.69-1.78,0-.44-.17-3.75-.94-17l0-.4-2.5,0h-2.06c-.1,3.83-.45,16-.89,17.41A2.54,2.54,0,0,1,120.19,323.29Zm4.59-19.54h-2.46c-12.85-.17-23.66-1.66-31.27-4.3s-11.69-6.37-11.69-10.73a5.39,5.39,0,0,1,.57-2.37l.14.05a3.91,3.91,0,0,0-.14,1.06c0,3.75,4.68,7.26,13.18,9.9s19.72,4.07,31.7,4.07,23.23-1.45,31.7-4.07,13.18-6.15,13.18-9.9a4.62,4.62,0,0,0-.06-.74l.14,0a5.37,5.37,0,0,1,.42,2c0,8-18.75,14.54-42.68,15h0l-1.9,0h-.83Zm-45-16.69a5.28,5.28,0,0,0-.27,1.65c0,4.29,4,8,11.58,10.58s18.39,4.13,31.22,4.3h3.29l1.9,0h0c23.85-.47,42.53-7,42.53-14.86a5.06,5.06,0,0,0-.2-1.38v.12c0,3.82-4.72,7.39-13.28,10s-19.76,4.08-31.75,4.08-23.26-1.45-31.74-4.08-13.3-6.22-13.3-10C79.77,287.32,79.78,287.19,79.79,287.06Zm45,14.17c-24.65,0-44.7-6.18-44.7-13.78,0-1.75,1.21-3.48,3.61-5.15l.08.12c-2.1,1.64-3.17,3.34-3.17,5,0,3.48,4.59,6.64,12.92,8.9,8.1,2.2,19.13,3.41,31,3.41s22.94-1.21,31-3.41c8.33-2.26,12.92-5.42,12.92-8.9,0-2.7-2.81-5.47-7.91-7.81-.55-.25-1.15-.51-1.77-.76l0-.14c4.63,1.7,7.9,3.7,9.48,5.78a4.8,4.8,0,0,1,1.11,2.93C169.51,295.05,149.46,301.23,124.81,301.23ZM81.92,284a5,5,0,0,0-1.66,3.45c0,7.52,20,13.63,44.55,13.63s44.55-6.11,44.55-13.63a4.66,4.66,0,0,0-1.08-2.84,15.57,15.57,0,0,0-5.59-4.1c3.9,2.14,6,4.56,6,6.94,0,3.55-4.63,6.76-13,9-8.12,2.21-19.15,3.42-31.08,3.42s-23-1.21-31.08-3.42c-8.4-2.28-13-5.49-13-9A5.34,5.34,0,0,1,81.92,284Zm42.67,15.57c-25,0-43.78-5.21-43.78-12.12,0-4.09,6.46-8.13,17.28-10.81a109.09,109.09,0,0,1,22.13-2.9c1.45-.05,2.92-.08,4.37-.08h.11l1.83,0,.81,0h.41c10.66.26,20.79,1.83,28.52,4.42s12.09,5.93,12.09,9.32C168.36,294.36,149.55,299.57,124.59,299.57Zm0-25.76c-1.45,0-2.92,0-4.36.08a108.88,108.88,0,0,0-22.11,2.9C87.38,279.45,81,283.43,81,287.45c0,6.83,18.76,12,43.63,12s43.62-5.14,43.62-12c0-3.32-4.25-6.58-12-9.17s-17.83-4.16-28.47-4.42h-.41l-.81,0-1.83,0Z"/><path class="cls-2" d="M135.34,238.42a30.33,30.33,0,0,1,.85-13.42c5.33-3.09-10.58-3.09-10.58-3.09s-15.92,0-10.59,3.09a30.16,30.16,0,0,1,.85,13.42,124.07,124.07,0,0,1-2.78,12.66A23.42,23.42,0,0,0,115,267.44s3.7,14.74,2.16,15.59c0,0-8.5,5.7,8.5,5.7s8.5-5.7,8.5-5.7c-1.55-.85,2.16-15.59,2.16-15.59a23.42,23.42,0,0,0,1.86-16.36A125.53,125.53,0,0,1,135.34,238.42Z"/><path class="cls-1" d="M125.61,288.88c-6.59,0-10.19-.86-10.71-2.56s2-3.34,2.12-3.42c1.07-.58-.8-9.77-2.22-15.43A23.7,23.7,0,0,1,113,251c0-.05,1.55-5.41,2.78-12.63a30.63,30.63,0,0,0-.83-13.3c-.86-.51-1.22-1-1.1-1.41.51-1.88,10.65-1.93,11.81-1.93s11.3.05,11.8,1.93c.12.44-.23.9-1.09,1.41a30.46,30.46,0,0,0-.83,13.3h0A125.71,125.71,0,0,0,138.27,251a23.79,23.79,0,0,1-1.87,16.47c-1.41,5.62-3.27,14.81-2.22,15.39.12.08,2.64,1.79,2.14,3.42S132.2,288.88,125.61,288.88Zm0-66.82c-4.45,0-11.18.45-11.52,1.7-.08.3.27.68,1,1.11l.05,0V225a30.46,30.46,0,0,1,.86,13.5,128.61,128.61,0,0,1-2.78,12.67,23.4,23.4,0,0,0,1.84,16.25c.39,1.55,3.7,14.92,2.1,15.79,0,0-2.43,1.65-2,3.07.32,1.08,2.4,2.35,10.42,2.35s10.09-1.27,10.42-2.35c.43-1.42-2-3.06-2-3.08-1.59-.86,1.72-14.23,2.11-15.75A23.45,23.45,0,0,0,138,251.12a128.61,128.61,0,0,1-2.78-12.67h0a30.71,30.71,0,0,1,.85-13.5l0-.06.05,0c.74-.43,1.08-.81,1-1.11C136.79,222.51,130.05,222.06,125.61,222.06Z"/><path class="cls-1" d="M126.07,287.54h-.47a33.5,33.5,0,0,1-6.6-.89.12.12,0,0,1-.08-.06.12.12,0,0,1,0-.1,1.22,1.22,0,0,0-.62-1.32c-.89-.29-1.28-.57-1.23-.89.13-1,5.74-1.39,7.09-1.47l.18-.56a.38.38,0,0,1-.15-.29.44.44,0,0,1,.2-.35c.52-.34.39-1.24.37-1.4a8,8,0,0,1-.68-1.16,7.54,7.54,0,0,1-.75-3.81.14.14,0,0,1,.07-.1l.79-.4c.51-.23.81-1.26.88-1.64a3.75,3.75,0,0,0-.47-1.84,8.23,8.23,0,0,1-2.08-.62c-.31-.15-.65-.36-.59-.62.13-.48,2-.48,3-.44a1.26,1.26,0,0,0-.52-.87.12.12,0,0,1,0-.1v-1.1a.13.13,0,0,1,.09-.12.86.86,0,0,0,.53-1h-2a3.3,3.3,0,0,1-2.82-1.37c-.24-.35-.83-1-.84-1l-1-.84a.12.12,0,0,1,0-.14.12.12,0,0,1,.12-.08h0l1,0a.12.12,0,0,1,0-.13c0-.1.09-.37,2.56-.2h0c.28.11.42.24.44.4a.37.37,0,0,1-.12.28v0L123,262a.64.64,0,0,1-.34-.46.66.66,0,0,1,.25-.51,1.14,1.14,0,0,1,.65-.7c1.47-1.2,1.26-3.62,1.22-4a1,1,0,0,1-.34-.63,1.52,1.52,0,0,1,.33-.94v-.39a1.31,1.31,0,0,1-.41-.94,1.28,1.28,0,0,1,.41-.84v-.37a.13.13,0,0,1,.12-.13H125V237.43h-.52a.12.12,0,0,1-.12-.13V236a1.94,1.94,0,0,0-1-1.11,2.5,2.5,0,0,0-1.71.1.15.15,0,0,1-.13,0,.12.12,0,0,1-.05-.12l.09-.5a2.47,2.47,0,0,1,.43-2.26,4,4,0,0,1,3-.92.81.81,0,0,1,.58-.78h0a.8.8,0,0,1,.58.78,4,4,0,0,1,3,.92,2.47,2.47,0,0,1,.43,2.26l.08.49a.15.15,0,0,1,0,.13.12.12,0,0,1-.13,0,2.51,2.51,0,0,0-1.71-.1,1.91,1.91,0,0,0-1,1.11v1.31a.13.13,0,0,1-.12.13h-.52v14.68h.16a.13.13,0,0,1,.13.13v.37a1.28,1.28,0,0,1,.4.84,1.26,1.26,0,0,1-.4.94v.39a1.47,1.47,0,0,1,.32.94.93.93,0,0,1-.33.63c0,.36-.26,2.78,1.22,4a1.16,1.16,0,0,1,.65.71.64.64,0,0,1,.24.5.6.6,0,0,1-.33.46l.74,1.35v0a.37.37,0,0,1-.12-.28c0-.16.16-.29.43-.4h0c2.47-.17,2.54.1,2.56.2a.19.19,0,0,1,0,.13l1,0h0a.13.13,0,0,1,.12.08.12.12,0,0,1,0,.14l-1,.85h0s-.59.66-.83,1a3.29,3.29,0,0,1-2.81,1.37h-2a.87.87,0,0,0,.54,1,.14.14,0,0,1,.09.12v1.1a.11.11,0,0,1-.06.1,1.26,1.26,0,0,0-.51.87c1,0,2.85,0,3,.44.07.26-.27.47-.58.62a8.33,8.33,0,0,1-2.09.62,4,4,0,0,0-.46,1.86c.07.36.37,1.39.87,1.62l.8.4a.18.18,0,0,1,.07.1,7.7,7.7,0,0,1-1.43,5c0,.16-.15,1.06.36,1.4a.44.44,0,0,1,.21.35.39.39,0,0,1-.16.29l.19.56c1.35.08,7,.48,7.09,1.47,0,.32-.35.6-1.26.9a1.23,1.23,0,0,0-.59,1.31.12.12,0,0,1,0,.1.16.16,0,0,1-.08.06A37.16,37.16,0,0,1,126.07,287.54Zm-.47-.26a31.59,31.59,0,0,0,6.44-.86,1.51,1.51,0,0,1,.76-1.47c1.09-.37,1.12-.6,1.11-.64-.07-.54-3.58-1.07-6.94-1.26a.14.14,0,0,1-.11-.09l-.24-.73a.13.13,0,0,1,0-.15c.08,0,.12-.09.12-.13a.19.19,0,0,0-.1-.14c-.69-.47-.47-1.64-.46-1.69a.08.08,0,0,1,0,0,7.6,7.6,0,0,0,1.4-4.76l-.73-.36c-.71-.33-1-1.77-1-1.83a4,4,0,0,1,.54-2.07.13.13,0,0,1,.1-.06h0a8.13,8.13,0,0,0,2-.6c.43-.21.44-.32.44-.32-.05-.2-1.39-.32-2.86-.26a.14.14,0,0,1-.09,0,.18.18,0,0,1,0-.09,1.5,1.5,0,0,1,.58-1.17v-.94a1.17,1.17,0,0,1-.61-1.36.14.14,0,0,1,.13-.1h2.1a3.06,3.06,0,0,0,2.6-1.25,13.44,13.44,0,0,1,.87-1.06l.77-.63-1,0h0a.12.12,0,0,1-.12-.1.12.12,0,0,1,.07-.14l.19-.09a11.11,11.11,0,0,0-2.22,0c-.24.1-.25.17-.25.18s.06.1.08.11a.11.11,0,0,1,0,.14l-.12.4a.12.12,0,0,1-.23,0L128,262a.12.12,0,0,1,0-.1.16.16,0,0,1,.06-.08c.14-.07.3-.18.31-.32s-.12-.27-.18-.32a.1.1,0,0,1,0-.07.93.93,0,0,0-.54-.58l0,0c-1.71-1.37-1.33-4.14-1.31-4.26a.12.12,0,0,1,0-.08.68.68,0,0,0,.28-.49,1.22,1.22,0,0,0-.29-.79.11.11,0,0,1,0-.08v-.49a.14.14,0,0,1,0-.09,1.06,1.06,0,0,0,.37-.79,1.1,1.1,0,0,0-.36-.7.13.13,0,0,1,0-.1v-.3h-.16a.13.13,0,0,1-.13-.12V237.3a.13.13,0,0,1,.13-.12h.51V236a.06.06,0,0,1,0,0,2.11,2.11,0,0,1,1.19-1.27,2.51,2.51,0,0,1,1.69,0l-.05-.3a0,0,0,0,1,0-.05,2.23,2.23,0,0,0-.37-2.06c-.91-1-2.92-.83-2.94-.84a.1.1,0,0,1-.1,0,.1.1,0,0,1,0-.09c0-.5-.28-.63-.36-.66s-.36.16-.36.66a.11.11,0,0,1,0,.09.08.08,0,0,1-.09,0s-2-.19-3,.84a2.26,2.26,0,0,0-.36,2.06v.05l0,.3a2.5,2.5,0,0,1,1.69,0,2.17,2.17,0,0,1,1.19,1.27s0,0,0,0v1.22h.51a.13.13,0,0,1,.13.12v14.94a.13.13,0,0,1-.13.12H125v.3a.14.14,0,0,1,0,.1.94.94,0,0,0,0,1.49.11.11,0,0,1,0,.09v.49a.11.11,0,0,1,0,.08,1.29,1.29,0,0,0-.3.79.71.71,0,0,0,.28.49.14.14,0,0,1,0,.08c0,.12.4,2.89-1.32,4.26,0,0,0,0,0,0a1,1,0,0,0-.53.58.12.12,0,0,1,0,.07c0,.05-.19.18-.18.32s.18.25.32.32a.16.16,0,0,1,.06.08.12.12,0,0,1,0,.1l-1,1.7a.12.12,0,0,1-.12.07.12.12,0,0,1-.1-.09l-.13-.4a.13.13,0,0,1,.06-.14.21.21,0,0,0,.08-.11s0-.08-.26-.18a11.11,11.11,0,0,0-2.22,0l.2.09a.13.13,0,0,1,.07.14.12.12,0,0,1-.12.1h0l-1,0,.76.62a12.29,12.29,0,0,1,.88,1.06,3.1,3.1,0,0,0,2.61,1.26h2.1a.12.12,0,0,1,.12.1,1.16,1.16,0,0,1-.6,1.36v.94a1.53,1.53,0,0,1,.57,1.17.16.16,0,0,1,0,.09.15.15,0,0,1-.1,0c-1.47-.06-2.8.06-2.85.26,0,0,0,.11.45.33a8.67,8.67,0,0,0,2,.59h0a.15.15,0,0,1,.11.06,4,4,0,0,1,.54,2.05c0,.08-.3,1.52-1,1.85l-.73.36a7.66,7.66,0,0,0,.74,3.62,6.94,6.94,0,0,0,.67,1.14s0,0,0,0,.23,1.22-.47,1.69a.2.2,0,0,0-.09.14s0,.09.12.13a.13.13,0,0,1,0,.15l-.24.73a.14.14,0,0,1-.12.09c-3.35.19-6.87.72-6.94,1.26,0,0,0,.27,1.1.62a1.55,1.55,0,0,1,.78,1.49A31.47,31.47,0,0,0,125.6,287.28Zm.75-50.49h-1.49a.12.12,0,0,1-.09,0,.17.17,0,0,1,0-.1,2,2,0,0,0-.47-1.69,3.24,3.24,0,0,0-2.22-.76.14.14,0,0,1-.1,0,.14.14,0,0,1,0-.09,2.34,2.34,0,0,1,1-2,3.45,3.45,0,0,1,2.74-.09,3.43,3.43,0,0,1,2.73.09,2.35,2.35,0,0,1,1,2,.11.11,0,0,1,0,.09.1.1,0,0,1-.09,0,3.26,3.26,0,0,0-2.23.76,2,2,0,0,0-.46,1.69.13.13,0,0,1,0,.1A.1.1,0,0,1,126.35,236.79Zm-1.35-.25h1.21a2.25,2.25,0,0,1,.55-1.76A3.3,3.3,0,0,1,129,234a2.07,2.07,0,0,0-.83-1.66,3.31,3.31,0,0,0-2.56,0h-.09a3.28,3.28,0,0,0-2.55,0,2,2,0,0,0-.83,1.66,3.28,3.28,0,0,1,2.27.83A2.21,2.21,0,0,1,125,236.54Z"/><path class="cls-1" d="M123.94,277.15a12.26,12.26,0,0,0,3.24,0"/><path class="cls-1" d="M123.94,277.15a12.26,12.26,0,0,0,3.24,0"/><path class="cls-1" d="M124.75,279.53a6.13,6.13,0,0,0,1.62,0"/><path class="cls-1" d="M124.75,279.53a6.13,6.13,0,0,0,1.62,0"/><path class="cls-1" d="M124.53,281.85a6.74,6.74,0,0,0,2.16,0"/><path class="cls-1" d="M124.53,281.85a6.74,6.74,0,0,0,2.16,0"/><path class="cls-1" d="M124.53,282a6.74,6.74,0,0,0,2.16,0"/><path class="cls-1" d="M124.53,282a6.74,6.74,0,0,0,2.16,0"/><path class="cls-1" d="M124.42,282.47a1.75,1.75,0,0,1-.56,1.34,2.17,2.17,0,0,1-1.26.73v0a2.23,2.23,0,0,0,1.06-.85,11,11,0,0,1,.74-1.19Z"/><path class="cls-1" d="M126.81,282.46a11,11,0,0,1,.74,1.19,2.26,2.26,0,0,0,1.07.85v0a2.17,2.17,0,0,1-1.26-.73,1.76,1.76,0,0,1-.57-1.34Z"/><path class="cls-1" d="M119.09,285.57c1.07.13,2.14.22,3.22.3s2.15.13,3.22.14,2.15,0,3.23-.05,2.14-.15,3.22-.27a21.9,21.9,0,0,1-3.21.52,31.9,31.9,0,0,1-3.24.12A30.23,30.23,0,0,1,119.09,285.57Z"/><path class="cls-1" d="M123.49,275.34a13.35,13.35,0,0,0,4.24,0"/><path class="cls-1" d="M123.49,275.34a13.35,13.35,0,0,0,4.24,0"/><path class="cls-1" d="M125,274.36a5,5,0,0,0,1.3,0"/><path class="cls-1" d="M125,274.36a5,5,0,0,0,1.3,0"/><path class="cls-1" d="M122,284a8,8,0,0,0-1.91.41c-.07,0-.12.09-.09.07a.37.37,0,0,0,.16.09,3.1,3.1,0,0,0,.46.11c.32.06.65.09,1,.12,1.31.11,2.63.15,4,.14s2.64,0,4-.14c.33,0,.66-.07,1-.13a2.12,2.12,0,0,0,.45-.12c.17-.08.19,0,0-.15A8.62,8.62,0,0,0,129,284a9,9,0,0,1,2,.26c.07,0,.19,0,.23.23s-.16.19-.23.24a2.34,2.34,0,0,1-.49.16c-.33.07-.66.12-1,.17a36.11,36.11,0,0,1-8,0,8.54,8.54,0,0,1-1-.17,2.26,2.26,0,0,1-.49-.14.46.46,0,0,1-.25-.19c-.06-.19.12-.25.18-.28A7.5,7.5,0,0,1,122,284Z"/><path class="cls-1" d="M133.88,240.23c-2.69,2.38-5.48,4.62-8.22,6.94s-5.57,4.53-8.43,6.69c2.68-2.38,5.48-4.63,8.22-6.94S131,242.39,133.88,240.23Z"/><path class="cls-1" d="M131.72,244.44c-1.72,1.58-3.51,3.06-5.3,4.55s-3.62,2.93-5.51,4.3c1.71-1.58,3.51-3.06,5.3-4.55S129.83,245.81,131.72,244.44Z"/><path class="cls-1" d="M121.19,263.24a1.49,1.49,0,0,0,1.19,1.49"/><path class="cls-1" d="M130.16,263.24a1.49,1.49,0,0,1-1.18,1.49"/><path class="cls-1" d="M125.09,263.58a3.49,3.49,0,0,1-2.18-.53h0a21,21,0,0,0,5.33,0h0a4.6,4.6,0,0,1-1.78.51Z"/><path class="cls-1" d="M125.32,264.79a5,5,0,0,1-3.08-.88h0s2.53,1.12,6.77,0h0A6.53,6.53,0,0,1,125.32,264.79Z"/></svg>