<svg width="24" height="24" viewBox="0 0 24 24" fill="none" xmlns="http://www.w3.org/2000/svg">
<path d="M23.939 7.05609C23.8828 5.78087 23.6765 4.90417 23.381 4.1445C23.0762 3.33813 22.6073 2.61618 21.9929 2.01602C21.3927 1.40653 20.6658 0.932924 19.8686 0.632938C19.1044 0.33753 18.2321 0.131313 16.9567 0.0750881C15.6717 0.0141019 15.2638 0 12.0047 0C8.74559 0 8.33766 0.0141019 7.05743 0.0703264C5.78197 0.126551 4.90511 0.332952 4.14547 0.628176C3.33876 0.932924 2.61668 1.40177 2.01641 2.01602C1.4068 2.61618 0.933285 3.34289 0.633059 4.13992C0.337595 4.90417 0.131338 5.77611 0.0751024 7.05133C0.0141046 8.33607 0 8.74392 0 12.0024C0 15.2608 0.0141046 15.6687 0.0703399 16.9487C0.126575 18.2239 0.333015 19.1006 0.628479 19.8603C0.933285 20.6666 1.4068 21.3886 2.01641 21.9887C2.61668 22.5982 3.34353 23.0718 4.14071 23.3718C4.90511 23.6672 5.77721 23.8734 7.05285 23.9297C8.33289 23.9861 8.74101 24 12.0001 24C15.2592 24 15.6671 23.9861 16.9473 23.9297C18.2228 23.8734 19.0997 23.6672 19.8593 23.3718C21.4725 22.7482 22.748 21.473 23.3717 19.8603C23.667 19.096 23.8734 18.2239 23.9297 16.9487C23.9859 15.6687 24 15.2608 24 12.0024C24 8.74392 23.9952 8.33607 23.939 7.05609ZM21.9285 16.9261C21.876 18.1183 21.6758 18.7621 21.5089 19.1913C21.0988 20.2548 20.255 21.0988 19.1918 21.509C18.7627 21.6759 18.1144 21.8761 16.9272 21.9285C15.6399 21.9858 15.2539 22 11.9976 22C8.74128 22 8.35038 21.9858 7.06779 21.9285C5.87589 21.8761 5.23227 21.6759 4.80319 21.509C4.2741 21.3134 3.7925 21.0034 3.40159 20.5981C2.99635 20.2022 2.68646 19.7254 2.49091 19.1961C2.32405 18.7669 2.12385 18.1183 2.07151 16.931C2.01415 15.6434 2 15.2571 2 12C2 8.74292 2.01415 8.35192 2.07151 7.0692C2.12385 5.87702 2.32405 5.23324 2.49091 4.80405C2.68646 4.27465 2.99635 3.79312 3.40644 3.40193C3.802 2.99659 4.27875 2.68662 4.80803 2.49122C5.23711 2.32431 5.88558 2.12406 7.07263 2.07153C8.35988 2.01434 8.74613 2 12.0022 2C15.2634 2 15.6494 2.01434 16.932 2.07153C18.1239 2.12406 18.7675 2.32431 19.1966 2.49122C19.7257 2.68662 20.2073 2.99659 20.5982 3.40193C21.0035 3.79778 21.3134 4.27465 21.5089 4.80405C21.6758 5.23324 21.876 5.88168 21.9285 7.0692C21.9857 8.35676 22 8.74292 22 12C22 15.2571 21.9857 15.6386 21.9285 16.9261Z" fill="#DAA9A4"/>
<path d="M12 6C8.68756 6 6 8.68738 6 12C6 15.3126 8.68756 18 12 18C15.3126 18 18 15.3126 18 12C18 8.68738 15.3126 6 12 6ZM12 16C9.79145 16 8 14.2087 8 12C8 9.79127 9.79145 8 12 8C14.2087 8 16 9.79127 16 12C16 14.2087 14.2087 16 12 16Z" fill="#DAA9A4"/>
<path d="M19.1923 5.5C19.1923 6.32835 18.5035 7 17.6537 7C16.8042 7 16.1154 6.32835 16.1154 5.5C16.1154 4.67146 16.8042 4 17.6537 4C18.5035 4 19.1923 4.67146 19.1923 5.5Z" fill="#DAA9A4"/>
</svg>
