<svg width="25" height="17" viewBox="0 0 25 17" fill="none" xmlns="http://www.w3.org/2000/svg">
<path d="M24.4849 2.66009C24.1968 1.61992 23.3524 0.799955 22.2815 0.519867C20.3252 1.19209e-07 12.4997 0 12.4997 0C12.4997 0 4.67454 0 2.71821 0.500157C1.66794 0.779948 0.802918 1.62006 0.514832 2.66009C-9.53674e-07 4.55995 0 8.5 0 8.5C0 8.5 -9.53674e-07 12.4599 0.514832 14.3399C0.803223 15.3799 1.64734 16.1999 2.71836 16.48C4.69514 17 12.5 17 12.5 17C12.5 17 20.3252 17 22.2815 16.4998C23.3525 16.2199 24.1968 15.3999 24.4852 14.3599C25 12.4599 25 8.52001 25 8.52001C25 8.52001 25.0205 4.55995 24.4849 2.66009ZM10 12V5L17 8.5L10 12Z" fill="#DAA9A4"/>
</svg>
