<svg width="44" height="47" viewBox="0 0 44 47" fill="none" xmlns="http://www.w3.org/2000/svg">
<path fill-rule="evenodd" clip-rule="evenodd" d="M19.4714 42.1619C18.7702 41.6355 18.4781 40.8636 18.15 40.0933C17.2326 37.9398 15.9329 36.0253 14.2924 34.3494C13.4787 33.518 12.9019 32.5638 12.4178 31.5137C11.5927 29.7235 10.804 27.9089 9.69047 26.2643C9.36404 25.7821 9.00883 25.3191 8.66983 24.8451C8.25244 24.2614 8.30491 23.8027 8.87662 23.37C9.58243 22.8356 10.3706 22.7888 11.1722 23.1281C12.0684 23.5076 12.809 24.0905 13.35 24.9132C13.9119 25.7679 14.4864 26.6145 15.0583 27.4628C15.1376 27.5805 15.2251 27.6949 15.3221 27.7986C15.6292 28.1264 15.9612 28.1724 16.2391 27.8291C16.546 27.4496 16.8227 27.0187 16.994 26.5652C17.1576 26.1325 17.2088 25.6448 17.2407 25.1761C17.5195 21.0694 17.7849 16.9618 18.0487 12.854C18.0881 12.239 18.2281 11.6827 18.7815 11.3199C19.7475 10.687 21.0414 11.2103 21.3204 12.3507C21.368 12.5455 21.3882 12.7481 21.4063 12.9483C21.6588 15.7338 21.9131 18.5192 22.1527 21.3056C22.177 21.5875 22.2745 21.7055 22.551 21.7836C26.2618 22.8317 29.5131 24.6749 32.2406 27.4142C32.5195 27.6944 32.7033 28.0109 32.668 28.4272C32.4531 30.9708 32.0588 33.4809 31.1397 35.8712C30.7557 36.87 30.4109 37.8701 30.2654 38.9302C30.1981 39.4209 30.1828 39.9191 30.1467 40.414C30.085 41.2617 29.614 41.7577 28.76 41.848C26.3353 42.1046 23.9112 42.3685 21.4834 42.5966C21.0334 42.6388 20.5678 42.5275 20.1094 42.487L19.4714 42.1619Z" fill="white"/>
<path fill-rule="evenodd" clip-rule="evenodd" d="M15.6081 16.4173C13.4653 15.1732 11.6428 12.1332 12.3227 8.70597C13.0102 5.24105 15.8682 2.8004 19.4239 2.59792C22.7081 2.41091 25.8632 4.6344 26.8523 7.81683C27.904 11.2015 26.4383 14.5105 24.1702 16.1074C24.0976 15.2404 24.0367 14.3886 23.9519 13.5392C23.8861 12.8798 23.8689 12.2015 23.6952 11.5695C22.8784 8.59592 19.3251 7.62017 17.0911 9.74606C16.3782 10.4244 15.9743 11.2834 15.8974 12.2724C15.8025 13.4936 15.7279 14.7163 15.6443 15.9383C15.6342 16.0854 15.6222 16.2323 15.6081 16.4173Z" fill="white"/>
</svg>
