<svg width="23" height="18" viewBox="0 0 23 18" fill="none" xmlns="http://www.w3.org/2000/svg">
<path d="M7.60953 18C15.9307 18 20.4812 11.0754 20.4812 5.07094C20.4812 4.87427 20.4771 4.67842 20.4684 4.48364C21.3516 3.84218 22.1193 3.04169 22.725 2.13055C21.9144 2.4926 21.042 2.73599 20.1271 2.84611C21.061 2.28334 21.7781 1.39346 22.1163 0.332654C21.2422 0.85317 20.2742 1.23133 19.2437 1.43558C18.4182 0.552346 17.2427 0 15.9413 0C13.4432 0 11.4172 2.03493 11.4172 4.54338C11.4172 4.90014 11.4569 5.24688 11.5345 5.57953C7.77458 5.3895 4.4404 3.58144 2.20939 0.831905C1.82103 1.50331 1.59692 2.28347 1.59692 3.11592C1.59692 4.69223 2.39561 6.0842 3.61003 6.89823C2.86784 6.87534 2.17069 6.67068 1.56119 6.33004C1.56052 6.34913 1.56052 6.36769 1.56052 6.38801C1.56052 8.58872 3.11986 10.4262 5.19014 10.8425C4.80988 10.9464 4.40979 11.0024 3.99717 11.0024C3.70617 11.0024 3.42245 10.9736 3.14683 10.9204C3.72275 12.7259 5.39295 14.0397 7.37301 14.0766C5.82459 15.2956 3.87405 16.0217 1.75415 16.0217C1.38953 16.0217 1.02909 16.0007 0.674988 15.9587C2.67717 17.2477 5.05462 18 7.60966 18" fill="#DAA9A4"/>
</svg>
