<svg xmlns="http://www.w3.org/2000/svg" viewBox="0 0 73.02 89.03"><g id="infografía"><path d="M52.27,31.72a1.2,1.2,0,0,0,.37-.15,5.24,5.24,0,0,0,.54-.42,1.65,1.65,0,0,0,.36-.63l.05-.12.24.09a.22.22,0,0,0,.28,0,.23.23,0,0,0,0-.29l-.06-.07a4.26,4.26,0,0,0-1-.66l-.48-.21a2.81,2.81,0,0,0-1.74-.2,4,4,0,0,0-1.08.3,2.08,2.08,0,0,0-.88.7.69.69,0,0,0,0,.13l-.07.16a.31.31,0,0,1,0-.35,3.55,3.55,0,0,1,1.37-1.12s.11-.1.1-.12a.19.19,0,0,0-.14-.11.68.68,0,0,0-.28,0c-.14.05-.27.12-.42.19,0,0,0,0,0,0a4,4,0,0,1,1.14-.91,1.83,1.83,0,0,1,1-.13,2.35,2.35,0,0,1,1.48.86c.25.27.46.57.68.86l0,0,.17.08c0-.07.06-.13.05-.19a1.71,1.71,0,0,0-.36-.74L53.08,28a2.4,2.4,0,0,1,.28.14,6.2,6.2,0,0,1,1,.83s0,.05.05.05a.24.24,0,0,0,.16,0,.15.15,0,0,0,.05-.14,1.34,1.34,0,0,0-.24-.44,4.12,4.12,0,0,0-1-.78c-.2-.09-.41-.16-.62-.24s-.12,0-.14-.17a2.51,2.51,0,0,1,1.22.48c.26.18.49.39.74.59a.18.18,0,0,0,.07.05.22.22,0,0,0,.13,0,.19.19,0,0,0,0-.14,2.26,2.26,0,0,0-.26-.42A3.65,3.65,0,0,0,53.13,27l-.48-.18v0a2.58,2.58,0,0,1,.39,0,4,4,0,0,1,1.59.77c.07.06.15.16.25.07s0-.2,0-.27a2.05,2.05,0,0,0-.4-.38,3.47,3.47,0,0,0-1.16-.52l-.11-.05a.66.66,0,0,1,.37-.06,5.73,5.73,0,0,1,1.14.48c.07,0,.14.11.22,0a.18.18,0,0,0,0-.25c-.14-.12-.3-.23-.46-.35l-.12-.07c.11,0,.2-.05.3,0a.63.63,0,0,0,.28.1.6.6,0,0,0,.41-.24.25.25,0,0,0-.11-.31.37.37,0,0,1-.17-.2.24.24,0,0,0-.27-.16l-.51,0a.19.19,0,0,1-.11-.05.7.7,0,0,0-.53-.23c-.12,0-.22.1-.33.1s-.21-.08-.32-.09a.71.71,0,0,0-.48.15.11.11,0,0,1-.11,0,.6.6,0,0,0-.54,0,.88.88,0,0,0-.21.12,2.47,2.47,0,0,1-1.46.49,6,6,0,0,0-1.12.14,1.37,1.37,0,0,0-.93.59h0l0-.35s0-.06,0-.09,0-.12-.05-.14a.16.16,0,0,0-.15,0,1.06,1.06,0,0,0-.19.24.68.68,0,0,0-.07.2l-.42-.16c-.09,0-.24-.11-.26-.09a.35.35,0,0,0,0,.51l.23.11.22.11-.22.13c-.08.06-.06.19,0,.27a.35.35,0,0,0,.32.12.51.51,0,0,1,.17,0,.8.8,0,0,1,.38.39.11.11,0,0,1,0,.17.29.29,0,0,1-.16,0l-.2-.14a.17.17,0,0,0-.14,0,.15.15,0,0,0,0,.13,2.53,2.53,0,0,0,.18.37.12.12,0,0,1,0,.15c0,.07-.07.09-.13.08a1.08,1.08,0,0,1-.19,0,.17.17,0,0,0-.19.06v.07a.46.46,0,0,0,.33.33l-.08.28-.25-.05a.47.47,0,0,0-.17,0,.14.14,0,0,0-.09.22.41.41,0,0,0,.26.2l.17.06a3.2,3.2,0,0,0,0,.44,5.58,5.58,0,0,0,.13.69c.09.37.19.74.28,1.1a4.94,4.94,0,0,1,.09,1.21c0,.54,0,1.08,0,1.62A6.72,6.72,0,0,0,48.08,36a1.91,1.91,0,0,0,.48.78c0-.09,0-.14,0-.19a3,3,0,0,0-.11-.89c0-.21-.08-.42-.11-.63a.27.27,0,0,1,0-.09l.72.48.2.1a.19.19,0,0,0,.18-.32,1.82,1.82,0,0,0-.23-.15c-.19-.14-.39-.27-.57-.41a.94.94,0,0,1-.31-.45,1.27,1.27,0,0,1,0-.22l.1.06c.16.12.32.25.49.36a.85.85,0,0,0,.22.09.17.17,0,0,0,.22-.09.16.16,0,0,0-.06-.22l-.15-.1-.69-.56a.34.34,0,0,1-.11-.28,2.62,2.62,0,0,0,0-.29,2.86,2.86,0,0,0,.33.29,2.08,2.08,0,0,0,.36.2.15.15,0,0,0,.21-.08.16.16,0,0,0-.05-.22A2.78,2.78,0,0,1,49,33c-.21-.21-.4-.43-.6-.66a.05.05,0,0,1,0-.05c-.06-.25-.11-.5-.15-.76l.25.29a3.52,3.52,0,0,0,.36.41,2.24,2.24,0,0,0,.71.52,4.55,4.55,0,0,0,.66.17c.17,0,.35,0,.53,0a.79.79,0,0,0,.46-.17s.07-.08.06-.11-.07-.08-.11-.1a.2.2,0,0,0-.13,0,2.23,2.23,0,0,1-.73,0,1.88,1.88,0,0,1-.33,0,1.22,1.22,0,0,1-.63-.36c-.12-.15-.27-.27-.4-.41a1.72,1.72,0,0,1-.12-.21c.12,0,.22.14.27,0a.48.48,0,0,0,0-.24,3.74,3.74,0,0,0,.66.25,6.52,6.52,0,0,0,1,.11.43.43,0,0,0,.25-.11.11.11,0,0,0-.07-.2c-.29-.05-.57-.1-.85-.17a1.26,1.26,0,0,1-.65-.35.38.38,0,0,1,.16-.66,1.17,1.17,0,0,0,.54.73,1.7,1.7,0,0,0,1.2.32.58.58,0,0,0,.21-.1,1.48,1.48,0,0,0,.64-.87.64.64,0,0,0,0-.24c0-.1,0-.13.14-.11a2.49,2.49,0,0,1,.35.08l.59.24a2,2,0,0,1-.82,1l-.11.05c-.13.07-.26.13-.38.21a.13.13,0,0,0,.05.23A.83.83,0,0,0,52.27,31.72Zm-.37-1.95a4.27,4.27,0,0,1-.26.41c-.08.1-.18.06-.27,0s-.14-.13-.1-.24,0-.14.06-.23Z"/><path d="M49.35,39.3a.46.46,0,0,1,0,.26,2.35,2.35,0,0,1-.22.45,2,2,0,0,1-1.17.8c-.25.08-.5.13-.76.2v-.59a1.9,1.9,0,0,0,1.29-.51c.2-.2.38-.42.57-.64S49.31,39.18,49.35,39.3Z"/><path d="M50.17,21.71s-.11,0-.17,0a3.39,3.39,0,0,0-.55,0c-.38.09-.76.2-1.13.3a3.44,3.44,0,0,1-1.1.19h-.17A6,6,0,0,1,45.36,22a5.05,5.05,0,0,0-1.77-.24,3.71,3.71,0,0,1-.44-.05.7.7,0,0,1,.54-.34,3,3,0,0,1,.6,0c.43.07.86.16,1.28.27a7.46,7.46,0,0,0,1.65.23c.08,0,.13,0,.25,0,.43-.11.87-.21,1.31-.34a3.25,3.25,0,0,1,1.2-.15.3.3,0,0,1,.19,0,.16.16,0,0,1,0,.3Z"/><path d="M47.22,24.7a.22.22,0,0,1,0-.37l.13,0,.38-.13a1.52,1.52,0,0,1,.28-.09,1.1,1.1,0,0,1,.31,0,.11.11,0,0,1,.06.09s0,.06-.08.08l-.17.09c-.09.07-.18.15-.27.21A.64.64,0,0,1,47.22,24.7Z"/><path d="M47.75,25.46c-.16.14-.34.09-.53,0s-.18-.11-.2-.22a.2.2,0,0,1,.2-.24l.51,0a.18.18,0,0,1,.13.27A.31.31,0,0,1,47.75,25.46Z"/><path d="M47.86,21.29l-.15.08a2.62,2.62,0,0,1-.5.07,1.15,1.15,0,0,1,0-.19,1.15,1.15,0,0,0,0,.19,5.81,5.81,0,0,1-1.5-.11,2.29,2.29,0,0,1-.37-.12.18.18,0,0,1-.1-.23.2.2,0,0,1,.21-.12.58.58,0,0,1,.14,0c.23.05.46.1.69.13a3.69,3.69,0,0,0,.94,0l.5-.08a.17.17,0,0,1,.22.1A.16.16,0,0,1,47.86,21.29Z"/><path d="M51.77,69.37a.27.27,0,0,1,.2.07,2,2,0,0,0,.89.55l.07,0s0,0,0,0l-.38.06c-.18,0-.24.12-.19.28A2.73,2.73,0,0,0,54,72.27a5.22,5.22,0,0,0,1.85.44c.33,0,.66,0,1,0a2.74,2.74,0,0,0,.5-.08l.38-.06a3.35,3.35,0,0,0,0,1.41c.08.46.21.92.31,1.38l-.09,0a10.62,10.62,0,0,1-1.47-1.1l-.14-.12a.26.26,0,0,0-.28-.07.3.3,0,0,0-.21.32,5.06,5.06,0,0,0,.47,1.88,3.42,3.42,0,0,0,.23.47A3.58,3.58,0,0,1,57,78a4.1,4.1,0,0,0,1.77,2.58c.44.3.92.56,1.37.85l1.2.78a.24.24,0,0,1,.06.11l.09.87c0,.13,0,.26,0,.39a.2.2,0,0,0,.2.2.19.19,0,0,0,.17-.22,8.3,8.3,0,0,0-.28-2,8.38,8.38,0,0,1-.28-1.41,1.16,1.16,0,0,0-.43-.86c-.34-.27-.65-.55-1-.81a1.87,1.87,0,0,0-.43-.19s-.08,0-.12,0a.42.42,0,0,0,0,.13,2.2,2.2,0,0,0,.26.27c.36.31.74.62,1.11.92a.78.78,0,0,1,.25.46c-.52-.36-.9-.9-1.57-1.08,0,.08,0,.13,0,.16a3.26,3.26,0,0,0,.34.4c.32.29.66.56,1,.85a.66.66,0,0,1,.25.4l-.6-.46-.28-.22c-.14-.11-.25-.11-.31,0s0,.19.09.29c.37.28.74.58,1.12.85a.47.47,0,0,1,.19.37h0l-1.45-.89a6.58,6.58,0,0,1-1.48-1.09A3.72,3.72,0,0,1,57.41,78s0,0,0-.08a3.53,3.53,0,0,1,.35.25,1.08,1.08,0,0,0,.51.26.22.22,0,0,0,.11,0,.45.45,0,0,0,0-.11c-.21-.26-.41-.51-.63-.76a6.79,6.79,0,0,1-1.2-2.19,3.77,3.77,0,0,1-.16-.6.18.18,0,0,1,.07,0,6.77,6.77,0,0,0,1.89,1.32,7.06,7.06,0,0,1,1,.68,3.87,3.87,0,0,1,1.1,1.28c.09.18.19.34.29.51a1.36,1.36,0,0,1,.1.14c0-.08,0-.12,0-.16a1.61,1.61,0,0,0-.26-1,4.69,4.69,0,0,0-1.14-1.17L59,76.06a.61.61,0,0,1-.23-.34l-.27-.85a5.07,5.07,0,0,1-.22-2.35c0-.07,0-.1.1-.09l.69.06c.09,0,.12,0,.09-.1a.49.49,0,0,0-.27-.34.89.89,0,0,0-.6-.07c-.27,0-.55.08-.82.11s-.4,0-.6,0a7.13,7.13,0,0,1-2.1-.27,4.26,4.26,0,0,1-1.1-.52l-.12-.11-.21-.17L53.2,71,53,70.61v0c.2,0,.4,0,.6,0a.72.72,0,0,1,.53.17,3.41,3.41,0,0,0,.6.31s.09,0,.14,0,0-.11,0-.15a3.67,3.67,0,0,0-.44-.52,5.2,5.2,0,0,0-1.48-.9l-.38-.18a2,2,0,0,0,1.15-.58l-.2,0a3.72,3.72,0,0,0-1.15.11,2.52,2.52,0,0,1-2.15-.48A2.13,2.13,0,0,1,50,68c.68-.08,1.34-.2,2-.23a5.08,5.08,0,0,1,2.58.6,1.51,1.51,0,0,0,.17.1.24.24,0,0,0,.17,0,.2.2,0,0,0,0-.17.61.61,0,0,0-.17-.19,2.7,2.7,0,0,0-1-.46c-.39-.1-.78-.16-1.17-.24a.58.58,0,0,1-.14,0,7.43,7.43,0,0,1-1.9-1.12.31.31,0,0,0-.06-.06,1.92,1.92,0,0,1,.34,0,2.54,2.54,0,0,1,.65.19,4.19,4.19,0,0,0,1.41.51,3.87,3.87,0,0,0,.48,0,.69.69,0,0,1,.2,0L54.8,67a5.53,5.53,0,0,1,1.06.21,6.32,6.32,0,0,1,1.19.6.46.46,0,0,1,.12.12,1.15,1.15,0,0,1,.29.79,1.28,1.28,0,0,0,.21.65.94.94,0,0,0,.68.45.15.15,0,0,1,.13.12c.06.23.12.47.19.7a1.19,1.19,0,0,0,.08.2s.07.08.1.07a.19.19,0,0,0,.09-.09,1.06,1.06,0,0,0,0-.68l-.09-.34.27-.12a2.46,2.46,0,0,1,.16,1,.21.21,0,0,1,0,.11.92.92,0,0,0,.08,1v0c.08.1.23.16.29.12s.06-.18,0-.27-.08-.22-.1-.34a.4.4,0,0,1,.33-.49,1.13,1.13,0,0,0,.83-.57,3.36,3.36,0,0,0,.19-.38s.05.09,0,.12a1.11,1.11,0,0,0,.07.65,2.86,2.86,0,0,1,0,1.09,5.25,5.25,0,0,1-.22.67c-.1.31-.21.62-.31,1l-.08-.08-.36-.4c-.05-.06-.13-.12-.19,0a.18.18,0,0,0,0,.19,2.87,2.87,0,0,0,.26.49,8.9,8.9,0,0,0,1.25,1.49.81.81,0,0,0,.14.12,2.31,2.31,0,0,1,.91,1.45c.08.32.14.65.21,1l.06.17h0s0-.1.07-.16a2,2,0,0,0,0-1.29,3.23,3.23,0,0,0-.92-1.48.15.15,0,0,1-.06-.14c0-.16,0-.32.05-.51l.12.09.36.32a.82.82,0,0,0,.2.12.19.19,0,0,0,.23-.06.21.21,0,0,0,0-.24.34.34,0,0,0-.08-.09c-.21-.18-.42-.37-.64-.54s-.13-.1-.09-.21a1.27,1.27,0,0,0,0-.14,2.4,2.4,0,0,0,.24.22.55.55,0,0,0,.21.12.2.2,0,0,0,.17,0,.21.21,0,0,0,0-.19.66.66,0,0,0-.15-.22c-.12-.12-.25-.22-.39-.34l.21-.61c0,.12.08.22.12.32A30,30,0,0,0,64,75.88c.12.22.21.45.31.68a.89.89,0,0,1,0,.13l-.29,0h-.28a.2.2,0,0,0-.22.15.2.2,0,0,0,.15.23,1,1,0,0,0,.23.06,2,2,0,0,0,.42.06c.14,0,.19,0,.2.18a1.3,1.3,0,0,1,0,.15l-.26,0-.43-.1h-.1a.2.2,0,0,0-.2.15.2.2,0,0,0,.11.22l.71.23a.85.85,0,0,0,.23,0l0,.27-1.07-.17a.37.37,0,0,0-.18,0c-.06,0-.15.06-.17.11a.26.26,0,0,0,0,.21.53.53,0,0,0,.23.14,2.85,2.85,0,0,0,1,.17h.14l0,.22a3.74,3.74,0,0,1-1.33-.21.76.76,0,0,0-.26-.06.19.19,0,0,0-.15.09.19.19,0,0,0,0,.18.58.58,0,0,0,.21.17,2.53,2.53,0,0,0,.94.26l.46,0-.15.42c-.26-.07-.51-.11-.76-.19s-.51-.18-.77-.28-.25,0-.3,0a.24.24,0,0,0,.12.31,3.34,3.34,0,0,0,.93.41l.59.14a3.13,3.13,0,0,1-.15.32.18.18,0,0,1-.13,0l-1-.29a2.85,2.85,0,0,0-.39-.11.22.22,0,0,0-.19.09.25.25,0,0,0,0,.2.72.72,0,0,0,.22.17l1,.37.13,0L63,82v0a1,1,0,0,0,.17,0,.83.83,0,0,0,.5-.32,6.3,6.3,0,0,0,.75-1.34A5.58,5.58,0,0,0,65,78.48c0-.25,0-.5,0-.75,0-.06,0-.11,0-.17.2,0,.24,0,.31-.23a20.51,20.51,0,0,0,1-4l0-.16.13.32a1,1,0,0,1,.07,1l-.75,3c0,.09-.06.18-.08.27a.2.2,0,0,0,.12.25.18.18,0,0,0,.23-.15c.1-.35.2-.71.29-1.07.17-.74.34-1.48.54-2.23l.21.63s0,.07,0,.1c-.26,1.16-.51,2.31-.77,3.47,0,.16-.07.33-.1.5a.19.19,0,0,0,0,.08c0,.14,0,.23.12.26a.2.2,0,0,0,.24-.19c.09-.4.17-.81.25-1.21.16-.77.31-1.55.47-2.32l0,0c0,.13.07.24.11.35a1.5,1.5,0,0,1,0,1c-.21.91-.37,1.82-.57,2.73-.06.29-.14.56-.22.85l0,0q-.06.26.12.3c.11,0,.2,0,.25-.2a23.21,23.21,0,0,0,.56-2.47c.06-.32.12-.65.2-1,0,.16.08.31.14.46a.75.75,0,0,1,0,.47c-.12.48-.21,1-.31,1.45s-.27,1.24-.4,1.85a.06.06,0,0,0,0,0,.19.19,0,0,0,.12.24.19.19,0,0,0,.24-.13,5.66,5.66,0,0,0,.13-.56c.16-.78.3-1.56.45-2.34a.86.86,0,0,0,0-.13c.08.25.13.48.21.69a.85.85,0,0,1,0,.5c-.15.58-.27,1.18-.42,1.77-.07.31-.16.61-.24.92a.25.25,0,0,0,0,.07c0,.13,0,.22.14.24a.18.18,0,0,0,.22-.15c.07-.24.14-.47.2-.7.12-.53.22-1,.34-1.58a.14.14,0,0,1,0-.09c.07.29.15.59.21.88s.15.67.22,1a.28.28,0,0,0,.06.16.28.28,0,0,0,.16.11.2.2,0,0,0,.13-.14,1.46,1.46,0,0,0,0-.42c-.18-.76-.34-1.53-.55-2.29-.49-1.77-1-3.54-1.6-5.29-.39-1.14-.89-2.23-1.36-3.34a5.38,5.38,0,0,1-.2-.51,1.2,1.2,0,0,0-.64-.67c-.64-.28-1.28-.54-1.92-.81-.24-.11-.48-.2-.71-.32-.85-.43-1.7-.87-2.53-1.32a49,49,0,0,1-7.08-4.85,14.26,14.26,0,0,1-1.06-1,1.21,1.21,0,0,1-.16-.16c-.12-.15-.29-.12-.45-.13s-.16.1-.19.2c-.09.31-.19.63-.26,1-.21.93-.41,1.85-.61,2.77,0,.07,0,.13,0,.19a.49.49,0,0,1-.14.34c-.13.13-.13.2,0,.36a3.44,3.44,0,0,0,1,.93l.49.31-.48.08a8,8,0,0,1-.84.1,1,1,0,0,1-.44-.1.28.28,0,0,0-.28,0,.26.26,0,0,0-.1.27,1,1,0,0,0,.25.47A3.07,3.07,0,0,0,51.77,69.37Zm10-.39-.33,1.22-.27-.65a.11.11,0,0,1,0-.08c0-.11.07-.22.1-.34s.05-.23.08-.36ZM65,70.41,64.59,72l-.54.09.58-1.85Zm-.21,2.15c.13.06.23.15.35.22a.27.27,0,0,1,.15.29.84.84,0,0,1-.36.75.72.72,0,0,1-.76-.06.8.8,0,0,1-.28-.78A.62.62,0,0,1,64.81,72.56Zm.68-1.32c-.06.18-.12.35-.17.53l-.12.45-.26-.14.34-1.38h0l.18.48S65.49,71.22,65.49,71.24Zm-.95,4.9c.18,0,.2-.18.23-.31.12-.48.23-1,.35-1.45a.34.34,0,0,1,.14-.21,1.07,1.07,0,0,0,.26-.26,1.29,1.29,0,0,0,.23-.79,1,1,0,0,0-.26-.71l.19-.76c.13.32.26.61.39.91a.34.34,0,0,1,0,.1c-.12.54-.24,1.08-.35,1.62A19,19,0,0,1,65,77.06a.42.42,0,0,0,0,.1Zm-.44-.84c.24-.28.17-.64.31-.92h.38l-.39,1.49Zm-.68-1.45c0-.06.07-.12.1-.19a1.32,1.32,0,0,0,.54.58.15.15,0,0,1,0,.07c0,.2-.11.41-.17.62l0,0c-.15-.32-.31-.64-.47-1A.14.14,0,0,1,63.42,73.85ZM63,72.72a.38.38,0,0,0,0-.15c.14-.46.26-.92.41-1.38s.27-.72.4-1.08c0-.06,0-.12.07-.2l.41.19a14.18,14.18,0,0,0-.62,1.72c-.16.53-.35,1-.54,1.55h0A3.49,3.49,0,0,0,63,73,.25.25,0,0,1,63,72.72Zm-.59-.88.66-2.27.47.19c.07,0,.08.06,0,.13s-.11.28-.17.43a12,12,0,0,0-.68,1.93,1.06,1.06,0,0,0,0,.14c-.06-.12-.09-.2-.14-.28A1.58,1.58,0,0,0,62.43,71.84ZM61.14,73l.29-.78a2.49,2.49,0,0,0,.19-.93,1.27,1.27,0,0,1,0-.34c.08-.33.18-.66.27-1s.12-.5.19-.77l.71.33c-.11.28-.22.55-.31.84s-.15.54-.24.81c-.14.44-.28.88-.43,1.31a8.91,8.91,0,0,0-.42,1.87.62.62,0,0,1-.09-.11l-.19-.29a.75.75,0,0,1-.08-.65C61.07,73.15,61.11,73.06,61.14,73Zm-1-2.88.42-1.73.47.25a.08.08,0,0,1,0,.06c0,.22-.11.43-.16.64-.2,0-.21,0-.28.15a3.68,3.68,0,0,1-.23.44,1.52,1.52,0,0,1-.22.22Zm-.59-.75a.89.89,0,0,0,0-1.11.35.35,0,0,1,0-.41l.67.36c-.1.33-.21.65-.29,1s-.15.64-.23,1c-.07-.2-.13-.4-.21-.6A.16.16,0,0,1,59.53,69.33Zm-.31-1.62,0,0a1,1,0,0,0-.71-.35l0-.18.67.39S59.21,67.67,59.22,67.71Zm-1.28.65a.41.41,0,0,1,.41-.41,2.75,2.75,0,0,1,.57,0,.13.13,0,0,1,.1.06,1.73,1.73,0,0,1,.19.28.52.52,0,0,1,.09.4.33.33,0,0,1-.18.28,2.25,2.25,0,0,0-.31.16.44.44,0,0,1-.68-.06,1.1,1.1,0,0,1-.19-.65Zm-.33-.93a.64.64,0,0,1,0-.07c0-.21.07-.42.11-.65l.2.14c.27.18.27.18.19.49a.16.16,0,0,1-.08.1l-.38.23C57.57,67.57,57.57,67.57,57.61,67.43ZM56.82,67l.16-.74.33.21s0,.06,0,.08c-.05.23-.12.45-.18.69Zm-.75-.37c0-.29.08-.58.13-.9l.35.23s0,0,0,.06c0,.26-.1.51-.16.78a1.73,1.73,0,0,1-.27-.08A.13.13,0,0,1,56.07,66.6Zm-3.7-3.52s0,0-.07,0l-.46.07.21-.66c.12.12.24.21.35.32S52.37,63,52.37,63.08Zm2.79,3.36.26-1.28c.15.1.26.17.37.26a.12.12,0,0,1,0,.1c0,.11-.07.21-.09.32l-.12.69Zm-1.09-.11.45-1.82.56.4a8.56,8.56,0,0,0-.41,1.48Zm-1-.07a.64.64,0,0,1,0-.09c.08-.34.16-.68.25-1a.31.31,0,0,1,.09-.14.79.79,0,0,0,.25-.57c0-.22,0-.44-.06-.66l.56.43c-.06.17-.12.32-.17.47l-.39,1.5a.11.11,0,0,1-.14.1C53.31,66.27,53.17,66.27,53,66.26Zm-.09-1.5a4.88,4.88,0,0,1-.54.18v0a.54.54,0,0,1-.61-.42,1.16,1.16,0,0,1,0-.37.55.55,0,0,1,.59-.5,1.91,1.91,0,0,1,.77.34s0,.07.06.11a1.52,1.52,0,0,1,0,.21A.44.44,0,0,1,52.94,64.76Zm-.71,1.41c.07-.26.13-.5.2-.74a.12.12,0,0,1,0-.05l.41-.07-.25.92Zm-.84-.33.15-.75.53.3-.21.67Zm-.86-.15c.28-1.31.55-2.61.82-3.94l.32.39a.11.11,0,0,1,0,.08c-.13.61-.28,1.21-.4,1.81a3.94,3.94,0,0,1-.07.69,1,1,0,0,0-.05.24l-.15.77Z"/><path d="M55.42,68.08c-.06,0-.11-.11-.07-.19s.12-.15.22-.1l.26.14c.28.21.55.41.81.63a2.34,2.34,0,0,1,.83,1.2c.12.46.21.93.3,1.4a.2.2,0,0,1-.15.24.19.19,0,0,1-.23-.16c0-.08,0-.16-.07-.23a2.87,2.87,0,0,0-.18-.4.14.14,0,0,0-.1-.07c-.11,0-.22,0-.34,0l-.29,0a.22.22,0,0,1-.21-.21c0-.1.09-.18.23-.18H57c0-.16,0-.31,0-.47a.11.11,0,0,0-.08-.07h-.54l-.6,0a.24.24,0,0,1-.23-.21.22.22,0,0,1,.24-.18h.33l.58,0,0-.05-.25-.21Z"/><path d="M63.77,82a4.66,4.66,0,0,0,1-1.46c.14-.39.25-.79.37-1.19a2.46,2.46,0,0,1,.09-.29.18.18,0,0,1,.14-.1s.08.07.1.12a.2.2,0,0,1,0,.13,4.72,4.72,0,0,1-.57,2,6.61,6.61,0,0,1-1.17,1.42.78.78,0,0,1-.26.17.33.33,0,0,1-.33,0l.06-.1Z"/><path d="M63.8,82.81a4.87,4.87,0,0,0,1.48-1.91c.08-.17.15-.35.24-.53s.09-.07.14-.1a1.3,1.3,0,0,1,.08.17s0,0,0,0a4.36,4.36,0,0,1-1.64,2.56,1.7,1.7,0,0,1-.39.18l-.18-.06a.45.45,0,0,1,.06-.14A1.1,1.1,0,0,1,63.8,82.81Z"/><path d="M64,83.47a4,4,0,0,0,1.45-1.59.44.44,0,0,1,.08-.15.29.29,0,0,1,.17-.06.26.26,0,0,1,.09.15.43.43,0,0,1,0,.19A3.63,3.63,0,0,1,64.2,83.8a1.38,1.38,0,0,1-.2.08s-.12-.06-.14-.11a.28.28,0,0,1,0-.18A.41.41,0,0,1,64,83.47Z"/><path d="M60.74,77c-.09.07-.17,0-.29-.11a5.67,5.67,0,0,0-.58-.62c-.33-.26-.68-.49-1-.73a1.84,1.84,0,0,1-.2-.19.21.21,0,0,1,.22-.19.49.49,0,0,1,.17.06,6.1,6.1,0,0,1,.54.34,4.12,4.12,0,0,1,1.15,1.13C60.83,76.85,60.83,77,60.74,77Z"/><path d="M60.47,75.55a.15.15,0,0,1-.14.24l-.15-.09L59.24,75l-.53-.32c-.13-.07-.17-.17-.11-.27s.15-.11.28,0l.24.13c.37.25.75.5,1.12.77A.83.83,0,0,1,60.47,75.55Z"/><path d="M60.07,74.45c.1.09.11.19,0,.26s-.16.05-.25,0L58.51,74c-.06,0-.1-.11-.13-.14s.1-.24.21-.22a.28.28,0,0,1,.13,0l1.09.61A1.71,1.71,0,0,1,60.07,74.45Z"/><path d="M59.3,73.56l-.65-.22c-.06,0-.1-.09-.13-.12s.09-.22.21-.19a4.72,4.72,0,0,1,.53.18.37.37,0,0,1,.17.1.21.21,0,0,1,0,.18C59.46,73.57,59.38,73.59,59.3,73.56Z"/><path d="M50.06,40.15a.77.77,0,0,1-.76.5,1.27,1.27,0,0,1,0-.14l.24-.54a1.37,1.37,0,0,0,.11-.72,2.12,2.12,0,0,0-.63-1.15,2.29,2.29,0,0,1-.21-.23.19.19,0,0,1,0-.15s.08-.06.12-.07a.66.66,0,0,1,.44.17,2.42,2.42,0,0,1,.7.94.66.66,0,0,0,.15.22l.66.62a.63.63,0,0,1,.16.24A.22.22,0,0,1,51,40a.23.23,0,0,1-.2,0c-.06,0-.1-.08-.15-.12l-.43-.45a.24.24,0,0,0,0,.29,6.51,6.51,0,0,1,.51.54c.22.26.43.54.64.82a1.12,1.12,0,0,1,.11.25.24.24,0,0,1-.11.27.21.21,0,0,1-.27-.08c-.06-.07-.11-.16-.17-.23Z"/><path d="M50.33,33.59a2.47,2.47,0,0,1-.35-.1.18.18,0,1,1,.1-.35,1.4,1.4,0,0,0,.5,0,.23.23,0,0,1,.18.11c.05.08,0,.16-.09.2S50.44,33.55,50.33,33.59Z"/><path d="M48.4,70.81a.73.73,0,0,1,.33,0,2.73,2.73,0,0,1,1.23.6,1.49,1.49,0,0,1,.5.71,7.66,7.66,0,0,0,.27.72,1.7,1.7,0,0,1,.1,1.07A3.34,3.34,0,0,1,50,75.56a1.58,1.58,0,0,1-.36.26,1.11,1.11,0,0,1-.86,0,.37.37,0,0,1,.1-.07,2.91,2.91,0,0,0,1.23-1.25A2.15,2.15,0,0,0,50.31,73a2.19,2.19,0,0,0-1-1.53,2.89,2.89,0,0,0-.9-.39c-.08,0-.17,0-.16-.14A.16.16,0,0,1,48.4,70.81Z"/><path d="M3.62,63.46a.2.2,0,0,0,.2.18l.36,0a17.89,17.89,0,0,1,2.3.22L7.3,64l.12.39H7a.5.5,0,0,0-.17,0,.17.17,0,0,0,0,.33H7.4c.1,0,.13,0,.12.15a1,1,0,0,0-.27.08s-.12.1-.12.16.08.11.14.13a3,3,0,0,0,.37,0l.09.48-.2,0c-.18,0-.27.09-.28.19s.1.16.3.18H7.8l.06.48-.31,0c-.09,0-.18.06-.18.17s.09.17.18.19.22,0,.35,0l0,.56-.29,0c-.14,0-.22.09-.22.19s.07.17.21.2H7.8l.16,0v.55h-.4a.17.17,0,0,0-.15.17.18.18,0,0,0,.14.18l.39.07V70H7.76a.67.67,0,0,0-.2,0,.18.18,0,0,0-.15.19.17.17,0,0,0,.16.18l.6.09a.19.19,0,0,0,.22-.15,2,2,0,0,0,.08-.43,18.21,18.21,0,0,0,0-2.86l-.09-.75c-.07-.5-.13-1-.2-1.51,0-.2-.07-.4-.11-.62a9.33,9.33,0,0,1,1.25.2l.23.65-.2,0H9.16a.23.23,0,0,0-.17.18c0,.1,0,.15.13.18l.25.07a2.69,2.69,0,0,0,.32,0l.12.53-.29.07a.72.72,0,0,0-.21,0c-.05,0-.11.09-.11.14a.22.22,0,0,0,.1.17.78.78,0,0,0,.3.07c.29,0,.29,0,.34.29,0,.07,0,.13,0,.22l-.24,0c-.17,0-.25.1-.24.22a.23.23,0,0,0,.24.19l.31,0a2.36,2.36,0,0,1,.12.61l-.39.06c-.14,0-.21.09-.21.19s.08.17.23.17h.4l0,.59H10a.86.86,0,0,0-.17,0c-.1,0-.18.1-.16.21a.19.19,0,0,0,.21.16h.37v.72l-.29,0c-.16,0-.26.06-.27.18s0,.18.21.21l.48.08c.22,0,.32,0,.36-.25a4.14,4.14,0,0,0,.06-.7c0-.47,0-.94,0-1.41a18.43,18.43,0,0,0-.33-2.57c-.08-.34-.18-.68-.26-1l0-.13.23,0c.23.06.45.13.68.17a.3.3,0,0,1,.23.19,7.14,7.14,0,0,1,.51,1.82A21.54,21.54,0,0,1,12,70.85c0,1.2-.11,2.39-.17,3.59s-.17,2.2-.11,3.3a4.11,4.11,0,0,0,.08.6,1.77,1.77,0,0,0,.15.38c0,.07.09.14.12.21a20.22,20.22,0,0,0,1.06,1.8c.34.6.64,1.23,1,1.85.23.44.46.89.7,1.33.13.23.19.24.45.17s.39-.07.62-.11c0-.09-.07-.14-.1-.2l-2.4-4.13a5.33,5.33,0,0,1-.51-1.18c0-.07-.06-.15,0-.19s.15,0,.2.08l.12.23c.16.3.31.6.48.88.7,1.21,1.42,2.41,2.13,3.62.14.24.29.47.42.71a.25.25,0,0,0,.25.15l.66.06L17,83.7l-1.43-2.37c-.86-1.4-1.67-2.82-2.4-4.28-.05-.1-.1-.21-.14-.31a.76.76,0,0,1,0-.16.25.25,0,0,1,.26.14l.24.39c.61,1,1.2,2.07,1.82,3.1.47.79,1,1.55,1.45,2.33.27.44.53.89.79,1.34a.31.31,0,0,0,.31.21c.1,0,.19,0,.31,0a.89.89,0,0,0-.05-.13c-.71-1.22-1.41-2.45-2.14-3.67-.52-.87-1.08-1.71-1.6-2.58a10.81,10.81,0,0,1-1.17-2.42s0-.11-.06-.2a.62.62,0,0,1,.22.28c.46.73.9,1.48,1.37,2.21,1.24,1.9,2.4,3.84,3.51,5.82.12.22.26.43.38.65a.27.27,0,0,0,.24.14l.58.08-.14-.26-3.14-5.11c-.88-1.41-1.78-2.81-2.65-4.22-.25-.41-.46-.86-.68-1.29a.68.68,0,0,1-.07-.2.17.17,0,0,1,.06-.12.15.15,0,0,1,.13,0,.35.35,0,0,1,.11.13c1.09,1.93,2.37,3.75,3.53,5.64s2.16,3.52,3.23,5.28a.42.42,0,0,0,.37.25l.63,0-.14-.24c-1-1.64-2-3.29-3.08-4.92-1.43-2.24-2.88-4.47-4.32-6.7l-.21-.36a.47.47,0,0,1,0-.16.16.16,0,0,1,.07-.13.16.16,0,0,1,.15,0,.61.61,0,0,1,.13.15c.82,1.23,1.66,2.46,2.45,3.71C17.59,78.55,19.31,81.29,21,84c.21.32.2.31.6.27s.67,0,1-.05c.17.17.21.42.43.53h.14c.2-.2.21-.28.07-.53s-.23-.37-.35-.55-.33-.44-.49-.67c-1.2-1.67-2.39-3.34-3.69-4.94L18.68,78l.45-.34.25-.19a.21.21,0,0,0,.06-.3.21.21,0,0,0-.28-.06l-.3.16c-.17.1-.33.21-.51.33l-.46-.62a2,2,0,0,1,.24-.2c.16-.09.33-.16.5-.24s.19-.15.17-.26-.11-.17-.26-.17a1.44,1.44,0,0,0-.72.27l-.21.14-.38-.57.61-.35a.83.83,0,0,0,.21-.16.33.33,0,0,0,0-.24.17.17,0,0,0-.2-.13.66.66,0,0,0-.28.09c-.23.11-.45.24-.69.37-.1-.13-.19-.25-.27-.37s-.06-.1-.1-.16c.14-.1.27-.2.41-.28s.28-.12.42-.18.2-.17.18-.28a.28.28,0,0,0-.31-.19.47.47,0,0,0-.16,0l-.63.3c-.08,0-.15.1-.23.15l-.38-.58.75-.35c.23-.1.31-.19.27-.33s-.19-.22-.41-.15a5,5,0,0,0-.72.3,1.18,1.18,0,0,0-.19.1l-.28-.42.11-.08.63-.32a.25.25,0,0,0,.16-.31.26.26,0,0,0-.31-.14,2.53,2.53,0,0,0-.36.12l-.54.26-.47-.72.76-.36.38-.18.74,1c.76,1,1.54,2,2.28,3,.89,1.24,1.74,2.51,2.62,3.77a1.33,1.33,0,0,0,.14.19.27.27,0,0,0,.33.07.22.22,0,0,0,.14-.26,1.34,1.34,0,0,0-.26-.76c-1-1.27-2-2.49-2.87-3.8-.51-.76-1-1.5-1.58-2.24a57.64,57.64,0,0,0-4-5,2.15,2.15,0,0,1-.19-.22l.42-.29.47.62L21,76.66c.46.59.92,1.19,1.39,1.78a.85.85,0,0,0,.25.21c.13.06.2,0,.22-.14A.68.68,0,0,0,22.7,78L19.34,73.7l-5.55-7.13a.39.39,0,0,1-.06-.11l.48-.32c0,.06.09.11.13.16L18,70.94l4.68,6a1.14,1.14,0,0,0,.14.16.29.29,0,0,0,.32,0,.19.19,0,0,0,.05-.24,1.23,1.23,0,0,0-.12-.26l-.34-.44L14.71,66c0-.05-.07-.11-.11-.17l.32-.24.12.15,6,7.64a1.27,1.27,0,0,0,.14.17.3.3,0,0,0,.22.06c.08,0,.13-.09.14-.2a.52.52,0,0,0-.15-.39L15.45,65.5a1.82,1.82,0,0,0-.14-.19l.43-.32.07.06L19.65,70a1,1,0,0,1,.15.24,4.55,4.55,0,0,0,2.06,2.16,5.57,5.57,0,0,1,1.43,1.07c.1.1.19.21.28.32a.42.42,0,0,1-.2,0l-.87-.29-.22,0a.19.19,0,0,0-.2.14.18.18,0,0,0,.1.22l.19.11a5,5,0,0,1,1.25,1.82,10.9,10.9,0,0,0,1.66,2.71A4.57,4.57,0,0,0,27.44,80a6.39,6.39,0,0,0,.94.22.92.92,0,0,0,.84-.31l-.17,0a10.61,10.61,0,0,1-1.15-.18,4,4,0,0,1-2.14-1.36A10.35,10.35,0,0,1,24,75.54a5.13,5.13,0,0,0-.77-1.32,1.15,1.15,0,0,0-.08-.14,13.71,13.71,0,0,1,4.3,2.25l-.83-.12a.83.83,0,0,0-.31,0,.19.19,0,0,0-.09.15.18.18,0,0,0,.11.13.93.93,0,0,0,.24,0,2.26,2.26,0,0,1,1.2.4,1.58,1.58,0,0,0,.31.11,2.31,2.31,0,0,1,.15.38l-.49-.15a1.11,1.11,0,0,0-.6,0c-.09,0-.17.09-.15.2s.1.13.2.13.26,0,.38,0a3.1,3.1,0,0,1,.93.36.3.3,0,0,1,.08.08l.42.79a.22.22,0,0,1-.08,0,4.69,4.69,0,0,1-1.82-.75,6,6,0,0,1-2-2.39,2.1,2.1,0,0,0-.13-.26.17.17,0,0,0-.21-.09.18.18,0,0,0-.12.21,1,1,0,0,0,.08.28c.14.26.27.53.43.78a5.93,5.93,0,0,0,2.48,2.23,3.55,3.55,0,0,0,1.7.41l1.09,1a1.18,1.18,0,0,0,.19.11.17.17,0,0,0,.23-.06.17.17,0,0,0,0-.23l-.2-.17a9.46,9.46,0,0,1-.8-.75,8,8,0,0,1-1.56-2.85,12.52,12.52,0,0,1-.46-2.78,2,2,0,0,1,0-.32c.11.1.18.18.26.24a.71.71,0,0,1,.31.63,6.42,6.42,0,0,0,.36,2.12,6.16,6.16,0,0,0,1.54,2.66c.17.17.3.36.46.54a.5.5,0,0,0,.15.14.23.23,0,0,0,.18,0,.26.26,0,0,0,.09-.18.4.4,0,0,0-.07-.18c-.09-.12-.2-.23-.29-.36a.88.88,0,0,1-.12-.26,2.42,2.42,0,0,1,.1-1.22,1.17,1.17,0,0,0,0-.27c-.22,0-.32,0-.38.22s-.1.45-.15.68c0,.07,0,.15,0,.26-.12-.14-.24-.23-.26-.38a2.17,2.17,0,0,1,.17-1.33,2.12,2.12,0,0,0,.11-.33.37.37,0,0,0-.4.17,2.21,2.21,0,0,0-.18.42,2.74,2.74,0,0,0-.09.39,1.07,1.07,0,0,1-.26-.71,2.15,2.15,0,0,1,.35-1c.06-.09.09-.19,0-.26a.15.15,0,0,0-.23.06,5.33,5.33,0,0,0-.32.46l-.09.15a7,7,0,0,1-.29-1.75c.34.21.65.4.95.6a5.7,5.7,0,0,1,1.52,1.65A3.8,3.8,0,0,1,31.81,78c.07.51.09,1,.13,1.55a.7.7,0,0,0,.15.43.63.63,0,0,0,.25-.55c0-.26,0-.53,0-.8,0-.06,0-.14,0-.17a1,1,0,0,0,.26-.54,7.07,7.07,0,0,0,.16-2.51,5.88,5.88,0,0,0-1.46-3.3,3,3,0,0,0-.31-.31c-.08-.07-.17-.13-.28,0s-.07.16,0,.28l.2.24a6.15,6.15,0,0,1,1.15,1.94,6.78,6.78,0,0,1,.27,2.83,2.06,2.06,0,0,1-.16.65,5.09,5.09,0,0,0-.78-1.9.46.46,0,0,0,0-.19,2.06,2.06,0,0,1,.21-1c0-.09.11-.21,0-.28s-.2,0-.26.12a.69.69,0,0,0-.1.19c-.06.18-.11.37-.16.56a1.88,1.88,0,0,1-.05.2L30.82,75c0-.16.07-.28.08-.4a1.4,1.4,0,0,1,.29-.81.15.15,0,0,0,0-.23c-.07-.09-.16,0-.24,0a.91.91,0,0,0-.32.45c0,.1-.07.2-.12.35-.09-.26-.16-.47-.23-.69a.14.14,0,0,1,0-.11l.36-.66a1.92,1.92,0,0,0,.13-.17.22.22,0,0,0,0-.18.17.17,0,0,0-.17,0,.76.76,0,0,0-.23.17c-.09.09-.16.2-.26.31-.22-.8-.45-1.57-.6-2.37.39.2.75.4,1.11.61a5.46,5.46,0,0,1,2.26,2.6,6,6,0,0,1,.52,2.08,5.35,5.35,0,0,1-.08,1.74,2.56,2.56,0,0,0,0,.39,1.1,1.1,0,0,0,0,.16.91.91,0,0,0,.43-.62,6.1,6.1,0,0,0,.07-1.54A6.61,6.61,0,0,0,33,73a5.64,5.64,0,0,0-1.51-1.75,9.26,9.26,0,0,0-1.7-1,1.77,1.77,0,0,0-.37-.12c-.18,0-.27.06-.27.25a.78.78,0,0,0,0,.14c.15.65.29,1.29.44,1.94,0,.09.05.18.08.31l-.16-.1c-.41-.35-.84-.67-1.21-1a2.33,2.33,0,0,1-.65-2,2.48,2.48,0,0,1,1.84-2,4.43,4.43,0,0,1,1.54,0,.56.56,0,0,1,.45.24,1.57,1.57,0,0,0,.34.34l.67.52a10.32,10.32,0,0,0,2.93,1.69,8.74,8.74,0,0,0,4,.6L40,71c.24,0,.3-.22.16-.41l-.05-.06-1.28-1.56s0,0,0,0h0l.26.07a7.75,7.75,0,0,0,3.28.36A4.82,4.82,0,0,0,43.66,69,1.19,1.19,0,0,0,44,68.8c.17-.14.16-.29,0-.42l-.1-.06c-.26-.18-.53-.33-.76-.52-.49-.41-1-.83-1.44-1.24a6.52,6.52,0,0,0-.85-.64,6.38,6.38,0,0,0-1.74-.74l-.17-.06a2.81,2.81,0,0,0,.35-.18,5.81,5.81,0,0,0,.57-.4.25.25,0,0,0,.1-.3c0-.13-.17-.12-.28-.13s-.41,0-.61,0a.94.94,0,0,1-.86-.48,3.47,3.47,0,0,0-.25-.29l0,0a6.76,6.76,0,0,1,1.8.53.08.08,0,0,0,.07,0,.47.47,0,0,1,.27.19c.35.37.7.74,1.06,1.1a2.67,2.67,0,0,0,.43.32s.1,0,.18,0a.74.74,0,0,0,0-.18,2.82,2.82,0,0,0-.24-.36c-.22-.25-.46-.48-.68-.73a1,1,0,0,1-.11-.14c.27,0,.49.08.71.09a.45.45,0,0,1,.36.23,5.45,5.45,0,0,0,.42.56c.45.53.91,1,1.37,1.57s.83,1,1.28,1.44a1.55,1.55,0,0,1,.46.85,13.64,13.64,0,0,1,.23,1.56.42.42,0,0,1-.13.37,2.84,2.84,0,0,0-.78,1.43,3.73,3.73,0,0,0-.11,2,4.2,4.2,0,0,0,2.69,3.07,3.61,3.61,0,0,0,3-.27,2.56,2.56,0,0,0,1.26-1.41,4.88,4.88,0,0,0,.38-1.77,4.73,4.73,0,0,0-.61-2.3,3.49,3.49,0,0,0-2.18-1.67l-.31-.08.09-.53c.05-.32.1-.65.17-1,.16-.84.33-1.68.49-2.52s.23-1.49.42-2.21.19-1.16.34-1.72a1,1,0,0,1,.44-.63,2.32,2.32,0,0,0,.85-.74l.6.57a12,12,0,0,0,.94,1,42.35,42.35,0,0,0,3.32,2.65c.84.54,1.64,1.14,2.5,1.64,1.09.63,2.22,1.19,3.34,1.77.7.36,1.42.7,2.13,1a8.46,8.46,0,0,0,.84.31,1.28,1.28,0,0,1,.73.6,21.62,21.62,0,0,1,1.4,3,54.15,54.15,0,0,1,1.86,5.28,14.15,14.15,0,0,1,.45,2c0,.18,0,.36,0,.54l0,.14a.18.18,0,0,0,.21.12.16.16,0,0,0,.16-.18c0-.17,0-.34,0-.51a16.8,16.8,0,0,0-.63-2.81.41.41,0,0,1,0-.07l.24-.16.48-.4c.11-.09.14-.18.08-.27s-.17-.11-.29,0-.35.25-.53.39l-.1.08c-.06-.16-.11-.32-.16-.48s0-.08.07-.11l.73-.58.15-.16a.13.13,0,0,0,0-.2.31.31,0,0,0-.21-.05,1.07,1.07,0,0,0-.22.15l-.67.51a3.56,3.56,0,0,1-.13-.39s0-.07.05-.09.34-.22.49-.35.31-.27.46-.41a.39.39,0,0,0,.08-.1c0-.08,0-.17,0-.22a.31.31,0,0,0-.21,0,.61.61,0,0,0-.16.12l-.84.66c-.06-.17-.11-.3-.15-.43s0-.08,0-.1.26-.15.38-.24l.63-.49a.15.15,0,0,0,.08-.11.29.29,0,0,0,0-.21.3.3,0,0,0-.21,0s-.07,0-.1.06l-1,.69c-.08-.22-.16-.41-.22-.61,0,0,0-.08.06-.1l.87-.54a.75.75,0,0,0,.16-.15.18.18,0,0,0,0-.25.18.18,0,0,0-.23,0l-.27.19-.75.48L67.81,73s0-.07,0-.09l.22-.13.89-.55a.18.18,0,0,0,.09-.27.2.2,0,0,0-.28-.06l-.28.16-.85.52-.15-.37.12,0A9.05,9.05,0,0,0,69,71.39c.21-.15.29-.14.42.09a5.37,5.37,0,0,1,.31.69c.06.15.1.31.15.46a.69.69,0,0,0,.07.15.18.18,0,0,0,.23.09.2.2,0,0,0,.11-.22l-.06-.23c-.13-.46-.27-.93-.38-1.39-.07-.27-.08-.56-.14-.83A20.85,20.85,0,0,0,69,67.5c-.14-.35-.31-.67-.47-1,0-.08-.06-.17-.1-.25a1.81,1.81,0,0,0-.5-.6,3.83,3.83,0,0,0-1.78-.85l-.75-.15a.4.4,0,0,1-.17-.09L63.32,63l-.19-.14c-.09,0-.18-.09-.26,0s0,.18.05.25l.65.6.84.74.08.09-.52-.1a.36.36,0,0,1-.16-.11l-1.64-1.39c-.17-.14-.36-.27-.54-.39a.31.31,0,0,0-.21,0c-.09,0-.1.15,0,.24a3.79,3.79,0,0,0,.42.38l1.25,1.08.05.06-.69-.12a.26.26,0,0,1-.11-.07l-2.48-1.94a1.45,1.45,0,0,0-.26-.17c-.06,0-.13,0-.2,0s0,.15,0,.2a5.44,5.44,0,0,0,.42.41l1.64,1.32a.51.51,0,0,1,.14.15c-.16,0-.31,0-.47-.06a.82.82,0,0,1-.55-.26,24.89,24.89,0,0,0-2.39-2l-.08-.07.65-.1,1.75-.28a8.77,8.77,0,0,1,4.1.28,6.88,6.88,0,0,1,2,.92,3.48,3.48,0,0,0,.48.21h.17a.63.63,0,0,0-.21-.51,5.24,5.24,0,0,0-.61-.44,9.68,9.68,0,0,0-4.68-1.11c-.65,0-1.3.12-1.94.22s-1.33.21-2,.33a2.6,2.6,0,0,0-1,.34l-.6-.57c-.19-.18-.37-.37-.55-.55a2.27,2.27,0,0,0-1.2-.66,8.27,8.27,0,0,0-2-.15H52c0-.19.07-.38.09-.57a3.56,3.56,0,0,0-.31-1.76c-.09-.21-.2-.41-.31-.61a1,1,0,0,0-.21-.25.25.25,0,0,1-.09-.26c0-.35.07-.71.09-1.07s0-1,0-1.45a5.76,5.76,0,0,1,.32-1.59,2,2,0,0,1,.19-.55,1.94,1.94,0,0,1,.49-.34,4.24,4.24,0,0,0,.88-.7,1.66,1.66,0,0,0,.23-1.88s0,0,0,0c.17-.14.34-.28.49-.43a4.25,4.25,0,0,0,.35-.39.45.45,0,0,0,0-.53,3.71,3.71,0,0,0-1.3-1.31l-.09-.06,0,0a7.84,7.84,0,0,0,.58-2c.13-.67.21-1.34.31-2a.74.74,0,0,0,.86-.37,5.41,5.41,0,0,0,.54-1.14c.08-.22.16-.44.25-.65a1.42,1.42,0,0,1,.56-.63.2.2,0,0,0,0-.35h0c-.22-.18-.21-.18-.48-.08l0,0,.19-.16a.23.23,0,0,0,.06-.27.27.27,0,0,1,0-.12,1.28,1.28,0,0,0,.14-.37.33.33,0,0,0-.11-.23.21.21,0,0,1-.07-.21.91.91,0,0,0-.1-.7.28.28,0,0,1,0-.13,10.79,10.79,0,0,0-.09-1.61,7.78,7.78,0,0,1-.06-1.18c0-.3,0-.59,0-.89l.35-.15a2.26,2.26,0,0,0,.88-.72,5.25,5.25,0,0,1,.6-.65,9.92,9.92,0,0,0,1.18-1.32c.1-.14.22-.27.33-.42a.78.78,0,0,0,.12-.22.43.43,0,0,0-.3-.58l-.17,0c.1-.22.18-.43.29-.63a5.7,5.7,0,0,1,1.3-1.62A5.72,5.72,0,0,0,61.5,24.1a1.85,1.85,0,0,0,.16-.93,1,1,0,0,1,0-.24.25.25,0,0,0-.35-.26,1.42,1.42,0,0,0-.33.21l-.81.72a1.72,1.72,0,0,1-.76.35l.11-.1a1.25,1.25,0,0,0,.42-.57s0-.06.08-.09a.2.2,0,0,0,.06-.27.21.21,0,0,0-.27-.07l-.48.21-.36.1v0c.08-.06.15-.13.24-.19a4.88,4.88,0,0,1,1.14-.52A10,10,0,0,0,61.4,22a2.32,2.32,0,0,0,1.11-1.1,2.07,2.07,0,0,0,.14-.42.36.36,0,0,0-.15-.39.36.36,0,0,0-.43,0,.63.63,0,0,0-.23.2A2,2,0,0,1,60.1,21l-1-.05c.06-.24.11-.49.18-.74a1.17,1.17,0,0,1,.46-.64c.15-.11.32-.21.48-.33a.46.46,0,0,0,.2-.35.2.2,0,0,0-.22-.21l-.11,0a2.44,2.44,0,0,1-.84.19l-.39.07v0c.22-.38.42-.77.66-1.13a1.9,1.9,0,0,1,1.58-.91,8.46,8.46,0,0,0,.88-.1,1.3,1.3,0,0,0,.72-.4.38.38,0,0,0,.12-.42.38.38,0,0,0-.36-.24,1.7,1.7,0,0,0-.39,0,1.46,1.46,0,0,1-1.24-.52c-.22-.27-.41-.56-.61-.83a.08.08,0,0,1,0-.07l.62.5.22.17a.33.33,0,0,0,.41,0,.32.32,0,0,0,.07-.4,3.32,3.32,0,0,0-.4-.58,8.88,8.88,0,0,0-1.37-1.15,6.76,6.76,0,0,1-1.1-.9,1.56,1.56,0,0,1-.16-.2l0,0,.27.13.56.33A.4.4,0,0,0,60,12a1.41,1.41,0,0,0,0-1,5,5,0,0,0-1-1.58,6.33,6.33,0,0,0-3.13-1.93A12.08,12.08,0,0,0,53.26,7c-.26,0-.5,0-.64-.29a4.16,4.16,0,0,0-3-1c-.23,0-.45.08-.67.12a.16.16,0,0,1-.18,0,1.42,1.42,0,0,0-1.54-.35c-.07,0-.14-.06-.19-.12a3,3,0,0,0-2-1,7,7,0,0,0-4.77,1,.46.46,0,0,1-.44,0A5.1,5.1,0,0,0,39,5.18a7.9,7.9,0,0,0-2.7.05,4,4,0,0,0-2.08,1.09,4.06,4.06,0,0,1-.48.45,3.66,3.66,0,0,1-.58.22,6.22,6.22,0,0,1-1.93.44,14.06,14.06,0,0,0-3.58.73,6,6,0,0,0-1.45.75,1.92,1.92,0,0,0-.72.89,1.37,1.37,0,0,1-.31.48,1.38,1.38,0,0,0-.38,1.23.46.46,0,0,1-.26.52l-.26.13a1.47,1.47,0,0,0-.75,1,2,2,0,0,1-.06.23,3.26,3.26,0,0,0-.34,1.5,7.49,7.49,0,0,1-.63,2.88,4.32,4.32,0,0,0-.26,1.13,9.07,9.07,0,0,0,.07,2.27,11.57,11.57,0,0,1,0,2.82,6.19,6.19,0,0,0,.17,2.23,7.68,7.68,0,0,1,.21,2.24,1.4,1.4,0,0,1-.18.6,2.9,2.9,0,0,0-.27,2.27c.07.31.19.61.28.91a5.06,5.06,0,0,1,.17,1,11.54,11.54,0,0,0,.16,1.18,2.53,2.53,0,0,0,.44,1,.8.8,0,0,0,.21.2l1,.8a1.37,1.37,0,0,1,.57,1.1,3.16,3.16,0,0,0,.34,1.28,1.56,1.56,0,0,0,.49.59,1.09,1.09,0,0,0,.87.18l-.25.58s0,.07-.05.08a2.42,2.42,0,0,0-1,1.63,11.43,11.43,0,0,0-.2,1.17c0,.33-.1.65-.13,1s-.05.85-.08,1.28a.82.82,0,0,1,0,.27,8.86,8.86,0,0,0-.21,1.46c-.09.63-.19,1.26-.27,1.9s-.14,1-.18,1.56a3.78,3.78,0,0,1-.82,1.9,1.51,1.51,0,0,1-.4.35c-.36.24-.74.46-1.11.69-.07.05-.19.07-.17.2s-.06.06-.09.08l-4,2.11c-.84.45-1.68.88-2.52,1.32a.76.76,0,0,1-.39.1A11,11,0,0,1,12.59,57c-.7-.15-1.4-.33-2.1-.48a9,9,0,0,0-1-.13,2.89,2.89,0,0,0-1.35.24,18.55,18.55,0,0,0-2.3,1.09c-.44.26-.92.46-1.39.69l-.87.43a.44.44,0,0,0-.15.12.21.21,0,0,0,0,.32,1.24,1.24,0,0,0,.42.23,2.25,2.25,0,0,0,.52.07l2.77.08q1.34,0,2.67,0a23.9,23.9,0,0,1,3.49.25,5.63,5.63,0,0,1,.9.22,1.84,1.84,0,0,1,1.29,1.66,12.91,12.91,0,0,1,0,1.39l-.32.21c0-.37,0-.72,0-1.06a1,1,0,0,0-.09-.38.16.16,0,0,0-.14-.09.21.21,0,0,0-.11.13,3.27,3.27,0,0,0,0,.44,3.58,3.58,0,0,1-.09,1,.69.69,0,0,1-.49.53c0-.1.05-.19.08-.28a2.48,2.48,0,0,0,0-1.5c0-.09-.07-.18-.18-.16s-.12.11-.12.2c0,.33,0,.65,0,1a8,8,0,0,1-.22,1,.72.72,0,0,1-.11.19l-.06,0a2.29,2.29,0,0,0,.07-.28,2.54,2.54,0,0,0,0-1.34c-.07-.2-.12-.28-.21-.24s-.12.19-.11.31a3.79,3.79,0,0,1-.07,1,3.67,3.67,0,0,1-.4,1s-.09.08-.15.12c.06-.37.12-.72.17-1.07,0-.11,0-.23,0-.34a.38.38,0,0,0,0-.16.23.23,0,0,0-.15-.1s-.08.07-.09.12,0,.3-.08.45a2.6,2.6,0,0,1-.13.36c-.15.34-.3.68-.44,1a1.64,1.64,0,0,1-.07.15,2.29,2.29,0,0,1-.11-.23l-.18-.37a.73.73,0,0,0-.52-.39c-.44-.09-.86-.22-1.29-.34a18.76,18.76,0,0,0-2.22-.39c-.69-.09-1.37-.19-2.05-.26s-1.08-.09-1.62-.13H3.82A.21.21,0,0,0,3.62,63.46Zm63.74,8,.64-.37a.19.19,0,0,1,.26.06c0,.08,0,.18-.09.26l-.53.34-.19.09s-.13-.09-.16-.16A.16.16,0,0,1,67.36,71.42Zm-.3-.62a.29.29,0,0,1,.11-.14l.91-.55a.17.17,0,0,1,.21.26,3.34,3.34,0,0,1-1,.64A.2.2,0,0,1,67.06,70.8Zm-.18-.93.63-.31a.52.52,0,0,1,.15-.06s.11,0,.13.1a.25.25,0,0,1,0,.19.34.34,0,0,1-.15.14,5.65,5.65,0,0,1-.6.31.2.2,0,0,1-.29-.1C66.69,70,66.74,69.94,66.88,69.87Zm-.3-.72.59-.28c.08,0,.17,0,.2.06a.23.23,0,0,1,0,.2,1.23,1.23,0,0,1-.65.37c-.12,0-.19,0-.22-.14A.16.16,0,0,1,66.58,69.15Zm-.4-.73c.29-.13.6-.28.92-.41a.18.18,0,0,1,.18.08.26.26,0,0,1,0,.21.69.69,0,0,1-.22.16c-.22.11-.43.21-.65.3a.61.61,0,0,1-.17,0ZM60,63.69a8.63,8.63,0,0,1-2.7-1.76l.13-.06a.4.4,0,0,1,.49.08c.65.56,1.31,1.09,2,1.64Zm-4.33-.31h.06l.81.08.06,0,.6.41a5,5,0,0,1-1.29-.35A1.32,1.32,0,0,1,55.64,63.38Zm-.93-.8.77.06s.05,0,.06,0L56,63v0a6.26,6.26,0,0,0-.73-.14A.93.93,0,0,1,54.71,62.58Zm-1-.81.62.08c.07,0,.17,0,.22,0s.24.21.38.33A1.61,1.61,0,0,1,53.75,61.77ZM52.94,61l.94.06.06,0,.19.29c-.28,0-.54-.09-.81-.11S53.05,61.16,52.94,61ZM52,60.2l0,0a11.11,11.11,0,0,1,2.08,0,2,2,0,0,1,1.29.65c.45.5.95.95,1.44,1.41a9.07,9.07,0,0,0,.9.74A18.58,18.58,0,0,0,62.2,65.4a4.41,4.41,0,0,1,1.19.64,2.89,2.89,0,0,1,.35.35A1.56,1.56,0,0,1,64,67.83c0,.13-.09.26-.14.4l-.37-.18a1.5,1.5,0,0,0,.06-.78,1.35,1.35,0,0,0-.91-1.06c-.17-.06-.29,0-.32.06s.06.2.15.28a4.4,4.4,0,0,1,.39.35,1,1,0,0,1,.17.91L61.49,67a1.24,1.24,0,0,0,0-.28,1.26,1.26,0,0,1,.1-.81.37.37,0,0,0-.27-.55l-.29-.1a17.43,17.43,0,0,1-3.73-2,7.42,7.42,0,0,1-.62-.49c-.33-.28-.65-.58-1-.87a8.08,8.08,0,0,1-1.2-1.21.39.39,0,0,0-.21-.11l-1.81-.13a.2.2,0,0,1-.11,0ZM25.07,54.85a3.47,3.47,0,0,1-.29,2.47.33.33,0,0,1-.16.17l-2.35,1.27a23.28,23.28,0,0,0-2.86,1.75c-1,.75-2.11,1.47-3.17,2.2-.06,0-.13.08-.22.14,0-.3,0-.56,0-.83,0-.05.07-.11.13-.15.31-.23.63-.45.95-.67a27.62,27.62,0,0,1,3.39-2c.49-.24.94-.54,1.42-.79a7.8,7.8,0,0,0,1.6-1.06c.09-.08.2-.14.29-.21a1.34,1.34,0,0,0,.21-.2c.06-.07.09-.14,0-.22a.17.17,0,0,0-.22,0l-.32.18-.69.4L21.34,58c-.19.1-.36.26-.55.36-.45.24-.92.47-1.38.7A9.68,9.68,0,0,0,18,59.9l-1.95,1.39-.14.08-.27-.66.17-.1,1.1-.62c.49-.28,1-.56,1.47-.86s1.05-.66,1.58-1a1.52,1.52,0,0,0,.22-.22.15.15,0,0,0,0-.22.4.4,0,0,0-.21-.07.67.67,0,0,0-.23.1l-1,.6-1,.62c-.51.29-1,.59-1.54.87-.28.16-.57.3-.83.44a7.88,7.88,0,0,0-.71-.47,6.48,6.48,0,0,0-.81-.31l.54-.26a.62.62,0,0,1,.4-.05l.74.13a3.89,3.89,0,0,0,.49,0,.2.2,0,0,0,.21-.19.2.2,0,0,0-.16-.21l-.31-.07-.4-.09c.1-.09.18-.16.31-.13l1.3.19c.11,0,.22,0,.26-.1a.2.2,0,0,0-.13-.26,2.83,2.83,0,0,0-.41-.14l-.3-.07v0c.16,0,.28-.2.48-.17l.65.08.51,0c.17,0,.26-.08.27-.19s-.07-.18-.23-.21l-.33-.05-.22-.06a1.89,1.89,0,0,0,.19-.14.54.54,0,0,1,.44-.12c.23,0,.45,0,.68,0a.92.92,0,0,0,.29,0c.05,0,.12-.1.11-.16a.28.28,0,0,0-.11-.16.58.58,0,0,0-.19,0l-.23,0a.64.64,0,0,1,.53-.19,4,4,0,0,0,.49,0l.19,0a.17.17,0,0,0,.17-.15.18.18,0,0,0-.15-.19l-.15,0,.11-.12a.18.18,0,0,0,0-.22.19.19,0,0,0-.24-.06.51.51,0,0,0-.15.07l-3.06,1.54L15,58.38c-.6.29-1.2.57-1.79.87a1.06,1.06,0,0,1-.82,0l.06,0c.91-.45,1.83-.87,2.72-1.34,2-1,3.94-2.1,5.91-3.15l.93-.49a.86.86,0,0,1,.23-.05l.48,0a4.75,4.75,0,0,1,1.55,0A1,1,0,0,1,25.07,54.85Zm1.28-12c0,.24-.09.45-.11.67s-.06.69-.11,1c-.14,1-.24,2.09-.44,3.12-.15.79-.23,1.6-.35,2.4,0,.28-.08.55-.09.82a12.68,12.68,0,0,1-.34,2.67,1.46,1.46,0,0,1-.05.2l-.47-.16c.06-.48.11-.94.17-1.4,0-.22.06-.44.1-.67s.16-.62.2-.94c.07-.48.1-1,.17-1.43.13-1,.3-2,.39-3,.11-1.18.27-2.35.41-3.52a1.27,1.27,0,0,1,.07-.24Zm1.59,11.7a1.62,1.62,0,0,1-.19-.18l0-.05.17-.14a2.62,2.62,0,0,1,2.3-.54,8.91,8.91,0,0,0,2.06.16,1.86,1.86,0,0,0,.33,0,.17.17,0,0,0,.12-.28,1.86,1.86,0,0,0-.53-.59,3.56,3.56,0,0,0-2.35-.53c-.45,0-.89.16-1.34.22a2.51,2.51,0,0,1-.67,0,2.64,2.64,0,0,1-.76-.22.94.94,0,0,1-.55-.48,4.71,4.71,0,0,1-.32-.81,1.47,1.47,0,0,1-.05-.78,2.54,2.54,0,0,0,.46.24,1.81,1.81,0,0,0,1,.05,2.43,2.43,0,0,1,1,0,.87.87,0,0,1,.44.24,1.61,1.61,0,0,0,.32.25,1,1,0,0,0,.86,0l-.18-.13c-.25-.2-.5-.4-.74-.62a.47.47,0,0,1-.19-.43.58.58,0,0,0-.06-.15.71.71,0,0,1-.08-.18,3,3,0,0,0-.54-1.28c-.17-.27-.36-.52-.52-.8a3.14,3.14,0,0,1-.29-2.39l.49.39a4.17,4.17,0,0,1,1.24,1.75,2.56,2.56,0,0,1,.18,1.4,1.36,1.36,0,0,0,0,.6.74.74,0,0,0,.61.61l.09,0a.81.81,0,0,0,0,.22c.06.23.13.47.21.69a.16.16,0,0,0,.22.1.17.17,0,0,0,.1-.22c0-.11-.07-.2-.1-.3a1,1,0,0,1-.06-.6l.29-.13a1.32,1.32,0,0,0,0,.71c0,.17.06.35.1.52s.11.56.19.83.14.2.25.16.12-.12.09-.27,0-.14-.05-.21a2,2,0,0,1,0-.21c.73.64,1.22,1.43,1.89,2.12a2.37,2.37,0,0,0,0-.24,1.4,1.4,0,0,0-.33-.92c-.36-.42-.74-.83-1.12-1.24-.14-.17-.3-.32-.43-.49a.81.81,0,0,1-.09-.73c.19.17.35.33.52.47l.58.4.53.38a2.1,2.1,0,0,0-.63-1c-.16-.14-.32-.27-.47-.42a2.71,2.71,0,0,1-.63-1,1.63,1.63,0,0,1,0-1l.2.25c.25.29.5.58.76.86a8.29,8.29,0,0,1,1.1,1.47A3.88,3.88,0,0,1,34,52.14a4.53,4.53,0,0,0,.1,1.07c.42.27.82.5,1.19.76s.89.63,1.32,1a.52.52,0,0,0,.44.14,2,2,0,0,0-.25-1.33c-.12-.19-.26-.37-.39-.56s-.2-.27-.31-.4a.77.77,0,0,1-.13-.55c0-.09,0-.18,0-.27a1.57,1.57,0,0,1,.23-.55.21.21,0,0,0,0-.2c0-.08-.14-.07-.22,0a.44.44,0,0,0-.16.14,3,3,0,0,0-.17.37s0,.09-.08.16a3.32,3.32,0,0,0-.13-.35.68.68,0,0,1,.11-.77,1.5,1.5,0,0,0,.19-.25.28.28,0,0,0,0-.34c-.26,0-.37.27-.58.43a6.92,6.92,0,0,1,.06-1.37s.07.05.08.07l1,1.3A2.5,2.5,0,0,1,36.73,52c0,.16,0,.33,0,.49a1.09,1.09,0,0,0,.1.25.36.36,0,0,0,.3-.21,1,1,0,0,0,.1-.47v-.22a.27.27,0,0,1,.08.13,2.43,2.43,0,0,1,0,1c0,.11,0,.23,0,.34a.18.18,0,0,0,.1.2c.11.05.18,0,.23-.09a1.53,1.53,0,0,0,.19-.41,4,4,0,0,0,.08-.53.82.82,0,0,1,.23.44,1.89,1.89,0,0,1-.07,1,5.06,5.06,0,0,0-.21,1.15,2.72,2.72,0,0,0,.29,1.48,3.6,3.6,0,0,0,.2.39c.08.15.18.29.28.45a.81.81,0,0,0,.23-.56,4.69,4.69,0,0,0,0-1.06,3.33,3.33,0,0,1,0-.63c0-.06,0-.16.13-.14s.09.08.11.13c.1.23.2.46.29.69a5.11,5.11,0,0,1,.22.62,1.24,1.24,0,0,1-.22,1.17.56.56,0,0,0-.09.17c0,.12,0,.22.1.29a1,1,0,0,1,.27.23,4.08,4.08,0,0,1,.87,1.61.65.65,0,0,1,0,.24l-.09.68c-.06.41-.11.83-.17,1.27L40.05,62c.07-.58.13-1.15.22-1.7a.75.75,0,0,0-.09-.47,4.71,4.71,0,0,0-.91-1.13,2.92,2.92,0,0,0-1.1-.65,8.34,8.34,0,0,0-1.86-.33.92.92,0,0,0-.81.35,2.25,2.25,0,0,0,.84.17c-.48.3-.9.58-1.34.83a1.29,1.29,0,0,1-.8.14,2,2,0,0,1-.84-.33,1.37,1.37,0,0,0,.24-.17c.19-.17.39-.34.57-.53a2.29,2.29,0,0,1,.87-.67c.16,0,.16-.2,0-.3a.58.58,0,0,0-.47-.14,5.22,5.22,0,0,0-.57.11,3.54,3.54,0,0,1-1.71,0,1.25,1.25,0,0,1-.55-.19l.23-.2s.13,0,.17-.09.12-.14.11-.2-.12-.11-.21-.11a.64.64,0,0,0-.43.2,1.73,1.73,0,0,0-.21.25,3.79,3.79,0,0,1-.91-.56,7.13,7.13,0,0,1,1.58-.47,3.11,3.11,0,0,1,1,.06.75.75,0,0,1,.47.34c-.29.12-.63.13-.86.42a.65.65,0,0,0,.58.19c.27-.07.55-.15.81-.24a5.94,5.94,0,0,0,.57-.27,1.34,1.34,0,0,1,1.11,0,2,2,0,0,1,.78.41.26.26,0,0,0,.13.08,1.08,1.08,0,0,1,.46.3l.24.23c.15.14.26.16.34.08s.06-.19-.06-.34a1.65,1.65,0,0,1-.38-.85c0-.12,0-.24,0-.36a1.55,1.55,0,0,0-.07-.23c-.06-.1-.16-.1-.21,0a1,1,0,0,0-.06.25,1.62,1.62,0,0,0,0,.22v.24a.31.31,0,0,1-.22-.25c-.06-.21-.1-.43-.16-.64a.83.83,0,0,0-.08-.22.11.11,0,0,0-.21,0,.47.47,0,0,0-.06.2,1.48,1.48,0,0,0,0,.21.58.58,0,0,1-.36-.5c0-.12,0-.24,0-.36a.33.33,0,0,0,0-.14.17.17,0,0,0-.12-.1.22.22,0,0,0-.15.08.31.31,0,0,0,0,.19,1.77,1.77,0,0,0,0,.24.47.47,0,0,1-.38-.46v-.32c0-.09,0-.18-.13-.21s-.18,0-.21.17,0,.18,0,.28l-.11,0a.36.36,0,0,1-.34-.39c0-.11,0-.21,0-.32s0-.2-.15-.22-.18.07-.21.2a1.62,1.62,0,0,0,0,.22v.27a2.12,2.12,0,0,0-1.32.07c-.2.07-.42.11-.63.18a1,1,0,0,1-.79-.1,2.33,2.33,0,0,1-.38-.26.91.91,0,0,0-.16-.11c-.13-.05-.24,0-.21.17a.81.81,0,0,0,.17.28c.1.1.22.18.34.28a.51.51,0,0,1-.53,0,2.12,2.12,0,0,1-.67-.52.81.81,0,0,0-.18-.19.19.19,0,0,0-.16,0,.25.25,0,0,0-.08.16.5.5,0,0,0,.09.24,4.89,4.89,0,0,0,.37.41l.14.13a1.9,1.9,0,0,1-1.14-.13C28.41,54.8,28.17,54.66,27.94,54.52Zm.7,1,.45.1-.3,2.35-.45-.13C28.43,57,28.52,56.27,28.64,55.49Zm1,.72a.8.8,0,0,0,.15.17.34.34,0,0,1,.13.38,4.87,4.87,0,0,0-.06.55c0,.3-.08.6-.13.95l-.5-.2.31-2.45.53,0,0,.28-.11,0a.24.24,0,0,0-.3.08A.26.26,0,0,0,29.6,56.21Zm.68.66.5.32-.19,1.45-.51-.22Zm.18-1.39.56-.17c-.05.14,0,.27-.11.33s-.31.11-.5.18Zm1.45-.38-.05.26-.42.1C31.42,55.15,31.55,55.05,31.91,55.1Zm.82-.29c0,.15,0,.29,0,.43l0,.12-.34,0C32.3,54.94,32.28,54.88,32.73,54.81Zm.44-.14a.37.37,0,0,1,.38.06l-.1.82-.38-.13Zm.66,1.19c0-.32.08-.65.12-1l.39.2a.15.15,0,0,1,.08.18,1.92,1.92,0,0,0-.05.41c0,.31-.16.44-.46.51A.91.91,0,0,1,33.83,55.86Zm1-.48.49.35-.53.07Zm-3.63,2,.42.2L31.41,59,31,58.82Zm.81.34.38.08-.2,1.56-.36-.16Zm1,1.53-.07.45-.37-.17c0-.11,0-.21,0-.3a.55.55,0,0,1,.07-.3,1,1,0,0,0,.14.19A1.56,1.56,0,0,0,33,59.26Zm-.16-.63c-.06,0-.11.07-.18.12l.12-.9.38,0c0,.15,0,.26,0,.37S33.06,58.6,32.83,58.63Zm.76-.78h.24l-.23.21,0,0Zm-.22,1.68.47.22-.05.39-.48-.24Zm.88.26h.49l-.1.78-.46-.23Zm.83.55c0-.19.05-.39.08-.58a.33.33,0,0,1,.05-.15,5.59,5.59,0,0,1,.5-.28l-.2,1.57-.5-.17Zm1.08-1.28a.2.2,0,0,1,.08-.14,3.27,3.27,0,0,1,.36-.23c-.09.85-.19,1.65-.31,2.46L35.91,61C36,60.36,36.07,59.71,36.16,59.06Zm.85-.33c0-.27.17-.36.48-.28-.13,1-.25,2-.38,3l-.42-.13C36.8,60.41,36.91,59.57,37,58.73Zm.63,2.13a4.33,4.33,0,0,1,.2-1.28A3.4,3.4,0,0,0,38,59c0-.12,0-.24.06-.37l.24.1c-.09,1-.22,2-.35,2.94l-.37-.09C37.59,61.29,37.63,61.08,37.64,60.86ZM38.82,59c.31.19.31.2.27.5L38.91,61c0,.26-.07.53-.11.81l-.23,0-.22-.06Zm.66.68h.05l.26.33a.34.34,0,0,1,.08.27c-.06.36-.1.72-.14,1.08,0,.19-.06.38-.09.59l-.43-.08Zm1.76.41a1.83,1.83,0,0,1-.05-1,3.15,3.15,0,0,0,.05-.43l.3-2.26a1.6,1.6,0,0,1,.05-.21,2.73,2.73,0,0,1,.26.62.64.64,0,0,1,0,.24c-.07.53-.16,1.05-.22,1.58-.08.74-.13,1.49-.2,2.23-.06.52-.14,1-.21,1.61l-.42-.18a.74.74,0,0,1,0-.15c0-.44.11-.89.16-1.33a.23.23,0,0,1,.15-.22.32.32,0,0,0,.14-.21A.53.53,0,0,0,41.24,60.1Zm-.48-1.63a1.94,1.94,0,0,1,0,.2.47.47,0,0,1-.17-.52c.06-.45.11-.9.17-1.35.08-.68.17-1.36.25-2h0c.08.15.15.3.22.45a.15.15,0,0,1,0,.11,2.32,2.32,0,0,0-.15.73,6.86,6.86,0,0,0-.14.79C40.88,57.38,40.82,57.93,40.76,58.47Zm-.21-4.22a.71.71,0,0,0,0,.21c0,.35-.06.7-.11,1a5.47,5.47,0,0,1-.16.7h-.06a1.73,1.73,0,0,0-.11-.32.76.76,0,0,1,0-.59c.07-.26.13-.53.18-.8s.1-.53.15-.84C40.52,53.86,40.67,54,40.55,54.25Zm-.65-1.34c-.06.39-.09.78-.14,1.18,0,.24,0,.49-.08.75,0,0-.06,0-.07-.06a1.24,1.24,0,0,1-.11-1c.06-.41.1-.83.15-1.25l0-.27A.79.79,0,0,1,39.9,52.91Zm-1.24.19a2.82,2.82,0,0,1,0-.87c0-.14,0-.28,0-.43s.06-.49.1-.78l.37.42c0,.11,0,.19-.05.27-.09.84-.19,1.68-.28,2.53a1,1,0,0,1-.14.4c-.1.2-.17.42-.26.63l-.06.14a4.15,4.15,0,0,1,.18-1.4A2,2,0,0,0,38.66,53.1Zm-.23-2s0,0,0,0l-.15,1.07-.4-.18.19-1.65C38.4,50.53,38.55,50.75,38.43,51.1Zm-.73-.94c0,.21-.06.43-.09.64s0,.27-.07.43c-.11-.1-.21-.16-.28-.24a.22.22,0,0,1-.06-.15c0-.38.09-.76.14-1.21l.28.27A.22.22,0,0,1,37.7,50.16ZM37,49.45l-.12.84a.31.31,0,0,1,0,.09c-.13-.17-.24-.33-.35-.49a.22.22,0,0,1-.05-.11c0-.29.07-.58.1-.93.15.14.26.25.37.34A.24.24,0,0,1,37,49.45Zm-.92-.08-.39-.48a.18.18,0,0,1,0-.11c0-.17,0-.35.06-.58l.5.37ZM34.8,48c0-.06,0-.12.05-.21l.5.26-.07.43c-.27,0-.31,0-.39.25a4.28,4.28,0,0,0-.06,2.67.64.64,0,0,1,.05.23c-.05.45-.12.9-.17,1.36-.16,0-.23-.06-.23-.19a10.83,10.83,0,0,1-.07-1.5C34.51,50.15,34.67,49.05,34.8,48Zm-.68,2.27h0a1.38,1.38,0,0,0-.14-.27.76.76,0,0,1-.11-.6c.06-.37.09-.74.14-1.11s.07-.57.11-.88l.41.2Zm1.06,2.17a3.41,3.41,0,0,1,.32.49c.14.21.06.39,0,.63l-.45-.31Zm.8,1.15.37.55,0,0-.26-.21C35.88,53.79,35.88,53.79,36,53.54ZM33.45,49.2a.94.94,0,0,0-.13-.14.59.59,0,0,1-.15-.68,2.46,2.46,0,0,0,.1-.47c0-.29.1-.57.15-.88l.3.17Zm-.76-.9L32.4,48a.15.15,0,0,1,0-.13c0-.44.1-.87.16-1.35l.31.18Zm-.78-.82-.31-.28a.21.21,0,0,1-.08-.21c0-.31.07-.63.11-1,.27.07.28.07.29.28s0,.73,0,1.09C32,47.43,31.93,47.45,31.91,47.48Zm-1.17-1.95.54.28c0,.11,0,.21,0,.3A3.51,3.51,0,0,1,31,47.2a1.76,1.76,0,0,0-.12,1.28,1.45,1.45,0,0,1,0,.55.43.43,0,0,1-.58.37Zm-.64,2.08c-.11-.3-.23-.59-.33-.89a.41.41,0,0,1,0-.19c0-.3.07-.59.1-.89s0-.32.05-.51l.5.24ZM29.42,46h-.05a.64.64,0,0,1-.26-.68,2.54,2.54,0,0,0,0-.29c0-.1,0-.2,0-.32l.39.22ZM28.8,45c0,.1,0,.21-.06.35L28.3,45l.08-.68.48.26Zm-1.59,2c.1.23.16.43.25.6a.69.69,0,0,1,.07.42l-.24,1.81a4.55,4.55,0,0,1-.07.45l-.5-.1Zm-.45-.35c-.13,1-.27,2.08-.41,3.14-.12-.12-.13-.36-.39-.25.12-.72.25-1.4.35-2.09s.17-1.38.25-2.07.15-1.37.23-2.09l.32.26C27,44.52,26.88,45.55,26.76,46.58Zm.72-1.93.05-.88.51.32-.1.65ZM28,48.41c.31.36.32.39.26.82l-.06.55-.06.31-.43,0Zm.19,4.7.34,0c0,.21-.06.26-.38.33Zm1.25-.21c0,.18,0,.18-.45.2C29,53,29,53,29.41,52.9Zm.45-.06h.51l-.05.28-.5-.07Zm.93,0,.52.12,0,.31-.52-.09Zm.91.36,0,0,.15.09v0l-.18,0S31.7,53.24,31.7,53.22ZM28.24,55.3l-.3,2.41-.36-.08.33-2.58Zm-1.07-1.15.14-1.2.44.1c0,.22-.05.42-.07.62a.37.37,0,0,1-.05.11Zm.35.76-.24,1.9c0,.24-.06.49-.1.74l-.45-.11.41-3c.13.12.2.2.29.27A.22.22,0,0,1,27.52,54.91Zm-1.1,1.54c0,.34-.1.68-.16,1l-.46,0c.21-1.66.42-3.3.63-5a.65.65,0,0,0,.19.14c.21.09.2.26.18.44C26.67,54.19,26.55,55.32,26.42,56.45Zm-.73-1.4c-.1-.27-.15-.49-.25-.69a.78.78,0,0,1-.08-.49c.1-.72.19-1.44.29-2.16,0-.26.07-.51.11-.76a.28.28,0,0,1,.08.12,3.1,3.1,0,0,0,.15.46,1,1,0,0,1,.08.59c-.09.61-.16,1.22-.24,1.83C25.79,54.3,25.74,54.65,25.69,55.05ZM23.48,24.41a.73.73,0,0,1,.25-.16c.23,0,.31.12.23.27a.34.34,0,0,1-.08.09l-.42.43-.21.23a.16.16,0,0,1-.22,0,.14.14,0,0,1,0-.21A7,7,0,0,1,23.48,24.41Zm-.31-3,0,0a.54.54,0,0,1,0-.18,5.83,5.83,0,0,1,.23-.58,2.11,2.11,0,0,1,.54-.77c.3-.24.61-.45.92-.67a1.23,1.23,0,0,1,.25-.14c.15-.07.26-.06.28,0s-.09.16-.17.2a2.8,2.8,0,0,0-1,.92c-.27.34-.52.7-.78,1.05A1,1,0,0,1,23.17,21.44Zm.55,1c.12,0,.18.12.11.21a1.14,1.14,0,0,1-.3.28c-.09.06-.19,0-.19-.14A.35.35,0,0,1,23.72,22.49Zm.54,3.06a3.55,3.55,0,0,0-.23.31,2.24,2.24,0,0,0-.44,1,.76.76,0,0,1-.09.18h-.06c0-.05-.07-.09-.07-.14a1.82,1.82,0,0,1,0-.52,2.64,2.64,0,0,1,.47-.95.57.57,0,0,1,.13-.14.19.19,0,0,1,.26,0C24.34,25.34,24.34,25.44,24.26,25.55Zm-1.17-1.72a.49.49,0,0,1,.42-.41s.11,0,.12.07a.24.24,0,0,1,0,.22,1.31,1.31,0,0,1-.32.25C23.19,24,23.09,24,23.09,23.83ZM24,17.68a1.67,1.67,0,0,1,.33-.13c.25,0,.35.05.36.16s0,.19-.21.25l-.07,0a1.84,1.84,0,0,0-.35.15c-.18.12-.35.26-.52.39a1.7,1.7,0,0,1-.22.15.17.17,0,0,1-.15,0s0-.09,0-.13a.33.33,0,0,1,.06-.1A2.33,2.33,0,0,1,24,17.68Zm.39-1.17c.15-.07.26,0,.3.1s0,.21-.16.28l-.64.27c-.12.05-.23,0-.23-.17a.38.38,0,0,1,.11-.16A5.2,5.2,0,0,1,24.37,16.51Zm.2-.84a.16.16,0,0,1,.16.18.18.18,0,0,1-.16.19,2.25,2.25,0,0,1-.26,0h0A1.22,1.22,0,0,1,24,16c-.05,0-.13-.06-.14-.11s0-.12.09-.15A1,1,0,0,1,24.57,15.67Zm.35-1c.12.2.13.28,0,.38s-.23.22-.4.17a.12.12,0,0,1,0-.21C24.63,14.87,24.77,14.77,24.92,14.65Zm.22-.9A.34.34,0,0,1,25,14c-.08,0-.16,0-.15-.14a2,2,0,0,1,.16-.24C25,13.6,25.13,13.66,25.14,13.75Zm.24,4.62c0,.08-.05.14-.08.16a1.26,1.26,0,0,1-.26.13,4.35,4.35,0,0,0-1.26.71,3.06,3.06,0,0,0-.3.32c-.1.11-.2.13-.29.06a.21.21,0,0,1,0-.32l.12-.13a3.42,3.42,0,0,1,1.4-.79C24.9,18.45,25.12,18.42,25.38,18.37Zm.95,10.27a3.34,3.34,0,0,1,.77,1.95,13,13,0,0,0,.7,3.27c.08.23.16.46.26.68a5.45,5.45,0,0,1,.33,2.62,3.66,3.66,0,0,1-.23,1.09.45.45,0,0,1-.13.23,2.2,2.2,0,0,1-1.43.62.68.68,0,0,1-.71-.56l.26.07a1.38,1.38,0,0,0,1.09-.06.15.15,0,0,0,.09-.2.27.27,0,0,0-.16-.11.31.31,0,0,0-.19,0,2,2,0,0,1-1.2-.2c-.05,0-.11-.06-.12-.1s-.05-.27-.08-.42l.22.06c.23,0,.46.06.69.07a.38.38,0,0,0,.23-.08.2.2,0,0,0,.07-.16.32.32,0,0,0-.15-.13s-.06,0-.09,0a3.59,3.59,0,0,1-1-.15l-.19-.54h.49c.13,0,.2-.11.18-.22s-.1-.16-.2-.16h-.12L25,36.08a.45.45,0,0,1-.32-.24l.23,0,.26,0c.09,0,.16-.09.13-.18a.24.24,0,0,0-.14-.14.73.73,0,0,0-.22,0l-.72,0c-.29,0-.43-.21-.58-.45a1.46,1.46,0,0,1,.21,0c.18,0,.36,0,.53,0a1.28,1.28,0,0,0,.34-.06.16.16,0,0,0,.14-.19c0-.12-.09-.15-.18-.15a2.43,2.43,0,0,0-.27,0,4.22,4.22,0,0,1-1-.14l-.05-.25a2,2,0,0,0,.29,0c.2,0,.41,0,.61,0a.17.17,0,0,0,.16-.18.18.18,0,0,0-.18-.16l-.24,0-.58-.07c-.12,0-.15-.08-.13-.2a2.36,2.36,0,0,0,.38,0c.13,0,.21-.12.19-.21a.18.18,0,0,0-.21-.16l-.4,0c0-.07,0-.1,0-.13a6.37,6.37,0,0,0-.37-1.55,2.57,2.57,0,0,1-.14-1.29,2.87,2.87,0,0,1,1.23-1.95.84.84,0,0,1,.21-.11A1.68,1.68,0,0,1,26.33,28.64Zm4.78-15.26a4.76,4.76,0,0,1,.52-.1,1.58,1.58,0,0,1,.72,0c.07,0,.17,0,.15.19h-.39a2.7,2.7,0,0,0-1.46.45c-.44.29-.86.6-1.31.87a3,3,0,0,1-.67.27.68.68,0,0,1-.52-.06c-.11-.07-.11-.17,0-.22a2.74,2.74,0,0,1,.28-.05,2.72,2.72,0,0,0,.51-.13,6.48,6.48,0,0,0,.67-.39c.32-.22.63-.46,1-.66A2,2,0,0,1,31.11,13.38Zm-.54-.31a4.59,4.59,0,0,0-1.78.78,2.21,2.21,0,0,1-1.05.34h-.07c-.07,0-.14,0-.13-.09s.06-.09.11-.1a3.46,3.46,0,0,0,1.66-.84,2.35,2.35,0,0,1,1.19-.48.21.21,0,0,1,.26.16A.19.19,0,0,1,30.57,13.07Zm2.7,4.05v0a3.53,3.53,0,0,1,.46,0,4.11,4.11,0,0,1,.57.17s.08.11.07.15-.1.06-.16,0a1.66,1.66,0,0,0-.42-.12,3.3,3.3,0,0,0-1.36.14,1.36,1.36,0,0,1-.29.06,2.93,2.93,0,0,0-1.48.49.11.11,0,0,1-.06,0,.19.19,0,0,1-.22-.3l.2-.17a2.48,2.48,0,0,1,.95-.35C32.11,17.23,32.69,17.18,33.27,17.12Zm-1,1.21s0,.08,0,.1l-.2.08-1.37.38a3,3,0,0,1-.31,0,.33.33,0,0,1,.27-.33c.34-.11.68-.22,1-.3a2.6,2.6,0,0,1,.56,0S32.29,18.3,32.29,18.33Zm-1,8.09a1.14,1.14,0,0,1-.52.62.29.29,0,0,1-.35,0l.45-.59a1.19,1.19,0,0,0,.09-.15c.06-.08.13-.16.24-.1A.2.2,0,0,1,31.29,26.42Zm-1-.07a.18.18,0,0,1-.24-.09c-.05-.11,0-.17.11-.21a1,1,0,0,0,.41-.36c.11-.15.19-.16.4-.09l-.25.42A.72.72,0,0,1,30.33,26.35ZM30,24.06c-.12,0-.21-.06-.17-.19a.26.26,0,0,1,.13-.16,3.11,3.11,0,0,1,.46-.16c.05,0,.12,0,.13.07s0,.15,0,.17A3.78,3.78,0,0,1,30,24.06Zm-1-.64c-.2,0-.3-.08-.3-.21s.1-.21.28-.22h0a2.88,2.88,0,0,0,1.42-.43l.31-.19c.07.23-.07.32-.16.41A2.5,2.5,0,0,1,29.07,23.42Zm-.41,16.75a.18.18,0,0,1,.1,0l.42.3-.62.14c-.45.09-.45.09-.8-.3ZM27.71,40a.86.86,0,0,1,.39-.39l.3.28Zm.86-11.7c0-.1.1-.16.23-.16a2.83,2.83,0,0,1,.29,0c.05,0,.13.06.14.1a.23.23,0,0,1-.08.18,1.18,1.18,0,0,1-.23.09l-.16,0A.2.2,0,0,1,28.57,28.26Zm-.34-5.54a3.09,3.09,0,0,1-.33-.08.15.15,0,0,1-.11-.21.17.17,0,0,1,.21-.12l.6.05a1,1,0,0,0,.38-.05,3.06,3.06,0,0,0,1-.53,3.14,3.14,0,0,1,.39-.24c.08-.05.16-.07.21,0s0,.15-.07.2l-.06,0c-.16.12-.32.25-.5.36a3,3,0,0,1-.4.2,2.18,2.18,0,0,0-.27.11A3.71,3.71,0,0,1,28.23,22.72Zm1.55,6a.61.61,0,0,1-.07.14,1.12,1.12,0,0,1-.87.2.16.16,0,0,1-.11-.19.16.16,0,0,1,.18-.15Zm-.09,12.08a6.34,6.34,0,0,1,.73.47l-1.18.17a.27.27,0,0,1-.18,0c-.17-.11-.33-.23-.49-.35l0,0,.94-.22A.22.22,0,0,1,29.69,40.79ZM30,39.37c.17-.08.34-.16.51-.22a.78.78,0,0,1,.71.11,1.27,1.27,0,0,0-.88.3l-.18.12c-.13.07-.24,0-.29-.06S29.91,39.43,30,39.37Zm1.34,2.44v.06l-1.25.21-.48-.28v-.06l1.16-.2a.34.34,0,0,1,.14,0Zm.06.41a1.36,1.36,0,0,1,1,.06c.08,0,.19,0,.29.15-.3,0-.56.1-.82.13a.93.93,0,0,0-.53.17l-.66-.33C31,42.31,31.22,42.29,31.44,42.22Zm1.62.5a1.82,1.82,0,0,1,1.2-.07l-.11.06a7,7,0,0,1-1.43.43A1,1,0,0,1,32,43l.2,0A3.18,3.18,0,0,0,33.06,42.72ZM35.87,45c.32.08.65.13,1,.23s.39.12.41.53,0,.89.06,1.36L37.09,47c-.66-.36-1.31-.75-2-1.08-1-.51-2-1-3-1.46-.51-.25-1-.51-1.5-.8s-1.14-.7-1.72-1a5.82,5.82,0,0,1-1.72-1.52c-.16-.21-.15-.36.06-.58l.09.08a13.64,13.64,0,0,0,3.8,2.53c.5.23,1,.44,1.48.69A17.59,17.59,0,0,0,35.87,45ZM27.12,21.37a.72.72,0,0,1,.19,0l.71,0a4.81,4.81,0,0,0,1-.09,3.46,3.46,0,0,0,1.64-1c.06-.07.13-.17.22-.08s0,.16-.06.22a3.66,3.66,0,0,1-1.18.93,2.44,2.44,0,0,1-1.21.39c-.42,0-.84,0-1.26,0-.19,0-.31,0-.32-.14S26.93,21.41,27.12,21.37ZM29,12a1.3,1.3,0,0,1,1,0s.06.05.1.08l0,.07c-.16,0-.33,0-.49.06a2.07,2.07,0,0,0-.49.12c-.37.17-.73.37-1.11.54a2,2,0,0,1-.48.14.23.23,0,0,1-.29-.17,1,1,0,0,0,.36-.05,1.32,1.32,0,0,0,.29-.24l.09-.06C28.37,12.33,28.71,12.18,29,12Zm2.38-3.53c-.07.19-.09.23-.23.27a2.25,2.25,0,0,0-.82.47,3.11,3.11,0,0,1-.53.32c-.16.08-.3,0-.34-.08s0-.19.16-.28l.71-.47a1.8,1.8,0,0,1,.35-.21A.89.89,0,0,1,31.42,8.48Zm3,.2a.32.32,0,0,1-.25.1,3.6,3.6,0,0,0-.66.05c-.46.12-.91.25-1.36.41a4.08,4.08,0,0,0-.63.31.85.85,0,0,1-.26.11A.18.18,0,0,1,31,9.41a.62.62,0,0,1,.17-.25,2.82,2.82,0,0,1,.5-.29A5.25,5.25,0,0,1,33.8,8.5a3,3,0,0,1,.43.05C34.31,8.56,34.38,8.59,34.39,8.68Zm1.46.76c-.07,0-.09.06-.12.06a1.23,1.23,0,0,1-.57-.06,1,1,0,0,0-.62-.06l-.73.16a3.79,3.79,0,0,0-1.48.58l-.08.05a.17.17,0,0,1-.22-.06.17.17,0,0,1,0-.22.31.31,0,0,1,.11-.09,2.49,2.49,0,0,1,1-.43l1.58-.23a1.26,1.26,0,0,1,.43,0l.54.15A1.5,1.5,0,0,1,35.85,9.44Zm7.28-2.17c-.1.11-.1.11-.18.13a2.28,2.28,0,0,1-1.24-.13c-.66-.23-1.32-.49-2-.72a3,3,0,0,0-.88-.24l-.83,0-.41,0V6.16A1.4,1.4,0,0,1,38.23,6l.41,0a2,2,0,0,1,.87.06l.76.25a6.54,6.54,0,0,1,1.46.64A2.35,2.35,0,0,0,43,7.24Zm.28.9a1.76,1.76,0,0,1-.2.09,3.32,3.32,0,0,1-1.4.11,12.51,12.51,0,0,1-1.34-.23,2.2,2.2,0,0,1-.53-.22.54.54,0,0,1-.16-.14c-.09-.15,0-.27.14-.26a1.29,1.29,0,0,1,.26.08,2.5,2.5,0,0,0,.38.15c.4.08.81.17,1.22.21s.77,0,1.16.06a1,1,0,0,1,.46.08ZM48.79,7c-.09.07-.15,0-.21-.08s0,0,0,0a1.25,1.25,0,0,0-1-.38h-.39c-.11,0-.14-.08-.15-.17a.19.19,0,0,1,.15-.22c.18,0,.36,0,.54,0a1.23,1.23,0,0,1,1,.63C48.84,6.86,48.88,7,48.79,7Zm0,.94a.14.14,0,0,1-.14,0,1,1,0,0,1-.19-.17,1.6,1.6,0,0,0-.31-.22,4,4,0,0,0-1-.27,4.74,4.74,0,0,1-.57-.17A.74.74,0,0,1,46.43,7a.21.21,0,0,1,0-.27.19.19,0,0,1,.25-.08,1.34,1.34,0,0,1,.18.07,1.87,1.87,0,0,0,.4.13L47.8,7a1.67,1.67,0,0,1,.89.51,1.39,1.39,0,0,1,.16.35S48.84,8,48.81,8ZM52.67,8c-.08.08-.14,0-.2-.06a3.45,3.45,0,0,0-1.73-.85l-.47-.06a.17.17,0,0,1-.16-.21.18.18,0,0,1,.21-.15,4,4,0,0,1,1.5.45,1.89,1.89,0,0,1,.81.67C52.68,7.88,52.75,8,52.67,8Zm-2.53.48c0-.12.13-.12.23-.14a2.6,2.6,0,0,1,1.18.54.23.23,0,0,1,.07.1.86.86,0,0,1,0,.16s-.12,0-.16,0a2.2,2.2,0,0,0-.74-.31,3.38,3.38,0,0,1-.42-.13C50.21,8.69,50.12,8.62,50.14,8.51Zm3.12,1.12s-.1,0-.14,0a3,3,0,0,1-.27-.23L52.36,9c-.17-.14-.34-.28-.52-.41A3,3,0,0,0,50.79,8a2.09,2.09,0,0,1-.35-.13.22.22,0,0,1-.11-.25c0-.11.12-.14.22-.15h.05a2.75,2.75,0,0,1,1.1.46c.38.31.75.63,1.1,1a4.15,4.15,0,0,1,.46.62S53.26,9.59,53.26,9.63Zm0,1.33a6.65,6.65,0,0,0,1.78.86,2.73,2.73,0,0,0,.64.06l.11,0s0,.07-.05.1a.24.24,0,0,1-.11.06,1.47,1.47,0,0,1-.88,0l-.3-.1a4.87,4.87,0,0,1-2.35-1.41,4.17,4.17,0,0,0-1.33-1,2.18,2.18,0,0,0-1.12-.19h-.28a.17.17,0,0,1-.17-.18A.18.18,0,0,1,49.37,9h.11a3.39,3.39,0,0,1,1.86.54c.27.15.52.34.78.52l.49.35A8.64,8.64,0,0,0,53.28,11ZM57,28.89a.64.64,0,0,1-.83.06.23.23,0,0,1-.07-.26.23.23,0,0,1,.21-.15h.22a2.6,2.6,0,0,1,.37,0C57.09,28.61,57.13,28.76,57,28.89Zm0-6.54a.2.2,0,0,1,.19-.21l.55-.08s.12.05.14.1a.28.28,0,0,1,0,.22.62.62,0,0,1-.67.18A.2.2,0,0,1,57.05,22.35Zm-.46-1.73c.08-.08.18-.07.29,0a1,1,0,0,0,.78.19,1,1,0,0,1,.55,0s.09.07.09.11a.15.15,0,0,1-.08.12,2.17,2.17,0,0,1-.79.22v0a5.36,5.36,0,0,1-.54-.14.5.5,0,0,1-.32-.3A.23.23,0,0,1,56.59,20.62Zm-1.48-7.46v0a1.37,1.37,0,0,1-.29,0,11.39,11.39,0,0,1-1.41-.54,7.8,7.8,0,0,1-1.11-.8,3.06,3.06,0,0,1-.3-.32.13.13,0,0,1,0-.12.16.16,0,0,1,.12,0l.18.08,1.17.74a1.64,1.64,0,0,0,.29.16c.27.11.54.22.81.31a1.84,1.84,0,0,0,.51.1,2.31,2.31,0,0,0,1.28-.3c.11-.06.18,0,.19.11a.49.49,0,0,1,0,.12.52.52,0,0,1-.42.36Zm1,4.94a.19.19,0,0,1,.12-.15s.12,0,.17.08,0,.08.06.12a1,1,0,0,0,.17.24c.14.11.29.19.43.3a1.88,1.88,0,0,0,.87.43s.1.06.1.09a.14.14,0,0,1-.09.12,1.81,1.81,0,0,1-.35.07,2,2,0,0,1-.49-.11,2.47,2.47,0,0,1-.85-.69A.75.75,0,0,1,56.06,18.1Zm.41-7.42s-.07.08-.11.08h-.61v0l-.29,0a.22.22,0,0,1-.22-.25c0-.14.11-.21.26-.2a3.07,3.07,0,0,1,.53.06,1.36,1.36,0,0,1,.39.17A.15.15,0,0,1,56.47,10.68Zm.41-1.78c0,.09-.1.08-.18.06l-1.1-.23a2.05,2.05,0,0,0-.89-.08l-.51.09a.25.25,0,0,1-.32-.23.26.26,0,0,1,.19-.24,2.49,2.49,0,0,1,1-.1,8.48,8.48,0,0,1,1.1.29,4.78,4.78,0,0,1,.61.28A.19.19,0,0,1,56.88,8.9Zm1.42,1.73a3.23,3.23,0,0,0-.9-.47c-.45-.15-.89-.31-1.34-.44a6.6,6.6,0,0,0-.89-.14.81.81,0,0,0-.27,0,.32.32,0,0,1-.35-.07.15.15,0,0,1,0-.25c.16-.07.34-.12.48-.17s.34.08.5.09A5.74,5.74,0,0,1,57,9.58a2.06,2.06,0,0,1,.33.17.84.84,0,0,0,.21.11,2.9,2.9,0,0,1,1.07.69.21.21,0,0,1,.05.13.16.16,0,0,1-.14.06A.6.6,0,0,1,58.3,10.63ZM58.2,14a3.45,3.45,0,0,1-.32-.2.22.22,0,0,1-.05-.18s.09-.07.13-.1a1,1,0,0,1,.22.06c.33.18.66.34,1,.54a2.36,2.36,0,0,1,.76.84.87.87,0,0,1,.07.17.16.16,0,0,1-.08.2.15.15,0,0,1-.2-.06.36.36,0,0,1-.07-.1A2.46,2.46,0,0,0,59,14.4C58.72,14.24,58.46,14.1,58.2,14Zm.42,11.88A3,3,0,0,1,59,25.7,1.75,1.75,0,0,0,60,25c.12-.17.25-.33.38-.48s.11-.09.14-.07.07.09.1.14h0a.34.34,0,0,1,0,.1.42.42,0,0,1,0,.1,2.47,2.47,0,0,1-.55.77,3.8,3.8,0,0,1-1.22.62h-.07a.17.17,0,0,1-.21-.13A.18.18,0,0,1,58.62,25.84Zm-.88-2.62a.78.78,0,0,1-.25.07.26.26,0,0,1-.33-.21c0-.16.07-.26.25-.31a1.63,1.63,0,0,0,.74-.22,3.11,3.11,0,0,1,.28-.23.75.75,0,0,1,.48-.2.3.3,0,0,1,.13,0c.05,0,.12.07.12.11s0,.1-.09.14a.39.39,0,0,1-.11.06,1.38,1.38,0,0,0-.33.2A4,4,0,0,1,57.74,23.22Zm.14,2.3c-.15,0-.22,0-.25-.14a.18.18,0,0,1,.14-.22.63.63,0,0,1,.19,0,.27.27,0,0,1,.17.1.14.14,0,0,1-.06.2A.62.62,0,0,1,57.88,25.52Zm-2,4.09a.26.26,0,0,1,.28-.22l.2.05a1.08,1.08,0,0,0,.81-.06c.11-.05.21-.12.32-.16s.17,0,.2,0a.27.27,0,0,1,0,.2.3.3,0,0,1-.12.15,2.06,2.06,0,0,1-1.1.41h-.17l-.27,0A.27.27,0,0,1,55.88,29.61ZM55.52,19a.21.21,0,0,1,.11-.25c.1-.06.17,0,.24.09S56,19,56,19a5.06,5.06,0,0,0,.92.57l.07,0a2.85,2.85,0,0,0,.31.12l.56.2A.11.11,0,0,1,58,20a.11.11,0,0,1-.06.09.85.85,0,0,1-.21.07l-.35,0a2.46,2.46,0,0,1-1-.35,6.19,6.19,0,0,1-.59-.41A.49.49,0,0,1,55.52,19ZM52.65,44.47c-.14.44-.26.87-.42,1.3A7.67,7.67,0,0,1,51,48l-.18.24h0c.11-.32.21-.63.31-.95,0-.09.08-.19,0-.24s-.17,0-.21.12a3.7,3.7,0,0,0-.24.54c-.17.5-.31,1-.47,1.52a.69.69,0,0,1-.05.13.13.13,0,0,1,0-.08c-.05-.27-.09-.55-.15-.82a.76.76,0,0,0-.13-.23.19.19,0,0,0-.13,0s0,.07-.06.11a.76.76,0,0,0,0,.15,4.09,4.09,0,0,1,0,1.48.7.7,0,0,1-.17.43,5.41,5.41,0,0,0,0-.59,2.4,2.4,0,0,0-.16-.52.15.15,0,0,0-.2-.09c-.09,0-.08.12-.07.19l.06.32a2.06,2.06,0,0,1-.3,1.57,2.34,2.34,0,0,1-.31.32.11.11,0,0,1,0-.08,5,5,0,0,0,.1-.66,1.23,1.23,0,0,0-.07-.42.17.17,0,0,0-.13-.07c-.05,0-.09.08-.1.13s0,.21,0,.31a2.61,2.61,0,0,1-.33,1.08c-.1.17-.28.22-.45.31a3,3,0,0,0,.18-.42.89.89,0,0,0,0-.58.23.23,0,0,0-.15-.14c-.08,0-.1.08-.11.15s-.06.27-.1.4a.58.58,0,0,1-.13.25c-.14.19-.28.39-.44.57a.58.58,0,0,1-.55.16l.07-.15c0-.17.1-.34.14-.51a.14.14,0,0,0-.11-.19.15.15,0,0,0-.19.1c0,.06,0,.13-.08.18a4.2,4.2,0,0,1-.26.52c-.17.25-.29.29-.62.24l.17-.24a4.61,4.61,0,0,0,.22-.51c0-.16,0-.26-.1-.29s-.16,0-.23.2a1.83,1.83,0,0,1-.58.77.68.68,0,0,1-.73,0A1.94,1.94,0,0,0,44,52.4a3.72,3.72,0,0,0,.27-.57.18.18,0,0,0-.09-.26c-.09,0-.16,0-.23.16l-.06.13a2,2,0,0,1-.66.74l-.5-.2a1.13,1.13,0,0,0,.19-.18c.14-.19.28-.38.4-.57a.46.46,0,0,0,.07-.26.21.21,0,0,0-.1-.16s-.13,0-.18.06-.07.1-.1.16a2.59,2.59,0,0,1-.68.76l-.67-.37.2-.12A1.28,1.28,0,0,0,42.4,51c.05-.15,0-.26-.08-.3s-.17,0-.25.17L42,51a1.55,1.55,0,0,1-.67.62c-.21-.16-.48-.23-.55-.52l.12-.06a1.7,1.7,0,0,0,.6-.75.17.17,0,0,0-.07-.23.16.16,0,0,0-.23,0c-.06.06-.1.13-.15.19s-.29.37-.46.57l-.4-.58c.08-.06.15-.09.21-.14a1.25,1.25,0,0,0,.41-.47c.06-.13,0-.23,0-.28s-.18,0-.27.08l-.15.17A1,1,0,0,1,40,50l-.36-.46c.18-.16.36-.3.52-.46s.13-.25,0-.32-.17-.07-.31.07a1.66,1.66,0,0,1-.53.36,1.7,1.7,0,0,1-.49-.49c.32-.24.64-.48.94-.72a2.24,2.24,0,0,0,.34-.35c.07-.08.1-.18,0-.26a.17.17,0,0,0-.26,0l-.26.22a5.27,5.27,0,0,1-1,.72l-.2-.25c.16-.1.32-.17.45-.27a1.53,1.53,0,0,0,.28-.29.14.14,0,0,0,0-.22.27.27,0,0,0-.2,0c-.06,0-.1.08-.15.12a1.66,1.66,0,0,1-.72.34l-.19-.51a2.16,2.16,0,0,0,.25-.1,3.29,3.29,0,0,0,.49-.26,1.59,1.59,0,0,0,.32-.36.2.2,0,0,0,0-.28c-.09-.06-.17,0-.28.07l-.07.1a1.57,1.57,0,0,1-.74.4l0-.47a2.51,2.51,0,0,0,.28-.13,1.53,1.53,0,0,0,.27-.17c.09-.08.11-.18.05-.25a.17.17,0,0,0-.24,0l-.15.07-.22.1V45.2a3.45,3.45,0,0,0,.34-.14c.13-.06.17-.15.14-.25s-.13-.13-.28-.1l-.57.12a.46.46,0,0,1-.39-.09c.13-.11.26-.21.38-.33s.14-.23.08-.3-.14-.07-.3,0-.38.24-.58.35a.35.35,0,0,1-.45,0l.38-.22a.7.7,0,0,0,.2-.18.19.19,0,0,0,0-.18s-.11,0-.16-.06a.28.28,0,0,0-.12,0l-.84.38a.31.31,0,0,1-.43-.06,10,10,0,0,0,1-.4,3.24,3.24,0,0,0,.6-.45s0-.11.06-.17a.72.72,0,0,0-.19,0,1.27,1.27,0,0,0-.31.15,4.88,4.88,0,0,1-2,.63l.2-.1,1-.55a1.37,1.37,0,0,0,.22-.2.18.18,0,0,0,0-.22c-.07-.09-.16,0-.24,0l-.11.06a6,6,0,0,1-1.69.72.49.49,0,0,1-.52-.14,5.52,5.52,0,0,0,1.57-.64,1.36,1.36,0,0,1,.62-.25,1.24,1.24,0,0,0,.35-.1.31.31,0,0,0,.17-.47.5.5,0,0,0-.1-.14c-.25-.16-.34-.45-.6-.63l.38,0c.18,0,.36-.07.4-.29s-.09-.32-.24-.41-.41-.22-.63-.34a.37.37,0,0,0-.26-.41l.42-.19c.14-.08.29-.17.26-.37s-.14-.22-.37-.25-.45,0-.68-.06A2.22,2.22,0,0,1,33,38l.41-.07.26-.05c.11,0,.18-.08.17-.2s-.1-.16-.21-.17h-.19l-.77.13a.27.27,0,0,1-.18,0,2.82,2.82,0,0,1-.52-.42A11.28,11.28,0,0,1,33.66,37a1.33,1.33,0,0,0,.34,0,.16.16,0,0,0,.12-.19.17.17,0,0,0-.15-.16h-.1a6.3,6.3,0,0,0-.75.05c-.46.07-.92.17-1.38.26-.07,0-.16,0-.21,0a3.68,3.68,0,0,1-.37-.32s0,0,.06,0L33,36.2l.29,0a.16.16,0,0,0,.14-.18.17.17,0,0,0-.17-.17,1.61,1.61,0,0,0-.22,0L31.59,36l-.73.13L30.78,36l-.05-.15.41-.1,1-.24c.1,0,.17-.08.16-.18a.19.19,0,0,0-.21-.17l-.26,0-.55.11-.76.16L30.43,35l.24,0,1.16-.15.57-.09a.16.16,0,0,0,.15-.19c0-.11-.08-.15-.18-.16h-.24l-1.83.22-.11-.35,1.07-.14a.72.72,0,0,0,.21,0,.13.13,0,0,0,0-.25.35.35,0,0,0-.18-.05,2.75,2.75,0,0,0-.5,0l-.71.12-.08-.3a.51.51,0,0,1,.14,0l1.47-.2c.16,0,.24-.08.23-.19s-.07-.16-.22-.17a3.23,3.23,0,0,0-.44,0l-1.29.18-.07-.32.45,0,.48,0c.1,0,.17-.06.17-.17a.17.17,0,0,0-.15-.16h-.1l-.56,0-.38,0,0-.34.21,0,.82-.11c.1,0,.2-.05.19-.18s-.11-.15-.21-.15l-.44,0-.61.08c0-.3,0-.39.27-.43.47-.08.94-.14,1.42-.2a.53.53,0,0,0,.18,0c.06,0,.13-.1.13-.15s-.08-.11-.13-.14a.25.25,0,0,0-.17,0l-.92.07L29.7,31c0-.25.06-.36.26-.4l.24,0,1.1-.2c.1,0,.18-.05.17-.16a.16.16,0,0,0-.18-.16,1.45,1.45,0,0,0-.36,0l-.86.14a1,1,0,0,1-.17,0A1.05,1.05,0,0,0,30,30a.45.45,0,0,1,.39-.24l1.19-.21a.59.59,0,0,0,.19-.05.13.13,0,0,0,0-.24.46.46,0,0,0-.28-.06l-1,.14h-.19a4.77,4.77,0,0,0,.39-.33A.37.37,0,0,1,31,28.9l1.18-.17a.49.49,0,0,0,.21,0,.23.23,0,0,0,.1-.16c0-.06-.07-.12-.12-.16a.32.32,0,0,0-.17,0q-.32,0-.63.06c-.22,0-.44.06-.67.1.06-.31.12-.39.37-.42s.61-.07.91-.11a1.44,1.44,0,0,0,.31,0,.19.19,0,0,0,.11-.14.22.22,0,0,0-.1-.15.46.46,0,0,0-.21,0l-1,.06c.05-.19,0-.19.19-.22s.4-.07.6-.09l.61-.06a.17.17,0,0,0,.17-.17c0-.11-.08-.15-.18-.17h-.17l-.7.06-.3,0,.09-.29.9-.16c.11,0,.19-.07.19-.19a.17.17,0,0,0-.21-.16,3.88,3.88,0,0,0-.48,0l-.33.06.12-.45a3.48,3.48,0,0,0,.36,0,.56.56,0,0,0,.23-.07.24.24,0,0,0,.07-.18s-.08-.09-.14-.1-.22,0-.33-.05a1.71,1.71,0,0,1,1-.66.89.89,0,0,1,.73.05c.17.08.21.06.31-.1a.61.61,0,0,0,.07-.1.29.29,0,0,0,0-.36,1.11,1.11,0,0,0-.2-.24,2.16,2.16,0,0,0-.86-.42,3.77,3.77,0,0,0-1.11-.1h-.21a1.73,1.73,0,0,1,1-.6,1.93,1.93,0,0,1,.89.1,1.14,1.14,0,0,0,.32.07.29.29,0,0,0,.3-.42.81.81,0,0,0-.17-.24,1.63,1.63,0,0,0-1.08-.5c-.37,0-.74,0-1.11,0h-.18a1.63,1.63,0,0,1,1.1-.49,1.39,1.39,0,0,1,.74.22.84.84,0,0,0,.49.18.3.3,0,0,0,.33-.37,2,2,0,0,0-.07-.23c0-.05,0-.09-.09-.17l1-.09,1-.06a.19.19,0,0,0,.19-.18.18.18,0,0,0-.18-.19,1.45,1.45,0,0,0-.36,0l-1.75.14a.29.29,0,0,1-.16,0l-.59-.46.06,0A15.74,15.74,0,0,1,36.76,20a1.56,1.56,0,0,0,.43,0c.05,0,.11-.07.13-.12s0-.14-.12-.16l-.29-.05a12.47,12.47,0,0,0-3.17.12L32.55,20c.13-.17.21-.36.41-.42A9.81,9.81,0,0,1,35.1,19a16,16,0,0,1,2.5,0l.46,0c.1,0,.22,0,.26-.12s0-.17-.21-.22a1.76,1.76,0,0,0-.33-.07c-.53,0-1.06-.09-1.6-.11a7.54,7.54,0,0,0-1.57.1l-1.14.23a1.87,1.87,0,0,1,.77-.46,3.3,3.3,0,0,1,1.08-.13,8.12,8.12,0,0,0,1,0,1.34,1.34,0,0,0,.47-.14.41.41,0,0,0,.28-.38.39.39,0,0,0-.27-.37,5.61,5.61,0,0,0-1.44-.51l-.54-.1.13-.12a2.93,2.93,0,0,0,.86-1.25c.08-.24.16-.47.25-.71a3.26,3.26,0,0,1,.83-1.3,2.79,2.79,0,0,1,.44-.29l.11,0a.33.33,0,0,0,.09-.16.22.22,0,0,0-.12-.13.76.76,0,0,0-.26,0,1.12,1.12,0,0,0-.56.29,2.42,2.42,0,0,1-.33.31,4.27,4.27,0,0,0-.92.93c-.1.12-.21.23-.32.35a.26.26,0,0,1,0-.18l.52-1a.5.5,0,0,0,.05-.21.15.15,0,0,0-.22-.14.83.83,0,0,0-.22.14l-1,.82-.65.54a.77.77,0,0,1-.41.18c.12-.19.24-.35.34-.52a2.14,2.14,0,0,1,.68-.75c.21-.13.42-.24.64-.36s.41-.22.61-.35a1,1,0,0,0,.43-.53c.1-.28-.07-.48-.36-.41a1.15,1.15,0,0,0-.39.18,2.79,2.79,0,0,1-1,.39,2.21,2.21,0,0,1-1,0,.42.42,0,0,1-.32-.23l.1,0a2.54,2.54,0,0,0,1.94-.63,2,2,0,0,1,1.54-.45c.39,0,.77.1,1.16.15a5.52,5.52,0,0,0,1.52.12l.84-.11a.9.9,0,0,0,.27-.11.16.16,0,0,0,0-.28.66.66,0,0,0-.24-.11c-.36-.09-.72-.17-1.08-.27A4.9,4.9,0,0,1,37.58,10a.77.77,0,0,1-.33-.32h.32a3.52,3.52,0,0,1,.49.11c.37.14.73.28,1.08.44a11.24,11.24,0,0,0,5.29,1H45a2.11,2.11,0,0,1,.66.14,1.91,1.91,0,0,1-.14.21.61.61,0,0,1-.37.21.29.29,0,0,0-.23.26.28.28,0,0,0,.19.28,1.48,1.48,0,0,0,.27.1,4,4,0,0,0,1.8.07,1.77,1.77,0,0,0,1.12-.63l.07-.07a.3.3,0,0,1-.11.28l-.25.19a.27.27,0,0,0,.1.49,1.89,1.89,0,0,0,.58,0c.16,0,.31-.1.48-.11a2.2,2.2,0,0,1,1.52.46c.33.25.63.52,1,.79l0,0-.08,0c.23.16.33.45.64.51l0,0,.42.46h-.13l.07.08c.29.34.61.67.88,1a3.44,3.44,0,0,1,.38.71c.11.25.19.51.28.77l.15.49.24.8c0,.13.09.25.12.38s.06.32.09.49c0,0,0,0,0,0s0,.08,0,.12c0,.2.07.4.1.6s0,.18,0,.26l.06.63c0,.39.09.78.13,1.17l.12,1.05c0,.2,0,.4.07.6s.15.56.21.84a4.37,4.37,0,0,1,.15,1.39,11.59,11.59,0,0,1-.4,1.91,5.06,5.06,0,0,0-.17.67c-.07.51-.1,1-.14,1.54,0,.3,0,.61-.07.91,0,.12,0,.24,0,.36s-.05.5-.05.75,0,.81.06,1.22.08.69.12,1a4.37,4.37,0,0,1,.06,1c0,.35-.08.7-.13,1a5.37,5.37,0,0,1-.15.8c-.11.39-.25.79-.4,1.17s-.3.62-.45.93a2.26,2.26,0,0,0-.19.42,2.46,2.46,0,0,1-.38.78,7.17,7.17,0,0,1-1,1.25c-.06.06-.19.13-.09.25s.2,0,.28,0,.35-.28.53-.42a.42.42,0,0,1-.06.32l-.57.71s-.06.12,0,.14a.2.2,0,0,0,.16.07.67.67,0,0,0,.21-.1c.06,0,.11-.08.16-.11l0,0a1,1,0,0,1-.12.25c-.1.14-.22.26-.32.4a.13.13,0,0,0,.14.21c.05,0,.09,0,.17-.07C52.77,44.12,52.7,44.3,52.65,44.47Zm-5.43,24.2a5.07,5.07,0,0,0-.09-.5,19.11,19.11,0,0,0-.88-3.32,36.86,36.86,0,0,0-1.36-3.48c-.11-.24-.2-.49-.3-.74l.39-.12a.92.92,0,0,1,.39.46c.19.4.38.81.58,1.21A18.12,18.12,0,0,1,47.12,65c0,.09.07.16.1.24s0,.13.06.18A25,25,0,0,1,48,69.26c0,.14,0,.28,0,.41l-.67.06c0-.15,0-.31,0-.46A5.78,5.78,0,0,0,47.22,68.67ZM44.46,58a.17.17,0,0,1,.14-.19l.51-.14a.36.36,0,0,1,.14,0,.25.25,0,0,1,.13.09.15.15,0,0,1-.05.14,1.84,1.84,0,0,1-.64.26C44.55,58.1,44.47,58.05,44.46,58Zm-.16-.77c0-.1.05-.16.2-.2l.12,0,.56-.14c.06,0,.11-.06.16,0a.2.2,0,0,1,.16.07.2.2,0,0,1,0,.17.28.28,0,0,1-.14.1l-.78.24C44.4,57.33,44.31,57.28,44.3,57.19Zm0-.81c0-.1.07-.16.22-.19l1.11-.2c.1,0,.23-.06.27.07s-.08.18-.17.22a4,4,0,0,1-1.12.26H44.5C44.33,56.54,44.25,56.49,44.25,56.38Zm-.21-.5s-.1-.05-.13-.11a.14.14,0,0,1,.1-.21,1.7,1.7,0,0,1,.31-.06l.46,0a3,3,0,0,0,.94-.23.9.9,0,0,1,.28-.08.22.22,0,0,1,.13.09s0,.08,0,.12a.24.24,0,0,1-.08.06,2.73,2.73,0,0,1-1,.36Zm2.74-1.39a.88.88,0,0,1-.21.12,6.29,6.29,0,0,1-2,.5h-.05c-.12,0-.21-.06-.21-.15a.16.16,0,0,1,.15-.19l.19,0a6.62,6.62,0,0,0,1.86-.43.8.8,0,0,1,.21,0c.06,0,.14,0,.15.08A.17.17,0,0,1,46.78,54.49Zm-.65-.38a.39.39,0,0,1-.26,0,.22.22,0,0,1-.15-.13c0-.07,0-.13.1-.16a.15.15,0,0,1,.07,0A4.79,4.79,0,0,0,47,53.35l.24-.12a.16.16,0,0,1,.21.11c0,.1,0,.15-.12.2l-.09.06-.21.11C46.72,53.85,46.43,54,46.13,54.11Zm-.76.12-.12.05-1.12.19a.17.17,0,0,1-.21-.15c0-.1,0-.18.18-.21l.37,0,.87-.11s.09,0,.11.1S45.43,54.19,45.37,54.23Zm-1.49.92-.56.15v0a.93.93,0,0,1-.24,0,.28.28,0,0,1-.13-.15.15.15,0,0,1,.12-.18.58.58,0,0,1,.14,0l.55-.08c.14,0,.23,0,.26.11A.19.19,0,0,1,43.88,55.15Zm9-6.9a19,19,0,0,0-2.32,2c-.31.31-.61.63-.92,1l0,0,.35-.67c.12-.21.25-.41.38-.61a19.78,19.78,0,0,1,1.3-2,5.54,5.54,0,0,0,.8-1.45,1.11,1.11,0,0,1,.07-.16,3.73,3.73,0,0,1,1.14,1.1.17.17,0,0,1,0,.27C53.37,47.83,53.14,48.06,52.88,48.25Zm-4.3,19.46c0,.27-.1.53-.15.82-.06-.34-.11-.65-.15-1,0,0,0-.08,0-.09s.16-.2.18-.33c.15-.75.29-1.51.43-2.26s.32-1.57.47-2.35a2,2,0,0,0,0-.42.16.16,0,0,0-.17-.15.34.34,0,0,0-.18.12s0,.1-.06.15c-.28,1.33-.57,2.65-.85,4a1.77,1.77,0,0,0,0,.2c-.09-.26-.15-.52-.21-.77a.27.27,0,0,1,0-.09,3.38,3.38,0,0,0,.08-.34c.1-.8.24-1.59.42-2.38a3.83,3.83,0,0,0,.08-.68.21.21,0,0,0-.19-.21.27.27,0,0,0-.22.18l-.39,1.68c0,.2-.07.41-.11.61a2.39,2.39,0,0,1-.18-.44.17.17,0,0,1,0-.1l.48-2.28c0-.24.11-.47.16-.71a4.45,4.45,0,0,0,.73,0A3.77,3.77,0,0,0,50.58,60a4.79,4.79,0,0,0,.49-.52.46.46,0,0,0,.13-.4.25.25,0,0,0-.13-.18.26.26,0,0,0-.18.09c-.1.1-.17.22-.27.32a3.94,3.94,0,0,1-1.13.76,2.74,2.74,0,0,1-1.32.29c-.08,0-.16,0-.24.08l-.07,0c-.13,0-.18.09-.21.19s-.09.3-.13.45l-.3,1.07a5.11,5.11,0,0,1-.14.54,1.41,1.41,0,0,1-.09.32.51.51,0,0,1-.12-.38c0-.27,0-.54.07-.8.06-.5.12-1,.19-1.49a1.17,1.17,0,0,1,.09-.24l.13-.19a.28.28,0,0,1,.34-.15,2.3,2.3,0,0,0,.69,0,10.06,10.06,0,0,0,1.19-.34,1.82,1.82,0,0,0,.44-.26.18.18,0,0,0,.09-.1.34.34,0,0,0,0-.22c0-.09-.13-.08-.21,0l-.34.14a4,4,0,0,1-1.56.32h-.56c0-.05,0-.11.07-.17s.08-.2,0-.29a.19.19,0,0,0-.28,0,1,1,0,0,0-.14.15,2.35,2.35,0,0,0-.19.39,7.44,7.44,0,0,0-.44,2c0,.13,0,.26-.05.39a2.17,2.17,0,0,1-.2-.29.65.65,0,0,1-.08-.47c.06-.27.09-.54.13-.81a7.05,7.05,0,0,1,.86-2.56.83.83,0,0,1,.11-.15.7.7,0,0,0,.09-.35.25.25,0,0,0-.09-.19.27.27,0,0,0-.3.18c-.08.15-.19.3-.28.45A5.23,5.23,0,0,0,46,59.23c-.09.34-.15.68-.23,1,0,0,0,.08,0,.14l-.31-.56c0-.11.06-.24.1-.36a5.39,5.39,0,0,1,.23-.81c.45-1,.92-2,1.39-3l.13-.25.1-.15c.19-.35.37-.71.59-1s.48-.63.73-1a24.76,24.76,0,0,1,3.42-3.67c.27-.23.55-.44.85-.67a1.53,1.53,0,0,1,.06.76,1.14,1.14,0,0,1-.49.7c-.36.27-.73.51-1.11.75a6.94,6.94,0,0,0-1.59,1.32,1.78,1.78,0,0,0-.5.92c0,.15,0,.29,0,.44h0a10.56,10.56,0,0,1,1.85-1.87s0,.09,0,.12c-.1.34-.2.68-.28,1a.36.36,0,0,1-.23.3,5.36,5.36,0,0,0-2.48,2.18,4,4,0,0,0-.54,2.37c0,.1,0,.2.16.2s.17-.09.18-.18a4.23,4.23,0,0,0,.05-.5A3.94,3.94,0,0,1,48.32,56a5.48,5.48,0,0,1,1.43-1.67l0,0a6,6,0,0,1-.06,1.8,2.19,2.19,0,0,1-.63,1.21.58.58,0,0,0-.1.12c-.11.17,0,.27.15.29a.57.57,0,0,0,.41-.16,1.7,1.7,0,0,0,.47-.69,4.53,4.53,0,0,0,.25-2.33,3.72,3.72,0,0,0-.12-.51l.55-.33a.74.74,0,0,1,0,.15c0,.27,0,.53,0,.79,0,.51-.05,1-.1,1.52a2.37,2.37,0,0,1-.54,1.33,3.94,3.94,0,0,1-1.25,1,.57.57,0,0,0-.19.1.35.35,0,0,0-.13.19.29.29,0,0,0,.08.21.27.27,0,0,0,.31,0,5.25,5.25,0,0,0,1-.57A2.81,2.81,0,0,0,51,56.91s0,0,0-.07a4.11,4.11,0,0,1,.56,2,2,2,0,0,1-.46,1.32,2.87,2.87,0,0,1-.54.45,3.56,3.56,0,0,0-.54.48.83.83,0,0,0-.15.36c-.08.39-.15.79-.23,1.18-.15.74-.31,1.47-.46,2.21C49,65.8,48.77,66.76,48.58,67.71ZM45.86,71a2.25,2.25,0,0,1,1.36-.68c.51,0,1,0,1.52,0a.94.94,0,0,1,.37,0,2.93,2.93,0,0,1,1.34.9,4,4,0,0,1,.86,2.37,4.18,4.18,0,0,1-.26,1.4,2.7,2.7,0,0,1-.12.43,1.78,1.78,0,0,1-.52.72,3.31,3.31,0,0,1-1.92.71,2.64,2.64,0,0,1-1.27-.24,3.47,3.47,0,0,1-1.29-.92,3.6,3.6,0,0,1-1-2.42A3.2,3.2,0,0,1,45.86,71Zm-3.33-6.61,0,0,.49.12a1.83,1.83,0,0,1,.65.37,3.52,3.52,0,0,1,1,1.44c.06.17.14.33.2.49s0,.19.08.28l0,0C44.1,66.22,43.32,65.32,42.53,64.42ZM20.26,66.55a5.19,5.19,0,0,0,.36-1.28c0-.08,0-.15,0-.28.21.16.4.29.56.44a3.1,3.1,0,0,1,1,1.76A5.23,5.23,0,0,1,22.29,69s0,.08,0,.11a2.15,2.15,0,0,1-.11-.55,1.65,1.65,0,0,0,0-.31c0-.06-.07-.14-.13-.15s-.12.06-.13.14a2.85,2.85,0,0,0,0,.29,4.18,4.18,0,0,0,1,2.82l.06,0c.15,0,.19-.15.23-.28s.15-.46.22-.69l.24-.77a1.21,1.21,0,0,1,.05-.18,3.09,3.09,0,0,0,.19-1.17c0-.31,0-.63,0-.94a.79.79,0,0,0,0-.22s-.06-.09-.09-.09a.17.17,0,0,0-.12.06.62.62,0,0,0-.07.23c0,.24-.06.48-.08.73,0,0,0,.09,0,.16l-.05-.07c0-.08,0-.16,0-.24a2.27,2.27,0,0,1,.39-1.75,3.77,3.77,0,0,1,1-1,3.59,3.59,0,0,0,.76-.64c.12-.13.23-.26.36-.39l0,.06a1.24,1.24,0,0,1-.07.76c-.12.23-.22.47-.34.7a2.6,2.6,0,0,0-.31,1.06c0,.27,0,.53-.06.8a2,2,0,0,1-.25,1,2.7,2.7,0,0,0-.31.64c-.07.27-.15.53-.2.8a.38.38,0,0,1-.16.25,1.93,1.93,0,0,0-.65.94.19.19,0,0,0,.09.26c.1,0,.18,0,.24-.1a1.74,1.74,0,0,0,.1-.19c.08-.14.16-.29.24-.42a.46.46,0,0,1,.12-.12l.13.52a1.28,1.28,0,0,0-.32.92.54.54,0,0,0,.06.25.2.2,0,0,0,.15.09.21.21,0,0,0,.13-.13,1.79,1.79,0,0,0,0-.24,1,1,0,0,1,.16-.54l.37.44a1.22,1.22,0,0,0-.22.67.92.92,0,0,0,0,.29A.16.16,0,0,0,25,73c.1,0,.14-.08.15-.17a1.48,1.48,0,0,0,0-.21l.09-.46a5.16,5.16,0,0,0,.53.26.44.44,0,0,0,.28,0c.13,0,.16-.14.06-.23a.91.91,0,0,0-.24-.16,1.39,1.39,0,0,1-.58-.47.84.84,0,0,0,.29-.75,4.31,4.31,0,0,0-.12-.79c-.1-.34-.24-.66-.37-1a3.64,3.64,0,0,0,.42-1.71A1.8,1.8,0,0,1,26,66.08a1.54,1.54,0,0,1,1.05-.4,1.66,1.66,0,0,1-.8,1.27,1.25,1.25,0,0,0-.24.16.27.27,0,0,0,0,.2.21.21,0,0,0,.15.09.42.42,0,0,0,.19,0,1.54,1.54,0,0,0,.57-.41,1.88,1.88,0,0,0,.52-1.25c0-.13.05-.19.2-.18a2.59,2.59,0,0,1-.08,1,2,2,0,0,1-.77,1.06c-.22.18-.45.34-.68.51a.87.87,0,0,0-.17.16c-.1.14,0,.28.14.26a.65.65,0,0,0,.29-.11q.36-.25.72-.54a2.47,2.47,0,0,0,.75-.91.51.51,0,0,1,.13-.16,4.15,4.15,0,0,1,.34-.24,3.35,3.35,0,0,1,1.91-.62,6.21,6.21,0,0,1,1.42.18,5.36,5.36,0,0,0,2.07.16,17,17,0,0,1,2.57-.12,6.73,6.73,0,0,1,2.26.4c.41.15.81.33,1.21.5a1.11,1.11,0,0,0,.26.07.12.12,0,0,0,.1-.2.63.63,0,0,0-.24-.19c-.28-.15-.57-.29-.85-.42a5.83,5.83,0,0,0-1.87-.5,15.39,15.39,0,0,0-3.11,0c-.42,0-.85.06-1.28.07a3.8,3.8,0,0,1-.43,0l.13-.28,1.34-.16a7.37,7.37,0,0,1,2-.09c.2,0,.28,0,.31-.11s-.05-.18-.26-.23a2.8,2.8,0,0,0-1.08-.08l-1.61.2a1,1,0,0,1-.42,0l.25-.19a4.85,4.85,0,0,1,1.39-.57A8.78,8.78,0,0,1,37,64.24c.52,0,1,.13,1.54.19l.64.08-.07.07a3.55,3.55,0,0,1-1.17.45c-.16,0-.24.12-.22.24s.08.15.26.15a3.53,3.53,0,0,1,.46,0,6.2,6.2,0,0,1,3,1.39c.48.43,1,.86,1.47,1.27.21.18.45.34.68.51a.84.84,0,0,1-1.06,0l-.55-.4a.6.6,0,0,0-.4-.16.44.44,0,0,0,.14.42c.12.12.27.23.4.34l.14.11a.69.69,0,0,1-.79-.18c-.13-.13-.27-.25-.41-.37a2.34,2.34,0,0,0-.31-.24s-.11,0-.17,0,0,.12,0,.16.22.32.33.47.12.12.17.18a1.58,1.58,0,0,1-.38,0,.71.71,0,0,1-.47-.23c-.22-.24-.45-.46-.68-.69-.08-.07-.15-.18-.32-.14a1,1,0,0,0,0,.3,1,1,0,0,0,.16.26l.18.22a1.32,1.32,0,0,1-.58-.17,1.63,1.63,0,0,1-.54-.65s0-.09,0-.11-.12-.1-.15-.08a.2.2,0,0,0-.12.15.67.67,0,0,0,0,.24,1,1,0,0,0,.07.21l-.28-.13a1.11,1.11,0,0,0-.3-.08.17.17,0,0,0-.16.06.2.2,0,0,0,0,.17.47.47,0,0,0,.14.14,9.81,9.81,0,0,1,1.47,1.41s0,.09.09.16H39l-1,0a6.91,6.91,0,0,1-3-.79.28.28,0,0,0-.12,0c-.08,0-.17,0-.2.08a.27.27,0,0,0,0,.2.36.36,0,0,0,.16.14,2.49,2.49,0,0,0,.33.16,8.17,8.17,0,0,0,3.72.66c.19,0,.38,0,.6,0l.19.27a5.6,5.6,0,0,1-1.88.07,10.74,10.74,0,0,1-3-.85A12.62,12.62,0,0,1,32,67.87v-.05l.27.07,1.79.46a.3.3,0,0,0,.16,0c.06,0,.14,0,.15-.09a.17.17,0,0,0-.06-.16A1.08,1.08,0,0,0,34,68l-1.58-.48-.16-.07a2,2,0,0,0,.15-.18,1.92,1.92,0,0,0,.18-.31c0-.07,0-.18-.06-.2a.21.21,0,0,0-.18.06c-.09.09-.16.21-.26.3a.75.75,0,0,1-.87.14,1.9,1.9,0,0,0,.2-.18,2.21,2.21,0,0,0,.22-.29c0-.08.06-.17,0-.23s-.15,0-.21.06a3.57,3.57,0,0,1-.28.27,1.52,1.52,0,0,1-1,.33l.13-.18a2,2,0,0,0,.17-.4s0-.14-.08-.18-.14,0-.18.08a.21.21,0,0,0,0,.06,1.77,1.77,0,0,1-.9.74h0c0-.2,0-.38,0-.56a.17.17,0,0,0-.14-.18c-.1,0-.14.07-.16.16a.29.29,0,0,1,0,.09,1.61,1.61,0,0,1-.35.76.58.58,0,0,1-.31.22,3.73,3.73,0,0,0-.08-.41.16.16,0,0,0-.22-.11c-.09,0-.09.1-.08.18a1.78,1.78,0,0,1-.3,1.15,2.66,2.66,0,0,0-.27,2.13,2.77,2.77,0,0,0,.89,1.42c.44.38.9.74,1.35,1.1a1,1,0,0,1,.39.6c0,.14.1.28.14.41a.71.71,0,0,1,0,.17,9.91,9.91,0,0,1-1.74-1.24c-.16-.13-.31-.27-.47-.39s-.2-.08-.3,0a1,1,0,0,0-.2.76c.05.46.11.92.17,1.37a1.32,1.32,0,0,1,0,.2c-.11-.17-.19-.31-.28-.44l-1.07-1.41a.73.73,0,0,0-.17-.18.43.43,0,0,0-.17,0s0,.12,0,.17a3.45,3.45,0,0,0,.24.47c.25.38.51.75.78,1.12a3,3,0,0,1,.41.77l-.11-.06a13.34,13.34,0,0,0-2.88-1.55.37.37,0,0,1-.17-.16,3.07,3.07,0,0,0-.26-.43,5.09,5.09,0,0,0-1.62-1.37,4.54,4.54,0,0,1-1.82-1.6,2,2,0,0,1-.33-.7,10.09,10.09,0,0,1-.18-1.1A4.59,4.59,0,0,1,20.26,66.55Zm-.55-4.31.34-.24,3.28,4-.28.52C21.87,65.15,20.75,63.73,19.71,62.24Zm1.19,2.47,0,.05a.6.6,0,0,0-.61.06A18.63,18.63,0,0,1,19,62.71l.18-.11Zm2.23,4.22a2.47,2.47,0,0,1-.35,1.75l-.35-.7a.87.87,0,0,0,.14-.27,8.6,8.6,0,0,0,.15-.86A5.63,5.63,0,0,0,22.56,67a1.52,1.52,0,0,1,0-.21,1.33,1.33,0,0,1,.33.34.37.37,0,0,1,.05.18A5.11,5.11,0,0,0,23.13,68.93Zm-2.55-7.3.27-.2L24,65.3l-.32.32A41.9,41.9,0,0,1,20.58,61.63Zm.78-.54.21-.15,3.23,3.74a1.33,1.33,0,0,1-.19.14l-.22.13C23.37,63.67,22.3,62.44,21.36,61.09Zm.81-.53.49-.25.29.35c.42.53.86,1.05,1.26,1.6a6.92,6.92,0,0,0,.91,1,4.4,4.4,0,0,1,.46.52.82.82,0,0,1-.37.47C25,64.08,22.25,60.73,22.17,60.56Zm1-.59.45-.26c1.69,2,3.4,4,5.08,6.08l-.57.31C28,66,28,65.93,28,65.81a5.57,5.57,0,0,0-.14-.71c-.05-.2-.18-.22-.34-.09l-.16.14C27,64.82,23.54,60.5,23.21,60Zm3.12,4.77.46.55-.72.17Zm-2.07-5.29.6-.19A77.92,77.92,0,0,1,30,65.49l-.69.12-1.05-1.27c-.72-.87-1.47-1.73-2.16-2.63-.51-.67-1.06-1.3-1.59-2A2.77,2.77,0,0,1,24.26,59.45Zm1.36-.34.56,0a.48.48,0,0,1,.45.24c.25.33.49.68.76,1l4.35,5.2a2.3,2.3,0,0,1,.16.2c-.34-.06-.63-.1-.91-.17a.57.57,0,0,1-.23-.15L29.61,64c-.23-.29-.46-.59-.68-.89-.38-.52-.75-1-1.13-1.55-.07-.09-.15-.17-.23-.26L26,59.59C25.88,59.45,25.77,59.29,25.62,59.11Zm2,.31a3.87,3.87,0,0,1,.63.15c.13,0,.23.08.25.25a.37.37,0,0,0,.14.19c.62.58,1.14,1.26,1.7,1.89.74.83,1.44,1.69,2.15,2.54a1.83,1.83,0,0,1,.13.16l-.45.54L32,65l-1.9-2.25a26,26,0,0,1-2.06-2.61Zm1.95.71,0,0c.15,0,.3.12.45.16a1,1,0,0,1,.47.37c.11.16.23.31.35.46l2.35,2.79c.08.09.15.19.25.3l-.35.16Zm1.63.55,0,0,.36.12c.35.14.72.25.9.63a.46.46,0,0,0,.07.07l1.81,2.15.19.24L34,64Zm1.92.77h.08l1.48.69a.42.42,0,0,1,.14.09l1.27,1.46s0,0,0,.08h-.69a.34.34,0,0,1-.27-.12A24.59,24.59,0,0,0,33.1,61.45ZM36,62.76l0,0a2.47,2.47,0,0,0,.36.11,1.13,1.13,0,0,1,.78.46c.15.2.31.38.5.61l-.46,0a.44.44,0,0,1-.46-.27c0-.07-.11-.12-.16-.18ZM25.17,71c0,.11,0,.21-.14.26-.36-.22-.42-1.31-.18-1.65A3,3,0,0,1,25.17,71ZM18,63.37l.28-.18.46.58L20,65.36c.06.08.14.15.11.26l-.16.46h-.06Zm1.57,3.89L17.05,64l.42-.28.12.14c.21.26.41.52.61.79s.35.48.53.71c.32.4.65.78,1,1.18a.18.18,0,0,1,.06.15C19.72,66.89,19.67,67.05,19.6,67.26Zm-3.47-2.57.51-.36.18.2c.84,1.06,1.67,2.12,2.52,3.18a.69.69,0,0,1,.17.55,4,4,0,0,0,0,.49s0,.11,0,.22Zm-3.55,2.69L15.36,71a5.26,5.26,0,0,0-.6.18,5.56,5.56,0,0,0-.55.27l-.34-.5.52-.21a2,2,0,0,0,.25-.14.22.22,0,0,0-.14-.39.78.78,0,0,0-.21,0l-.75.25-.33-.46.13-.08.43-.22a.24.24,0,0,0,.11-.29.25.25,0,0,0-.28-.14.88.88,0,0,0-.23.07l-.5.21-.25-.33c.16-.1.31-.17.44-.26a.25.25,0,0,0,.1-.34.26.26,0,0,0-.34-.11c-.1,0-.19.08-.31.13,0-.11,0-.21,0-.3,0-.24-.05-.47-.07-.7S12.37,67.49,12.58,67.38Zm-.42-1.21a.27.27,0,0,1,.08-.16,3.08,3.08,0,0,1,.43-.38c.33-.23.66-.44,1-.65,2-1.24,4-2.55,6-4a18.52,18.52,0,0,1,2.18-1.42c.75-.41,1.5-.82,2.26-1.22.22-.12.45-.23.68-.33a1.4,1.4,0,0,1,.49-.11,9.1,9.1,0,0,1,1.88.13,12.06,12.06,0,0,1,2.45.7l4.32,2a8.12,8.12,0,0,0,.95.43,22.59,22.59,0,0,0,4,1.11,9.43,9.43,0,0,1,1.66.35,8.29,8.29,0,0,0,.86.21s.13-.05.18-.1a.32.32,0,0,0,.06-.18c.15-1.18.29-2.36.44-3.54a3.56,3.56,0,0,1,.23-1,4.51,4.51,0,0,1,.13,1v0c-.13,1-.27,2-.4,2.94,0,.2,0,.4-.05.6a.17.17,0,0,0,.15.19.19.19,0,0,0,.23-.14.77.77,0,0,0,0-.15c0-.13,0-.27.06-.4L42.68,61c0-.16.06-.32.08-.48a.19.19,0,0,1,.08.11,5,5,0,0,0,.37,1,2.47,2.47,0,0,1,.27,1,.2.2,0,0,0,.2.21.22.22,0,0,0,.19-.22,1.3,1.3,0,0,0,0-.34c-.1-.37-.2-.75-.32-1.11a9.27,9.27,0,0,1-.43-1.54,10.87,10.87,0,0,0-.61-2.5c-.05-.12-.08-.24-.13-.36a15.61,15.61,0,0,0-1.14-2.7,17.88,17.88,0,0,1-.86-1.69,6.18,6.18,0,0,0-1.45-2c-.65-.6-1.3-1.21-1.93-1.82a7,7,0,0,0-1.71-1.19c-.78-.4-1.58-.79-2.34-1.23s-1.63-.93-2.48-1.34a22.13,22.13,0,0,1-2.84-1.62,6.49,6.49,0,0,1-1.11-1,3.2,3.2,0,0,1-.36-.52.22.22,0,0,1,0-.16c.08-.2.17-.39.28-.64,0,.12.05.19.08.26a1,1,0,0,0,.29.47l.37.34a4.69,4.69,0,0,0,1,.82c.94.59,1.89,1.16,2.84,1.73a5,5,0,0,0,.69.35c1.8.81,3.56,1.67,5.28,2.63a.83.83,0,0,1,.23.15c.32.31.62.65,1,1a10.58,10.58,0,0,1,1.8,2.09,5.2,5.2,0,0,1,.25.46l.27.43a3.93,3.93,0,0,1,.29.42c.46.84.91,1.68,1.36,2.52.11.19.2.39.3.59a13.62,13.62,0,0,1,.76,2,15.92,15.92,0,0,1,.52,2.06,8.18,8.18,0,0,0,.73,2.36c.32.73.6,1.47.89,2.2a21.48,21.48,0,0,1,1.45,5.33,3.81,3.81,0,0,1,.06.89l-.66.23-.06-.23c-.14-.75-.26-1.5-.43-2.25s-.35-1.44-.54-2.16a12.59,12.59,0,0,0-.82-2,.26.26,0,0,0-.07-.1c-.05,0-.11-.05-.15,0a.21.21,0,0,0-.09.13.54.54,0,0,0,0,.21c.11.3.23.59.34.88a.74.74,0,0,1,0,.14,3,3,0,0,1-.32-.28,1.5,1.5,0,0,0-.62-.41c-.51-.15-1-.3-1.55-.41s-.88-.13-1.31-.23a36,36,0,0,1-7.87-2.74l-.63-.3a32.23,32.23,0,0,0-5.31-1.8,3.29,3.29,0,0,0-1.56,0,10.41,10.41,0,0,0-1.34.42,11.5,11.5,0,0,0-2.15,1.18c-1.09.73-2.18,1.48-3.27,2.22L16.2,64c-.51.35-1,.7-1.52,1.06-.8.56-1.59,1.14-2.41,1.72C12.23,66.57,12.19,66.37,12.16,66.17Z"/><path d="M3,60.41c.22,0,.44,0,.62,0,.14-.18.26-.34.4-.49a.48.48,0,0,1,.25-.14.21.21,0,0,1,.18.07.28.28,0,0,1,0,.2s-.1.08-.14.13-.12.16-.21.26l1,.06c.13-.17.24-.34.37-.5a1.12,1.12,0,0,1,.2-.17.16.16,0,0,1,.22,0,.28.28,0,0,1,0,.2c0,.08-.1.13-.14.2s-.1.15-.18.26l1,.07c.2-.19.37-.37.57-.53s.24-.12.32,0,0,.17-.09.31-.19.15-.22.29h.26a2.25,2.25,0,0,0,.26,0,2.49,2.49,0,0,1,.17-.24,1.27,1.27,0,0,1,.5-.42c.14-.06.26,0,.31,0s0,.16-.13.27a1.15,1.15,0,0,0-.39.4l.6,0a.34.34,0,0,0,.3-.14,6.53,6.53,0,0,1,.63-.53.16.16,0,0,1,.24,0c.06.06,0,.16-.05.25s-.14.12-.2.18l-.26.26.7.06c.14-.34.44-.49.71-.68a.16.16,0,0,1,.22,0,.17.17,0,0,1,0,.24l-.35.3c-.05,0-.08.09-.14.15l1.14.22.13-.25a1,1,0,0,1,.94-.49.44.44,0,0,1,.24.09.24.24,0,0,1,0,.19s-.09.07-.15.1-.06,0-.09,0a.67.67,0,0,0-.69.44c0,.08,0,.18,0,.27,0,.28,0,.41.3.49.11,0,.22,0,.33,0s.21.1.21.2-.08.18-.23.2a1,1,0,0,1-1-.72.22.22,0,0,0-.2-.18c-.34-.06-.68-.15-1-.18-.69-.07-1.39-.11-2.08-.16L5.1,60.92l-2-.1c-.15,0-.3,0-.38-.16v-.15A.4.4,0,0,1,3,60.41Z"/><path d="M40,44.37a2.46,2.46,0,0,1,1-.89.2.2,0,0,1,.11,0,.23.23,0,0,1,.24.34,1.8,1.8,0,0,1-.1.18c.52-.06,1-.09,1.49-.19a7.15,7.15,0,0,1,2,0,2.07,2.07,0,0,1,.49.12c.33.14.65.29,1,.45a.54.54,0,0,0,.33,0,3.64,3.64,0,0,0,.72-.19l.22-.08c.16-.08.32-.18.5-.25a1,1,0,0,1,.35-.07l1.19.11L50,44l-.17-.22a.21.21,0,0,1,0-.27.2.2,0,0,1,.27-.06.4.4,0,0,1,.15.1,2.51,2.51,0,0,1,.59.75,1.88,1.88,0,0,1,.14.46.25.25,0,0,1-.19.29.25.25,0,0,1-.29-.18c0-.2-.17-.24-.33-.27l-.14,0a3.21,3.21,0,0,0-1.31-.1,4.12,4.12,0,0,0-1.07.37l-.47.16a3,3,0,0,1-1.95-.09,2.24,2.24,0,0,0-.55-.19c-.57-.08-1.14-.17-1.71-.2a8.61,8.61,0,0,0-2.32.1.44.44,0,0,0-.32.17.22.22,0,0,1-.31.06.23.23,0,0,1-.12-.26A.86.86,0,0,1,40,44.37Z"/><path d="M47.19,41.12a1,1,0,0,0-.18.06,1.07,1.07,0,0,1-.85.15l-.51-.14,0,.28c0,.37,0,.74.06,1.11s.21.61.65.68c.12,0,.24.06.39.1a.61.61,0,0,1-.62.27.89.89,0,0,1-.76-.72,4.15,4.15,0,0,1-.07-.7c0-.39,0-.78-.1-1.16s-.31-.51-.51-.74c0,0-.07,0-.11-.05a2,2,0,0,0-1.12-.1.93.93,0,0,1-.33,0,.25.25,0,0,1-.18-.1.29.29,0,0,1,0-.22,1.68,1.68,0,0,1,2.21-.31l.33.26a2.73,2.73,0,0,0,1.63.67Z"/><path d="M43.53,45.46l.27.12,1,.46a3.68,3.68,0,0,0,2,.24,1.65,1.65,0,0,0,.46-.12l.85-.42.59-.28a.65.65,0,0,1,.2-.05.2.2,0,0,1,.21.12.19.19,0,0,1-.06.23l-.08.06c-.44.25-.87.5-1.32.74a1.71,1.71,0,0,1-.39.17l-.22.06a4.91,4.91,0,0,1-1.21.05A6.18,6.18,0,0,1,43.48,46a.82.82,0,0,1-.2-.17.23.23,0,0,1,0-.28A.22.22,0,0,1,43.53,45.46Z"/><path d="M46.21,71.75a.18.18,0,0,1,.28,0c.07.1,0,.18-.05.26a2,2,0,0,0-.55,1.58,3.16,3.16,0,0,0,.8,1.86.79.79,0,0,0,.5.28,1.88,1.88,0,0,1,.61.08.16.16,0,0,1,.06.22c0,.07-.07.09-.13.11a.6.6,0,0,1-.21,0h-.33a1.49,1.49,0,0,1-.89-.55,3.76,3.76,0,0,1-.75-1.51,2.53,2.53,0,0,1,.28-1.92A2.27,2.27,0,0,1,46.21,71.75Z"/><path d="M44.75,47.44a1.42,1.42,0,0,1,.29,0,5.1,5.1,0,0,0,.67.08c.49,0,1,0,1.48,0,.15,0,.28,0,.43,0a.19.19,0,0,1,.19.18.19.19,0,0,1-.16.21l-.46.1L47,48a6.8,6.8,0,0,1-2.16-.06.6.6,0,0,1-.19-.06.21.21,0,0,1-.11-.24A.2.2,0,0,1,44.75,47.44Z"/><path d="M3.23,62.23h.19l1.75.05c.26,0,.35-.05.41-.3s0-.21.06-.31.08-.12.13-.12a.21.21,0,0,1,.16.1A.78.78,0,0,1,6,62a2.83,2.83,0,0,1-.07.36l.34,0a.21.21,0,0,0,.26-.13,1.49,1.49,0,0,0,.09-.3c0-.06,0-.13,0-.19s.05-.14.09-.15.16,0,.18.06A.61.61,0,0,1,7,62a2.6,2.6,0,0,1-.07.45c.36.15.47,0,.59-.24a.37.37,0,0,0,0-.21.17.17,0,0,1,.13-.2.17.17,0,0,1,.21.12.47.47,0,0,1,0,.23,3.14,3.14,0,0,1-.12.46l.27.06a.42.42,0,0,0,.51-.32,2.48,2.48,0,0,1,0-.27.23.23,0,0,1,.13-.14A.21.21,0,0,1,8.9,62a.36.36,0,0,1,0,.23c0,.18-.08.37-.13.58.09,0,.21.05.29,0a.73.73,0,0,0,.5-.58.42.42,0,0,1,0-.16.37.37,0,0,1,.15-.13c.1,0,.15.06.17.14a.81.81,0,0,1,0,.22,1.12,1.12,0,0,1-.33.68c.19.06.36.1.52.16a.2.2,0,0,0,.25-.09,1.59,1.59,0,0,0,.12-.27c0-.13.05-.27.08-.4s.11-.26.21-.26.15.09.15.29a2,2,0,0,1-.2.86c.43.14.66,0,.72-.42,0-.08,0-.16,0-.24s0-.18.15-.19.16.08.18.18,0,.07,0,.1a1.81,1.81,0,0,1-.19.86.23.23,0,0,1-.15.12,1.37,1.37,0,0,1-.28,0,3,3,0,0,1-1-.17,22,22,0,0,0-5.34-.88l-1.43-.05H3.23a.18.18,0,0,1-.16-.19A.19.19,0,0,1,3.23,62.23Z"/><path d="M43,25.38a.24.24,0,0,1,.24.14.23.23,0,0,1,0,.27,1.65,1.65,0,0,1-.15.17,2.37,2.37,0,0,1,.32-.09,1.25,1.25,0,0,1,.43,0c.17.05.19.16.08.29l-.18.19a2.22,2.22,0,0,0,.45,0,1.09,1.09,0,0,1,.26,0c.18,0,.23.09.16.25s0,.11-.09.2a1,1,0,0,0,.79-.32l.24-.27c.05-.06.1-.12.18-.09s.1.13.08.21a4.2,4.2,0,0,1-.17.5,1.29,1.29,0,0,1-.64.64,1.84,1.84,0,0,1-1.11.17.68.68,0,0,1-.49.18h-.58l-.45,0v.06a1.2,1.2,0,0,0,.24.06,6.26,6.26,0,0,0,1.14-.09.18.18,0,0,1,.23.08.2.2,0,0,1,0,.24.52.52,0,0,1-.39.17l-1.05.1.08.23.85-.05.65-.07a.19.19,0,0,1,.23.1c0,.1,0,.17-.09.23a.89.89,0,0,1-.29.15c-.35.06-.71.1-1.06.15l-.2,0c.06.07.09.14.12.14a1.31,1.31,0,0,0,.48,0c.39,0,.78-.14,1.17-.21a.22.22,0,0,1,.26.08.21.21,0,0,1,0,.28,1,1,0,0,1-.33.16,4.15,4.15,0,0,1-.61.14,3.51,3.51,0,0,1-.72.07.6.6,0,0,1-.6-.34c-.13-.3-.3-.58-.45-.86a1.38,1.38,0,0,0-.53-.59,2.3,2.3,0,0,0-.94-.36l-.53-.05a.21.21,0,0,1-.13-.09.18.18,0,0,1,0-.15.6.6,0,0,1,.25-.1,3,3,0,0,1,.6,0,2.84,2.84,0,0,0,1.39,0,1.67,1.67,0,0,1,.41,0l-.8-.35a.23.23,0,0,0-.14,0c-.31,0-.62,0-.92,0a18.9,18.9,0,0,0-2.26.09,3.42,3.42,0,0,0-1.66.61,4.42,4.42,0,0,1-.61.32s-.11,0-.17,0,0-.13,0-.17a.69.69,0,0,1,.17-.17l.69-.49a2.1,2.1,0,0,1,.83-.35,9.48,9.48,0,0,1,1-.15c.65,0,1.3,0,1.94-.05h.25a.89.89,0,0,0-.59-.22c-.41,0-.83,0-1.24,0a3.33,3.33,0,0,0-1.13.13l-.91.32c-.14,0-.27.11-.41.15s-.13,0-.2,0a.62.62,0,0,1,.07-.19,1.24,1.24,0,0,1,.23-.17,5.42,5.42,0,0,1,.95-.43,2.61,2.61,0,0,1,1.14-.16h.6v-.05l-1.2,0a3.94,3.94,0,0,0-1.59.29c-.4.15-.79.34-1.18.52a1.66,1.66,0,0,1-.29.1c-.24,0-.39-.1-.33-.33A1.22,1.22,0,0,1,35,26a2.78,2.78,0,0,1,.89-.85,4.54,4.54,0,0,1,2-.62,7,7,0,0,1,2.09.28,5.55,5.55,0,0,0,1.94.26.6.6,0,0,1,.36.1c.08.06.11.2.18.32l.26-.06Z"/><path d="M43,30.79a.33.33,0,0,0-.09-.35c-.22-.24-.43-.49-.64-.73a1.34,1.34,0,0,0-.51-.37,4.93,4.93,0,0,0-1.54-.48l-.17,0L38.56,29a1.87,1.87,0,0,0-.68.22,6,6,0,0,1-.58.25c-.16,0-.32.07-.53.12a.78.78,0,0,0,.1.68,3.2,3.2,0,0,0,.79.81.5.5,0,0,0,.39.11c.14,0,.18-.1.1-.22a.92.92,0,0,0-.23-.25c-.16-.15-.32-.29-.52-.45l.77-.5c0,.1,0,.15,0,.22a1.33,1.33,0,0,0,1.16,1.11,1.55,1.55,0,0,0,.74,0,.86.86,0,0,0,.55-.45,1.47,1.47,0,0,0,.14-.72c0-.05,0-.11,0-.18a2.93,2.93,0,0,1,1,.55c-.08.14-.17.27-.24.41a.31.31,0,0,0,0,.22.2.2,0,0,0,.26.07.85.85,0,0,0,.22-.09l.34-.19A.54.54,0,0,0,43,30.79Zm-2.53-1a2.17,2.17,0,0,1-.1.33.16.16,0,0,1-.29,0,.78.78,0,0,1,0-.44Z"/><path d="M43.8,31c.3-.12.61-.24.93-.34a.24.24,0,0,1,.19.06.14.14,0,0,1,0,.2,1.83,1.83,0,0,1-.42.31,4.12,4.12,0,0,1-1.3.31l-.17.41a1,1,0,0,0,.53-.09l.7-.19a.26.26,0,0,1,.19.07c0,.08,0,.16-.07.21l-.13.07a2.33,2.33,0,0,1-1.2.35c-.26,0-.37.15-.45.38a2.52,2.52,0,0,0,.84-.2l.22-.1a.22.22,0,0,1,.28.09.2.2,0,0,1-.1.25,1.51,1.51,0,0,1-.28.15,3.07,3.07,0,0,1-1.08.23.5.5,0,0,0-.37.19c-.32.34-.64.68-1,1a3.86,3.86,0,0,1-.38.3.69.69,0,0,1-.19.1c-.15.07-.28,0-.34-.07s0-.23.14-.32.36-.25.53-.39a7.15,7.15,0,0,0,2-2.69c.06-.16.12-.32.19-.49h0a1.31,1.31,0,0,0,.12-.27c0-.23.16-.37.39-.37a3.75,3.75,0,0,0,1-.15.15.15,0,0,1,.18.21.6.6,0,0,1-.17.22.91.91,0,0,1-.52.2l-.58.08-.1.35A.91.91,0,0,0,43.8,31Z"/><path d="M40.77,40.62c.33-.34.68-.65,1-1,.08-.07.14-.14.07-.27a3.31,3.31,0,0,0-.58.47l-.15.15a.18.18,0,0,1-.25,0,.18.18,0,0,1,0-.24.7.7,0,0,1,.15-.19c.24-.2.49-.39.75-.58a.27.27,0,0,0,.14-.2A2.53,2.53,0,0,1,43,37.11a1,1,0,0,1,.35-.16.18.18,0,0,1,.22.11.2.2,0,0,1-.05.24.16.16,0,0,1-.08.06,2.76,2.76,0,0,0-.8.93,1.39,1.39,0,0,0-.19.93c0,.21.08.41.13.62a1.55,1.55,0,0,1,.07.23c0,.18,0,.31-.12.35s-.24,0-.34-.16a1,1,0,0,1-.1-.18s-.07,0-.08.05c-.5.51-1,1-1.49,1.53a4.72,4.72,0,0,0-.35.52,1.48,1.48,0,0,1-.24.26c-.06.06-.16.05-.17,0,0-.26-.09-.52.11-.74S40.44,41,40.77,40.62Z"/><path d="M44.58,23.69a3.08,3.08,0,0,0,.53.08c.14,0,.22.08.22.18s-.08.19-.23.2h-.29a4.18,4.18,0,0,1-1.21-.33,1.94,1.94,0,0,0-.71-.17l-.27-.06a.35.35,0,0,1,.38-.32,1.56,1.56,0,0,1,.64.13C44,23.5,44.26,23.6,44.58,23.69Z"/><path d="M46.15,35.8a.16.16,0,0,1-.07.21,2.49,2.49,0,0,1-.33.16,8.16,8.16,0,0,1-1.92.37h0c-.13,0-.22-.09-.22-.18a.2.2,0,0,1,.18-.2l.21,0a8.11,8.11,0,0,0,1.9-.38.32.32,0,0,1,.09,0A.17.17,0,0,1,46.15,35.8Z"/><path d="M37,32.73c-.1,0-.19-.08-.17-.2a.21.21,0,0,1,.24-.16l.28.06a4,4,0,0,0,1.54.1,1.3,1.3,0,0,1,.39,0,.16.16,0,0,1,.16.15c0,.1-.06.14-.15.16l-.07,0-.77.11c-.3,0-.61-.07-.91-.12A3.05,3.05,0,0,1,37,32.73Z"/><path d="M45.41,48.41a6.85,6.85,0,0,0,1.36,0c.19,0,.31.07.33.21s-.07.24-.24.3l-.12,0-.69.07a6.77,6.77,0,0,1-.69,0,.27.27,0,0,1-.24-.29A.26.26,0,0,1,45.41,48.41Z"/><path d="M37.41,28.2h.08a1.46,1.46,0,0,0,.3-.07,4,4,0,0,0,1-.45l.06,0c.08,0,.17-.06.22,0a.28.28,0,0,1,0,.22.75.75,0,0,1-.22.25,3.88,3.88,0,0,1-1.11.52l-.19,0h-.07c-.19,0-.31-.08-.32-.2A.33.33,0,0,1,37.41,28.2Z"/><path d="M43.76,24.41a.23.23,0,0,1,0-.2s.11-.06.16-.05a1.76,1.76,0,0,1,.3.1,3.31,3.31,0,0,0,1.58.3.17.17,0,0,1,.2.13.17.17,0,0,1-.12.21,3.6,3.6,0,0,1-.37.08A4.43,4.43,0,0,1,44,24.59.76.76,0,0,1,43.76,24.41Z"/><path d="M44.16,37.11a.17.17,0,0,1-.14-.17.21.21,0,0,1,.13-.19l.09,0a8,8,0,0,0,1.53-.26.38.38,0,0,1,.21,0c.06,0,.14.07.15.12s0,.13-.06.19a.2.2,0,0,1-.11.06,8.25,8.25,0,0,1-1.57.32Z"/><path d="M35.27,31.45c.32.07.65.12,1,.16l.55.07c.1,0,.18.05.17.17s-.09.13-.17.13l-.46,0a4.33,4.33,0,0,1-1.18-.18c-.2,0-.28-.13-.26-.25S35.05,31.41,35.27,31.45Z"/><path d="M38.78,31.43a.22.22,0,0,1,.29-.1,3.26,3.26,0,0,0,1.32,0,.65.65,0,0,1,.14,0c.12,0,.16.12.07.21a.53.53,0,0,1-.23.13c-.29.07-.58.11-.9.17-.16,0-.34-.07-.52-.13A.25.25,0,0,1,38.78,31.43Z"/><path d="M45.7,35.43a.24.24,0,0,1-.12.07l-1.17.3a.32.32,0,0,1-.23-.19.19.19,0,0,1,.16-.23q.61-.14,1.23-.24a.21.21,0,0,1,.17.1S45.73,35.37,45.7,35.43Z"/><path d="M34.77,30.69l1.07.21c.17,0,.24.09.23.19s-.09.17-.27.18h0l-1.11-.22a.19.19,0,0,1-.16-.24C34.53,30.71,34.63,30.66,34.77,30.69Z"/><path d="M45,37.22a2.25,2.25,0,0,0,.85-.16s.07,0,.09,0a.35.35,0,0,1,.18.1.22.22,0,0,1,0,.17.86.86,0,0,1-.22.15,2.22,2.22,0,0,1-.85.16.55.55,0,0,1-.21,0,.28.28,0,0,1-.14-.18.23.23,0,0,1,.12-.16A.49.49,0,0,1,45,37.22Z"/><path d="M34.62,30c.23,0,.46.09.68.14s.2.11.18.21-.09.16-.25.16l-.67-.13c-.15,0-.22-.12-.2-.23A.2.2,0,0,1,34.62,30Z"/><path d="M37.69,43h.05c.12,0,.19.08.13.18a1.51,1.51,0,0,1-.75.59H37s-.12,0-.13-.08a.21.21,0,0,1,0-.19C37.18,43.34,37.44,43.18,37.69,43Z"/><path d="M46.22,38.41c0,.23-.07.46-.11.69a.36.36,0,0,1,0,.11.33.33,0,0,1-.16.09.18.18,0,0,1-.14-.1c0-.06,0-.14-.06-.25s.08-.34.14-.53a.37.37,0,0,1,.08-.15.17.17,0,0,1,.21-.07C46.23,38.24,46.23,38.32,46.22,38.41Z"/><path d="M36.9,42.64l.08,0,.68-.27a.25.25,0,0,1,.17,0c.06.06,0,.13,0,.19a.34.34,0,0,1-.12.12c-.17.09-.34.19-.51.27a.72.72,0,0,1-.2,0s-.12-.07-.16-.13S36.83,42.7,36.9,42.64Z"/><path d="M37.3,29a.22.22,0,0,1-.11.17,2.38,2.38,0,0,1-.38.09,1.82,1.82,0,0,1-.33-.11.24.24,0,0,1-.1-.19.22.22,0,0,1,.16-.15,1.15,1.15,0,0,1,.66.06S37.31,28.92,37.3,29Z"/><path d="M37.78,41.17a.92.92,0,0,1-.62.37.56.56,0,0,1-.16-.12.17.17,0,0,1,0-.16,3.45,3.45,0,0,1,.5-.35.23.23,0,0,1,.19,0A.16.16,0,0,1,37.78,41.17Z"/><path d="M45.31,25.46h.1a2.46,2.46,0,0,0,.29-.09c.08,0,.15-.05.2,0a.25.25,0,0,1,0,.19.46.46,0,0,1-.47.29l-.16,0c-.11,0-.21-.14-.19-.22S45.21,25.48,45.31,25.46Z"/><path d="M37.1,42.23a.2.2,0,0,1-.16-.07A.21.21,0,0,1,37,42a5.91,5.91,0,0,1,.52-.35s0,0,.1,0,.12.07.14.12a.23.23,0,0,1,0,.2A1.2,1.2,0,0,1,37.1,42.23Z"/><path d="M45.76,32.29a.67.67,0,0,1-.48.37.21.21,0,0,1-.21-.13.19.19,0,0,1,.1-.25l.31-.13.16-.07C45.75,32.09,45.79,32.18,45.76,32.29Z"/><path d="M45.51,31.44s.13,0,.14,0a.17.17,0,0,1,0,.17A1,1,0,0,1,45,32a.8.8,0,0,1-.13-.13.16.16,0,0,1,.08-.21Z"/><path d="M45.5,33.47a.22.22,0,0,1,.19.06s0,.13,0,.18a.63.63,0,0,1-.4.26.27.27,0,0,1-.27-.14c0-.12,0-.19.13-.24A1.69,1.69,0,0,1,45.5,33.47Z"/><path d="M45.15,32.87a2.17,2.17,0,0,1,.42-.17c.13,0,.19.08.16.21a.54.54,0,0,1-.45.33.24.24,0,0,1-.22-.25S45.1,32.89,45.15,32.87Z"/><path d="M37.38,40.76a.16.16,0,0,1-.2-.16s0-.05,0-.06.24-.23.37-.33a.24.24,0,0,1,.19.06.24.24,0,0,1,0,.2A.58.58,0,0,1,37.38,40.76Z"/><path d="M34.92,29.62a.26.26,0,0,1-.23.15l-.33-.19a.17.17,0,0,1,0-.24.17.17,0,0,1,.21-.07l.28.13A.17.17,0,0,1,34.92,29.62Z"/><path d="M20.5,67.15a.17.17,0,0,1,.23-.12c.11,0,.14.11.11.25a.74.74,0,0,1,0,.14,3.68,3.68,0,0,0,.34,3.15,1.4,1.4,0,0,1,.09.17.19.19,0,0,1-.06.26.22.22,0,0,1-.27,0l-.07-.1a4.19,4.19,0,0,1-.63-2.09,5.34,5.34,0,0,1,.23-1.43A1.34,1.34,0,0,1,20.5,67.15Z"/><path d="M26.69,69.07a.22.22,0,0,1,.17-.06c.08,0,.12.08.11.16a.85.85,0,0,1,0,.23,2.51,2.51,0,0,0,0,1.51,2.27,2.27,0,0,0,.73,1.31.18.18,0,0,1,.05.26.18.18,0,0,1-.27,0,1.92,1.92,0,0,1-.39-.36,3.5,3.5,0,0,1-.62-2,2.53,2.53,0,0,1,.18-1A.53.53,0,0,1,26.69,69.07Z"/><path d="M33.76,67.08a1,1,0,0,1,.35,0,12.37,12.37,0,0,1,2.32.53l.31.14c.07,0,.12.1.08.17s-.1.09-.14.12l-.17,0a16.84,16.84,0,0,0-2.6-.59.44.44,0,0,1-.16-.06C33.65,67.24,33.65,67.12,33.76,67.08Z"/><path d="M29.75,51.94s-.06,0-.09,0a4,4,0,0,1-1.65.18,1.77,1.77,0,0,1-1.16-.55,1.09,1.09,0,0,1-.13-.17.17.17,0,0,1,0-.24.17.17,0,0,1,.22,0l.17.13c0-.09,0-.14,0-.19s0-.18.13-.18a.23.23,0,0,1,.16.12c.06.12.09.25.15.38a.46.46,0,0,0,.51.3,2.7,2.7,0,0,1-.15-.27,1,1,0,0,1-.07-.28.18.18,0,0,1,.09-.13.24.24,0,0,1,.15,0s0,.05.06.08l.38.59h.32c-.1-.16-.18-.3-.25-.44a.15.15,0,0,1,0-.23c.1-.06.16,0,.22.09s.25.36.37.52h.19a1.72,1.72,0,0,1,.32,0,.14.14,0,0,1,.08.1S29.79,51.91,29.75,51.94Z"/><path d="M29.26,48.55c0,.1-.05.2-.18.19s-.14-.1-.16-.2,0-.1,0-.15a3.18,3.18,0,0,0-.37-1.31c-.15-.28-.32-.55-.48-.82a.75.75,0,0,1-.09-.15A.16.16,0,0,1,28,46a.16.16,0,0,1,.13,0,1.22,1.22,0,0,1,.27.23,3.87,3.87,0,0,1,.75,1.38c.08.25.11.52.17.78h0A1.34,1.34,0,0,1,29.26,48.55Z"/><path d="M21.83,57.06a1.49,1.49,0,0,1-.79-.2.89.89,0,0,1-.44-.92.47.47,0,0,1,.2-.35.36.36,0,0,1,.25,0c.06,0,.08.12.1.2s0,.11,0,.16a.45.45,0,0,0,.34.54,1.19,1.19,0,0,0,.83,0,.88.88,0,0,0,.49-.51.58.58,0,0,0-.24-.74,1.1,1.1,0,0,1-.14-.09c0-.05-.1-.12-.09-.18s.07-.11.13-.14a.38.38,0,0,1,.37,0A1,1,0,0,1,23.29,56,1.46,1.46,0,0,1,21.83,57.06Z"/><path d="M26.16,35.26a.51.51,0,0,1,0-.48,1,1,0,0,1,.21-.27l.12-.08c.08-.06.14-.14.07-.25a.21.21,0,0,0-.25-.08.89.89,0,0,0-.45.36l-.14.22a.45.45,0,0,1,0-.41,3.66,3.66,0,0,1,.66-.9A1.3,1.3,0,0,0,26.72,32c-.08-.26-.13-.54-.2-.8s-.15-.63-.24-.94a2.07,2.07,0,0,0-.64-1,1.27,1.27,0,0,0-1.83.21,2,2,0,0,0-.37,1.33c0,.23,0,.46.08.69s.33.53.67.71c0-.14,0-.24-.07-.33a.24.24,0,0,1,.13-.28,1.31,1.31,0,0,1,.9-.2,1.83,1.83,0,0,1,.81.31c.17.12.19.15.21.41H26a1.37,1.37,0,0,0-1.37,1,.82.82,0,0,0,0,.27c0,.16.16.2.31.1L25,33.5l.46.2c-.06.12-.11.22-.17.32a.88.88,0,0,0,0,.9,2.37,2.37,0,0,0,.32.46c.27.3.56.58.84.87.11.11.23.21.33.33a.35.35,0,0,0,.37.11c.15,0,.2-.14.21-.29l0-.14a.58.58,0,0,1,.33-.48c.08,0,.15-.11.11-.21s-.15-.12-.24-.1a.66.66,0,0,0-.44.32l-.17.34a.29.29,0,0,1-.16-.28.82.82,0,0,1,.25-.59l.13-.14c.11-.12.12-.22,0-.3s-.16-.07-.28,0a1.19,1.19,0,0,0-.47.57,1.13,1.13,0,0,0-.06.14A2.32,2.32,0,0,1,26.16,35.26Zm-.93-5.56h-.84A.67.67,0,0,1,25.23,29.7Zm.54.77a3.13,3.13,0,0,0-1.77,0c0-.23,0-.25.19-.28a4.9,4.9,0,0,1,.77-.07A1.17,1.17,0,0,1,25.77,30.47Zm.23.81a5.74,5.74,0,0,0-.68-.21,2.15,2.15,0,0,0-.67,0,4.37,4.37,0,0,0-.65.2v-.36a2,2,0,0,1,1-.15,2.41,2.41,0,0,1,.64.12A.58.58,0,0,1,26,31.28Zm.16,1.52-.51-.21a.7.7,0,0,1,.6,0Zm-1.09.32c0-.1.07-.18.19-.16a1.67,1.67,0,0,1,.63.18l-.19.23Z"/></g></svg>