<svg xmlns="http://www.w3.org/2000/svg" viewBox="0 0 62.97 72.74"><g id="infografía"><path d="M25.82,23.47c0,.1,0,.19.08.23s.15,0,.18-.11h0l.21.09c.22.1.28.08.44-.1s.07,0,.1,0c.21,0,.42.05.63,0s.18-.09.28-.13.08,0,.1,0a1.67,1.67,0,0,0,1.06,0l.65-.14h0a.84.84,0,0,1,.52.08.38.38,0,0,0,.42,0,.32.32,0,0,1,.3,0,3.68,3.68,0,0,0,.58.06,1.13,1.13,0,0,1,.26,0,6.19,6.19,0,0,1,.6.23,2.26,2.26,0,0,0,.41.15.87.87,0,0,1,.58.22.11.11,0,0,0,.12,0,.15.15,0,0,0,.07-.12.23.23,0,0,0-.16-.21l-.47-.17a3.43,3.43,0,0,1-.52-.23,1.55,1.55,0,0,0-.93-.26,1.47,1.47,0,0,1-.47,0,.63.63,0,0,0-.52.06.32.32,0,0,1-.19.05,2.74,2.74,0,0,0-.6-.07c-.23,0-.47,0-.7.09a1.53,1.53,0,0,1-.9,0,.4.4,0,0,0-.52.12.61.61,0,0,0-.18-.05.75.75,0,0,1-.38-.08.3.3,0,0,0-.37.07.18.18,0,0,1-.23.08A.35.35,0,0,0,25.82,23.47Z"/><path d="M28,8.42a.4.4,0,0,0-.07.38.22.22,0,0,0,.12.11s.1,0,.14-.08a5.37,5.37,0,0,1,.51-.56,4.46,4.46,0,0,0,.87-1.07c.1-.12.19-.29.28-.41A.94.94,0,0,0,30,6.56a.16.16,0,0,0,0-.15.2.2,0,0,0-.17,0,1.5,1.5,0,0,0-.25.19,1,1,0,0,0-.13.16,4,4,0,0,0-.25.45,1.74,1.74,0,0,1-.78.83A1.12,1.12,0,0,0,28,8.42Z"/><path d="M28.85,12.11s.06,0,.08,0a.19.19,0,0,0,0-.1,2,2,0,0,1,.62-1.18l.33-.24a5,5,0,0,1,1.52-.68,3.33,3.33,0,0,0,1.63-.95,4.78,4.78,0,0,0,.29-.44c.09-.16.19-.31.29-.46s.17-.33.28-.48.32-.36.48-.54a.17.17,0,0,0,0-.25.16.16,0,0,0-.24,0,.43.43,0,0,0-.1.09,4,4,0,0,0-.93,1.3,1.8,1.8,0,0,1-.54.71,3.89,3.89,0,0,1-2.12.82.15.15,0,0,0-.09,0l-.81.4a.82.82,0,0,0-.17.2c-.09.12-.19.24-.27.36a2.5,2.5,0,0,0-.21.35,3,3,0,0,0-.17.94.25.25,0,0,0,0,.12A.1.1,0,0,0,28.85,12.11Z"/><path d="M29.58,20.78l.44,0A14.42,14.42,0,0,0,32,21a4.9,4.9,0,0,1,.54,0,3.29,3.29,0,0,1,1.53.75c.23.18.49.33.73.49a.34.34,0,0,0,.14.05l0,0c-.06-.06-.1-.13-.16-.2l-.59-.64a2.9,2.9,0,0,0-2.16-.87c-.28,0-.57,0-.85,0-.54,0-1.08-.05-1.62-.07a7.3,7.3,0,0,0-.94.08s-.07.05-.11.07.07.07.12.07C29,20.74,29.27,20.75,29.58,20.78Z"/><path d="M29.24,8.27a.53.53,0,0,0-.21.31.69.69,0,0,0,.55-.24,4.35,4.35,0,0,0,.33-.42,7.85,7.85,0,0,1,.85-1.42.15.15,0,0,0,0-.24.16.16,0,0,0-.24,0c-.16.23-.33.46-.47.7s-.31.6-.46.9A1,1,0,0,1,29.24,8.27Z"/><path d="M27.17,61.86v0a2.15,2.15,0,0,0-.24.18c-.14.13-.28.26-.41.4a6,6,0,0,0-.88,1.34,8.38,8.38,0,0,0-1,3.41.22.22,0,0,0,.19.24.21.21,0,0,0,.21-.21c0-.28,0-.55.08-.83,0-.13,0-.26.05-.38a7.86,7.86,0,0,1,1.4-3.31C26.74,62.39,27,62.13,27.17,61.86Z"/><path d="M14.05,60.48l-.15.05c-.66.42-1.33.84-2,1.27a6.54,6.54,0,0,0-.7.6s0,.07,0,.12h.11l.31-.14L14,61c.06,0,.14-.07.17-.13a.29.29,0,0,0,0-.22C14.18,60.56,14.1,60.52,14.05,60.48Z"/><path d="M14.07,59.68a2.88,2.88,0,0,0-.5.15,10.23,10.23,0,0,0-1.83,1.08,6.47,6.47,0,0,0-.57.47.3.3,0,0,0-.05.16.3.3,0,0,0,.16,0,5.2,5.2,0,0,0,.53-.26c.61-.35,1.22-.7,1.82-1.06a5.58,5.58,0,0,0,.48-.37.46.46,0,0,0,.11-.16l0,0Z"/><path d="M24.08,64.77c-.06.08-.12.15-.17.23a7.48,7.48,0,0,0-.74,1.75q-.11.33-.18.66a.21.21,0,0,0,.18.27.22.22,0,0,0,.25-.19,9.55,9.55,0,0,1,.43-1.83l.27-.87Z"/><path d="M13.41,61.79a.6.6,0,0,0-.16.05c-.36.23-.73.46-1.08.71a2,2,0,0,0-.39.38s0,.09,0,.14a.76.76,0,0,0,.15,0l.18-.08c.42-.22.84-.43,1.25-.66a.86.86,0,0,0,.2-.13.25.25,0,0,0,.07-.29C13.56,61.86,13.46,61.83,13.41,61.79Z"/><path d="M19.87,26.79a.48.48,0,0,0,.16-.08.56.56,0,0,0-.1-.15c-.15-.09-.31-.17-.47-.25l-.19-.09a.7.7,0,0,1,.12-.15,2.33,2.33,0,0,1,1.24-.44s.12,0,.13,0a.18.18,0,0,1,0,.23c-.13.13-.11.25.07.29a2.1,2.1,0,0,0,.43,0,.39.39,0,0,0,.36-.18.12.12,0,0,1,.19,0,.51.51,0,0,1-.39.44,1.24,1.24,0,0,1-1-.23.4.4,0,0,0-.13,0c0,.05,0,.1,0,.14a.62.62,0,0,0,.52.46c.11,0,.23,0,.34,0a.92.92,0,0,0,1-.75.41.41,0,0,1,0-.08l.4.34-.35.26s-.08.08-.07.11a.13.13,0,0,0,.11.08.34.34,0,0,0,.2,0,1.47,1.47,0,0,0,.67-.51c.15.06.16.06.09.21a5.55,5.55,0,0,1-.29.48c0,.09-.13.16-.18.25s0,.14,0,.15a.17.17,0,0,0,.17,0,.43.43,0,0,0,.16-.09l.26-.21a2.08,2.08,0,0,1-.4.75c-.05.06-.1.12,0,.2s.13,0,.19,0,0,0,0,0a2.9,2.9,0,0,1-.19.29c-.16.21-.33.41-.48.63a.14.14,0,0,0,0,.14.14.14,0,0,0,.14,0,1.14,1.14,0,0,0,.23-.13l-.31.36a3.39,3.39,0,0,0-.57,1,.8.8,0,0,0,0,.15l0,0,.48-.5a.11.11,0,0,1,0,.08c-.33.6-.64,1.2-1,1.79a1.28,1.28,0,0,0-.21.89,1.62,1.62,0,0,0,.68,1.16l0,0-.16.14-.31.31c-.05.06-.11.14,0,.21s.14,0,.2,0l.58-.49c.18.08.36.17.56.24l.61.2c0,.09,0,.19,0,.3a3.66,3.66,0,0,0,0,.74.51.51,0,0,0,.51.47S24,36,24,36a.53.53,0,0,0-.06-.1l-.15-.13a.4.4,0,0,1-.15-.4l.1,0a1.18,1.18,0,0,0,.25,0,.22.22,0,0,0,.13-.12s0-.09-.08-.12a2.34,2.34,0,0,0-.27-.2c-.1-.06-.11-.12-.05-.2a1.15,1.15,0,0,0,.25.12.24.24,0,0,0,.18,0,.23.23,0,0,0,0-.18,1,1,0,0,0-.15-.22c.23,0,.43-.18.68-.12a1.15,1.15,0,0,0,.26,0c.13,0,.2-.11.3-.18a1,1,0,0,1,.94-.25h.07c.15,0,.22-.11.15-.24a.57.57,0,0,0-.13-.14.75.75,0,0,0-.54-.16,2.41,2.41,0,0,0-1.34.51,1.44,1.44,0,0,1-.39.2,1.05,1.05,0,0,1-.19,0,.85.85,0,0,1-.39,0c-.41-.18-.81-.4-1.22-.59A1.14,1.14,0,0,1,21.79,32,11.77,11.77,0,0,0,22.37,31a24.66,24.66,0,0,0,1.15-2.83,2.85,2.85,0,0,0,.14-.5c.06-.43.06-.87.14-1.31a.54.54,0,0,0-.18-.5.3.3,0,0,1,0-.41l.21.07a.49.49,0,0,0,.24,0c.06,0,.14-.09.14-.14a.27.27,0,0,0-.11-.17.52.52,0,0,0-.22-.07,2.29,2.29,0,0,1-.78-.34l.35-.24a.91.91,0,0,0,.45-1c0-.09-.07-.2-.19-.19s-.16.1-.18.2a2.11,2.11,0,0,0,0,.25.8.8,0,0,1-.75.66c0-.09,0-.19,0-.25s-.16-.07-.26,0l-.46.11h-.07a1.9,1.9,0,0,0,.42-.31.19.19,0,0,0,0-.18.22.22,0,0,0-.18-.06,1.38,1.38,0,0,0-.22.1l-.31.15a.15.15,0,0,1,0-.08c.05-.09.08-.18,0-.27s-.16,0-.28.05-.34.24-.52.36c-.07-.12-.1-.26-.26-.23s-.12,0-.17-.06-.27-.19-.48-.07l-.11.07a.27.27,0,0,0-.34-.13,1.67,1.67,0,0,0-.94.77A1.84,1.84,0,0,1,18,25a.67.67,0,0,0-.07.11c.05,0,.1.06.15.05a.85.85,0,0,0,.47-.26c.11-.13.21-.27.32-.41a1.5,1.5,0,0,1,.51-.46c.07.06,0,.1,0,.15l-.47.49s0,.08,0,.12a.32.32,0,0,0,.13,0,.82.82,0,0,0,.19-.09l.52-.42L20,24h.09a.34.34,0,0,1,0,.1c0,.06-.05.12-.08.17s-.05.09-.08.11-.28.13-.41.22a3.57,3.57,0,0,0-1.15,1.17l-.06.07-.17-.25a1,1,0,0,0-.15-.19.14.14,0,0,0-.23.13.93.93,0,0,0,.25.56l.34.35.06,0,0-.07a.64.64,0,0,1,0-.07,3,3,0,0,1,.62-.9,1.2,1.2,0,0,1,.74-.43,2.62,2.62,0,0,0,.38-.09,1.2,1.2,0,0,1,.33-.06h1A1.46,1.46,0,0,1,22,25c.12,0,.22.12.34.15a.6.6,0,0,1,.52.55l0,.22a.34.34,0,0,1,0,.1l0,0-.25-.36a1.45,1.45,0,0,0-1.1-.56,3.81,3.81,0,0,0-1.26.13,2.46,2.46,0,0,0-.74.28,2.69,2.69,0,0,0-1,1.21s0,.07,0,.11.08,0,.11,0l.18-.19.19-.21A1.06,1.06,0,0,0,19.87,26.79Z"/><path d="M27.18,37.47a2.51,2.51,0,0,1,1,0h.13a.64.64,0,0,1,.65.36,3.58,3.58,0,0,0,.25.42s.1,0,.15.08l.08-.15c0-.1,0-.18-.07-.26-.12-.3-.24-.62-.6-.71l0,0a.8.8,0,0,0-.23-.11L27.83,37c-.1,0-.21,0-.31,0-.34,0-.68.06-1,.05a6.54,6.54,0,0,1-.89-.07,1.24,1.24,0,0,0-.87,0,.38.38,0,0,1-.1,0,2.11,2.11,0,0,1-.93-.09l-.24-.06-1-.25a.7.7,0,0,0-.29,0,1.34,1.34,0,0,0-.74.37c-.11.1-.15.23-.09.29s.19,0,.28,0l.5-.19a.28.28,0,0,1,.18,0l.69.3a2.6,2.6,0,0,0,2,.14.89.89,0,0,1,.51-.07,3.62,3.62,0,0,0,.47,0,.86.86,0,0,1,.16,0A3.7,3.7,0,0,0,27.18,37.47Z"/><path d="M25.22,31.39a5.22,5.22,0,0,0-.48-.46.13.13,0,0,0-.2,0c-.06.07,0,.13,0,.19l.34.44c.14.18.14.18,0,.36-.13-.12-.25-.24-.37-.34s-.15-.09-.22,0,0,.14,0,.21.2.32.31.48a.19.19,0,0,0,.29,0c.17-.16.34-.32.52-.46a.56.56,0,0,1,.31-.15,1.26,1.26,0,0,1,.79.38,1.78,1.78,0,0,1,.41,1,.75.75,0,0,1-.25.75s-.09.07-.1.06-.11,0-.15.05a.27.27,0,0,0-.07.08s-.09.13-.07.16a.27.27,0,0,0,.16.11.66.66,0,0,0,.45-.13,1.07,1.07,0,0,0,.43-.56c.29.3.57.57.82.87s.58.76.87,1.14c.05.07.11.14.2.1s0-.16.05-.23-.05-.19-.12-.26a7.81,7.81,0,0,0-1.61-2,.18.18,0,0,0-.07-.05c-.07,0-.07-.07-.09-.13a6.33,6.33,0,0,0-.19-.75,1.4,1.4,0,0,0-1-.88.46.46,0,0,1-.31-.17,1.44,1.44,0,0,0-.54-.47c-.08,0-.17-.12-.24,0s0,.15.12.2a1.18,1.18,0,0,1,.39.44c-.08,0-.15,0-.19,0S25.28,31.45,25.22,31.39Zm-.3.53Z"/><path d="M22.43,13.15a.34.34,0,0,0,.39.07,3.54,3.54,0,0,1,.91-.21l.66-.07s.11,0,.11-.06a.75.75,0,0,0,0-.3c0-.07-.11-.12-.17-.18a6.56,6.56,0,0,1-1.5-1.69,1.25,1.25,0,0,0-.23-.23.24.24,0,0,0,0,.3,4,4,0,0,0,.66,1,3.26,3.26,0,0,0,.51.54,3.7,3.7,0,0,1,.36.33l0,0a.66.66,0,0,1-.25-.07c-.16-.11-.29-.26-.44-.38l-1-.84-.13-.06a.32.32,0,0,0,.12.27l.92.95a.37.37,0,0,1,.09.11c-.1,0-.18,0-.23,0a1.59,1.59,0,0,1-.32-.26,5,5,0,0,1-.91-1,.14.14,0,0,0-.2-.07l-.26.09a2.33,2.33,0,0,0,.31.5c.29.31.62.6.95.91l-.16-.06a7.06,7.06,0,0,1-1.45-1l-.47-.41a.38.38,0,0,0-.1,0,.14.14,0,0,0,0,.11.44.44,0,0,0,.1.19,8.27,8.27,0,0,0,.55.63,3.27,3.27,0,0,0,1.21.83Z"/><path d="M23.69,11.42c.17.23.34.47.52.69s.31.32.46.48a.78.78,0,0,0,.45.23,1,1,0,0,0,.35,0,.16.16,0,0,0,.1-.24.59.59,0,0,0-.13-.18,3.12,3.12,0,0,1-.62-1,4.63,4.63,0,0,1-.38-1.84,1.9,1.9,0,0,1,.19-1.12,3,3,0,0,0,.16-.31s0-.09,0-.14l-.15.05-.05,0a2.47,2.47,0,0,0-.5,1.76,2.56,2.56,0,0,1,.05.27,3.59,3.59,0,0,0,.46,1.76l-.05,0c-.29-.35-.58-.69-.86-1,0,0,0-.07-.05-.1s-.11-.3-.17-.44-.07-.05-.1-.07-.12.18-.12.27a1.24,1.24,0,0,0,.23.63Z"/><path d="M18,23.71l.93-.2c.18-.05.22-.1.19-.3a.8.8,0,0,1,.53,0,.18.18,0,0,1,.09.06c.1.17.1.18.29.14a1.82,1.82,0,0,1,.77,0,.3.3,0,0,0,.25-.06c.07-.13.16-.11.27-.08l.11,0a1,1,0,0,1,.61.24.55.55,0,0,0,.39.1c.08,0,.16-.08.23,0s.11.12.14.2.06.14.15.12.1-.12.07-.19a2.65,2.65,0,0,0-.18-.42.25.25,0,0,0-.17-.11,2,2,0,0,0-.23,0,.29.29,0,0,1-.13,0c-.13-.06-.26-.13-.39-.18a5.47,5.47,0,0,0-.64-.23.4.4,0,0,0-.37,0,.36.36,0,0,1-.28.07.87.87,0,0,0-.36,0,.69.69,0,0,1-.49,0,1,1,0,0,0-.37-.06,4.13,4.13,0,0,0-.63.13c-.05,0-.11,0-.12.08s-.17.16-.29.2a1.31,1.31,0,0,0-.27.12.8.8,0,0,0-.19.18.1.1,0,0,0,0,.09A.07.07,0,0,0,18,23.71Z"/><path d="M27.13,12.9c.07.06.14.09.22,0s0-.14,0-.21l-.11-.15L26.82,12a2.3,2.3,0,0,1-.37-2.07A2.26,2.26,0,0,1,26.79,9a.1.1,0,0,0,0-.09,1.66,1.66,0,0,0-.06-.21c-.06,0-.14,0-.18.08a2.3,2.3,0,0,0-.53,1.07C26,10,26,10,26,10.1s-.07.31-.11.44a3,3,0,0,0,.08.39,5.17,5.17,0,0,0,.89,1.69A1.92,1.92,0,0,0,27.13,12.9Z"/><path d="M26.21,39.72s-.08-.11-.14-.13a4.57,4.57,0,0,0-1.36-.32,5.6,5.6,0,0,0-1.35.11,6.38,6.38,0,0,0-.72.19,1.36,1.36,0,0,0-.34.21.19.19,0,0,0,0,.15.15.15,0,0,0,.11,0,9,9,0,0,1,2.42-.28c.24,0,.47.07.71.11l.44.14C26.09,40,26.2,39.88,26.21,39.72Z"/><path d="M26.17,38.14a.14.14,0,0,0-.1-.08,1.45,1.45,0,0,0-.36,0,14.21,14.21,0,0,1-2.26,0c-.32,0-.63-.11-.94-.15a.41.41,0,0,0-.18.05s0,.13.09.16a2.06,2.06,0,0,0,.37.16,6.09,6.09,0,0,0,1.93.23l.89,0a.88.88,0,0,0,.51-.18A.17.17,0,0,0,26.17,38.14Z"/><path d="M26.94,10.5s.11.09.14.07a.23.23,0,0,0,.09-.14c0-.18,0-.36,0-.54a3.79,3.79,0,0,1,.15-.76,3.86,3.86,0,0,1,1.21-1.77.16.16,0,0,0,.06-.25.18.18,0,0,0-.27,0c-.17.16-.35.31-.51.48s-.16.26-.25.37a3.14,3.14,0,0,0-.71,2h0C26.85,10.15,26.89,10.33,26.94,10.5Z"/><path d="M25.56,38.81l-1.1-.14c-.36,0-.69.06-1,.11a7.68,7.68,0,0,0-.83.19c-.09,0-.17.07-.15.17s.12.09.19.08.43-.06.64-.09a5.11,5.11,0,0,1,1.87,0l.39.08a.21.21,0,0,0,.23-.26A.23.23,0,0,0,25.56,38.81Z"/><path d="M23.15,42.81l-.91-.42a2.1,2.1,0,0,0-.42-.15,1.14,1.14,0,0,1-.61-.35c-.16-.15-.34-.3-.51-.44a1.67,1.67,0,0,0-.23-.12l0,0s0,.07.07.1c.19.22.38.45.58.66a1.65,1.65,0,0,0,.36.28c.18.11.39.18.55.3a4,4,0,0,0,1,.51.42.42,0,0,0,.18,0,.37.37,0,0,0,.21-.12.25.25,0,0,0-.07-.2A.45.45,0,0,0,23.15,42.81Z"/><path d="M19.5,20.45l.67-.14a7.43,7.43,0,0,1,2-.19h.51A.66.66,0,0,0,22.8,20s-.07-.1-.11-.11a2.39,2.39,0,0,0-.52-.1,7.28,7.28,0,0,0-2.74.38c-.09,0-.15.08-.13.18S19.42,20.47,19.5,20.45Z"/><path d="M24.63,20.85a2,2,0,0,0-.75-.21h0l-.23.09a.75.75,0,0,0,.17.14c.24.12.5.22.75.35a.47.47,0,0,0,.4,0c.16-.07.33-.12.49-.18s.36-.1.53-.17.25-.21.22-.29-.22-.14-.36-.09c-.33.1-.67.22-1,.34A.21.21,0,0,1,24.63,20.85Z"/><path d="M22.61,33.33s-.08,0-.09,0,0,.08,0,.1a.55.55,0,0,0,.15.19,1.42,1.42,0,0,0,.84.29h.18a3.77,3.77,0,0,0,1-.33l.43-.22a.17.17,0,0,0,.09-.23A.16.16,0,0,0,25,33l-.33.12c-.33.13-.64.28-1,.38A1.35,1.35,0,0,1,22.61,33.33Z"/><path d="M19.59,19.39a6.47,6.47,0,0,1,2-.36.82.82,0,0,0,.3-.1c.13-.07.12-.17,0-.22a2.93,2.93,0,0,0-.41-.07,4.22,4.22,0,0,0-1.79.44.55.55,0,0,0-.19.15.12.12,0,0,0,0,.13A.13.13,0,0,0,19.59,19.39Z"/><path d="M26.89,10.87h0a.91.91,0,0,0,0,.23,3.06,3.06,0,0,0,.1.51,3.12,3.12,0,0,0,.77,1.28.17.17,0,1,0,.26-.21l-.06-.07A5.66,5.66,0,0,1,27,11.14Z"/><path d="M20.61,27.84c.09,0,.21-.05.2-.15s-.12-.11-.2-.13l-.87-.25c-.16,0-.32-.13-.48-.19l-.18-.05,0,.05a.75.75,0,0,0,.11.13,3,3,0,0,0,1.08.57A1.53,1.53,0,0,0,20.61,27.84Z"/><path d="M20.38,37.94a1.18,1.18,0,0,0-.19.11s0,0,0,0a2.67,2.67,0,0,0-.24,1,2,2,0,0,0,0,.2s.08.1.12.1a.22.22,0,0,0,.14-.09.85.85,0,0,0,0-.23c.05-.22.09-.44.14-.66a2.61,2.61,0,0,0,.06-.27A.68.68,0,0,0,20.38,37.94Z"/><path d="M29,28.08a.16.16,0,0,0,.23-.16.58.58,0,0,0-.11-.13.53.53,0,0,0-.17-.08,1.15,1.15,0,0,1-.67-.45.75.75,0,0,0-.15-.16.09.09,0,0,0-.1,0s0,.07,0,.1a2.12,2.12,0,0,0,.11.21A1.56,1.56,0,0,0,29,28.08Z"/><path d="M24.09,43S24,43,24,43a.16.16,0,0,0,.05.11,1.17,1.17,0,0,0,.31.12.66.66,0,0,0,.71-.29Z"/><path d="M24.3,32.45a.16.16,0,0,0,0-.15,2.26,2.26,0,0,0-.25-.38s-.11-.05-.15,0-.07.09-.08.11a.56.56,0,0,0,.3.48A.21.21,0,0,0,24.3,32.45Z"/><path d="M26.64,53.36a.47.47,0,0,0-.52.43.4.4,0,0,0,.22.33.27.27,0,0,0,.3-.11.8.8,0,0,1,.15-.17.28.28,0,0,0,.08-.3A.27.27,0,0,0,26.64,53.36Z"/><path d="M25.24,55.74s0,.1-.09.15-.11.2,0,.28a1.38,1.38,0,0,0,.29.22,1.35,1.35,0,0,0,.25-.18.36.36,0,0,0,0-.44A.32.32,0,0,0,25.24,55.74Z"/><path d="M26.15,54.57a.26.26,0,0,0-.29.2,1.3,1.3,0,0,0,0,.34.2.2,0,0,0,.21.16.19.19,0,0,0,.21-.15,2.27,2.27,0,0,0,.06-.25C26.36,54.7,26.28,54.59,26.15,54.57Z"/><path d="M24.51,61.27a.18.18,0,0,0-.07-.23,1,1,0,0,1-.4-.84,1.31,1.31,0,0,0,0-.28c0-.06-.08-.14-.14-.15a.22.22,0,0,0-.19.06.39.39,0,0,0-.11.22,1.25,1.25,0,0,0,.3,1.14.84.84,0,0,0,.36.2A.21.21,0,0,0,24.51,61.27Z"/><path d="M24.67,59.92a.19.19,0,0,0-.19-.16.19.19,0,0,0-.19.16,1.09,1.09,0,0,0,0,.26.66.66,0,0,0,.36.63.21.21,0,0,0,.24,0,.22.22,0,0,0,0-.24C24.81,60.33,24.74,60.13,24.67,59.92Z"/><path d="M24.12,61.66c-.1,0-.12.09-.14.17a.57.57,0,0,0,.29.67.17.17,0,0,0,.14,0,2.15,2.15,0,0,0,.14-.26c-.06-.16-.1-.31-.16-.45A.24.24,0,0,0,24.12,61.66Z"/><path d="M24.89,57a.3.3,0,0,0-.39.14.43.43,0,0,0,.41.52c.07,0,.15,0,.19-.16A.4.4,0,0,0,24.89,57Z"/><path d="M24.45,58a.31.31,0,0,0-.31.28.35.35,0,0,0,.35.31.28.28,0,0,0,.27-.27A.29.29,0,0,0,24.45,58Z"/><path d="M58,57.07A.22.22,0,0,1,58,57c0-.22-.15-.33-.29-.45-.46-.37-.92-.73-1.37-1.11a2,2,0,0,1-.23-.27,5.11,5.11,0,0,0-1.15-1,4.3,4.3,0,0,1-.67-.44c-.83-.77-1.75-1.43-2.64-2.11s-2-1.56-2.92-2.42c-.11-.11-.24-.21-.37-.32,0-.12.07-.26.1-.4a.48.48,0,0,0-.12-.44,1.33,1.33,0,0,1-.21-.26,15.16,15.16,0,0,1-1-2.15c-.52-1.38-.91-2.79-1.35-4.2-.26-.84-.51-1.68-.74-2.52-.12-.42-.19-.84-.28-1.27a11.91,11.91,0,0,0-.77-2,1.65,1.65,0,0,0-.46-.7l-.31-.25-.67-.54a2.68,2.68,0,0,1,.28-.35,5.14,5.14,0,0,0,1.11-1.58,1.58,1.58,0,0,1,.7-.92.47.47,0,0,0,.13-.11,3.49,3.49,0,0,0,1-2.07.59.59,0,0,1,0-.13,1.94,1.94,0,0,0,.06-.4,2.55,2.55,0,0,1,.27-1.28,2.17,2.17,0,0,0,0-1.86c-.08-.19-.18-.38-.27-.56a4,4,0,0,0,.48-.19,2.58,2.58,0,0,0,.41-.33c.19-.15.19-.23,0-.41l.23-.2a.42.42,0,0,0,.17-.3s0-.06.07-.08l.47-.27a.19.19,0,0,0,.09-.23c0-.15-.15-.18-.28-.2l.24-.43c.06-.1.1-.21.16-.31s.11-.29,0-.38-.2-.05-.34.09a1.85,1.85,0,0,1-.6.4c.05-.18.1-.33.13-.48s0-.11-.07-.16-.08,0-.14-.05a1.91,1.91,0,0,0,.39-.78c0-.16,0-.28-.08-.37a2.74,2.74,0,0,0,.08-.37c0-.26,0-.51,0-.77a.13.13,0,0,0-.13-.15c-.09,0-.11.05-.14.12l-.18.37s0,0-.08.06h-.11a.41.41,0,0,0-.12,0c.17-.18.36-.32.35-.62l-.51.27,0,0a1.71,1.71,0,0,1,.11-.14,1.57,1.57,0,0,0,.2-.25.21.21,0,0,0,0-.19c-.06-.06-.13,0-.18,0l-.23.21a1.12,1.12,0,0,1,.37-.52c.22-.23.43-.46.64-.7a.23.23,0,0,0,0-.29c-.08-.06-.2,0-.29.08a1.83,1.83,0,0,1-.13.16.21.21,0,0,1,0-.31,2.4,2.4,0,0,0,.21-.46c.07-.22.13-.44.19-.67s0-.37-.29-.33c0,0,0-.09,0-.12s0-.31.13-.41a.18.18,0,0,0,.06-.09c0-.06,0-.14,0-.17a.18.18,0,0,0-.17-.05.89.89,0,0,0-.23.13l-.12,0,0,0a2.07,2.07,0,0,1,.28-.58.2.2,0,0,0,0-.24c0-.09-.14-.09-.23-.06h-.07s0-.06,0-.08V14H46.4a2.94,2.94,0,0,0,.36-.42,1.4,1.4,0,0,0,.16-.4.19.19,0,0,0-.08-.15s-.11,0-.16,0a.36.36,0,0,0-.1.11,3.38,3.38,0,0,1-.31.35.8.8,0,0,1-.82.18s.06,0,.07,0,.26-.27.38-.41.09-.15,0-.22-.14,0-.19.05l-.24.22v-.06a2.13,2.13,0,0,0,.12-1.49s-.05-.07-.08-.11a.36.36,0,0,0-.11.1c0,.08-.08.17-.13.26h0c0-.13,0-.26.06-.39s0-.29-.13-.36a.75.75,0,0,1,.44-.28,3.45,3.45,0,0,0,.43-.12c.14-.05.16-.11.12-.25.12-.1.13-.16,0-.26a.58.58,0,0,0-.25-.12,5.93,5.93,0,0,0-.73,0c-.23,0-.47.05-.7.08a1.82,1.82,0,0,1,.29-.27,2.77,2.77,0,0,0,.36-.31.41.41,0,0,0,.1-.27c0-.09-.11-.17-.16-.25a1.18,1.18,0,0,0-.18.13c-.15.12-.29.26-.45.37a1.57,1.57,0,0,1-.29.15L44.62,9a.58.58,0,0,0,0-.14h-.12l-.06,0c-.14,0-.21,0-.27.11s-.21.2-.34.26a.16.16,0,0,1,.06-.08,2.25,2.25,0,0,0,.56-.77.46.46,0,0,0,.05-.2.21.21,0,0,0-.08-.16.19.19,0,0,0-.17,0c-.08.06-.14.16-.22.23l-.5.41c-.05,0-.13,0-.2,0,0-.29.07-.54.1-.8a.2.2,0,0,0-.17-.24c-.1,0-.16,0-.21.14s-.15.24-.23.36a3.86,3.86,0,0,1,0-.47.55.55,0,0,0-.06-.26.27.27,0,0,1,0-.33.2.2,0,0,0,0-.15.46.46,0,0,0-.15-.16c-.08,0-.14,0-.18.11l0,.12c0,.06-.07.11-.12.19l0-.08a1.24,1.24,0,0,1,.17-.5.39.39,0,0,0,.07-.16.16.16,0,0,0,0-.13.22.22,0,0,0-.14,0,.33.33,0,0,0-.1.06,1.33,1.33,0,0,1-.69.32l.07,0a1.13,1.13,0,0,0,.38-.53.15.15,0,0,0-.07-.21c-.09,0-.15,0-.21.08a1.9,1.9,0,0,1-.21.19c0-.16-.05-.23-.17-.24h-.49a1.24,1.24,0,0,1-.73-.13l.17-.07s.06-.08.1-.12-.09-.07-.14-.07l-.81,0c-.2,0-.39-.07-.59-.1v0h.33a2,2,0,0,0,.35,0c.05,0,.09-.07.14-.11s-.07-.12-.12-.14A3.1,3.1,0,0,0,39.07,5a3,3,0,0,0-.3,0,3.84,3.84,0,0,0,.29-.27s.07-.13,0-.15a.65.65,0,0,0-.31,0c-.32.09-.63.21-.94.3s-.4.08-.6.11v0l0,0,.13-.14-.14-.1s0,0-.07,0l-.34-.06.14-.1A1,1,0,0,0,37.35,4a.26.26,0,0,0,0-.15s-.1,0-.13,0l-.53.26c-.18.1-.34.21-.55.09h0a4.9,4.9,0,0,0-1.79.06,3.51,3.51,0,0,1-.56,0v0L34,4.16c.09,0,.21-.07.2-.17S34,3.86,34,3.84a2.31,2.31,0,0,0-1.47.07,2.64,2.64,0,0,1-1,.22,1.37,1.37,0,0,0-.28,0c-.23.06-.46.15-.7.2a3,3,0,0,0-.83.25.5.5,0,0,1-.13,0c-.13,0-.27,0-.4,0-.37.06-.75.12-1.11.2a8.81,8.81,0,0,0-.87.28.27.27,0,0,1-.12,0,.61.61,0,0,0-.46,0l-.4.15c.05-.06.13-.14.2-.24s0-.1,0-.12a.13.13,0,0,0-.14,0,2.38,2.38,0,0,0-.51.18,7.43,7.43,0,0,0-1.3,1l-.09.08c0-.11.12-.21.17-.31s.2-.41.3-.63.07-.22,0-.28-.18.06-.22.13a3.71,3.71,0,0,1-.47.5,5.81,5.81,0,0,1-1.47,1,7.43,7.43,0,0,0-.73.4,3.86,3.86,0,0,0-1.4,1.41c-.11.21-.25.41-.37.61,0,0-.05.07-.07.07a.36.36,0,0,0-.35.21,3.73,3.73,0,0,1-.58.68,4.06,4.06,0,0,0-.93,1.54,1.34,1.34,0,0,0-.07.39.44.44,0,0,1-.11.27c-.14.13-.29.25-.42.39a1.9,1.9,0,0,0-.26.37,3.33,3.33,0,0,0-.16.4.18.18,0,0,1-.09.08.35.35,0,0,0-.23.29c0,.12,0,.25-.05.38a1.08,1.08,0,0,0,.05.59.16.16,0,0,1,0,.18.61.61,0,0,0-.12.58.24.24,0,0,1-.05.24c-.05.08-.09.17-.13.25s-.06.13-.12.17a1,1,0,0,0-.33.81.44.44,0,0,0,.05.15s.1-.07.12-.12.08-.23.12-.34a.39.39,0,0,1,.3-.24,1.58,1.58,0,0,0,.36-.09,4,4,0,0,0,1.1-.62c.13-.1.28-.18.42-.27a.49.49,0,0,1-.11.2,3,3,0,0,1-.24.26,9.08,9.08,0,0,1-2.21,1.45,3.14,3.14,0,0,0-.37.18s-.07.06-.06.08a.13.13,0,0,0,.09.07,1.1,1.1,0,0,0,.26,0,5.35,5.35,0,0,0,1.7-.86c.19-.13.36-.27.54-.4a6.41,6.41,0,0,1-2.5,2.17c0-.06,0-.11,0-.16s.11-.26.16-.4,0-.07,0-.11-.1,0-.12,0a1.37,1.37,0,0,0-.22.19,1,1,0,0,0,0,1.23.52.52,0,0,1,.09.45,1.61,1.61,0,0,0,0,.69.57.57,0,0,1,0,.31,2.31,2.31,0,0,1-.19.28.72.72,0,0,0,0,.76.23.23,0,0,1,0,.18.92.92,0,0,0,0,.37,5.43,5.43,0,0,0,.17.53c.12.28.22.58.36.85a5,5,0,0,0,.41.61c.06.09.15.17.22.26a.3.3,0,0,1,.07.15A3.58,3.58,0,0,0,17,26.27c.08.13.16.26.23.39a.72.72,0,0,1,.09.57l-.15.47c-.1.34-.21.68-.31,1a3.33,3.33,0,0,0-.18,1.21c0,.49.08,1,.13,1.47a3.39,3.39,0,0,0,.13.72,7.7,7.7,0,0,0,.35,1c.11.29.23.57.35.85,0,.08.08.15.11.24a14.27,14.27,0,0,0,1,2,2.86,2.86,0,0,1,.39,1c0,.46,0,.91.08,1.37s.07,1.16.16,1.74a3.48,3.48,0,0,0,.78,1.75c.14.16.26.32.37.46-.26.46-.54.88-.78,1.33a9.81,9.81,0,0,1-1.12,1.77c-.19.24-.42.46-.63.69a2.27,2.27,0,0,0-.45.57.56.56,0,0,0-.05.25,1.73,1.73,0,0,0,.11.32c.28.74.55,1.48.83,2.21a10.6,10.6,0,0,1,.56,1.45.26.26,0,0,1-.08.3,2,2,0,0,0-.32.33,3.3,3.3,0,0,1-1.1.83c-.37.22-.75.42-1.1.66-.56.39-1.09.83-1.66,1.21-.77.5-1.58,1-2.36,1.44a6.08,6.08,0,0,0-1,.69,3,3,0,0,1-1,.64c-.74.31-1.5.6-2.23.93a11.89,11.89,0,0,0-1.26.7,8.08,8.08,0,0,0-1.74,1.34,1.12,1.12,0,0,1-.21.17.39.39,0,0,0-.23.37c0,.35,0,.71,0,1.07a3.24,3.24,0,0,0,.12,1c.06.17.15.27.32.26v-.22c0-.57,0-1.15,0-1.72a1.46,1.46,0,0,1,0-.2h0s0,0,0,0a17.67,17.67,0,0,1,.17,2.72c0,.37,0,.74,0,1.11s.11.33.35.4c0,0,.05,0,.07.05s-.14.11-.17.17a.88.88,0,0,0-.06.64.18.18,0,0,0,.19.14.17.17,0,0,0,.2-.12,1.43,1.43,0,0,0,.09-.41c0-.37-.07-.74-.1-1.1,0-.66-.08-1.33-.11-2,0-.22,0-.44,0-.67,0-.48,0-1,0-1.44,0-.13.08-.19.19-.25v.07a18.18,18.18,0,0,0,0,2.66c.05.71.14,1.41.19,2.11a5.5,5.5,0,0,0,.3,1.21.08.08,0,0,0,0,0c.06.09.12.13.23.08a.24.24,0,0,0,.17-.33,3.15,3.15,0,0,1-.09-.42C7.06,65.15,7,64.62,7,64.09s-.1-1.33-.11-2,0-1.47-.06-2.21c0-.11.06-.14.16-.18,0,.21,0,.41,0,.6s0,.57,0,.85c.07.73.16,1.45.24,2.18,0,.36,0,.74.1,1.1s.23,1,.36,1.47a5.27,5.27,0,0,0,.19.51.32.32,0,0,0,.32.18.26.26,0,0,0,.26-.17.51.51,0,0,0,0-.42c-.09-.25-.18-.5-.26-.75a11.27,11.27,0,0,1-.46-2.58c0-.53,0-1.06,0-1.59,0-.26,0-.52,0-.78s0-.64,0-1c0-.11,0-.15.17-.17,0,.14,0,.26,0,.39,0,.3,0,.61,0,.91,0,.83.13,1.66.21,2.48a15.56,15.56,0,0,0,.66,3c.07.21.14.23.33.12l.15.13a.11.11,0,0,0,.18-.07,3.23,3.23,0,0,0,.08-.68,18,18,0,0,1,0-2.08c0-.43,0-.87.09-1.29a5.07,5.07,0,0,0,.17-1.29.13.13,0,0,1,0-.06c0-.39.09-.79.12-1.18A6.25,6.25,0,0,1,10,58.35a.31.31,0,0,1,.16-.22l1.48-.89c.63-.4,1.24-.84,1.89-1.21s1.27-.65,1.9-1a5.33,5.33,0,0,0,.58-.31c.36-.24.7-.49,1.05-.73l.18-.09a3.75,3.75,0,0,1-.12.43s-.11,0-.17.07h0c-.26.15-.52.31-.79.45-.63.34-1.25.69-1.89,1a10.59,10.59,0,0,0-2,1.19c-.44.36-.95.63-1.43.95l-.74.46.1.13a1.29,1.29,0,0,0-.17.16.27.27,0,0,0,0,.11.3.3,0,0,0,.13,0,2.92,2.92,0,0,0,.44-.19l1.92-1.17c.88-.52,1.75-1,2.64-1.53.55-.31,1.13-.6,1.69-.9L17,55l0,0c0,.07,0,.18-.09.21-.28.17-.57.32-.86.48A55.09,55.09,0,0,0,10.84,59a2.09,2.09,0,0,0-.28.24s0,.08,0,.12.09,0,.12,0c.46-.25.93-.49,1.36-.78a11.55,11.55,0,0,1,1.4-.81c1.15-.55,2.3-1.13,3.41-1.76l.07,0a.32.32,0,0,1-.17.35c-1.19.67-2.37,1.36-3.57,2a15.5,15.5,0,0,0-2.07,1.33,1.34,1.34,0,0,0-.21.2.11.11,0,0,0,0,.11s.07,0,.1,0l.17-.07c.56-.31,1.11-.65,1.68-.93,1.29-.65,2.54-1.35,3.79-2.06l.14-.08c0,.21,0,.39-.23.46l-.06,0a13.94,13.94,0,0,1-2,1.13l-.21.11c-.82.46-1.64.92-2.46,1.4a4.92,4.92,0,0,0-.58.44c-.06,0-.15.12-.08.2s.14,0,.2,0c.63-.32,1.26-.64,1.88-1,.35-.18.68-.39,1-.59s.62-.4.94-.58.91-.45,1.37-.68l.07,0a2.23,2.23,0,0,1,0,.27.08.08,0,0,1,0,.07l-.42.24L15,59a4,4,0,0,0-.44.38.11.11,0,0,0,0,.11.14.14,0,0,0,.11,0,1.92,1.92,0,0,0,.37-.15l.69-.38.91-.46c0,.12,0,.2-.09.27l-1.13.77a1.54,1.54,0,0,0-.26.25.5.5,0,0,0,0,.13.36.36,0,0,0,.14,0,.85.85,0,0,0,.17-.06l.78-.44.34-.2c0,.38-.08.75-.09,1.12a13.52,13.52,0,0,0,.08,3c.06.33.15.66.24,1a.38.38,0,0,0,.15.18c.07.06.15,0,.15-.08a.33.33,0,0,0,0-.14c0-.12-.06-.25-.08-.37a.16.16,0,0,1,0-.12c.11-.18.23-.34.34-.52a.19.19,0,0,0,0-.1c0-.14-.06-.22-.19-.17a.94.94,0,0,0-.23.16s0,.06-.06.09l0,0c0-.1,0-.2,0-.3a.13.13,0,0,1,0-.1l.49-.57a.65.65,0,0,0,.09-.16c.05-.13,0-.21-.13-.16a.84.84,0,0,0-.31.19,1.79,1.79,0,0,0-.22.24v-.45a.12.12,0,0,1,0-.08l.77-.77a.49.49,0,0,0,.1-.15.13.13,0,0,0,0-.12.11.11,0,0,0-.12,0,2.64,2.64,0,0,0-.37.2c-.13.09-.26.2-.4.31a1.76,1.76,0,0,0,0-.23.34.34,0,0,1,.13-.27l.83-.74a.29.29,0,0,0,.05-.14c-.05,0-.11,0-.15,0l-.69.37-.13.08c0-.14,0-.25,0-.36a.37.37,0,0,1,.1-.17l.82-.68s0-.11.06-.17a.41.41,0,0,0-.18-.05,1.36,1.36,0,0,0-.25.11L17,59.4a1.77,1.77,0,0,1,0-.24A.26.26,0,0,1,17,59c.22-.15.45-.31.68-.45l.54-.3v1c0,.59,0,1.19,0,1.78s.09,1.33.15,2a6.17,6.17,0,0,0,.25,1.28s.06.1.09.16l.06,0a41.38,41.38,0,0,1,.48-11.44.33.33,0,0,1,0,.14c.05.64.11,1.29.15,1.94a3.68,3.68,0,0,1-.06.57,8.85,8.85,0,0,0-.12.88q-.06,1.59-.09,3.18c0,.64,0,1.29,0,1.93s.07,1.19.14,1.78a5.74,5.74,0,0,0,.26,1.36,25.68,25.68,0,0,0,1,2.44,4.09,4.09,0,0,0,.25.46.18.18,0,1,0,.33-.15l-.39-1.12a7.14,7.14,0,0,1-.5-1.75c-.06-.45-.1-.9-.18-1.35A11.87,11.87,0,0,1,20,61.23a.45.45,0,0,1,.07-.18h0a.26.26,0,0,1,0,.1,2.58,2.58,0,0,1,0,.38,27.69,27.69,0,0,0,.39,3.28A9,9,0,0,0,21.28,67a.91.91,0,0,0,.57.58c.11,0,.18,0,.15-.12a2.91,2.91,0,0,0-.12-.39c-.19-.5-.39-1-.57-1.51a8,8,0,0,1-.38-1.94c0-.57-.05-1.14-.08-1.71a.47.47,0,0,1,.06-.15s.08.08.08.13c0,.28.07.56.11.84.08.59.15,1.18.24,1.77a13.6,13.6,0,0,0,.78,2.57.3.3,0,0,0,0,.08l.08-.13a2.21,2.21,0,0,1,.23.73,3.79,3.79,0,0,0,.18-.42c.23-.6.44-1.2.69-1.79a12.19,12.19,0,0,1,.66-1.3,6.69,6.69,0,0,1,1.21-1.55,3.85,3.85,0,0,0,.27-.3.18.18,0,0,1,0,.24c-.13.18-.26.38-.37.57a7.53,7.53,0,0,0-1,2.74c-.06.46-.12.91-.17,1.37a.18.18,0,0,0,.18.21.19.19,0,0,0,.19-.2c0-.27.05-.54.07-.81a8.28,8.28,0,0,1,2.54-5A4.43,4.43,0,0,1,28,60.77a6.94,6.94,0,0,0,1.55-.9l.67-.64a.18.18,0,0,1,0,.24c-.2.27-.37.56-.55.84l-.09.11h0a.76.76,0,0,0-.08.11,18.9,18.9,0,0,1-2.25,2.72.55.55,0,0,0-.12.14s0,.08,0,.12.08,0,.11,0a1.63,1.63,0,0,0,.35-.23,11.93,11.93,0,0,0,1-.93c.37-.41.7-.89,1-1.31l.76-1,.09-.12a.29.29,0,0,1,0,.31c-.26.35-.5.72-.75,1.08l-.08.12,0,0c-.3.38-.59.78-.88,1.16,0,0,0,.09,0,.13s.11,0,.14,0,.26-.18.39-.29.26-.3.39-.43l.6-.67s0,.06,0,.09l-.45,1.07c0,.06-.09.13-.13.2a.45.45,0,0,1-.1.13,6.3,6.3,0,0,1-.53.37,11.48,11.48,0,0,0-1.66,1.2,3.61,3.61,0,0,0-1.16,1.8,1.69,1.69,0,0,1-.12.28,1.44,1.44,0,0,1,0-.42,6.62,6.62,0,0,1,.7-1.72,2,2,0,0,0,.1-.21l0,0a2.61,2.61,0,0,0-.23.24,6,6,0,0,0-.77,1.37,3.66,3.66,0,0,0-.25,1.18c0,.2.11.29.3.25a.43.43,0,0,1,.16,0c.14,0,.19-.07.24-.18.1-.27.22-.54.32-.81s.24-.33.17-.55c0,0,0,0,0,0l.29-.37a6.28,6.28,0,0,1,1.14-1c.36-.25.74-.49,1.11-.73a3,3,0,0,1-.12.43c0,.1-.08.15-.18.15a2.38,2.38,0,0,0-.37.06,1.52,1.52,0,0,0-.36.12.16.16,0,0,0-.06.23c.05.08.12.06.21,0a.94.94,0,0,1,.55-.06c0,.14,0,.14-.15.16l-.6.09a1.35,1.35,0,0,0-.6.29.16.16,0,0,0,0,.22c.07.08.14,0,.21,0a2.34,2.34,0,0,1,1-.28.13.13,0,0,1,0,0c0,.27,0,.27-.31.3a3.19,3.19,0,0,0-1.17.32.37.37,0,0,0-.24.3.16.16,0,0,0,.06.13.16.16,0,0,0,.15,0,1.86,1.86,0,0,1,.77-.32c.19,0,.39-.06.6-.1l0,.33H28.4a3.91,3.91,0,0,0-1.6.41.49.49,0,0,0-.19.16.23.23,0,0,0,0,.2c0,.07.12.06.2,0l.36-.14a5.42,5.42,0,0,1,1.44-.29l0,.19a4,4,0,0,0-.52.11,4.14,4.14,0,0,0-.59.21.14.14,0,0,0-.09.2c0,.1.13.1.21.08l.82-.19a.46.46,0,0,0,.42-.45c0-.21.07-.42.11-.63A9.11,9.11,0,0,1,29.58,64a1.23,1.23,0,0,1,.05-.13c.23-.59.46-1.19.7-1.77A23.48,23.48,0,0,1,32,58.7a16.19,16.19,0,0,0,1.09-2.21A15.74,15.74,0,0,1,33.71,55a17,17,0,0,0,1.56-3.82,14.38,14.38,0,0,0,.47-2.35c0-.51.07-1,.13-1.53s.18-1.16.28-1.73a2,2,0,0,1,.14-.49,1.33,1.33,0,0,1,.46-.54l1.3-1a20.09,20.09,0,0,0,2.83-2.7,6.71,6.71,0,0,0,.81-1.11,5.66,5.66,0,0,0,.63-2.17c0-.13,0-.25,0-.37h.05a.81.81,0,0,1,.07.22,4.67,4.67,0,0,1-.09,1.12,5.85,5.85,0,0,1-.94,2.19A6.84,6.84,0,0,1,40.52,42c-.2.19-.39.4-.59.6a14.87,14.87,0,0,1-1.78,1.59c-.38.3-.77.57-1.14.87a.81.81,0,0,0-.38.61c0,.39-.05.79-.09,1.18a9.37,9.37,0,0,1-.36,2.41,0,0,0,0,0,0,0c-.1.44-.18.89-.29,1.32s-.32,1-.47,1.58-.24.89-.35,1.34a.45.45,0,0,0,0,.16s.11,0,.13-.09c.1-.2.2-.39.28-.59.22-.6.43-1.2.65-1.81,0,0,0-.1.06-.1s.2,0,.3,0a1.2,1.2,0,0,1-.06.4,4.31,4.31,0,0,0-.4,1,2.33,2.33,0,0,1-.37.78,1.55,1.55,0,0,0-.29.59c-.12.35-.25.7-.39,1a.57.57,0,0,1-.45.35c.05-.23.2-.44.12-.7a.78.78,0,0,0-.16.2c-.3.58-.59,1.16-.88,1.74s-.7,1.31-1,2c-.25.49-.48,1-.73,1.48a16.48,16.48,0,0,0-1.06,2.2c-.31.9-.64,1.8-.86,2.72-.06.26-.1.52-.17.77a1.63,1.63,0,0,0,.08.76s0,0,0,0a.86.86,0,0,0,.39-.65c0-.08.05-.17.08-.26.33-.69.66-1.39,1-2.08.25-.5.49-1,.78-1.5.4-.66.82-1.31,1.25-2a24.58,24.58,0,0,0,3-5.9,24.84,24.84,0,0,0,1.14-3.48c.23-.82.41-1.66.61-2.5a6.89,6.89,0,0,0,.24-1.43,1,1,0,0,1,.11-.42,4.74,4.74,0,0,1,.71-1.07c.42-.47.8-1,1.22-1.47a31.35,31.35,0,0,0,2.42-3.21c.09-.14.17-.26.36-.22h0c.1,0,.18-.08.19-.19a.2.2,0,0,0-.13-.22l-.1,0,.2-.49a.55.55,0,0,0,.5,0,.27.27,0,0,0,.13-.19.16.16,0,0,0-.13-.2c-.12,0-.24,0-.37-.05l.08-.44c.17.17.29.19.61.1a4.27,4.27,0,0,1-.15.64c-.17.41-.35.81-.55,1.2a14,14,0,0,1-1.36,2,30.33,30.33,0,0,1-2.27,2.66,2.05,2.05,0,0,0-.53.9c0,.06,0,.13,0,.2l-.18,1c0,.1,0,.19-.07.29a1.47,1.47,0,0,0-.1.22l-.38,1.52c-.26,1.06-.53,2.13-.79,3.19a7,7,0,0,0-.28,1.43c0,.1,0,.17.12.19s0,0,.08.07a.91.91,0,0,0,.78.47,1.94,1.94,0,0,0,.34,0c.63-.12,1.27-.23,1.89-.38a19.64,19.64,0,0,1,5.62-.45,14.59,14.59,0,0,0,1.62,0c.34,0,.68,0,1-.07.06,0,.11,0,.12.08a6.18,6.18,0,0,1,.12.62A6.85,6.85,0,0,1,49.14,56c0,.18-.06.36-.09.56l-.11-.06a.49.49,0,0,0-.44,0,.2.2,0,0,0-.08.14.16.16,0,0,0,.1.11.78.78,0,0,1,.36.31.23.23,0,0,1,0,.16c-.07.29-.13.59-.22.88s-.22.64-.34,1a.79.79,0,0,0-.57,0,.87.87,0,0,0-.21.17.17.17,0,0,0,0,.14s.08,0,.12,0,.22,0,.33,0,.14,0,.09.16L47.38,61l-.31.56a2.38,2.38,0,0,0-.29-.13.36.36,0,0,0-.46.16.28.28,0,0,0,0,.18.17.17,0,0,0,.14.05c.16,0,.24,0,.34.16a9.34,9.34,0,0,0-1.14,2,1.82,1.82,0,0,0-.19-.1,1.28,1.28,0,0,0-.33-.06.2.2,0,0,0-.2.19.22.22,0,0,0,.14.22l.3.16a.08.08,0,0,1,0,.13c-.26.57-.45,1.16-.76,1.7a.12.12,0,0,1-.15.08,1.26,1.26,0,0,0-.39,0,.18.18,0,0,0-.11.15s.08.09.13.11a2.33,2.33,0,0,0,.25.07.1.1,0,0,1,0,.1c0,.2-.09.39-.15.59a4.21,4.21,0,0,0-.37,1.39A.21.21,0,0,0,44,69s.1,0,.15,0l.08,0c.21,0,.26,0,.37-.17,0,0,0-.06.07-.06s.2-.11.23-.25S45,68,45,67.8a23.55,23.55,0,0,1,1.68-4l1.22-2.31c.26-.47.48-1,.78-1.41.82-1.23,1.67-2.44,2.53-3.64a15.68,15.68,0,0,1,1.82-2.08,1.22,1.22,0,0,0,.15-.17.12.12,0,0,1,.19,0,.18.18,0,0,1,0,.16.79.79,0,0,1-.14.18,3.86,3.86,0,0,0-.38.44,10.12,10.12,0,0,1-1,1.17,9.48,9.48,0,0,0-.79.89c-.42.55-.81,1.13-1.2,1.7A17.33,17.33,0,0,0,48.49,61c-.41.87-.88,1.72-1.31,2.58a29.34,29.34,0,0,0-1.55,3.55c-.16.45-.31.9-.46,1.34,0,.1,0,.18.11.18a.65.65,0,0,0,.2,0l.1,0a1.27,1.27,0,0,0,.23-.12c.06,0,.09-.12.19-.09s.09,0,.11-.08a1.63,1.63,0,0,0,.11-.23l.7-1.81a23.39,23.39,0,0,1,1-2.31c.36-.68.7-1.36,1.08-2,.24-.43.52-.83.79-1.25s.61-1,1-1.52c1-1.4,2.13-2.78,3.2-4.17.07-.1.15-.23.32-.15a.45.45,0,0,0,.11,0s0,.1-.06.11-.21.24-.31.37L53,56.6a31.3,31.3,0,0,0-3,4.37c-.39.67-.74,1.37-1.12,2.05a21.57,21.57,0,0,0-1.3,2.75c-.3.76-.56,1.53-.84,2.3,0,0,0,0,0,.07l.15-.09.1.12s.06.12.1.12a.22.22,0,0,0,.17-.07c.07-.09.12-.19.18-.28l.11.08,0-.07c.13-.31.24-.62.37-.92l1-2.24a35.49,35.49,0,0,1,2.55-4.59q1-1.48,2.1-2.91c.25-.33.5-.66.77-1s.52-.57.77-.86c.11-.13.18-.16.25-.1s0,.14-.07.26c-.36.43-.74.85-1.08,1.29s-.76,1-1.13,1.57c-.5.72-1,1.44-1.5,2.18s-.8,1.34-1.17,2c-.49.93-1,1.86-1.44,2.82a20.59,20.59,0,0,0-.73,2,.26.26,0,0,0,0,.21.52.52,0,0,0,.18.21.26.26,0,0,0,.21,0,.41.41,0,0,0,.16-.16,6,6,0,0,0,.26-.58,18.61,18.61,0,0,1,1.31-2.74c.37-.63.75-1.25,1.13-1.87l1-1.72a7.64,7.64,0,0,1,.87-1.31c.15-.17.3-.34.43-.52a16.7,16.7,0,0,1,1.88-2.4l.11-.11c.07-.06.14-.12.23,0s0,.15,0,.22c-.29.37-.57.75-.88,1.1A20.41,20.41,0,0,0,52.86,61C52,62.5,51.13,64,50.3,65.58a17.33,17.33,0,0,0-.74,1.65,1.64,1.64,0,0,0-.09.5.16.16,0,0,0,.13.19.18.18,0,0,0,.21-.09c.08-.13.17-.25.24-.39.35-.67.68-1.34,1-2q1.15-2.11,2.46-4.13c.64-1,1.29-2,2-2.92a13.67,13.67,0,0,0,1.19-1.61l.26.13a8.36,8.36,0,0,1-.71,1.14c-.53.65-1.06,1.31-1.55,2S53.92,61.32,53.5,62a11.73,11.73,0,0,0-.79,1.38c-.22.47-.45.93-.69,1.39a5.05,5.05,0,0,0-.43,1.2.42.42,0,0,0,0,.18s.1-.07.13-.12a3.54,3.54,0,0,0,.19-.33c.42-.76.81-1.52,1.26-2.26.92-1.5,1.95-2.93,3-4.36l.92-1.2a3.87,3.87,0,0,0,.21-.34s.08,0,.12-.07l0,0c-.05.09-.1.19-.14.28a2.67,2.67,0,0,1-.14.34c-.54.82-1.1,1.64-1.64,2.46-.28.44-.54.89-.81,1.34a.68.68,0,0,0-.07.2.09.09,0,0,0,0,.09s.07,0,.1,0l.13-.13c.49-.66,1-1.32,1.46-2s.72-1.07,1.09-1.6c.2-.3.41-.58.62-.87A.38.38,0,0,0,58,57.07ZM9,61.73c0,.28-.05.57-.07.85,0,.07,0,.14,0,.21h0c0-.28-.05-.56-.07-.84-.07-.74-.15-1.48-.22-2.22,0-.27,0-.55,0-.82,0,0,.05-.1.08-.15h.05c0,.11,0,.22,0,.33,0,.48.07,1,.12,1.45a5,5,0,0,0,.11.56A1.62,1.62,0,0,1,9,61.73Zm.26-2c0-.14,0-.27-.05-.41s-.06-.45-.08-.67a.45.45,0,0,1,0-.11s.09,0,.09.08A1.83,1.83,0,0,1,9.22,59.75Zm9.06-2s-.08.09-.13.12l-.55.27a1.06,1.06,0,0,0-.45.39.25.25,0,0,1-.12.1c0-.18,0-.36.07-.54a.08.08,0,0,1,0-.06,5.07,5.07,0,0,0,.91-.59c.09,0,.16-.12.27-.19A3.9,3.9,0,0,1,18.28,57.7Zm.08-1.05a.18.18,0,0,1-.07.08l-1.08.69-.06,0c0-.19.05-.38.08-.56,0,0,0-.05.06-.07l1.08-.75h0C18.39,56.26,18.38,56.45,18.36,56.65Zm.11-1.07s0,0,0,.05a4.11,4.11,0,0,0-1.06.64h0l.06-.43a.13.13,0,0,1,.06-.1l1.09-.61C18.52,55.27,18.5,55.42,18.47,55.58Zm.13-1s0,0-.05.06c-.33.18-.66.36-1,.55h-.05c0-.19,0-.37.25-.47s.57-.3.87-.46A2.61,2.61,0,0,1,18.6,54.62Zm.15-.93a.16.16,0,0,1-.06.08l-.91.5h-.05q.06-.24.12-.45a.1.1,0,0,1,0,0l.91-.54C18.79,53.4,18.77,53.55,18.75,53.69Zm0-.9a5.61,5.61,0,0,0-.54.29,1,1,0,0,1,.69-.54A.21.21,0,0,1,18.77,52.79Zm19.91-8.22-.77.65-.61.49a.49.49,0,0,0-.11.14s0,.13,0,.16.11.05.16,0l.37-.19.16-.1,0,0a2.49,2.49,0,0,1-.15.28,3.5,3.5,0,0,1-.3.24c-.07.05-.15.08-.23.13a.7.7,0,0,0-.16.13.18.18,0,0,0,0,.25.2.2,0,0,0,.26,0l.26-.15s.08,0,.12,0a.27.27,0,0,1,0,.13,1.2,1.2,0,0,1-.23.22.83.83,0,0,0-.33.54c-.11.62-.23,1.25-.34,1.87-.05.25-.07.51-.1.77s-.07.3-.35.36a4.17,4.17,0,0,0,.1-.6,10,10,0,0,1,.23-1.33,1.53,1.53,0,0,0,0-.37v-.13c.08-.47.16-.93.22-1.4S37,46,37,45.68a.37.37,0,0,1,.09-.2c.19-.17.39-.34.59-.49s.65-.47,1-.71l.09.2A.34.34,0,0,1,38.68,44.57Zm7.09-20.16a1.23,1.23,0,0,1-.78.06,3.57,3.57,0,0,1-1.78-1l-.12-.12A.31.31,0,0,1,43,23a.33.33,0,0,1,.27.14A3.2,3.2,0,0,0,45,24.22a2.11,2.11,0,0,0,.75.05.7.7,0,0,1,.14,0S45.81,24.4,45.77,24.41Zm.51-.71a2.29,2.29,0,0,1-.73.17,3,3,0,0,1-1.62-.55.85.85,0,0,1-.21-.25.45.45,0,0,1,.42.08,2.18,2.18,0,0,0,1.25.46c.22,0,.44,0,.66,0a1.05,1.05,0,0,1,.24.06Zm.57-.95a1.72,1.72,0,0,1-2,.27A8.87,8.87,0,0,0,46.85,22.75Zm0-2.78a1,1,0,0,1-.86.65l-.08-.17ZM45.4,14.11a5.27,5.27,0,0,0,.69,0,.44.44,0,0,1,.15,0l-.15.14a1.6,1.6,0,0,1-.86.35c-.14,0-.29,0-.43,0a1.45,1.45,0,0,0-.36,0,.43.43,0,0,0-.18.06.15.15,0,0,0-.09.19c0,.08.1.09.17.09h.54A.3.3,0,0,1,45,15a1.26,1.26,0,0,0,.69.11v0l-.53.05a6.12,6.12,0,0,1-2.29-.25,2.06,2.06,0,0,1-.44-.23v0l.25-.05c.41-.13.82-.27,1.24-.38A3.59,3.59,0,0,1,45.4,14.11Zm-3.18.32L42,14.21h.68ZM44.48,11a1.38,1.38,0,0,1,.39-.18c-.15.08-.29.17-.43.26a1.81,1.81,0,0,0-.63.79.88.88,0,0,1-.39.48.35.35,0,0,0-.13.11c0,.05,0,.13,0,.17a.23.23,0,0,0,.16.08.74.74,0,0,0,.56-.33,3.42,3.42,0,0,0,.33-.59.72.72,0,0,1,.3-.36c-.11.22-.22.46-.34.69a1.37,1.37,0,0,1-1.21.77,2.5,2.5,0,0,0-.38.06c-.07,0-.13.08-.2.1a.64.64,0,0,1-.23.05c-.12,0-.23,0-.35,0s-.21,0-.22.13.07.14.15.18a2.87,2.87,0,0,0,1.59.11.15.15,0,0,1,.11,0,1.49,1.49,0,0,1-.14.12,3,3,0,0,1-1.28.28,3,3,0,0,0-.41,0l-1.12-1.29.47.16a1.86,1.86,0,0,0,1.39-.06,3.45,3.45,0,0,0,1.33-1.06A2.75,2.75,0,0,1,44.48,11ZM42.29,7.71a1.13,1.13,0,0,1-.52.47l0,0ZM26.88,5.81a1.59,1.59,0,0,1-.74,1.06A1.9,1.9,0,0,1,26.88,5.81ZM18.11,14.9l.48.14-1.51.9,0,0,.15-.2c.16-.18.32-.35.47-.53a.3.3,0,0,0,.05-.16.37.37,0,0,0-.18,0,4.81,4.81,0,0,0-.44.27c.07-.1.11-.17.16-.23a.43.43,0,0,0,.05-.45.33.33,0,0,0,0-.06.22.22,0,0,1-.11-.24,2.7,2.7,0,0,1,.07-.41.13.13,0,0,1,.1,0c.1,0,.17-.08.17-.2s0-.15,0-.22a.76.76,0,0,1,.32-.6,6.09,6.09,0,0,0,.55-.46.48.48,0,0,0,.16-.36.67.67,0,0,1,0-.24,4.45,4.45,0,0,1,.76-1.38s0,0,0-.05h0v0a1.54,1.54,0,0,0,.2,1.09,3.81,3.81,0,0,0,.31.56c.22.26.48.49.72.73a.52.52,0,0,1,.11.1,2.58,2.58,0,0,1-1-.63,2.32,2.32,0,0,1-.6-1,.25.25,0,0,0-.1.28,1.88,1.88,0,0,0,.73,1.3,3.17,3.17,0,0,0,.92.55,1.87,1.87,0,0,1-1.05-.19,1.11,1.11,0,0,1-.53-.37.31.31,0,0,0-.16-.12.33.33,0,0,0-.17,0s0,.12,0,.16a2.46,2.46,0,0,0,.72.68c.14.1.3.19.48.3l-.61-.07-.68-.14a.86.86,0,0,0-.16,0,.32.32,0,0,0,.06.17.77.77,0,0,0,.25.14c.25.1.51.19.76.27a.58.58,0,0,1-.14,0,4.45,4.45,0,0,1-.73,0c-.24,0-.48-.1-.71-.14a.59.59,0,0,0-.19,0c0,.06,0,.14.05.19a.72.72,0,0,0,.45.26l.92.13-.16,0a3.44,3.44,0,0,1-1,.1l-.1,0S18.09,14.89,18.11,14.9Zm-2.2,4a9.32,9.32,0,0,0,1.62-1.18.75.75,0,0,1,.15-.09l0,0a5.79,5.79,0,0,1-.48.51c-.25.23-.52.43-.79.64-.09.07-.16.16-.26.23a.33.33,0,0,1-.2.09.27.27,0,0,1-.17-.11C15.77,18.93,15.85,18.91,15.91,18.87Zm1.67-.66A7.41,7.41,0,0,1,16,20a1.56,1.56,0,0,1,.4-.76c.29-.28.6-.54.9-.81Zm-.86,5.9c0,.06,0,.13-.08.2s-.12-.06.1-.32A1,1,0,0,1,16.72,24.11Zm-.29-.19h0l-.17-.31a.08.08,0,0,1,0-.08c.25-.28.5-.55.77-.83C16.94,23.18,16.58,23.5,16.43,23.92ZM17,21.49a4,4,0,0,0-.66.83.92.92,0,0,0-.09.28.55.55,0,0,0,0,.18h0a1.88,1.88,0,0,0,.12-.18A1.29,1.29,0,0,1,17,22a6.58,6.58,0,0,1-.91,1.19c-.06-.2-.1-.38-.16-.56s-.07-.12-.09-.19a1.42,1.42,0,0,1-.08-.4,1.11,1.11,0,0,0,0-.48.49.49,0,0,1,0-.21s0-.05,0-.07a1,1,0,0,1,.35-.75c.18-.2.37-.39.55-.58l.71-.75a2,2,0,0,1-.11.39,4,4,0,0,1-.81,1.07,2.22,2.22,0,0,0-.28.33,1.81,1.81,0,0,0,.59-.29c.19-.12.37-.26.57-.39,0,.23-.16.34-.31.46s-.42.3-.61.47A1.06,1.06,0,0,0,16,22a.7.7,0,0,0,.06.17.71.71,0,0,0,.14-.1,1.78,1.78,0,0,1,.58-.61c.18-.11.35-.26.55-.41,0,.05,0,.08,0,.09A1.88,1.88,0,0,1,17,21.49Zm3.42,22.43a1.64,1.64,0,0,0,.38,0c0,.22-.05.22-.23.19s-.22,0-.34,0S20.26,43.9,20.38,43.92Zm1,5.73h0a1.3,1.3,0,0,1-.08-.17c-.24-.61-.47-1.23-.72-1.83-.13-.32-.3-.63-.45-.94l0,0c-.05-.11,0-.22,0-.26s.18,0,.24.1.22.42.31.64a11.19,11.19,0,0,1,.71,2.26A.87.87,0,0,1,21.42,49.65Zm.27,3.48a4,4,0,0,1,0,.5h0c-.05-.17-.1-.35-.14-.53-.25-1-.48-2-.76-2.93a13.45,13.45,0,0,0-1.17-2.7c-.1-.17-.09-.27,0-.33s.19,0,.29.16a13.77,13.77,0,0,1,1.39,3.61C21.46,51.65,21.57,52.39,21.69,53.13Zm-.43-5.71a2.12,2.12,0,0,1-.15-.21L20.51,46a.36.36,0,0,1,0-.18s.05-.11.09-.12a.18.18,0,0,1,.15.06.48.48,0,0,1,.08.16c.17.43.33.85.49,1.27C21.34,47.31,21.33,47.31,21.26,47.42Zm-.05-2c0,.09-.14.1-.18,0s-.16-.35-.23-.52a.14.14,0,0,1,.09-.19c.09,0,.17,0,.2.08s.11.31.16.44A1.08,1.08,0,0,1,21.21,45.47Zm-.32-2.07-.24,0,0,0c.06-.18.07-.19.26-.16l.27,0C21.08,43.43,21.08,43.43,20.89,43.4ZM23,64.87a1.57,1.57,0,0,1-.07-.18,9.38,9.38,0,0,1-.35-2c-.06-.52,0-1.06-.08-1.58a13.27,13.27,0,0,0-.26-2.28,1.63,1.63,0,0,0-.11-.31h-.05a1,1,0,0,0,0,.14c0,.33,0,.66,0,1,0,.82,0,1.65,0,2.48a10.84,10.84,0,0,0,.5,3.35.42.42,0,0,0,0,.1.58.58,0,0,1,0,.57,2.92,2.92,0,0,0-.13.42h0l-.21-.7c-.11-.36-.24-.71-.33-1.07a9.06,9.06,0,0,1-.16-1.8c0-.76,0-1.51-.07-2.26a.11.11,0,0,0-.06-.09,4.92,4.92,0,0,1-.45-.28,4.07,4.07,0,0,1-1.32-1.59c-.05-.14-.09-.29-.13-.43l.05,0a4.69,4.69,0,0,0,1.88,2l0,0-.06-.85a2.63,2.63,0,0,1-.38-.2,2.91,2.91,0,0,1-.9-1l-.06-.19a4.91,4.91,0,0,0,1.27,1l-.12-.81a1.23,1.23,0,0,1-.82-.56.37.37,0,0,1-.05-.11s0-.06,0-.1l.08,0,.26.2.44.23.05,0c0-.23-.07-.45-.1-.68l-.07,0c-.14,0-.29-.09-.43-.15a.13.13,0,0,1-.09-.19.15.15,0,0,1,.19-.06l.35.1c-.06-.36-.12-.69-.18-1s0-.24-.29-.25a.52.52,0,0,1-.22-.07,1,1,0,0,1-.5-.78s0-.07,0-.11a.46.46,0,0,1,.1.05l.44.4a.11.11,0,0,0,.15,0c.13-.09.26-.17.38-.27s0-.08,0-.11c-.11-.44-.22-.89-.34-1.32-.23-.82-.46-1.64-.7-2.45a8.64,8.64,0,0,0-.84-2,8.36,8.36,0,0,1-.39-.86,4.14,4.14,0,0,0-.54-1,1.13,1.13,0,0,1-.12-.18.23.23,0,0,1,0-.3,2.75,2.75,0,0,1,.22-.26,7.27,7.27,0,0,0,1.27-1.69.29.29,0,0,1,.29-.18l.38,0a.69.69,0,0,1-.07.13l-1.2,1.92a1.68,1.68,0,0,0-.16.33.57.57,0,0,0,.06.51,25.3,25.3,0,0,1,1.14,2.62,15.7,15.7,0,0,1,.53,1.55,21.48,21.48,0,0,1,.6,2.52c.05.28.08.56.11.85l.21,1.75a1.51,1.51,0,0,0,.22.71,1.23,1.23,0,0,1,.12.26.2.2,0,0,0,.24.14c.14,0,.21,0,.24.17.09.45.2.9.28,1.36a5.51,5.51,0,0,1,.06.71,21.49,21.49,0,0,1,0,2.27,6.8,6.8,0,0,0,.25,2A.83.83,0,0,1,23,64.87Zm.18-16.81a7.73,7.73,0,0,0-.45-1.63c-.19-.44-.4-.86-.61-1.29A.7.7,0,0,0,22,45c-.05-.06-.06-.16,0-.17s.22-.17.25-.35c.1.16.19.29.26.43.28.56.57,1.11.82,1.69a7,7,0,0,1,.29,1c.17.82.36,1.63.53,2.44.2,1,.39,2,.61,3,.09.42.23.82.35,1.23,0,0,0,.07,0,.1a.86.86,0,0,0,.19.76l-.59.25c-.06-.27-.13-.52-.19-.78-.1-.45-.19-.9-.28-1.36s-.23-1.1-.36-1.65-.26-1.13-.4-1.7a.59.59,0,0,1,0-.13c0-.09-.06-.16-.17-.15s-.12.11-.11.19a5.79,5.79,0,0,0,.07.6c.18,1,.36,2,.55,3,0,.08,0,.16,0,.28a1.45,1.45,0,0,1-.21-.15c-.25-.22-.5-.43-.74-.66a1.06,1.06,0,0,1-.15-.28l0,0,.29.2a.7.7,0,0,0,.27.11c.12,0,.18,0,.12-.16a3.11,3.11,0,0,0-.29-.33,5.85,5.85,0,0,0-.47-.4.3.3,0,0,1-.12-.28,2.48,2.48,0,0,0,.32.17.47.47,0,0,0,.2,0c0-.06,0-.15-.05-.19a3.22,3.22,0,0,0-.39-.43.74.74,0,0,1-.26-.58l.18.12a2.21,2.21,0,0,0,.27.12.14.14,0,0,0,.12,0,.15.15,0,0,0,0-.13.69.69,0,0,0-.11-.13c-.13-.13-.26-.26-.4-.38a.43.43,0,0,1-.15-.42l.23.16c.08.05.16.1.25,0s0-.19,0-.26-.28-.3-.43-.44a.32.32,0,0,1-.14-.25c0-.09,0-.18,0-.3l.26.24a.94.94,0,0,0,.18.12.21.21,0,0,0,.16,0,.14.14,0,0,0,0-.15,3,3,0,0,0-.32-.4,1.16,1.16,0,0,0-.2-.18.4.4,0,0,1-.16-.42,1.08,1.08,0,0,0,.24.12.21.21,0,0,0,.19,0s0-.14,0-.18a2.25,2.25,0,0,0-.34-.41A.48.48,0,0,1,22,47h0c.06,0,.14.12.2,0a.22.22,0,0,0,0-.21,2.39,2.39,0,0,0-.21-.34c-.07-.1-.14-.19-.2-.29s0-.1,0-.15a.66.66,0,0,1,.15,0,.67.67,0,0,1,.12.16A10.42,10.42,0,0,1,23,48.23l0,.06A.18.18,0,0,0,23.18,48.06Zm2.3,4.53a.66.66,0,0,1-.12.17s-.07,0-.09,0,0-.06-.06-.1a1.48,1.48,0,0,1,.13-.21s.09,0,.13,0A.57.57,0,0,1,25.48,52.59Zm.23.1h.07s0,.07,0,.1a.37.37,0,0,1-.07.12l-.22.41a.6.6,0,0,1-.08.08s-.07-.06-.08-.09A.71.71,0,0,1,25.71,52.69ZM23.3,56.06a1.21,1.21,0,0,0,.41.46c.17.11.18.16,0,.32l-.22-.16s-.07-.08-.11-.1-.15,0-.19,0-.08.14-.05.18a3.19,3.19,0,0,0,.31.44c0,.06.11.1.08.19s0,.09,0,.1a.15.15,0,0,1-.11,0l-.26-.26a.55.55,0,0,1-.13-.51c.06-.52.09-1,.12-1.57a3.73,3.73,0,0,0,0-.46s0,0,0-.08l.57.37.33.18c.2.09.22.12.24.38l-.48-.24a.65.65,0,0,0-.17-.08.15.15,0,0,0-.13,0,.13.13,0,0,0,0,.13,1.68,1.68,0,0,0,.3.39c.15.13.33.21.49.33s.06.1.08.16-.1,0-.14,0-.34-.16-.5-.24a1.89,1.89,0,0,0-.21-.09s-.12,0-.14,0A.19.19,0,0,0,23.3,56.06Zm-.51-2.63.2.15a2.67,2.67,0,0,0,.84.51c.06,0,.1.1.12.16a1.59,1.59,0,0,1,.06.3A2.4,2.4,0,0,1,22.79,53.43Zm.61,4.66a.65.65,0,0,1,.12.37c0,.1-.11,0-.16,0a.56.56,0,0,1-.23-.49C23.22,58,23.35,58,23.4,58.09Zm6.73.42a1.57,1.57,0,0,1-.08.31h0c0-.13-.06-.25-.1-.38s-.06-.07-.08-.11-.09.07-.1.11c0,.21,0,.42,0,.63a.22.22,0,0,1-.11.23l-.11.1c0-.22-.08-.43-.11-.64s0-.5-.06-.75c0,0,0-.09-.06-.14s-.08.07-.1.11a1.84,1.84,0,0,0-.14.84c0,.27.05.55.07.82a.1.1,0,0,1,0,.1,1,1,0,0,1-.17.12,4,4,0,0,1-.09-.54c0-.45,0-.9-.05-1.35,0,0,0,0,0,0l-.06-.17c-.05,0-.11.08-.13.14a2.86,2.86,0,0,0-.14,1.3s0,.08,0,.12a1.84,1.84,0,0,0,.14.79l-.39.22c0-.1,0-.18,0-.26a9.43,9.43,0,0,1,0-1.68c0-.26,0-.52,0-.79a.77.77,0,0,0,0-.15l0,0a.91.91,0,0,0-.11.22A5.94,5.94,0,0,0,27.69,59a6,6,0,0,0,.09,1.41c0,.06,0,.1-.06.13l-.25.14a8.28,8.28,0,0,1,.18-3.77l-.06,0a1.57,1.57,0,0,0-.14.25A5.63,5.63,0,0,0,27,58.83c0,.16,0,.32-.07.48a3.83,3.83,0,0,0,.13,1.35c0,.07.08.12.13.19l-.49.41a17.64,17.64,0,0,1-.06-2.51,11,11,0,0,1,.57-2.4l0,0a1.57,1.57,0,0,0-.17.21,6,6,0,0,0-.64,1.78,7.11,7.11,0,0,0-.11,1.78,2.41,2.41,0,0,1,0,.38,3.72,3.72,0,0,0,.11,1.05.12.12,0,0,1,0,.08l-.49.53-.09-.48c0-.18-.07-.35-.11-.53s0-.07-.08-.11-.08.07-.09.1a3.56,3.56,0,0,0-.06.44c0,.17,0,.34,0,.51a.18.18,0,0,1,0,.11c-.1.08-.21.15-.33.23a1.51,1.51,0,0,1,.09-.6.62.62,0,0,0,0-.53.22.22,0,0,0-.23-.17c-.1,0-.17.1-.18.24l-.09.69a.52.52,0,0,0,.24.54l-.42.51-.14-.18a.39.39,0,0,0-.32-.15c-.14,0-.23.08-.22.21a1.16,1.16,0,0,0,.13.37,1.46,1.46,0,0,0,.21.23l-.14.21a1.68,1.68,0,0,1-.32-.34,4.06,4.06,0,0,1-.27-.6.24.24,0,0,1,.06-.19c.07-.08.16-.15.23-.22s0-.37,0-.56a.17.17,0,0,1,0-.07c.09-.19,0-.32-.11-.47a2,2,0,0,1-.26-.88,1.38,1.38,0,0,1,0-.67l0-.09c.09-.24.13-.27.39-.24h.08c0-.11,0-.21,0-.31a.35.35,0,0,1,.06-.17.15.15,0,0,1,.12-.05s.07.06.09.11.06.21.1.32a.23.23,0,0,0,.28.13.24.24,0,0,0,.22-.25.19.19,0,0,1,.09-.17.7.7,0,0,0,.14-.21.13.13,0,0,0,0-.12.13.13,0,0,0-.11,0,1.68,1.68,0,0,1-.37.06c-.26,0-.37-.2-.45-.42a.6.6,0,0,1,.14-.6l.17.1a.44.44,0,0,0,.15,0s.09,0,.13,0a.36.36,0,0,0,0-.11l-.22-.26a.38.38,0,0,1,0-.44c.1-.19.2-.38.45-.39a.18.18,0,0,1,.11,0,.88.88,0,0,0,.63.41c-.05.23-.1.45-.14.67a7.83,7.83,0,0,0-.09,1.87c0,.22,0,.44,0,.66a.2.2,0,0,0,0,.11.23.23,0,0,0,.07.1s.08-.07.08-.11c0-.25.08-.51.1-.77s0-.71.05-1.07A5.5,5.5,0,0,1,26,56.87a8,8,0,0,1,1-1.8,5.85,5.85,0,0,1,2.32-2l.1,0,.07,0c-.14.12-.25.21-.36.32A4.23,4.23,0,0,0,27.91,55a4.41,4.41,0,0,0-.16.72s0,.1.05.16.09-.07.11-.12a5.87,5.87,0,0,1,1.28-2c.12-.12.26-.22.39-.33a8.17,8.17,0,0,1,.7-.5,2.23,2.23,0,0,1,1.07-.26c.07,0,.13,0,.23.08l-.22.08a4.06,4.06,0,0,0-1.45,1.08l-.33.37c-.12.16-.24.39-.35.55a3.94,3.94,0,0,0-.57,1.43.3.3,0,0,0,0,.13.73.73,0,0,0,.09-.08l.68-1.18c0-.06.09-.18.13-.23l.22-.27A5.22,5.22,0,0,1,31,53.43a3.73,3.73,0,0,1,.64-.3c.11-.05.13,0,.15.09A3.59,3.59,0,0,0,30,54.76a4.2,4.2,0,0,0-.3.6s0,.11,0,.17a.48.48,0,0,0,.14-.09,6.74,6.74,0,0,1,.93-1.13c.25-.21.54-.38.81-.57a1.3,1.3,0,0,1,.23-.1l-.06.28c-.15-.05-.24,0-.34.1a2,2,0,0,0-.79.85l0,0c0,.07,0,.17,0,.2s.13,0,.19-.07l.51-.48a.71.71,0,0,1,.23-.12l-.17.3a8.48,8.48,0,0,0-.91,2A9.45,9.45,0,0,0,30.13,58.51Zm1.38.16h0c0-.14,0-.28,0-.42,0-.39,0-.78.05-1.16,0-.12.13-.22.19-.33l0,0c0,.32,0,.63-.05.95a.3.3,0,0,0,.19.34Zm1-2.06c-.13.28-.25.57-.38.85h0c0-.12,0-.24,0-.37l-.06-.46a.28.28,0,0,1,.14-.31l.22-.15c0,.16,0,.29.13.38S32.55,56.59,32.55,56.61Zm4.94-13.76a22.32,22.32,0,0,1-2.55,2.09c-.45.3-.94.55-1.41.82l-.6.35s0,0-.06,0,0,.09,0,.14.1.06.14,0c.26-.1.53-.19.79-.32.45-.22.91-.46,1.35-.7.2-.11.38-.25.56-.37l.44-.3h.1a.15.15,0,0,1,0,.1,1.53,1.53,0,0,0-.41.59.3.3,0,0,1-.13.12,15.8,15.8,0,0,1-1.89,1.14c-.44.21-.87.45-1.33.62a14.46,14.46,0,0,1-1.46.44L29.58,48a2.44,2.44,0,0,0-.87.23.37.37,0,0,0,.22.08c.21,0,.43,0,.65,0a7.53,7.53,0,0,0,1.57-.31c.29-.09.58-.16.87-.23a5.79,5.79,0,0,0,1.38-.53c.52-.28,1.06-.54,1.58-.83.23-.12.45-.27.68-.41l0,0s0,.1-.08.14c-.31.29-.62.6-1,.88a7.33,7.33,0,0,1-2.14,1.22,10.47,10.47,0,0,1-2.06.49l-.87.1c-.31,0-.62.1-.93.14a.88.88,0,0,0-.22.1v.06a5.43,5.43,0,0,0,1.14,0,8.86,8.86,0,0,0,5.91-2.29l0,0-.06.55,0,0c-.26.22-.52.45-.79.65a7.68,7.68,0,0,1-2.19,1l-.35.14s-.05,0-.07.08,0,0,.08,0a2.17,2.17,0,0,0,.36,0,7.75,7.75,0,0,0,2.66-1.09,1,1,0,0,1,.27-.16s0,.11,0,.15a2.07,2.07,0,0,1-.67.68c-.27.16-.5.39-.77.56s-.8.45-1.19.69a8.27,8.27,0,0,0-.69.46s0,.06-.05.09.08,0,.11,0l.24-.1,1-.41-.19.5a.94.94,0,0,1-.06.24.36.36,0,0,1-.13.12c-.09-.08-.15-.17-.22-.19s-.18.06-.24.15a2.39,2.39,0,0,1-.13.21.16.16,0,0,1-.09.07,6.32,6.32,0,0,1-2.44.32l-.23,0a1.28,1.28,0,0,0-.39,0s-.1,0-.11.06,0,.08.07.09a2,2,0,0,0,.43.13,5.29,5.29,0,0,0,.56,0,7.3,7.3,0,0,0,4.17-1.25l.67-.44,0,0a1.15,1.15,0,0,1-.12.25,5.22,5.22,0,0,1-1.71,1.19c-.17.08-.35.14-.52.23s-.09.09-.14.13l-.09.08a1.75,1.75,0,0,0,.6-.06,7.76,7.76,0,0,0,1.38-.62l.26-.15.16-.06a4.11,4.11,0,0,0-.18.38c-.08.21-.13.42-.2.62a.28.28,0,0,1-.08.11,1.6,1.6,0,0,0-.23.16s0,.09-.08.13l.14.07h.13a1.25,1.25,0,0,1-.17.2l-.82.49c-.07,0-.18.08-.15.19s.15.09.23.06l.58-.21c-.1.16-.12.33-.29.44-.34.21-.66.45-1,.67a.2.2,0,0,0,0,.08.49.49,0,0,0,.11,0l.58-.21a.5.5,0,0,1,.13,0c-.19.29-.26.63-.59.84a9.81,9.81,0,0,0-1.21.91,3,3,0,0,0-.53.65,1.72,1.72,0,0,0-.16.45.25.25,0,0,0,0,.12s0,.08,0,.12c0,.38,0,.76-.05,1.14a.58.58,0,0,0,.13.45.08.08,0,0,1,0,.07c-.11.21-.22.41-.35.62,0-.21-.07-.41-.11-.62a5.2,5.2,0,0,1,.39-3c.16-.41.35-.81.55-1.21a4.38,4.38,0,0,0,.54-1.73,1.58,1.58,0,0,1,.07-.34,4.42,4.42,0,0,0,1.93-.73l.09-.1h-.22c-.37.1-.73.21-1.1.29a6,6,0,0,1-.84.11.23.23,0,0,1-.28-.18.36.36,0,0,0-.25-.15,4.43,4.43,0,0,0-.63,0,4.23,4.23,0,0,1-.62.11,6.35,6.35,0,0,1-.75,0,6.8,6.8,0,0,1-2.51-.78l-.6-.33s-.08,0-.12,0,0,.1,0,.12a5.27,5.27,0,0,0,.58.48,7.07,7.07,0,0,0,2.05.78l.25.06,0,0h-.16a4.5,4.5,0,0,1-1.55-.25l-.68-.18a.61.61,0,0,0-.14,0s0,.1.08.12a4.32,4.32,0,0,0,1.55.6l.1,0-.08.07a7.15,7.15,0,0,0-2.64,3.12c-.05.11-.1.22-.14.33a.26.26,0,0,1-.38.14.68.68,0,0,1-.38-.62.4.4,0,0,0,0-.11c-.06-.16.05-.2.16-.25s.43-.17.64-.27a.22.22,0,0,0,.09-.36l-.17-.19a.42.42,0,0,1,0-.59.43.43,0,0,1,.4-.05l.15.05a.23.23,0,0,0-.07-.07L26,54.1a.44.44,0,0,1-.14-.69.58.58,0,0,1,.54-.3.92.92,0,0,1,.37.09,1.29,1.29,0,0,0,.75.12l.09,0s0-.08,0-.09a1.73,1.73,0,0,0-.28-.19,6,6,0,0,1-1.78-1.2s0,0-.07-.06-.21-.31-.29-.48l.21.15,1,.72a.53.53,0,0,0,.17.08.11.11,0,0,0,.11,0s0-.08,0-.11c-.18-.19-.34-.39-.53-.56s-.56-.46-.85-.67a5.5,5.5,0,0,0-.48-.28s-.1-.07-.11-.12c-.05-.26-.1-.52-.15-.8l.05,0a5.77,5.77,0,0,0,1.62,1l.54.25a.38.38,0,0,0,.18,0,.24.24,0,0,0,.13-.09s0-.09-.06-.11c-.27-.16-.52-.33-.79-.47A7.26,7.26,0,0,1,24.38,49a1.3,1.3,0,0,1-.1-.15l0,0,.12.05.68.4a4.61,4.61,0,0,0,1.35.47l.71.13a.65.65,0,0,0,.24,0s.06-.05.06-.08,0,0-.06-.06l-1.07-.32a3.91,3.91,0,0,1-1.12-.51,9,9,0,0,0-.85-.5.38.38,0,0,1-.24-.43l.49.28a4.17,4.17,0,0,0,2,.63l.54,0,.11,0a1,1,0,0,0,.1-.11.37.37,0,0,0-.12-.07c-.39-.08-.78-.12-1.16-.22a4.14,4.14,0,0,1-.82-.33c-.41-.22-.8-.47-1.2-.71-.11-.07-.11-.09-.11-.23.16.08.31.17.48.24l.72.22a.37.37,0,0,0,.18,0,.18.18,0,0,0,.12-.1.16.16,0,0,0-.06-.14,2.07,2.07,0,0,0-.34-.15,4.19,4.19,0,0,1-1.24-.69,1.62,1.62,0,0,1-.27-.44l0,0,.1.07a5.38,5.38,0,0,0,3.06,1,2.2,2.2,0,0,0,.36,0,.67.67,0,0,0,.12-.06v0l-.15,0a6.55,6.55,0,0,1-1.9-.43,5.84,5.84,0,0,1-1.85-1.16,1.41,1.41,0,0,1-.37-.57l.34.26A4.85,4.85,0,0,0,25,46a3.47,3.47,0,0,0,1.57.06,1.2,1.2,0,0,0,.54-.24v0l-.35,0-1.18-.07a2.77,2.77,0,0,1-1.09-.3,5.81,5.81,0,0,1-1.3-.9l.12.05a7.32,7.32,0,0,0,2.32.74,3.07,3.07,0,0,0,1.28,0l.06,0,.06-.07s-.05,0-.07,0c-.39-.05-.78-.08-1.16-.16s-.92-.23-1.38-.35v0a1.55,1.55,0,0,1,.31,0,6.26,6.26,0,0,0,2.62.15L29,44.49a5.23,5.23,0,0,0,.54-.12c.8-.25,1.6-.5,2.38-.77a8.6,8.6,0,0,0,3-1.76l.14-.16,0,0a.76.76,0,0,0-.21.08c-.28.16-.56.32-.83.49a11.66,11.66,0,0,1-3.2,1.38l-.76.23c.35-.15.69-.27,1-.43.55-.27,1.11-.55,1.65-.85.25-.14.47-.33.71-.49a1.08,1.08,0,0,1,.26-.14,13,13,0,0,0,2.43-1.12l1-.59.1,0-.3.27c-.71.61-1.41,1.24-2.14,1.84a15.42,15.42,0,0,1-3.13,2l-2,.91-.18.08-.16,0-1.22.31a1.85,1.85,0,0,0-.26.12.46.46,0,0,0,.38.08c.42-.09.85-.17,1.26-.3l.94-.33A17,17,0,0,0,36,41.87a27.59,27.59,0,0,0,2.16-2,23,23,0,0,0,2.37-3l.16-.23,0,0a.7.7,0,0,1,0,.14,7.33,7.33,0,0,1-.84,1.36A19.4,19.4,0,0,1,37.32,41l-1.23,1.14a3.17,3.17,0,0,0-.28.34l0,0,.15-.05a2.74,2.74,0,0,0,.36-.23,23.55,23.55,0,0,0,2-1.7,12.63,12.63,0,0,0,1.84-2.35l.06-.1,0,0c-.09.17-.18.34-.28.51a11.48,11.48,0,0,1-1.14,1.73,15.42,15.42,0,0,1-3,2.73c-1.16.79-2.32,1.6-3.52,2.32a7.55,7.55,0,0,1-2.24.82H30l-.13.09c.05,0,.09.09.13.09a6.68,6.68,0,0,0,.91-.09,7.16,7.16,0,0,0,2.25-1c.92-.59,1.84-1.18,2.75-1.79.48-.32.92-.7,1.38-1.06a11.59,11.59,0,0,0,3.18-4,4.78,4.78,0,0,0,.52-1.3c.15.35.15.28,0,.74a5.89,5.89,0,0,1-.54,1.17,16.28,16.28,0,0,1-1.65,2.32A15.58,15.58,0,0,1,37.49,42.85Zm-3.15,6.83.6-.44,0,0c0,.13-.06.27-.1.4a.62.62,0,0,1-.44.53C34.44,50,34.59,49.82,34.34,49.68Zm-.67.43.48-.28a5.27,5.27,0,0,1-.27.71c-.06.12-.23.18-.37.29C33.57,50.57,33.75,50.37,33.67,50.11ZM40.39,34.2a.86.86,0,0,1,.24.83C40.36,34.8,40.41,34.49,40.39,34.2ZM41.17,39c-.12.27-.24.53-.37.79s-.25.49-.39.72A2.55,2.55,0,0,1,40,41c-.62.65-1.24,1.28-1.86,1.91l-.08.07,0,0c.28-.32.57-.64.83-1s.54-.7.8-1,.51-.7.76-1.06.47-.72.71-1.08h0A.41.41,0,0,1,41.17,39Zm.8-3.74s-.09,0-.12-.08a1,1,0,0,1-.15-.24.13.13,0,0,1,0-.12.27.27,0,0,1,.12,0,.38.38,0,0,1,.23.37A.37.37,0,0,1,42,35.23Zm.29-1.89a1,1,0,0,1-.67-.63,2,2,0,0,0-.27-.39l.37-.53a4.87,4.87,0,0,1-.54-.18c-.23-.08-.45-.19-.68-.28a3.19,3.19,0,0,0-.33-.11l-.39-.12a1,1,0,0,1-.18-.08l0,0a2,2,0,0,0,.2.22,2.27,2.27,0,0,0,.88.5,1,1,0,0,0,.6-.07.5.5,0,0,1-.44.37s-.08,0-.11,0a2.48,2.48,0,0,0-.38,0,.13.13,0,0,0-.09.1s0,.09.09.1a.78.78,0,0,1,.58.59,3.66,3.66,0,0,0,.12.35c-.18-.17-.35-.34-.53-.49a3.57,3.57,0,0,0-.38-.25.35.35,0,0,0-.14,0c-.08,0-.11.07-.06.14a.52.52,0,0,0,.1.11,2.73,2.73,0,0,1,.83,1.1,3.08,3.08,0,0,1,.17.68.15.15,0,0,1,0,.12l-.06-.12c0-.1-.12-.19-.17-.28a1,1,0,0,1-.07-.15,3.61,3.61,0,0,0-.22-.44,6.28,6.28,0,0,0-.38-.52,1,1,0,0,0-.2-.15.08.08,0,0,0-.07,0s0,0,0,.08l.06.12a2.72,2.72,0,0,1,.23,1.59,4.34,4.34,0,0,1-.06.62.82.82,0,0,1-.1.24h0a1.45,1.45,0,0,1,0-.29c0-.29,0-.58,0-.86a4.38,4.38,0,0,0-.35-1.6,2,2,0,0,0-.3-.47,8.28,8.28,0,0,1,.2,2.72,1.12,1.12,0,0,0-.15-.11,1.28,1.28,0,0,0-.29-.14s-.1,0-.15.05,0,.11.07.13a.75.75,0,0,1,.38.44c0,.12.08.25.12.38s.15.48.25.71.14.2.21.33a3.62,3.62,0,0,1-.32-.22,1.16,1.16,0,0,1-.36-.61.93.93,0,0,0-.34-.48c-.11-.09-.21-.2-.31-.29s-.06,0-.08,0a.18.18,0,0,0-.05.08,1.2,1.2,0,0,0,.11.23c.13.19.31.36.42.56a1.61,1.61,0,0,1,0,1.82c0,.07-.09.15-.14.21a1.22,1.22,0,0,1-.17.15l0,0a.42.42,0,0,1,0-.1,2.08,2.08,0,0,0-.18-2.06,6.07,6.07,0,0,1-.31-.69,3.65,3.65,0,0,1-.3-1.6,1.1,1.1,0,0,0,0-.26c0-.13-.08-.14-.18-.05a.75.75,0,0,0-.18.43,2.54,2.54,0,0,0,.22,1.28,9.51,9.51,0,0,0,.46.9,2.63,2.63,0,0,1,.32,1,2.48,2.48,0,0,1,0,.46,3.47,3.47,0,0,0-.27-.59,6.77,6.77,0,0,0-.49-.6c-.06-.07-.14-.1-.21,0s0,.12,0,.18.19.29.29.43a.59.59,0,0,1,.14.48c0,.22,0,.44-.06.67s0,.21,0,.32h0a.5.5,0,0,1,0-.12c0-.27,0-.53,0-.8,0-.1,0-.23-.13-.24s-.17.11-.19.21c0,.28-.07.56-.1.85a2.32,2.32,0,0,0,0,.91.13.13,0,0,1,0,.06,1.48,1.48,0,0,1-.23.36,5.18,5.18,0,0,1-.67.57,4.76,4.76,0,0,1-1.12.58c-.3.13-.58.29-.88.43a4.78,4.78,0,0,1-.48.19l-1,.32a1.51,1.51,0,0,1-.37.07c.25-.13.5-.26.76-.38a17.57,17.57,0,0,0,2.31-1.31c.19-.14.37-.3.56-.45l.15-.09.07,0c.22-.31.54-.56.59-1,0-.17,0-.27-.11-.3s-.17,0-.23.2-.17.42-.27.62a.42.42,0,0,1-.17.18,10.39,10.39,0,0,1-1.79,1.13l-1.13.53c-.38.17-.76.32-1.14.48-.22.1-.43.21-.65.3a2.73,2.73,0,0,1-.41.1.27.27,0,0,0-.24.2.24.24,0,0,1-.1.1l-1.1.49c-.27.11-.55.25-.83.35-.44.17-.88.33-1.33.47a4.6,4.6,0,0,1-.74.14c-.24,0-.47.1-.71.12s-.73,0-1.09.08a5.48,5.48,0,0,1-1.46-.12A4.36,4.36,0,0,1,21.88,43a5.16,5.16,0,0,1-1.05-.79c-.24-.26-.46-.54-.67-.81S20,41.1,19.93,41a1.47,1.47,0,0,1-.24-.72c0-.39-.05-.79-.07-1.18a11.81,11.81,0,0,0-.12-1.46,12,12,0,0,0-.39-1.42.18.18,0,0,0-.05-.07,5.65,5.65,0,0,1-.31-.66,2.28,2.28,0,0,0-.32-.71A3.36,3.36,0,0,1,18,34c0-.05,0-.1-.05-.17.4.41.62.93,1,1.33,0,0,0,0,0-.06a6.29,6.29,0,0,0-.41-.92c-.18-.31-.44-.58-.65-.88a2.14,2.14,0,0,1-.26-.43c-.13-.35-.23-.71-.34-1.07a1.76,1.76,0,0,1-.12-.39,5.66,5.66,0,0,1,0-2,4.91,4.91,0,0,1,.17-.76s0,0,0-.06a5.16,5.16,0,0,1,.2-.67,1.93,1.93,0,0,0,.21-1.18l.34.27c.08.05.17.09.25,0s0-.16,0-.23a3.82,3.82,0,0,0-.27-.32,3.35,3.35,0,0,1-.82-1.29A2.33,2.33,0,0,1,17.17,24c.08-.37.14-.74.22-1.11,0-.13.05-.25.08-.37a2,2,0,0,0,.13-.36c0-.35.07-.7.08-1a5.69,5.69,0,0,1,.17-1.54,2.88,2.88,0,0,0,.13-.65,6.28,6.28,0,0,1,.29-1.3A7.17,7.17,0,0,1,19,16.06a.28.28,0,0,1,.12-.12c.17-.12.36-.21.53-.33a1.82,1.82,0,0,0,.29-.27s0-.12-.06-.12h-.36c.07-.09.13-.19.21-.28a2.85,2.85,0,0,1,.68-.66c.17-.1.33-.22.49-.33l.4-.21a.55.55,0,0,0,.15-.08c.12-.08.23-.18.35-.27a.2.2,0,0,0,0-.36,5.54,5.54,0,0,1-1.06-.73,2.49,2.49,0,0,1-.93-1.55.87.87,0,0,1,.06-.64c0,.24.08.49.14.75a.5.5,0,0,0,.12.21.11.11,0,0,0,.11,0,.13.13,0,0,0,.06-.11s0-.07,0-.1c0-.25-.08-.51-.09-.76a1.29,1.29,0,0,1,.16-.57.49.49,0,0,1,0,.12,1.61,1.61,0,0,0,.44,1.1.39.39,0,0,0,.13.06.71.71,0,0,0,0-.14c0-.14-.1-.27-.14-.4a1.81,1.81,0,0,1,0-1.15,3.26,3.26,0,0,0,.27,1,1.9,1.9,0,0,0,.64.82c.05,0,.1.09.16,0-.11-.19-.22-.37-.31-.56a2.8,2.8,0,0,1-.32-1.58,1.15,1.15,0,0,1,.29-.69c0,.15,0,.29,0,.42a2.19,2.19,0,0,0,.15,1s.08,0,.12.08a.33.33,0,0,0,.07-.13,2.11,2.11,0,0,0,0-.25,1.71,1.71,0,0,0,0-.32,1.28,1.28,0,0,1,0-.55,1.39,1.39,0,0,1,.48-.6c-.09.35-.2.73-.29,1.12a1.5,1.5,0,0,0,.24,1.23s.09.06.14.09a.45.45,0,0,0,0-.16A3.35,3.35,0,0,1,22.72,8a1.13,1.13,0,0,1,.4-.49l.15-.09a.25.25,0,0,1,0,.12c-.13.29-.28.58-.4.88A1.5,1.5,0,0,0,23,9.9s.08,0,.11,0,.05-.06.05-.09a1.29,1.29,0,0,0,0-.19,2.3,2.3,0,0,1,0-1A3.22,3.22,0,0,1,24.26,7c0,.16,0,.25-.16.34a1.44,1.44,0,0,0-.53.77,1.19,1.19,0,0,0,0,.5c0,.13.16.16.25.05a.68.68,0,0,0,.1-.21c.06-.25.26-.4.37-.62l0,0L25,7.4a.83.83,0,0,0,.44-.62c0-.12,0-.23,0-.35a.37.37,0,0,1,.09-.21c.19-.13.4-.24.6-.36l0,0c-.12.17-.23.34-.36.51a.64.64,0,0,0-.13.49.53.53,0,0,1-.1.42A4.65,4.65,0,0,0,24.79,9c0,.11,0,.23,0,.34l.05,0a1.31,1.31,0,0,0,.12-.11A.61.61,0,0,0,25,9.07a2.92,2.92,0,0,1,.76-1.32L26.6,7a5.85,5.85,0,0,0,.9-1,2,2,0,0,1,1-.65c-.07.08-.15.14-.22.22A13.22,13.22,0,0,1,27,6.82a5.21,5.21,0,0,0-.69.72A6.61,6.61,0,0,0,25.18,10c0,.15-.05.31-.09.49l-.23-.82h0l0,.07a.53.53,0,0,0,0,.12,2.51,2.51,0,0,0,.33,1.54c.2.32.42.63.63.94a2.09,2.09,0,0,0,.24.28.3.3,0,0,0,.39,0,3.34,3.34,0,0,1-.75-1.32,2.71,2.71,0,0,1,0-2A6.06,6.06,0,0,1,27.32,7c.46-.37.91-.76,1.37-1.14.1-.08.21-.14.34-.23a1.54,1.54,0,0,1-.53.67c-.28.23-.58.44-.86.67a.77.77,0,0,0-.21.23c-.16.27-.31.56-.47.84s-.15.32,0,.47a1.8,1.8,0,0,0,.51-.68A2.15,2.15,0,0,1,28.19,7c.26-.17.48-.39.72-.58L29,6.35c.21-.22.41-.48.61-.69l.23-.19c.16-.14.33-.27.5-.4l0,0L29.58,6c-.11.11-.22.26-.33.36l-.37.33a.5.5,0,0,1-.07.08s.1.06.13,0a1.34,1.34,0,0,0,.31-.17,1.81,1.81,0,0,0,.33-.29c.25-.25.51-.5.74-.76A2.32,2.32,0,0,1,31,5a.33.33,0,0,1-.11.34,4.13,4.13,0,0,0-.32.49s0,.09,0,.13.11,0,.14,0l.86-.68a2.67,2.67,0,0,1,1.32-.55H33l-.83.44a4.5,4.5,0,0,0-1,.74c-.06.07-.16.14-.1.26s0,.06,0,.08a4,4,0,0,0-.4.86A3.66,3.66,0,0,1,30,8.3a2.93,2.93,0,0,1-.43.34,4.21,4.21,0,0,0-1,.78A3.21,3.21,0,0,0,27.92,11a2.09,2.09,0,0,0,.37,1.69.35.35,0,0,0,.1.11c.06,0,.11,0,.11-.07a.45.45,0,0,0,0-.11,6.4,6.4,0,0,1-.2-.62,2.61,2.61,0,0,1,.17-1.63A2.32,2.32,0,0,1,29.58,9a2.28,2.28,0,0,0,1-.92c.22-.42.4-.86.63-1.27a3.39,3.39,0,0,1,1.46-1.42l.7-.33,0,0-.17.1a5.13,5.13,0,0,0-1.68,1.63,3.7,3.7,0,0,0-.4.91,2.59,2.59,0,0,1-.57.92s0,.08-.07.12l.13,0c.12,0,.2,0,.28-.12a3.15,3.15,0,0,0,.59-1l0-.1a3,3,0,0,1,1.07-1.5A5.76,5.76,0,0,1,34.64,5l.17,0h.24a1.33,1.33,0,0,1-.21.09,6.3,6.3,0,0,0-2.05,1.19,3.68,3.68,0,0,0-.79,1l-.18.35s0,0,0,0v.21L32,7.79a2,2,0,0,0,.65-.89.41.41,0,0,1,.07-.11A6.54,6.54,0,0,1,35.62,5a1.17,1.17,0,0,1,.64,0L36,5.06a5,5,0,0,0-1.21.39,4.22,4.22,0,0,0-1.16.89,10.1,10.1,0,0,0-.76.84c-.27.31-.5.66-.79,1a9,9,0,0,1-.82.68A2.08,2.08,0,0,1,31,9c-.07,0-.18,0-.15.14s.12.08.2.07a1.79,1.79,0,0,0,.86-.4A6.89,6.89,0,0,0,33,7.53a5.54,5.54,0,0,1,2.42-1.94,1.93,1.93,0,0,1,.41-.12.37.37,0,0,1,.18,0c.09,0,.1.08,0,.14a.51.51,0,0,1-.13.09c-.21.11-.42.2-.61.31s-.39.26-.58.39a.2.2,0,0,0-.08.1.27.27,0,0,0,0,.2.2.2,0,0,0,.17,0c.11,0,.21-.12.32-.17a6.28,6.28,0,0,1,1.78-.67H37L36.71,6a.35.35,0,0,0-.15.11s-.07.14,0,.18a.2.2,0,0,0,.17.06A2,2,0,0,0,37,6.26a5.51,5.51,0,0,1,1.67-.16v0l-.35,0-.78.06a2.19,2.19,0,0,0-.95.41.36.36,0,0,0,0,.11s.08,0,.12,0a3.94,3.94,0,0,1,.68-.25c.44-.08.89-.12,1.34-.16s1-.08,1.51-.12h.19v0l-.29.1a10.08,10.08,0,0,1-1.73.2,2.61,2.61,0,0,0-2,1,6,6,0,0,0-.59.89,1.29,1.29,0,0,0-.1.35,3.57,3.57,0,0,1-.86,1.48.63.63,0,0,0-.11.12.42.42,0,0,0,0,.13s.11,0,.14,0a2.93,2.93,0,0,0,.43-.34,4.28,4.28,0,0,0,.85-1.46,2.83,2.83,0,0,1,.3-.69A2.42,2.42,0,0,1,38.18,7a12.11,12.11,0,0,1,1.35-.14s0,0,0,0l-.21,0a6.44,6.44,0,0,0-1.44.35,2.39,2.39,0,0,0-1.38,1.21,7.22,7.22,0,0,0-.33.81,3.73,3.73,0,0,1-.63,1.18.74.74,0,0,0-.13.21c0,.12,0,.19.15.15a.65.65,0,0,0,.23-.13,1.71,1.71,0,0,0,.46-.7c.11-.27.19-.55.28-.83,0-.1.08-.19.1-.28a1.9,1.9,0,0,1,.78-.94.15.15,0,0,1,.11,0l-.3.43A1.8,1.8,0,0,0,37,9c0,.1-.05.2-.08.3a3.62,3.62,0,0,0-.13.47A2,2,0,0,0,37.36,9c.1-.2.19-.39.28-.59a1.34,1.34,0,0,1,.84-.64l-.32.29a1.23,1.23,0,0,0-.34.62c0,.06,0,.14,0,.21A.59.59,0,0,0,38,8.86l.28-.22a1.75,1.75,0,0,1,1-.39,4,4,0,0,0,2.19-.66l.08,0-.05.06a3,3,0,0,1-1,.64,3,3,0,0,1-.88.12,2.32,2.32,0,0,0-1.72,1c-.12.15-.22.31-.34.45a2.88,2.88,0,0,1-.33.28l-.06.1s.08.05.11,0a2.19,2.19,0,0,0,.41-.26,3.16,3.16,0,0,0,.38-.43A2.47,2.47,0,0,1,39,8.82a2.13,2.13,0,0,1,.87-.1,3.57,3.57,0,0,0-.77.61v0a.36.36,0,0,0,.15,0l.56-.27A7.68,7.68,0,0,1,42,8.35a2.31,2.31,0,0,1,.37,0s.1,0,.15.07a.64.64,0,0,1-.13.1c-.27.06-.54.11-.81.18a4.31,4.31,0,0,0-1.37.56s0,0-.06,0L40,9.43c.05,0,.12,0,.16,0s.19-.08.29-.12h.1v0l-.2.07a5.22,5.22,0,0,1-1.24.23,3,3,0,0,0-.5.1.93.93,0,0,0-.19.11l0,0a.2.2,0,0,0,.11,0c.53,0,1.07,0,1.6-.1A5.43,5.43,0,0,0,41,9.59c.34-.1.68-.21,1-.29a3.93,3.93,0,0,1,1.49,0v0L43,9.39a8.3,8.3,0,0,0-.87,0,4.1,4.1,0,0,0-.77.26c-.07,0-.12.09-.18.14a.15.15,0,0,0,0,.11s.07.06.1.05a1.1,1.1,0,0,0,.26-.06,3.39,3.39,0,0,1,1.81-.15,1.57,1.57,0,0,1,.29.08v0H43a3.2,3.2,0,0,0-1.26.16c-.52.18-1.06.32-1.59.48a1.54,1.54,0,0,1-.64-.07,4.92,4.92,0,0,0-1.32-.12,5.12,5.12,0,0,0-1.39.38,1.27,1.27,0,0,0-.53.47s0,.09,0,.13.1,0,.12,0a2.62,2.62,0,0,1,1.41-.57,4.58,4.58,0,0,1,1.65.08,3.35,3.35,0,0,0,2.23-.41,1.33,1.33,0,0,1,.21-.09l0,0a1.42,1.42,0,0,1-.12.13,1.59,1.59,0,0,1-.21.15,1,1,0,0,0-.09.13c.05,0,.11,0,.15,0a2,2,0,0,0,.34-.14c.08,0,.15-.11.24-.15l.49-.17a.27.27,0,0,1,0,.08,6.12,6.12,0,0,1-.64.5,2.2,2.2,0,0,1-1,.36,3.33,3.33,0,0,1-.94-.18,2,2,0,0,0-.23-.07.27.27,0,0,0-.12,0s0,.08.06.09a2.35,2.35,0,0,0,1.45.42,2.56,2.56,0,0,0,1.26-.45,3.29,3.29,0,0,0,.76-.57l.14-.16,0,0a.35.35,0,0,1,0,.11,2.53,2.53,0,0,1-1.68,1.25,2.83,2.83,0,0,1-1.81-.32A4.6,4.6,0,0,0,38.54,11a3,3,0,0,0-.9-.05,1.06,1.06,0,0,0-.52.22s0,.05,0,.08l.09,0h0a2,2,0,0,1,1.24,0,4.71,4.71,0,0,1,1.4.51,3.34,3.34,0,0,0,1.87.38,1.83,1.83,0,0,0,1.16-.42c.34-.29.65-.62,1-.93l.08-.09.08.13c-.33.35-.65.72-1,1.07a2.36,2.36,0,0,1-1.17.61,1.45,1.45,0,0,1-.51,0c-.25,0-.49-.09-.74-.14a.38.38,0,0,0-.12.05,1.43,1.43,0,0,0-.8-.41l.08.08a2.4,2.4,0,0,1,.68.63c.16.2.32.4.47.61.28.37.55.75.83,1.13a2.5,2.5,0,0,0,1.71,1,9.4,9.4,0,0,0,1.4.09.92.92,0,0,1,.29,0c-.21,0-.42.09-.63.11-.41,0-.81.07-1.22.09a1.54,1.54,0,0,1-.3,0,.62.62,0,0,0-.19,0c-.05,0-.14.07-.14.12a.18.18,0,0,0,.1.15,3.82,3.82,0,0,0,.66.12c.37,0,.74,0,1.1,0a.91.91,0,0,1,.3.11v0a2.65,2.65,0,0,1-.49.09,3.62,3.62,0,0,1-1.68-.28l-.08,0s-.11,0-.12,0,0,.11,0,.14a.69.69,0,0,0,.24.21,5.76,5.76,0,0,0,.73.27,3.65,3.65,0,0,0,2,0,1.83,1.83,0,0,0,1-.64l.07-.08,0,0c-.1.13-.2.27-.32.4a2.69,2.69,0,0,1-1.46.76,8.7,8.7,0,0,1-.87.13.78.78,0,0,1-.26,0,9.09,9.09,0,0,1-2-.64l-.2-.06,0,0a1.13,1.13,0,0,0,.1.13,3,3,0,0,0,1,.65,6,6,0,0,0,1.37.4l.07,0h0a4.23,4.23,0,0,1-1.9-.27,4.29,4.29,0,0,1-2.35-1.94.26.26,0,0,0-.05-.09l-.18-.1c0,.07-.09.14-.09.21a.84.84,0,0,0,.08.3,3.27,3.27,0,0,0,1,1.21,5.35,5.35,0,0,0,2.16,1c.29.06.57.15.86.21a2.93,2.93,0,0,0,1.41-.06l.29-.07v0a.83.83,0,0,1-.16.09,2.5,2.5,0,0,1-1.68.17l-1.61-.35h-.17l0,0a.58.58,0,0,0,.17.14c.28.12.57.25.87.35A4.66,4.66,0,0,0,43.8,19a5.35,5.35,0,0,0,1.54-.16,1.52,1.52,0,0,1,.21,0v0l-.13.09a3.09,3.09,0,0,1-1.64.26c-.32,0-.63-.12-.94-.14a2.69,2.69,0,0,1-.57-.07l-.57-.17-.5-.13a.3.3,0,0,0,.17.3,1.82,1.82,0,0,0,.45.2l1.43.34c.15,0,.3,0,.45.06l.15.05s-.07.05-.1.05a3.43,3.43,0,0,1-.64,0c-.38-.07-.75-.17-1.12-.27a4.59,4.59,0,0,1-.48-.17.31.31,0,0,0-.12-.05l-.2,0c0,.07,0,.14,0,.21s0,0,.08.06a4.14,4.14,0,0,0,1.49.52,7.46,7.46,0,0,0,.93.14c.44,0,.87,0,1.3-.05.16,0,.32,0,.47-.06h.19v0c-.2,0-.4.11-.6.14l-1.19.19a1.79,1.79,0,0,1-.73,0,11.55,11.55,0,0,1-2.57-.91l-.12,0,0,0a1,1,0,0,0,.12.16,4,4,0,0,0,1.33.78,8.51,8.51,0,0,0,1.56.4,3.62,3.62,0,0,0,1.23-.09,4.76,4.76,0,0,1,.66-.08c-.06.06-.11.12-.17.17a1.7,1.7,0,0,1-.81.3,3.8,3.8,0,0,1-1.61,0,3.93,3.93,0,0,1-1.52-.68c-.27-.2-.5-.46-.76-.69a1.25,1.25,0,0,0-.34-.19.18.18,0,0,0-.13,0,.13.13,0,0,0,0,.13,15.74,15.74,0,0,0,1.18,1.13,3.5,3.5,0,0,0,1.23.56,5.13,5.13,0,0,0,2.55.07,1,1,0,0,0,.46-.21.74.74,0,0,1,.46-.17c.09,0,.18-.05.27-.06a3.58,3.58,0,0,1-1.95.79,6.51,6.51,0,0,1-2.55-.45,2.85,2.85,0,0,1-1-.62,2.92,2.92,0,0,0-.28-.21l-.05,0a1,1,0,0,0,.07.18,2,2,0,0,0,.65.64,5.78,5.78,0,0,0,1.31.61,5.14,5.14,0,0,0,1.64.28c.27,0,.54,0,.81,0A2.25,2.25,0,0,0,46,21.69l.19-.16a.1.1,0,0,1,.09,0,.12.12,0,0,1,0,.08.45.45,0,0,1-.09.21c-.06.08-.16.12-.23.2a1.64,1.64,0,0,1-.8.4,6.77,6.77,0,0,1-.89.21,2.73,2.73,0,0,1-.5.05A4.23,4.23,0,0,1,42,22.27a15.2,15.2,0,0,1-1.67-.94,4.44,4.44,0,0,1-1.25-1.23s0-.09-.09-.11a.85.85,0,0,0-.17-.06c0,.06,0,.12,0,.17a4.16,4.16,0,0,0,.24.47c.13.23.28.46.43.68a6.67,6.67,0,0,0,1.3,1.3,6,6,0,0,0,1.56.92,1.68,1.68,0,0,0,.32.09,1.34,1.34,0,0,0-.48-.52,1.94,1.94,0,0,1-.27-.23l0,0,.49.13a.38.38,0,0,1,.11.11,7.37,7.37,0,0,1,.48.66,2.46,2.46,0,0,0,.43.48s.07.12,0,.15-.11,0-.17,0L42.91,24s0,0,0-.05-.13-.18-.24-.21a3.33,3.33,0,0,1-1.06-.36,10.72,10.72,0,0,1-1.86-1.27,3.81,3.81,0,0,1-.5-.64c-.28-.46-.52-.93-.78-1.39a2.9,2.9,0,0,0-.19-.29.45.45,0,0,0-.14-.06.8.8,0,0,0,0,.15.42.42,0,0,0,0,.15,7.07,7.07,0,0,0,.63,1.44,1,1,0,0,1,.09.15c-.12.06-.1.16-.07.26A8.71,8.71,0,0,1,39,23.69c0,.52.13,1,.2,1.55a.09.09,0,0,1,0,.07,2.07,2.07,0,0,1-.15-.25,4.79,4.79,0,0,1-.45-1.32c0-.22,0-.45-.06-.67s0-.47-.08-.71A7.29,7.29,0,0,0,37.73,20a5.58,5.58,0,0,0-1.28-1.5.34.34,0,0,0-.15-.09s-.13,0-.15,0a.16.16,0,0,0,0,.15,3.4,3.4,0,0,0,.23.3c.22.27.46.52.67.8A5.68,5.68,0,0,1,38,21.86c.11.6.16,1.21.26,1.81a5.75,5.75,0,0,0,.91,2.2,4.35,4.35,0,0,0,1.38,1.25l.16.11a1.34,1.34,0,0,1-.61-.2,8.71,8.71,0,0,1-1.15-1,6.56,6.56,0,0,1-.54-.73,7.58,7.58,0,0,1-.8-1.82A10,10,0,0,0,37.08,22c-.29-.68-.61-1.35-.95-2a4.29,4.29,0,0,0-.61-.74.48.48,0,0,0-.18-.07.41.41,0,0,0,0,.19,11.21,11.21,0,0,1,1.41,3.23c.09.3.22.58.33.87l.36.92A5.8,5.8,0,0,0,39,26.68s0,0,0,.06l.43.85a.17.17,0,0,0,0,.07l-.26-.19a5.57,5.57,0,0,1-1-1.27l-.66-1.06-.06-.07h0a.69.69,0,0,0,0,.29c.12.3.24.6.38.89a4.89,4.89,0,0,0,.46.72,4.13,4.13,0,0,1,.24.53.85.85,0,0,1,.06.17l-.15.07.1.22c0,.09,0,.21.17.25s.15.3.09.41a2.25,2.25,0,0,0-.2,1.55.46.46,0,0,1,0,.2.9.9,0,0,1-.27.47.84.84,0,0,0-.12.73.46.46,0,0,1-.06.32,1,1,0,0,0-.15.68c.07.43.15.85.24,1.27a.68.68,0,0,0,.27.43c0-.09.05-.16.06-.24a2.22,2.22,0,0,0-.14-.84,2.73,2.73,0,0,1-.13-1,4.36,4.36,0,0,1,.52,1.38A1.17,1.17,0,0,0,39,34a.86.86,0,0,0,.1.16h.05a.62.62,0,0,0,0-.19,5.19,5.19,0,0,0-.33-1.59,7,7,0,0,1-.21-.93h.05a1.74,1.74,0,0,0,.11.18.86.86,0,0,0,.1.16c0,.06.1.14.19.08s0-.13,0-.18a1.21,1.21,0,0,1-.17-.84,3.39,3.39,0,0,0,.22.39,2.76,2.76,0,0,0,.28.39s.1,0,.15.06a.37.37,0,0,0,0-.15A3.38,3.38,0,0,1,39,30.18a7.06,7.06,0,0,1,0-.92.22.22,0,0,1,.06-.14,3,3,0,0,0,.12.32,2.25,2.25,0,0,0,.12.21,3.83,3.83,0,0,1,.28.42,1.88,1.88,0,0,0,.8.78l.14.06a.79.79,0,0,0-.08-.16,1.62,1.62,0,0,0-.18-.2,2.25,2.25,0,0,1-.59-1.08,3.07,3.07,0,0,1,0-.68l.18.32a15.62,15.62,0,0,1,1,1.83c0,.13.16.07.29.1a4.67,4.67,0,0,0-.24-.72c-.2-.43-.43-.85-.66-1.27a3.57,3.57,0,0,0-.34-.43,1.23,1.23,0,0,1-.12-.26s0-.08,0-.12.09,0,.1.05c.24.33.49.66.71,1a4.63,4.63,0,0,1,.24.43s.08.06.12.08a.5.5,0,0,0,0-.13,1.89,1.89,0,0,0-.33-.88c-.07-.12-.16-.23-.25-.36a.31.31,0,0,1,.27.16,2.93,2.93,0,0,1,.35.65c.15.42.24.85.36,1.28,0,.12.06.24.1.36a.19.19,0,0,0,.09.09.76.76,0,0,0,.06-.16,4.06,4.06,0,0,0-.3-1.72c-.07-.19-.16-.38-.23-.56a1.69,1.69,0,0,0-.45-.64.41.41,0,0,1-.1-.2c.09-.08.17,0,.22.06a3.44,3.44,0,0,1,.45.49,3.63,3.63,0,0,1,.6,2.07,6.79,6.79,0,0,0,0,.78,1,1,0,0,0,.1.31l.13-.1c.1.08.18,0,.25,0l.26-.31a1.25,1.25,0,0,1,.09-.12.48.48,0,0,1,.77,0c.12.11.22.12.31,0s.08-.2,0-.32a.92.92,0,0,0-.53-.24.23.23,0,0,1-.12-.06,2.44,2.44,0,0,1,.24-.1,1.57,1.57,0,0,0,.69-.41.29.29,0,0,0,.07-.32c0-.11-.05-.22-.08-.34a.19.19,0,0,1,.08-.23.83.83,0,0,0,.11-.15l.06,0,0,.39a.65.65,0,0,0,.06.24.13.13,0,0,0,.24,0,.53.53,0,0,0,.08-.22,1.29,1.29,0,0,0-.15-.72,5.7,5.7,0,0,0-.39-.61c-.05-.07-.14-.11-.2-.17s-.15-.25,0-.45c.13.1.3.16.37.33s.19.46.28.7.14.19.24.15.15-.13.1-.27l0-.08a.73.73,0,0,1-.09-.41,1,1,0,0,0-.34-.71,1.84,1.84,0,0,1-.17-.25l-.1-.11-.09-.11,0,0,.15.15a1.14,1.14,0,0,0,.16.15.26.26,0,0,0,.37-.34.76.76,0,0,0-.41-.38c.07-.21.22-.27.4-.14a1.16,1.16,0,0,1,.49.56.25.25,0,0,0,.28.18.22.22,0,0,0,.15-.27.93.93,0,0,0-.09-.4,1.24,1.24,0,0,0-1-.77.39.39,0,0,0-.48.33,1.63,1.63,0,0,1-.53.85,1.52,1.52,0,0,0-.43.77,2.21,2.21,0,0,0-.07.89c0,.2,0,.41,0,.62v.17c0,.19.07.37.1.56a.2.2,0,0,1-.1.24l-.92.37c0-.05,0-.08,0-.12a.2.2,0,0,1,.12-.28c.08,0,.13-.13.19-.2s0,0,0,0a1.37,1.37,0,0,0,.25-.94,2.72,2.72,0,0,0,0-.28c0-.05,0-.12-.06-.15a.22.22,0,0,1-.05-.26c.07-.22.15-.44.22-.66s.13-.49.22-.73a3.91,3.91,0,0,1,.34-.75,1.34,1.34,0,0,1,.66-.58.46.46,0,0,1,.26,0,2.75,2.75,0,0,0,.9.12.3.3,0,0,1,.21.14,2.57,2.57,0,0,1,.44,1.17,1.76,1.76,0,0,1-.14.79,2.67,2.67,0,0,0-.28,1c0,.13,0,.26,0,.39s0,.1,0,.15a3.73,3.73,0,0,1-1,2.19.79.79,0,0,1-.22.19,1.63,1.63,0,0,0-.49.41.78.78,0,0,0-.12.22A4.14,4.14,0,0,1,43,33a1.52,1.52,0,0,1-.31.31A.37.37,0,0,1,42.26,33.34Zm-1.14-7.53a1.25,1.25,0,0,1-.28-.36A8.8,8.8,0,0,1,40,23.29a3.56,3.56,0,0,1-.1-.47c.14.12.33.2.4.4.14.39.27.79.44,1.17a3.64,3.64,0,0,0,.86,1.4,4.67,4.67,0,0,0,.51.36c.11.07.14.09.14.2a1.76,1.76,0,0,1-.41-.1A5.66,5.66,0,0,1,41.12,25.81Zm.38,1a1.6,1.6,0,0,1-1.45-.76,2.81,2.81,0,0,1-.52-1.48,14.21,14.21,0,0,0-.35-2.34h0l.29.24a.3.3,0,0,1,.06.14,14.9,14.9,0,0,0,.83,2.84,2.78,2.78,0,0,0,1,1.28Zm-.63-3.19.54.42a.17.17,0,0,1,.06.1l.32.65a2.1,2.1,0,0,0,.52.7,1.37,1.37,0,0,1,.2.22l0,0a.91.91,0,0,1-.17-.09A3.4,3.4,0,0,1,40.87,23.63Zm1.06.35,0,0,.24,0a.26.26,0,0,1,.11.07l.48.58.12.2c-.14,0-.15,0-.25-.06C42.42,24.52,42.18,24.25,41.93,24Zm2.15,13,.09.26-.43.07,0-.26Zm-.93-1.25a.41.41,0,0,1,.05-.55,1.17,1.17,0,0,1,.39.67A.36.36,0,0,1,43.15,35.73Zm.43.6c.22-.07.25,0,.31.24l-.24,0Zm.09,1.91,0-.52h.55l0,.5A.6.6,0,0,0,43.67,38.24ZM42.1,43.33a1.83,1.83,0,0,1,.08.25,15.8,15.8,0,0,0,.88,2.59c.23.54.4,1.11.65,1.64a15.82,15.82,0,0,0,1.43,2.45c.13.18.27.34.42.53l-.24.2a17.63,17.63,0,0,1-2.53-4.7c-.3-.74-.48-1.52-.75-2.27A1.87,1.87,0,0,0,42,43.8.34.34,0,0,1,42.1,43.33Zm-.6.66c.1.26.18.51.28.76.44,1.07.77,2.18,1.28,3.23a17.31,17.31,0,0,0,1.6,2.72c.13.18.29.35.43.52l-.29.31a19.28,19.28,0,0,1-3.4-7.43Zm-.52.55H41c.08.22.17.43.23.66A19.15,19.15,0,0,0,42.72,49a13.92,13.92,0,0,0,1.7,2.61l.16.17-.29.28-.71-1a17,17,0,0,1-1.91-3.78c-.18-.46-.39-.92-.54-1.39a8.15,8.15,0,0,1-.26-1.11C40.86,44.69,40.94,44.61,41,44.54Zm-.55.53c0,.17,0,.3.08.43a10.85,10.85,0,0,0,.66,1.75,18.84,18.84,0,0,0,1.25,2.6c.37.6.78,1.17,1.19,1.75.15.21.32.4.48.61l-.3.24c-.45-.63-.9-1.25-1.33-1.87a13.7,13.7,0,0,1-1.65-3.45c-.19-.51-.33-1.05-.49-1.57a2.93,2.93,0,0,0-.12-.28Zm-1.31,9a.14.14,0,0,1-.09,0s0,0-.06,0c-.25-.07-.3-.28-.33-.5l.31.25.14,0a.59.59,0,0,0,0-.14l-.57-1a1.46,1.46,0,0,1-.07-.19h0c.18.26.34.53.53.77s.42.47.64.7Zm.66-.44A8,8,0,0,1,38.71,52a.8.8,0,0,0-.08-.16c-.08-.14-.09-.15,0-.34.26.41.48.82.76,1.2s.59.72.89,1.08C40,53.89,40,53.88,39.78,53.66Zm1.16,0a1.55,1.55,0,0,1-.31.07s-.07,0-.1-.06a13.51,13.51,0,0,1-1.34-2c-.13-.22-.29-.43-.43-.64a.15.15,0,0,1,0-.11c0-.14.06-.27.09-.4h0c.16.32.34.63.49,1a7,7,0,0,0,1.5,2.08.41.41,0,0,0,.11.07Zm.42-.1a.19.19,0,0,1-.13-.07,8.23,8.23,0,0,1-1.49-2.11c-.18-.38-.39-.75-.59-1.12-.06-.13-.11-.26-.17-.4s0-.05,0-.07.07-.17.1-.27c.18.36.36.7.53,1a10.84,10.84,0,0,0,1.5,2.34,7.86,7.86,0,0,0,.58.57A1.73,1.73,0,0,1,41.36,53.54Zm.76-.16a.21.21,0,0,1-.13-.07,7.7,7.7,0,0,1-1.46-1.9c-.37-.66-.7-1.34-1.05-2,0-.11-.08-.22-.12-.33s0,0,0-.06-.11-.14-.1-.21a3.88,3.88,0,0,1,.11-.49h0a1.57,1.57,0,0,1,.09.23,9.66,9.66,0,0,0,.86,2,11.93,11.93,0,0,0,2,2.71l.06.07A2,2,0,0,1,42.12,53.38Zm.77-.14c-.06.06-.1,0-.14,0a11.34,11.34,0,0,1-1.6-2,26.37,26.37,0,0,1-1.46-3c-.06-.13-.13-.25-.18-.37a.1.1,0,0,1,0-.09c0-.2,0-.4.09-.64l.07.2c.32.75.6,1.51,1,2.24a13.68,13.68,0,0,0,1.84,2.86c.19.23.41.45.63.67Zm.6-.54-.15.12-.16-.17A14.65,14.65,0,0,1,41.33,50a22.53,22.53,0,0,1-1.52-3.62.78.78,0,0,1,.1-.65c.13.41.24.81.37,1.19a18,18,0,0,0,1.48,3.22,11.53,11.53,0,0,0,1.62,2.18c.07.08.16.15.25.24Zm2.36-.83a5.8,5.8,0,0,1-1,1s-.07.11-.1.17l-1.07.1A11.75,11.75,0,0,0,46,50.43l0,0-.23.17c-.15-.21-.31-.43-.45-.65a22.69,22.69,0,0,1-1.72-3.41,13.57,13.57,0,0,1-.78-2.33l-.21-1c0-.11-.07-.2-.11-.34l.21-.29c.06.23.12.43.17.64A28.45,28.45,0,0,0,44,46.68c.21.52.41,1,.66,1.55a8.85,8.85,0,0,0,1.25,1.91,2.09,2.09,0,0,0,.22.2.12.12,0,0,0,.1,0,.15.15,0,0,0,0-.11,5.05,5.05,0,0,0-.28-.51,15.12,15.12,0,0,1-1.64-3.17,17.09,17.09,0,0,1-.62-2.08l-.6-2.23s0,0,0-.07,0-.27.1-.4a.18.18,0,0,1,0,.09,23.92,23.92,0,0,0,1,3.3c.26.69.47,1.39.77,2.07a10.41,10.41,0,0,0,1.84,2.93,1.77,1.77,0,0,0,.2.17ZM47.25,50l-.12.14c-.25-.37-.51-.71-.72-1.07s-.41-.85-.66-1.24a13,13,0,0,1-1.12-2.73C44.24,44,44,43,43.73,41.87c0-.19-.14-.37-.21-.56,0,0,0,0,0-.06l.26-.44c.06.28.12.52.17.77a28.14,28.14,0,0,0,1,3.72,22.07,22.07,0,0,0,1.55,3.39c.2.35.46.67.7,1C47.36,49.85,47.36,49.84,47.25,50Zm.27-.47c-.12-.17-.24-.34-.35-.52a14.08,14.08,0,0,1-1.24-2.45,24,24,0,0,1-1.23-3.88c-.16-.73-.33-1.45-.49-2.17a.35.35,0,0,0,0-.11c-.1-.16,0-.29.07-.44.06.18.11.35.15.52.2.79.39,1.58.61,2.37.15.53.32,1.06.5,1.58.3.89.59,1.79,1,2.65a10.58,10.58,0,0,0,1.14,2C47.75,49.3,47.74,49.33,47.52,49.52Zm.49-.94-.1.3-.08-.13a26.48,26.48,0,0,1-1.41-2.82,11.74,11.74,0,0,1-.57-1.8c-.25-.94-.47-1.88-.72-2.82-.15-.55-.31-1.1-.47-1.64a2.15,2.15,0,0,0-.14-.26.11.11,0,0,1,0-.07,2.34,2.34,0,0,1,.09-.33.34.34,0,0,0,0,.08c.51,1.7,1,3.4,1.54,5.09a16.63,16.63,0,0,0,1,2.58l.59,1.15a1.66,1.66,0,0,0,.25.34A.29.29,0,0,1,48,48.58Zm3.29,4.06a.43.43,0,0,1,.22-.12c.1,0,.15,0,.12.12a.6.6,0,0,1-.14.21l-.87.85-.14.1a.39.39,0,0,1,0-.16.79.79,0,0,1,.13-.26C50.84,53.12,51.07,52.88,51.3,52.64Zm-.84-.35s.1.07.13.09-.12.27-.21.25a.16.16,0,0,1-.1-.11C50.25,52.4,50.36,52.27,50.46,52.29Zm1.93,1.33c-.31.37-.64.72-.94,1.09s-.65.85-1,1.27c-.09.12-.2.22-.3.33l0,0,.11-.24a8.32,8.32,0,0,1,1-1.53l.88-1.07c.11-.13.21-.17.29-.11S52.5,53.48,52.39,53.62Z"/><path d="M32.72,27.52a.34.34,0,0,0,.21-.31c0-.24,0-.47.08-.75.05.05.11.07.13.12.1.22.18.45.27.68a.65.65,0,0,0,.1.15.51.51,0,0,0,.09-.16,1.23,1.23,0,0,0,0-.38,1.56,1.56,0,0,0-.5-.91s0-.05,0-.08l-.1-.2-.21-.37.16-.14a2.27,2.27,0,0,1,.25.18l.44.43a.33.33,0,0,0,.17.07s.12,0,.14-.06,0-.11,0-.15a1.66,1.66,0,0,0-.21-.16.23.23,0,0,1-.07-.1,3.93,3.93,0,0,0-.14-.41,2.65,2.65,0,0,0-.75-.78,1.34,1.34,0,0,0-.28-.18.14.14,0,0,0-.11,0s0,.08,0,.11a.27.27,0,0,0,.09.12l.35.35.28.29,0,0-.39-.27-.26-.2-1.11-.68a.5.5,0,0,0-.13,0,.42.42,0,0,0,0,.12,5.45,5.45,0,0,0,.46.5c.21.17.44.31.65.47a1.06,1.06,0,0,1,.15.15l0,0a.37.37,0,0,1-.15,0,3.58,3.58,0,0,1-1-.72,4.31,4.31,0,0,0-.74-.6.13.13,0,0,0-.19,0c-.06.07,0,.13,0,.18l.18.22,0,0-.9-.42a.17.17,0,0,0-.15,0c0,.06,0,.11.05.16a.39.39,0,0,0,.1.08l.27.19v0l-.26-.06a2.4,2.4,0,0,1-.92-.35s-.09,0-.13,0a.37.37,0,0,0,0,.15c0,.06.08.12.11.17a.56.56,0,0,1-.52,0,2.48,2.48,0,0,0-.37-.17.57.57,0,0,0-.13,0,.42.42,0,0,0,0,.12c.06.08.13.14.21.23-.09,0-.17.06-.23,0-.33-.06-.65-.14-1-.21a2.53,2.53,0,0,0-.38-.07s-.09,0-.14.07a.32.32,0,0,0,.1.1c.26.14.53.27.8.4l-.17,0-.51.1-.49.05-.28.05a.76.76,0,0,0-.2-.12.4.4,0,0,1-.29-.27,1.86,1.86,0,0,1-.12-.38c0-.18,0-.37-.07-.55a.28.28,0,0,0-.1-.14s-.1.06-.11.11a2.23,2.23,0,0,0,.15,1.37.7.7,0,0,0,.27.24c.15.08.32.14.49.21,0,0,0,0,0,0a6.59,6.59,0,0,0-.39,1.38c-.09.49-.14,1-.24,1.47s-.22.79-.33,1.19c0,.06,0,.13,0,.19l.05,0,.17-.2a1.31,1.31,0,0,0,.24.17.6.6,0,0,0,.19,0c0-.07,0-.15,0-.2s-.15-.14-.21-.23A.15.15,0,0,1,25,29a.83.83,0,0,1,.07-.18c.11.11.2.22.3.31a.75.75,0,0,0,.24.15.25.25,0,0,0,.19-.05c.06-.07,0-.14-.06-.2l-.45-.43a.18.18,0,0,1,0-.28.36.36,0,0,0,.08.09c.26.22.53.45.81.66a.63.63,0,0,0,.27.1.16.16,0,0,0,.14-.06.19.19,0,0,0,0-.12.71.71,0,0,0-.15-.15c-.3-.27-.6-.52-.89-.79s-.16-.21-.06-.37a3.66,3.66,0,0,0,1.17.86.3.3,0,0,0,.29,0c.09,0,.11-.1.05-.17a1,1,0,0,0-.24-.23,5.57,5.57,0,0,1-1.1-.83c-.08-.07-.11-.12-.05-.22l.32.28a2.29,2.29,0,0,0,.94.55c.08,0,.16,0,.21-.06s0-.15-.08-.21l-.07-.05c-.18-.12-.37-.23-.54-.36l-.63-.52a.07.07,0,0,1,0-.07,1.67,1.67,0,0,1,0-.18l.56.29.52.24a.15.15,0,0,0,.21-.07.14.14,0,0,0,0-.2l-.13-.1c-.29-.17-.57-.33-.85-.51s-.16-.13,0-.28l1.31.67c0,.06.05.13.07.14a.19.19,0,0,0,.13-.05,2.18,2.18,0,0,0,.22-.31.4.4,0,0,1,.22-.24c.06,0,.1-.09.13-.15l.56-.82a.52.52,0,0,1,.34-.26c.2,0,.41,0,.62-.06a4.38,4.38,0,0,1,1,0,1.45,1.45,0,0,1,.49.11,4.9,4.9,0,0,1,1.41.92,1.37,1.37,0,0,1,.16.18l0,0a3.88,3.88,0,0,1-.46-.22,5.64,5.64,0,0,0-1.27-.65A2.33,2.33,0,0,0,29.79,25a.56.56,0,0,0-.21,0,3.64,3.64,0,0,0-.47.14,1.37,1.37,0,0,0-.71.59c-.09.15-.22.28-.31.42a.41.41,0,0,0-.09.22s.12.07.18.1l.06,0c.2.09.41.19.62.27a.92.92,0,0,0,.28.09.74.74,0,0,0,.26,0,.15.15,0,0,0,.1-.12s-.05-.09-.1-.11-.25-.07-.36-.12l-.4-.25a1,1,0,0,1,.94-.7c.09,0,.06,0,.08.08a.57.57,0,0,0,.11.16s.1-.07.13-.12,0-.08.05-.13l.37,0a1.37,1.37,0,0,0,.05.25c0,.1,0,.19-.1.21s-.17.06-.16.17a.18.18,0,0,0,.18.19c.2,0,.4,0,.6-.07l.23-.06a.39.39,0,0,1-.35.27,1,1,0,0,1-.83-.26s-.1,0-.15-.05-.06.14,0,.17a.81.81,0,0,0,.27.28,1.88,1.88,0,0,0,.58.13c.39,0,1-.27.95-.77,0,0,0,0,0,0l.47.24-.27.19c-.08.07-.18.12-.26.19a.23.23,0,0,0-.05.17.22.22,0,0,0,.16.07A1.29,1.29,0,0,0,32,26.8a6,6,0,0,0,.57-.28l0,.49a.11.11,0,0,1-.06.09,5.57,5.57,0,0,1-1.37.76,1.73,1.73,0,0,0-.31.14s-.06.08-.05.1.06.06.1.08,0,0,.07,0a3,3,0,0,0,1.29-.4C32.43,27.7,32.57,27.59,32.72,27.52Zm-5.39-1.4-1.18-.73c.05-.18.18-.22.35-.11a3.7,3.7,0,0,0,.47.29,2,2,0,0,1,.4.29C27.48,25.94,27.46,26,27.33,26.12Zm.14-.75-.63-.23v-.05l.31-.07.06,0,.4.27C27.6,25.39,27.53,25.39,27.47,25.37Z"/><path d="M35.23,7.88a6.2,6.2,0,0,0-.35.84,2.57,2.57,0,0,1-1.46,1.69c-.51.23-1.05.38-1.58.57l-.3.1a4,4,0,0,0-1,.76,1.78,1.78,0,0,0-.44.55.5.5,0,0,1-.49.32l-.17,0,.17-.32a2,2,0,0,1,1.4-1.2.83.83,0,0,0,.48-.29c.06-.07.12-.13.06-.22s-.14-.08-.23,0c-.29.09-.57.19-.86.27a1.24,1.24,0,0,0-.54.29,2.73,2.73,0,0,1-.31.27.71.71,0,0,0-.18.27c-.1.25-.17.52-.27.77s.06.32.09.48.07,0,.1,0h.26a5,5,0,0,1,.67,0,7.89,7.89,0,0,1,1.45.27.87.87,0,0,0,.22,0,.24.24,0,0,0,.25-.3,1.11,1.11,0,0,0,0-.13,5.25,5.25,0,0,1,1.12-.28,2.83,2.83,0,0,0,1.39-.39.52.52,0,0,0,.17-.16c0-.08,0-.14-.08-.14a1.31,1.31,0,0,0-.28,0l-.8.09a7.64,7.64,0,0,0-.82.1c-.29.06-.58.18-.87.26a.62.62,0,0,0-.4.29.12.12,0,0,1-.07.05l-.39,0,.12-.14a.81.81,0,0,1,.14-.12,3.59,3.59,0,0,1,1.75-.65.73.73,0,0,0,.55-.28s0-.13,0-.2a.68.68,0,0,0-.2,0,1.68,1.68,0,0,1-.32.09,2.24,2.24,0,0,0-.76.19l-.11,0a2.84,2.84,0,0,0-1.5.92.43.43,0,0,1-.54.09,8.36,8.36,0,0,1,.66-.67,2.85,2.85,0,0,1,1-.52,1.3,1.3,0,0,0,.15-.1.57.57,0,0,1,.16-.11l.86-.27a3.29,3.29,0,0,0,1.14-.6A3.33,3.33,0,0,0,35.14,9c.1-.26.2-.51.29-.77a1.25,1.25,0,0,1,.41-.55A1,1,0,0,0,36,7.48a.15.15,0,0,0,0-.21.13.13,0,0,0-.2,0A1.79,1.79,0,0,0,35.23,7.88Z"/><path d="M29.58,41.68a4.59,4.59,0,0,0-.49.26,3.28,3.28,0,0,1-1.17.54,10.43,10.43,0,0,1-2.21.44c-.09,0-.16,0-.16.14s.07.12.15.14l.24,0a4.83,4.83,0,0,0,1.31-.2,6.53,6.53,0,0,0,1.39-.4c.33-.17.63-.38.94-.57a1.09,1.09,0,0,0,.42-.48C29.83,41.51,29.71,41.62,29.58,41.68Z"/><path d="M44.12,66a.2.2,0,0,0,.22-.11.22.22,0,0,0,0-.24.19.19,0,0,1-.06-.15,8,8,0,0,1,.18-1,1.66,1.66,0,0,1,.4-.75.39.39,0,0,1,.38-.14.86.86,0,0,0,.32,0c.14,0,.18-.14.11-.26a.17.17,0,0,1,0-.12l.15-.74a3.15,3.15,0,0,1,.56-1.25c.06-.1.11-.11.21,0a.85.85,0,0,0,.34.14.4.4,0,0,0,.25-.09.2.2,0,0,0,0-.17A.17.17,0,0,0,47,61a.28.28,0,0,1-.27-.08c.07-.22.14-.41.19-.61a3.24,3.24,0,0,1,.59-1.26c.17-.21.33-.4.64-.33h0a.2.2,0,0,0,.2-.18.19.19,0,0,0-.15-.21L48,58.28a1.69,1.69,0,0,0,0-.23c-.06-.35-.11-.7-.18-1a1,1,0,0,1,.32-.84.21.21,0,0,1,.33.07s.06.08.09.08a.16.16,0,0,0,.12-.08,2.43,2.43,0,0,0,.16-.37,2,2,0,0,0,.07-1.11.61.61,0,0,0-.64-.51l-1,0a14.31,14.31,0,0,1-2.45-.07,7.4,7.4,0,0,0-2.65.15l-2.1.55c-.17,0-.34.07-.51.12a5.18,5.18,0,0,1-2.07.17c-.08,0-.11,0-.09-.11a1,1,0,0,0,0-.24c0-.09-.06-.13-.16-.08s-.33.18-.36.39a.94.94,0,0,1-.06.15c-.46.83-.85,1.7-1.36,2.5-.23.35-.43.72-.64,1.08-.57,1-1.14,1.89-1.7,2.84-.44.75-.86,1.51-1.29,2.26A10.65,10.65,0,0,0,31,65.7a1.73,1.73,0,0,0-.09.78.71.71,0,0,0,0,.16,1.31,1.31,0,0,0,.13-.16c.11-.17.15-.38.32-.52a.54.54,0,0,0,.12-.24c0-.08.07-.11.17-.09a.32.32,0,0,0,.19,0,.2.2,0,0,0,.11-.13s-.06-.1-.1-.14a.84.84,0,0,0-.17,0c.05-.13.11-.25.16-.37s.07-.1.15-.09a1.09,1.09,0,0,0,.25,0,1.37,1.37,0,0,0,.35,0,.2.2,0,0,0,.14-.13.17.17,0,0,0-.11-.15.84.84,0,0,0-.27-.08l-.3,0,.14-.28a3.67,3.67,0,0,0,.43.09.91.91,0,0,0,.33,0c.12,0,.14-.14,0-.21a1.17,1.17,0,0,0-.32-.15,2.27,2.27,0,0,0-.3-.06l.16-.3a2.43,2.43,0,0,0,.41.1,4,4,0,0,0,.69,0c.06,0,.16-.08.16-.12a.28.28,0,0,0-.12-.18,1.66,1.66,0,0,0-.37-.09l-.58-.09a2.19,2.19,0,0,0,.16-.29.12.12,0,0,1,.17-.07,2.82,2.82,0,0,0,1.08.13.41.41,0,0,0,.3-.14A.83.83,0,0,0,34,62.6l-.83-.11.29-.52c.17.06.33.12.49.16a6.67,6.67,0,0,0,1.79.15,1,1,0,0,0,.33-.08s.07-.06.11-.09-.07-.09-.11-.1a3.86,3.86,0,0,0-.49-.1c-.45,0-.89-.06-1.34-.11a4.62,4.62,0,0,1-.6-.13,2.67,2.67,0,0,1,.22-.35.1.1,0,0,1,.1,0c.16,0,.32.09.49.11.63.06,1.26.12,1.89.16a3.72,3.72,0,0,0,.66-.08s.08-.06.11-.09-.06-.08-.1-.09a5.12,5.12,0,0,0-.54-.1l-1.84-.13c-.19,0-.37-.06-.58-.09l.28-.44c.19,0,.34.11.5.14a8.7,8.7,0,0,0,1.69.14c.26,0,.52,0,.79,0a.49.49,0,0,0,.35-.2.93.93,0,0,0-.26-.1,4.89,4.89,0,0,0-.55,0l-1.76-.08a4.15,4.15,0,0,1-.56-.1c.08-.12.15-.22.2-.31a.1.1,0,0,1,.15,0,4.67,4.67,0,0,0,.64.18,7.33,7.33,0,0,0,1.62.06,4.19,4.19,0,0,0,.79-.12,1.16,1.16,0,0,0,.27-.14v0a.65.65,0,0,0-.17-.08,2.09,2.09,0,0,0-.43,0c-.61,0-1.22,0-1.83,0a4.53,4.53,0,0,1-.78-.13l.3-.48a4.16,4.16,0,0,0,2.17.28c.39,0,.78-.1,1.17-.16a2.7,2.7,0,0,0,.39-.08c.06,0,.11-.09.17-.14a.94.94,0,0,0-.18-.12.8.8,0,0,0-.26,0c-.35,0-.7.06-1,.11a5.58,5.58,0,0,1-2.26-.13l.21-.38.08,0a2.3,2.3,0,0,0,1.26.21c.76-.07,1.52-.15,2.27-.24.33,0,.65-.13,1-.2a.46.46,0,0,0,.17-.09v0a.65.65,0,0,0-.13,0,5.06,5.06,0,0,0-.77,0c-.57,0-1.14.13-1.72.18-.42,0-.85.08-1.27.09a4.36,4.36,0,0,1-.68-.11c.08-.14.15-.24.21-.35s.1-.12.2-.08a3.13,3.13,0,0,0,1.42.17L39,57.76c.76-.11,1.52-.2,2.27-.37v0a.45.45,0,0,0,.29.64s.06.08.09.12a2.25,2.25,0,0,0-.28.15.56.56,0,0,0-.3.61A.08.08,0,0,1,41,59a.18.18,0,0,1-.14,0,.8.8,0,0,1-.13-.13,3.07,3.07,0,0,0-.25-.26.36.36,0,0,0-.41,0,.34.34,0,0,0-.15.37.86.86,0,0,0,.46.63l.15.07c-.16.2-.3.4-.12.66h-.06a.87.87,0,0,1-.44-.26,3.6,3.6,0,0,0-.41-.37.34.34,0,0,0-.44,0,.39.39,0,0,0-.16.45.93.93,0,0,0,.95.69.35.35,0,0,0,.1-.08s0-.07-.07-.08l-.35-.17a.64.64,0,0,1-.33-.45c0-.06,0-.11,0-.17a.69.69,0,0,1,.15.07c.17.16.33.33.5.48a.89.89,0,0,0,.76.22c.09,0,.15,0,.15-.13a.14.14,0,0,0-.12-.16.13.13,0,0,1-.08-.08.27.27,0,0,1,.09-.29l.24-.2c.09-.06.15-.14.11-.24a.3.3,0,0,0-.18-.13c-.12,0-.25-.07-.37-.12a.4.4,0,0,1-.23-.45l.18.17a3,3,0,0,0,.23.27.45.45,0,0,0,.54,0,.34.34,0,0,0,.15-.4.24.24,0,0,1,0-.12c.09-.19.29-.25.46-.33s.13-.07.1-.16A.3.3,0,0,1,42,58a1,1,0,0,1,.29-.18c.18-.07.23-.14.17-.33a.51.51,0,0,1,.16-.59,2.07,2.07,0,0,1,.32-.19c.25-.11.27-.13.27-.4l.06,0c.09-.06.18-.14.12-.25a.25.25,0,0,0-.18-.11c-.08,0-.18.11-.2.22v0c0,.09,0,.12-.1.15l-.24.13a1,1,0,0,0-.49.63.17.17,0,0,1-.21.14l-.16,0a.48.48,0,0,0-.48.09.76.76,0,0,0-.26-.08,4.17,4.17,0,0,0-.86,0c-.65.07-1.3.17-2,.27a5.13,5.13,0,0,1-1.79,0l-.2-.05.19-.34a.13.13,0,0,1,.11,0,5.18,5.18,0,0,0,1.42.11A11.64,11.64,0,0,0,39.54,57c.64-.1,1.27-.22,1.91-.34.26-.05.52-.12.78-.19.07,0,.13-.1.2-.15a.53.53,0,0,0-.48-.13c-.52.06-1,.14-1.56.22s-1.32.26-2,.33-1.11,0-1.67,0l-.07,0s0,0,0,0a2.56,2.56,0,0,1,.11-.24c.08-.17.08-.17.28-.14s.53.05.8.06a8.55,8.55,0,0,0,.88,0,2.39,2.39,0,0,0,.6,0c.92-.22,1.83-.46,2.75-.7l.5-.1c.28-.06.56-.1.84-.17.08,0,.14-.11.21-.17a.86.86,0,0,0-.24-.11,2.5,2.5,0,0,0-1.09.07c-.65.16-1.3.33-1.93.52a9.16,9.16,0,0,1-2.8.35L37,56c.07-.14.12-.26.19-.38s.07-.05.11-.05c.29,0,.58.05.86,0A8.32,8.32,0,0,0,40,55.33c.79-.21,1.59-.37,2.38-.55a5.66,5.66,0,0,1,1.59-.17c.62,0,1.24.1,1.86.12a12.38,12.38,0,0,0,1.49,0,3.86,3.86,0,0,1,1,0,.2.2,0,0,1,.12.08,2.2,2.2,0,0,1,.07.92c-.48,0-.54,0-.83.56l0-.1a1.37,1.37,0,0,0-.5-.64,2.28,2.28,0,0,0-1.39-.37,2.48,2.48,0,0,0-1.56.75.39.39,0,0,0-.11.15c-.07.14-.13.28-.2.43a.21.21,0,0,0-.3,0c-.27.34-.54.68-.78,1-.47.68-.92,1.37-1.38,2.06a.45.45,0,0,0-.06.12s0,.1,0,.11a.13.13,0,0,0,.12,0,1.48,1.48,0,0,0,.26-.24l.84-1.13.33-.46a.2.2,0,0,1,0,.08,2.88,2.88,0,0,0,.43,1,.6.6,0,0,1,.09.15c0,.22.09.44.13.66a.69.69,0,0,1-.43-.24c-.11-.16-.07-.27.15-.3,0,0,0-.12,0-.13a.56.56,0,0,0-.28,0,.31.31,0,0,0-.14.2.6.6,0,0,0,0,.23.13.13,0,0,1-.08.17,2.56,2.56,0,0,0-.72.59,2.75,2.75,0,0,0-.23.33s0,.1,0,.16.12,0,.16,0,.23-.19.36-.28.4-.3.61-.44a.31.31,0,0,1,.44.09,3.44,3.44,0,0,0-1.24.88,1.46,1.46,0,0,0-.22.33.26.26,0,0,0,0,.15.34.34,0,0,0,.14,0c.13-.12.25-.25.39-.36s.41-.31.62-.46l0,0a.61.61,0,0,0,.26.66,2.21,2.21,0,0,0,.71.34l.37.16a2.26,2.26,0,0,1,.26.17l.06.38-.61-.19-.38-.14c-.11,0-.12-.13,0-.21a.1.1,0,0,0,0,0s0-.07,0-.1a.16.16,0,0,0-.1-.08.28.28,0,0,0-.3.19.37.37,0,0,0,.17.47,1.26,1.26,0,0,0,.26.13,3.22,3.22,0,0,1,.85.37c.08.06.14.3.06.37l-.49.47a.49.49,0,0,1-.25-.26c0-.08-.05-.15.08-.17a.16.16,0,0,0,.08-.1.18.18,0,0,0-.07-.09.25.25,0,0,0-.4.22.78.78,0,0,0,0,.22.9.9,0,0,0,.41.47c0,.13-.08.25-.13.37s0,0,0,.06l-.81.36a4.4,4.4,0,0,0,0-.51.39.39,0,0,0-.51-.36s-.1.07-.1.1.06.09.1.11.08,0,.1,0,.09.07.09.1a2,2,0,0,1-.24.67c-.18-.2-.25-.46-.49-.65a1.18,1.18,0,0,0,0,.16,3.38,3.38,0,0,0,.16.48c.13.27.3.52.41.8a3.52,3.52,0,0,0,.28.46.22.22,0,0,1,0,.14,3.67,3.67,0,0,1-.09.43l0-.07c-.48-1-1.13-1.9-1.67-2.86a2.91,2.91,0,0,1-.39-1.25c0-.24,0-.48.25-.61,0,0,.08-.14.06-.19a.21.21,0,0,0-.17-.09.54.54,0,0,0-.49.45c0,.11,0,.23,0,.37l-.37-.2c-.1-.06-.11-.12-.05-.21s.08-.1.16-.08a.19.19,0,0,0,.13,0,.21.21,0,0,0,.13-.11.15.15,0,0,0,0-.15.69.69,0,0,0-.2-.13l.15-.06a4.09,4.09,0,0,0,.46-.25c.06,0,.09-.14.14-.22a.8.8,0,0,0-.26,0c-.23,0-.46.12-.69.19a2.62,2.62,0,0,1-1.33.11,1.09,1.09,0,0,1-.37-.19.27.27,0,0,1-.08-.32.26.26,0,0,0,0-.12s-.12,0-.14,0a.56.56,0,0,0,.3.88,1.66,1.66,0,0,0,1,.15l.54-.06a1.75,1.75,0,0,0-.16.25.4.4,0,0,0,.2.64l.47.2a.18.18,0,0,1,.09.1,3.51,3.51,0,0,0,.32.91.09.09,0,0,1,0,0c-.26-.06-.52-.11-.77-.18a.76.76,0,0,1-.28-.15.49.49,0,0,1-.1-.19l.17,0h0c0-.06.12-.1.13-.16s0-.15-.12-.17a.49.49,0,0,0-.44.07.45.45,0,0,0,0,.65,1,1,0,0,0,.7.39,6.83,6.83,0,0,1,.81.17.56.56,0,0,1,.28.2c.14.19.27.41.4.61l.16.25a2.7,2.7,0,0,0-1.07-.25,4.46,4.46,0,0,1-.51-.07.51.51,0,0,1-.24-.15.16.16,0,0,1,0-.15s.08,0,.12,0l.16-.06s-.07-.11-.12-.13a.32.32,0,0,0-.36,0,.39.39,0,0,0-.14.39.65.65,0,0,0,.45.47,2.45,2.45,0,0,0,.32.09,2,2,0,0,1-.66.59,3.3,3.3,0,0,0-.09-.83,1,1,0,0,0-.13.31,1.34,1.34,0,0,0-.06.86c.15.47.35.92.54,1.38a.44.44,0,0,0,.19.19.18.18,0,0,0,.16,0,.18.18,0,0,0,0-.16.76.76,0,0,0-.09-.18c-.07-.16-.14-.32-.22-.48l.12-.07c.22-.1.45-.19.66-.3a.71.71,0,0,0,.46-.54.23.23,0,0,0-.11-.24c0,.25-.23.33-.42.4s-.59.2-.89.3l0-.06,0-.1a1.81,1.81,0,0,0,.81-1,2.36,2.36,0,0,1,1.4.35.63.63,0,0,1,.11.12c.16.29.31.58.48.87A2.5,2.5,0,0,1,43,68c0,.23,0,.47.06.7,0,.06.08.11.12.16l.1-.16h0c0-.34,0-.68,0-1s0-.44,0-.67a1.92,1.92,0,0,1,.21-.87.32.32,0,0,1,.41-.2Zm-2.56-8.42s.09,0,.14,0l.22,0-.24.28c0-.05-.1-.08-.12-.13A.28.28,0,0,1,41.56,57.54ZM44,56.76a2.2,2.2,0,0,1,.65-1,1.06,1.06,0,0,1,.35-.18,4.91,4.91,0,0,1,.76-.17,1.63,1.63,0,0,1,1.14.39.67.67,0,0,1,.21.26,2.45,2.45,0,0,1,.29,1.18,1.51,1.51,0,0,1-1,1.38,1.56,1.56,0,0,1-1.16.07,1.54,1.54,0,0,1-.39-.23c-.2-.16-.38-.33-.56-.5A1.06,1.06,0,0,1,44,56.76Zm-.4,4.5a.62.62,0,0,1-.24-.24c-.07-.1,0-.16.1-.15l.06,0,.16,0a1,1,0,0,0-.06-.18.56.56,0,0,0-.14-.1c.1,0,.19-.09.25-.07.21.07.25.13.32.34l-.13,0s-.07.07-.07.11a.23.23,0,0,0,.08.09l.23.1c.19.07.24.24.31.42C44.21,61.5,43.91,61.39,43.63,61.26Zm1.07-.08c-.27-.45-.57-.89-.85-1.34a2.53,2.53,0,0,1-.2-.36.33.33,0,0,1,0-.38c.06-.09,0-.17,0-.25a1.83,1.83,0,0,1-.43-.69.32.32,0,0,1,0-.09.61.61,0,0,1,0-.14h.12s.1,0,.13,0a.26.26,0,0,0,.14-.1s0-.11-.08-.14a2.71,2.71,0,0,0-.25-.17l.44-.53h0a2.46,2.46,0,0,0,0,.47,1.6,1.6,0,0,0,.59,1A6.08,6.08,0,0,0,45,59a.94.94,0,0,0,.73.15,5.84,5.84,0,0,0,1.11-.29,1.32,1.32,0,0,0,.64-.55l.11-.19c.07.15.06.18-.06.28a2.67,2.67,0,0,0-.86,1.26,2.84,2.84,0,0,0-.18,1.09c-.21,0-.36.1-.51.26,0-.26-.09-.47-.35-.53a.44.44,0,0,0-.49.21.43.43,0,0,1,0-.43c0-.14.11-.28.14-.42a.7.7,0,0,0,0-.35.27.27,0,0,0-.41-.18,1.25,1.25,0,0,0-.24.16c-.09.07-.15.06-.2,0L44.16,59c0-.05,0-.09-.09-.17A.51.51,0,0,0,44,59a1.66,1.66,0,0,0,.23.92c0,.11.16.09.25,0s.22-.2.33-.3.1,0,.12,0a.13.13,0,0,1,0,.12,2.33,2.33,0,0,1-.11.28.9.9,0,0,0-.16.63,2.3,2.3,0,0,0,.2.42l.09.2a.19.19,0,0,0,.25.14c.08,0,0-.09.06-.15a1.09,1.09,0,0,1,0-.31.21.21,0,0,1,.25-.13.17.17,0,0,1,.11.2,1.28,1.28,0,0,1-.07.39,5.48,5.48,0,0,0-.35,1.69s0,.07,0,.1,0,0,0,0-.1,0-.11-.12c-.05-.41-.09-.83-.17-1.24A2,2,0,0,0,44.7,61.18Zm-.82,4a.19.19,0,0,1-.1.1l-.77.33-.14-.26,1.05-.61C43.9,64.87,43.9,65,43.88,65.16Z"/><path d="M39.85,68.21a7.31,7.31,0,0,1-.71-1.62,2.65,2.65,0,0,1,0-1.6l.13-.49s0-.08,0-.12-.09,0-.12,0a1,1,0,0,0-.27.28c-.11.24-.18.5-.27.75a.77.77,0,0,1-.16-.71.08.08,0,0,0,0-.07s-.06,0-.08,0a.36.36,0,0,0-.16.29,1.26,1.26,0,0,0,.36,1,.59.59,0,0,1,.11.24,5,5,0,0,0,1.17,2.41.76.76,0,0,0,.09.09l.1,0s0-.08,0-.11A2.54,2.54,0,0,0,39.85,68.21Z"/><path d="M35.57,65.45a8.16,8.16,0,0,0,.72-1.85c0-.21.06-.43.09-.64l0,0s-.07,0-.09.06a.76.76,0,0,0-.12.19,10.85,10.85,0,0,1-1,2.1,1.76,1.76,0,0,1-.27.34c-.13.13-.3.24-.44.37a1.27,1.27,0,0,0-.24.33c-.07.12,0,.22.17.19a1.17,1.17,0,0,0,.24-.09A2.3,2.3,0,0,0,35.57,65.45Z"/><path d="M36.81,63.7a.11.11,0,0,0,0-.08c-.14,0-.17.16-.21.26-.14.36-.26.73-.4,1.08a3.13,3.13,0,0,1-1.32,1.57.24.24,0,0,0-.11.09.36.36,0,0,0,0,.22.24.24,0,0,0,.17.11.42.42,0,0,0,.37-.1,3.82,3.82,0,0,0,.94-1.06A5,5,0,0,0,36.81,63.7Z"/><path d="M41.62,62.16c0-.11-.06-.16-.15-.09a.63.63,0,0,0-.2.26,1.23,1.23,0,0,0,.16,1.08c0,.09.12.08.17,0s.15-.27.21-.4.11-.13.2-.1.09.12.07.2-.09.24-.14.36a.64.64,0,0,0,0,.6c0,.06.1.08.15.12a1.21,1.21,0,0,0,.1-.14c.07-.2.14-.4.2-.6a1.59,1.59,0,0,0,.06-.38.41.41,0,0,0-.34-.39.4.4,0,0,0-.48.19l-.09.12a.9.9,0,0,1,0-.56A1,1,0,0,0,41.62,62.16Z"/><path d="M36.8,65.55a3.56,3.56,0,0,1-1,1.13.35.35,0,0,0-.12.15.4.4,0,0,0,0,.22.28.28,0,0,0,.2,0,.57.57,0,0,0,.22-.11,2.56,2.56,0,0,0,.73-1,1.35,1.35,0,0,0,.06-.34.79.79,0,0,0,0-.17Z"/><path d="M42.92,41.1a.18.18,0,0,0-.17-.18.19.19,0,1,0,0,.38A.19.19,0,0,0,42.92,41.1Z"/><path d="M37.62,12l.91.34a3.07,3.07,0,0,1,1.3.88c.41.5.77,1,1.15,1.57.16.22.29.46.45.67a2.22,2.22,0,0,0,.74.59.17.17,0,0,0,.25-.07.18.18,0,0,0-.07-.24l-.14-.08-.27-.2a5.33,5.33,0,0,1-1-1.38,4.57,4.57,0,0,0-.57-.88,2.65,2.65,0,0,1-.21-.26,1.39,1.39,0,0,0-.32-.32,6.21,6.21,0,0,0-.81-.42c-.33-.14-.67-.25-1-.38l-.51-.16c-.06,0-.13,0-.15.09S37.56,12,37.62,12Z"/><path d="M36.61,15.82h.51s.07,0,.1,0,.12,0,.17,0l1,1.21c.08.1.13.21.2.31a.41.41,0,0,0,.11.07s0-.08,0-.11a1.88,1.88,0,0,0-.17-.47,14.71,14.71,0,0,0-.83-1.23,3.48,3.48,0,0,0-1-1,6.16,6.16,0,0,0-2-.7,2.13,2.13,0,0,0-.44,0s-.06,0-.09,0a.22.22,0,0,0,.06.07l.23.1c.25.08.51.15.77.25s.34.15.53.23c-.06,0-.13.06-.16.11a.62.62,0,0,0-.07.19.55.55,0,0,0,.17,0h.56a.13.13,0,0,1,.1,0c.07.06.12.14.2.22h-.06c-.2,0-.32.13-.28.3a.63.63,0,0,0,.16.24S36.55,15.82,36.61,15.82Z"/><path d="M40.32,18.46a1.28,1.28,0,0,1-.82-.69l-.06-.09a5.27,5.27,0,0,1-.36-.81,4,4,0,0,0-.33-.9,4.11,4.11,0,0,0-.27-.51A3.12,3.12,0,0,0,38,15a4.26,4.26,0,0,0-1-.73.18.18,0,0,0-.26,0c.1.09.18.18.28.26a4.8,4.8,0,0,1,.59.51,4.64,4.64,0,0,1,.68,1,4.47,4.47,0,0,1,.31.79,1.78,1.78,0,0,0,.22.58c.15.26.33.49.5.73a1.44,1.44,0,0,0,.88.61.24.24,0,0,0,.29-.11C40.55,18.59,40.48,18.5,40.32,18.46Z"/><path d="M37.3,13.22a4.35,4.35,0,0,1,1.29.69,1,1,0,0,1,.18.18c.15.2.29.4.42.61a6.58,6.58,0,0,0,1.11,1.41,2.91,2.91,0,0,0,.46.32c.05,0,.13,0,.2,0s0-.13-.09-.17a7.94,7.94,0,0,1-1.14-1.44,2.71,2.71,0,0,1-.21-.37,2.68,2.68,0,0,0-.58-.9,1.32,1.32,0,0,0-.36-.26,5.21,5.21,0,0,0-1-.4,3.18,3.18,0,0,0-.33-.08v0h0c-.16,0-.17,0-.12.18S37.2,13.18,37.3,13.22Z"/><path d="M39.8,20.17a7,7,0,0,1-.74-1.41,11.63,11.63,0,0,0-.82-1.66,2.58,2.58,0,0,0-1.08-.91.6.6,0,0,0-.46,0,1,1,0,0,0,.16.18,1.71,1.71,0,0,0,.25.22A3.44,3.44,0,0,1,38.27,18c.21.46.44.92.67,1.37a3.69,3.69,0,0,0,.86,1.13s.11,0,.16,0a.41.41,0,0,0,0-.16A2.43,2.43,0,0,0,39.8,20.17Z"/><path d="M34,13.63c.24,0,.47-.07.71-.09a4.42,4.42,0,0,1,1.87.32,5.61,5.61,0,0,1,1.48.71l.14.08,0,0c-.08-.12-.15-.26-.24-.37a2.58,2.58,0,0,0-.78-.61,5.5,5.5,0,0,0-1.47-.43,4.1,4.1,0,0,0-1.44,0,1.64,1.64,0,0,0-.74.29.61.61,0,0,0-.07.1.31.31,0,0,0,.12.05Z"/><path d="M32.81,36.31a.23.23,0,0,0,.07-.1c.06-.16.1-.32.16-.47A5.47,5.47,0,0,1,34,34a9.94,9.94,0,0,0,1.08-1.57.75.75,0,0,0,.08-.18c0-.09.06-.22,0-.27a.29.29,0,0,0-.24.09,4.51,4.51,0,0,0-.44.54c-.16.24-.28.52-.46.74a7.68,7.68,0,0,0-1,1.83,2.71,2.71,0,0,0-.24,1,.26.26,0,0,0,0,.11S32.79,36.28,32.81,36.31Z"/><path d="M35.72,18.74c0,.05,0,.1,0,.14a.42.42,0,0,0,.09.16,1.76,1.76,0,0,0,.24.3,7.55,7.55,0,0,1,1.6,2.94,3.78,3.78,0,0,0,.21.56c0,.07.08.12.11.18H38a1.09,1.09,0,0,0,0-.25,3.19,3.19,0,0,0-.06-.54,6.74,6.74,0,0,0-1.65-3,5.24,5.24,0,0,0-.5-.44S35.76,18.75,35.72,18.74Z"/><path d="M41.51,15.94a1.52,1.52,0,0,1-.34-.22,2.4,2.4,0,0,1-.52-.87,5.32,5.32,0,0,0-.46-1,1.58,1.58,0,0,0-.22-.23c-.15-.11-.3-.23-.46-.33s-.18-.1-.28-.16-.13.07-.14.11a.24.24,0,0,0,0,.16c.14.12.3.23.43.36a1.18,1.18,0,0,1,.26.29c.14.28.27.57.39.86a2.8,2.8,0,0,0,.87,1.22,1,1,0,0,0,.29.16.18.18,0,0,0,.26-.1C41.68,16.08,41.62,16,41.51,15.94Z"/><path d="M37.27,28.94a.22.22,0,0,0-.13-.15c-.06,0-.13.06-.17.11a1,1,0,0,0-.08.24c-.08.44-.14.89-.23,1.33a2.86,2.86,0,0,0-.06.77,1.36,1.36,0,0,1,0,.2c0,.29-.11.58-.16.88a1.62,1.62,0,0,0,0,.22h.06a.6.6,0,0,0,.09-.13,4.43,4.43,0,0,0,.17-.47,12,12,0,0,0,.52-2.59A3,3,0,0,0,37.27,28.94Z"/><path d="M34.58,39.36c-.16.1-.3.22-.46.31-.47.26-.93.52-1.41.76-.27.14-.56.25-.85.37a1.36,1.36,0,0,0-.21.1s-.06.07-.09.11.07.06.11.06a1.61,1.61,0,0,0,.44,0,6.19,6.19,0,0,0,1.36-.62c.17-.09.32-.2.5-.28a4.52,4.52,0,0,0,1-.61.38.38,0,0,0,.18-.37A.91.91,0,0,0,34.58,39.36Z"/><path d="M32.71,13.09c-.05,0-.08.08-.11.12s.11.08.16.07a1.84,1.84,0,0,0,.41-.06c.31-.08.61-.18.92-.24a4.63,4.63,0,0,1,1.62-.09c.2,0,.39.06.58.07a.18.18,0,1,0,0-.35l-.94-.13a6.37,6.37,0,0,0-1.65.24C33.38,12.83,33.05,13,32.71,13.09Z"/><path d="M39.19,15.75a.16.16,0,0,0-.12-.06s0,.05-.06.09a.62.62,0,0,0,0,.2,2.45,2.45,0,0,0,.31,1,2.1,2.1,0,0,0,1.16,1l.26.06c.14,0,.24-.06.25-.15s-.08-.17-.18-.21a1.94,1.94,0,0,1-.9-.59A4.2,4.2,0,0,1,39.31,16,2.06,2.06,0,0,0,39.19,15.75Z"/><path d="M33.77,35.07l0,0a8.74,8.74,0,0,0,1.07-1.21c.27-.37.52-.76.77-1.14a2,2,0,0,0,.15-.39c0-.06-.06-.15-.1-.16a.23.23,0,0,0-.18.06,1.45,1.45,0,0,0-.17.26c-.12.2-.22.4-.35.59-.33.48-.68,1-1,1.44l-.32.49s0,.08,0,.11Z"/><path d="M33.26,9.13a.57.57,0,0,0-.08.13c0,.07,0,.15.14.15l.11-.07a4.06,4.06,0,0,0,.43-.5c.2-.3.38-.62.57-.93a5.06,5.06,0,0,1,1-1l.19-.18s0-.09,0-.1a.17.17,0,0,0-.12,0,.73.73,0,0,0-.19.07,3.14,3.14,0,0,0-1.4,1.52A3,3,0,0,1,33.26,9.13Z"/><path d="M31.15,19.63a.88.88,0,0,0-.13.07l.13.06a1.86,1.86,0,0,0,.34,0c.37,0,.75.05,1.12.1a2.63,2.63,0,0,1,1.33.59,1.36,1.36,0,0,0,.37.21.72.72,0,0,0,.25,0c0-.07-.05-.18-.12-.22a7.24,7.24,0,0,0-.93-.63A3.75,3.75,0,0,0,31.15,19.63Z"/><path d="M37,16.87a1.24,1.24,0,0,0-.31-.1c-.1,0-.14.07-.09.15a.67.67,0,0,0,.14.15c.19.17.39.32.56.5A3.86,3.86,0,0,1,38,18.83c.08.18.17.36.25.53h.08c0-.11,0-.22,0-.32a2.45,2.45,0,0,0-.46-1.28A2.22,2.22,0,0,0,37,16.87Z"/><path d="M34.7,19.52a.92.92,0,0,0,.08-.27,13.87,13.87,0,0,1,.34-2,5.05,5.05,0,0,0,.08-.68c0-.05-.06-.1-.09-.15a.45.45,0,0,0-.11.13c-.07.23-.12.48-.21.71a7.94,7.94,0,0,0-.37,1.94,2.06,2.06,0,0,0,.07.34.15.15,0,0,0,.1.09A.13.13,0,0,0,34.7,19.52Z"/><path d="M33.48,29a1.75,1.75,0,0,0,.16-.42s0-.1,0-.15l-.12.09c0,.05-.08.11-.13.16a3.14,3.14,0,0,1-1.22.85l-.43.2c-.09.05-.16.13-.12.24s.13.14.24.14L32,30A2.6,2.6,0,0,0,33.48,29Z"/><path d="M34.62,26.73a.4.4,0,0,0-.13.16s0,.12,0,.15a.17.17,0,0,0,.15,0,.93.93,0,0,0,.27-.12,1.84,1.84,0,0,0,.58-.8,3.64,3.64,0,0,0,.16-2,.79.79,0,0,0-.08-.16h0a1,1,0,0,0,0,.17,4.41,4.41,0,0,1-.15,1.3A2,2,0,0,1,34.62,26.73Z"/><path d="M37.74,28.42s-.11.08-.12.13l-.21,1.28c-.06.42-.12.84-.17,1.25,0,.19,0,.38-.05.57,0,0,0,.06,0,.09s.07,0,.08-.06a2,2,0,0,0,.09-.26A12.42,12.42,0,0,0,37.84,29l0-.31a.41.41,0,0,0,0-.15C37.83,28.49,37.78,28.46,37.74,28.42Z"/><path d="M38.1,30.23a1.42,1.42,0,0,0,.11-.33,4.5,4.5,0,0,1,.15-.73,2.55,2.55,0,0,0,.1-.91.33.33,0,0,0-.05-.16c0-.1-.13-.11-.23,0l-.08,0a2.77,2.77,0,0,1,0,.41c0,.42-.1.83-.14,1.25,0,.14,0,.29,0,.43a.75.75,0,0,0,.07.12S38.09,30.27,38.1,30.23Z"/><path d="M43.15,32.39a.94.94,0,0,0,0-.17l-.32.22a.64.64,0,0,1-.83,0s-.15,0-.22,0a.17.17,0,0,0-.08.21A.44.44,0,0,0,42,33,.91.91,0,0,0,43.15,32.39Z"/><path d="M36.74,17.63c-.09,0-.2-.08-.27,0s0,.17.09.24l.55.63a1.09,1.09,0,0,0,.26.22c.14.08.2,0,.2-.16a.24.24,0,0,0,0-.1A1.64,1.64,0,0,0,36.74,17.63Z"/><path d="M36,33.29a.61.61,0,0,0-.13,0l-.07.06c-.24.28-.49.55-.73.82a1,1,0,0,0-.12.17c-.08.13,0,.26.18.26a.38.38,0,0,0,.13-.08A5.5,5.5,0,0,0,36,33.42S36,33.34,36,33.29Z"/><path d="M34.46,25.65c.1,0,.16-.08.17-.24s0-.18-.05-.29a1.65,1.65,0,0,0-.61-.94c-.06,0-.13-.08-.19,0s0,.12,0,.17a1.53,1.53,0,0,1,.46,1.12C34.28,25.58,34.35,25.66,34.46,25.65Z"/><path d="M36.14,25.21c-.1,0-.09.1-.12.17l-.13.34a3.52,3.52,0,0,0-.15.42.6.6,0,0,0,.06.22l.2-.1s0,0,0-.05a2.26,2.26,0,0,0,.2-.85S36.19,25.22,36.14,25.21Z"/><path d="M33.45,24.58c0,.05,0,.11,0,.14a1.74,1.74,0,0,1,.3.61c0,.07.1.12.13.15s.27-.12.23-.25a1.19,1.19,0,0,0-.52-.65S33.5,24.58,33.45,24.58Z"/><path d="M36.19,38.23s-.15,0-.18,0a5.12,5.12,0,0,0-.4.52c-.06.09,0,.19.14.19a.11.11,0,0,0,.07,0c.14-.18.28-.35.41-.53S36.22,38.26,36.19,38.23Z"/><path d="M45.73,58.35c0,.11.08.18.18.16s.13-.09.13-.2c0-.32,0-.64,0-.93h.8c.13,0,.2-.06.21-.16s-.07-.17-.21-.16l-.85,0c0-.17,0-.36-.07-.55s-.08-.44-.13-.66c0,0-.07-.07-.11-.1s-.09.07-.1.12a.88.88,0,0,0,0,.28C45.58,56.91,45.66,57.63,45.73,58.35Z"/><path d="M44.58,57.63h.53a.23.23,0,0,0,.21-.23c0-.1-.06-.17-.19-.18h-.4a1,1,0,0,0-.29.08.18.18,0,0,0-.08.25A.15.15,0,0,0,44.58,57.63Z"/></g></svg>